<svg width="1240" height="180" viewBox="0 0 1240 180" fill="none" xmlns="http://www.w3.org/2000/svg">
<g clip-path="url(#clip0_1047_17696)">
<rect width="1240" height="180" fill="#B89635" fill-opacity="0.17"/>
<g opacity="0.1">
<path d="M1346.04 88.6065C1353.05 56.9562 1330.53 24.8916 1295.84 17.1647C1261.14 9.43786 1227.21 28.9044 1220.2 60.5548C1213.17 92.1995 1235.72 124.247 1270.38 131.991C1305.08 139.718 1339.01 120.251 1346.04 88.6065ZM1237.26 64.353C1242.36 41.2902 1267.08 27.1198 1292.39 32.7517C1317.66 38.4007 1334.06 61.7172 1328.96 84.78C1323.84 107.837 1299.13 122.059 1273.83 116.404C1248.58 110.783 1232.16 87.4158 1237.26 64.353Z" fill="#B89635" fill-opacity="0.83"/>
<path d="M1183.93 52.4937C1172.87 102.363 1208.39 152.86 1263.08 165.054C1266.19 165.741 1269.31 166.287 1272.38 166.701C1273.03 165.919 1273.69 165.21 1274.36 164.455C1274.65 164.115 1274.97 163.758 1275.28 163.423C1276.72 161.818 1278.18 160.242 1279.68 158.676C1280.61 157.718 1281.58 156.793 1282.5 155.835L1283.81 154.582C1284.82 153.618 1285.8 152.625 1286.83 151.667C1280.18 151.699 1273.38 150.983 1266.58 149.456C1221.28 139.379 1191.9 97.5622 1201.05 56.2806C1202.41 50.0753 1204.59 44.1991 1207.47 38.7712C1206.18 39.1907 1204.86 39.5593 1203.52 39.9447C1202.76 40.1771 1201.98 40.3812 1201.17 40.6022C1199.94 40.9423 1198.71 41.2824 1197.48 41.6225C1195.23 42.2063 1192.93 42.7561 1190.64 43.2605C1190.26 43.3399 1189.9 43.4248 1189.54 43.5098C1188.44 43.7365 1187.36 43.9916 1186.24 44.1899C1185.34 46.8954 1184.6 49.6634 1183.96 52.4994L1183.93 52.4937Z" fill="#B89635" fill-opacity="0.83"/>
<path d="M1251.8 197.185C1254.4 192.217 1257.24 187.447 1260.29 182.773C1259.94 182.694 1259.57 182.631 1259.19 182.546C1193.92 168.007 1151.55 107.735 1164.73 48.2065C1164.81 47.8661 1164.91 47.5315 1164.99 47.2138C1159.06 47.7232 1153.03 48.017 1146.98 48.0215C1134.58 113.767 1180.66 179.326 1251.8 197.185Z" fill="#B89635" fill-opacity="0.83"/>
<path d="M1109.77 44.9005C1096.84 125.565 1152.81 205.147 1239.12 228.903C1239.58 227.338 1240.06 225.8 1240.55 224.263C1241.67 220.724 1242.86 217.202 1244.22 213.765C1165.83 192.58 1115.04 120.265 1127.12 47.1899C1123.36 46.8318 1119.58 46.4 1115.78 45.8433C1113.78 45.5537 1111.78 45.264 1109.76 44.9232L1109.77 44.9005Z" fill="#B89635" fill-opacity="0.83"/>
<path d="M912.625 -14.8862C991.011 6.32108 1041.83 78.6195 1029.73 151.688C1033.52 152.029 1037.31 152.512 1041.11 153.069C1043.09 153.353 1045.07 153.614 1047.05 153.972C1059.97 73.3308 1004.02 -6.29733 917.701 -30.0303C917.166 -28.0281 916.542 -26.0939 915.893 -24.1655C914.89 -21.0288 913.787 -17.9149 912.631 -14.9088L912.625 -14.8862Z" fill="#B89635" fill-opacity="0.83"/>
<path d="M936.652 138.323C943.66 106.672 921.138 74.6077 886.444 66.8808C851.751 59.1539 817.818 78.6205 810.81 110.271C803.776 141.916 826.329 173.963 860.992 181.707C895.685 189.434 929.619 169.967 936.652 138.323ZM827.87 114.069C832.972 91.0062 857.69 76.8359 882.995 82.4678C908.269 88.1167 924.674 111.433 919.571 134.496C914.444 157.553 889.742 171.775 864.442 166.12C839.187 160.499 822.768 137.132 827.87 114.069Z" fill="#B89635" fill-opacity="0.83"/>
<path d="M955.852 142.61C954.489 148.815 952.292 154.663 949.431 160.096C950.785 159.665 952.179 159.291 953.578 158.895C954.222 158.707 954.867 158.52 955.512 158.333C956.826 157.965 958.145 157.574 959.478 157.234C961.671 156.684 963.919 156.123 966.176 155.635C966.596 155.516 967.035 155.426 967.475 155.335C968.538 155.148 969.567 154.882 970.611 154.666C971.515 151.961 972.301 149.204 972.948 146.368C984.011 96.4762 948.498 45.9797 893.779 33.8017C890.694 33.0978 887.598 32.5583 884.496 32.1606C883.842 32.966 883.112 33.7543 882.408 34.5483C882.196 34.7865 881.975 35.0701 881.733 35.3253C880.224 37.0097 878.7 38.6429 877.126 40.2649C876.307 41.1043 875.487 41.9437 874.643 42.7773C874.04 43.3558 873.437 43.9343 872.829 44.5354C871.919 45.4258 871.034 46.3219 870.075 47.2009C876.73 47.1682 883.533 47.8615 890.334 49.366C935.64 59.4433 965.02 101.26 955.857 142.587L955.852 142.61Z" fill="#B89635" fill-opacity="0.83"/>
<path d="M992.095 150.666C992.017 151.006 991.939 151.346 991.867 151.664C997.793 151.155 1003.83 150.861 1009.88 150.834C1022.28 85.1106 976.171 19.5462 905.049 1.71546C902.456 6.66124 899.61 11.4538 896.555 16.1272C896.933 16.1897 897.287 16.2465 897.66 16.3316C962.912 30.8656 1005.33 91.1484 992.114 150.694L992.095 150.666Z" fill="#B89635" fill-opacity="0.83"/>
<path d="M774.538 102.232C763.479 152.101 798.992 202.598 853.682 214.793C856.796 215.48 859.917 216.025 862.989 216.439C863.639 215.657 864.298 214.948 864.967 214.194C865.254 213.853 865.571 213.496 865.883 213.161C867.322 211.556 868.78 209.98 870.289 208.415C871.214 207.456 872.184 206.532 873.109 205.573L874.415 204.32C875.42 203.356 876.406 202.363 877.435 201.405C870.781 201.438 863.983 200.722 857.186 199.194C811.88 189.117 782.501 147.3 791.653 106.019C793.016 99.8135 795.193 93.9374 798.08 88.5095C796.78 88.929 795.466 89.2975 794.122 89.6829C793.363 89.9153 792.583 90.1194 791.774 90.3405C790.545 90.6806 789.316 91.0207 788.087 91.3608C785.834 91.9446 783.536 92.4943 781.249 92.9987C780.865 93.0781 780.505 93.163 780.145 93.2481C779.047 93.4747 777.968 93.7298 776.85 93.9281C775.945 96.6337 775.209 99.4017 774.563 102.238L774.538 102.232Z" fill="#B89635" fill-opacity="0.83"/>
<path d="M842.405 246.924C845.003 241.956 847.844 237.186 850.899 232.513C850.551 232.433 850.172 232.371 849.799 232.285C784.522 217.746 742.157 157.474 755.34 97.9457C755.417 97.6053 755.52 97.2707 755.592 96.9531C749.666 97.4625 743.632 97.7562 737.586 97.7607C725.184 163.507 771.264 229.065 842.405 246.924Z" fill="#B89635" fill-opacity="0.83"/>
<path d="M700.402 94.6446C687.477 175.309 743.444 254.891 829.754 278.647C830.216 277.082 830.697 275.544 831.178 274.007C832.299 270.468 833.495 266.946 834.855 263.509C756.464 242.324 705.671 170.009 717.755 96.9339C713.989 96.5758 710.215 96.144 706.416 95.5873C704.415 95.2977 702.413 95.008 700.397 94.6673L700.402 94.6446Z" fill="#B89635" fill-opacity="0.83"/>
<path d="M681.549 165.144C626.884 152.955 573.407 183.643 562.344 233.535C561.722 236.377 561.255 239.23 560.927 242.044C561.804 242.673 562.601 243.309 563.448 243.956C563.83 244.234 564.231 244.54 564.608 244.841C566.41 246.231 568.183 247.638 569.945 249.09C571.025 249.981 572.069 250.912 573.148 251.802L574.563 253.056C575.652 254.021 576.77 254.968 577.854 255.956C577.551 249.824 578.056 243.59 579.444 237.39C588.582 196.058 632.867 170.671 678.118 180.76C684.92 182.264 691.396 184.506 697.414 187.383C696.905 186.169 696.452 184.944 695.979 183.69C695.696 182.981 695.443 182.255 695.17 181.5C694.751 180.355 694.332 179.209 693.912 178.063C693.187 175.964 692.497 173.825 691.857 171.698C691.755 171.341 691.648 171.006 691.542 170.671C691.251 169.65 690.93 168.646 690.67 167.608C687.692 166.666 684.653 165.877 681.543 165.167L681.549 165.144Z" fill="#B89635" fill-opacity="0.83"/>
<path d="M526.958 221.854C532.464 224.447 537.764 227.256 542.968 230.258C543.041 229.94 543.093 229.594 543.171 229.254C556.358 169.702 620.188 133.094 685.44 147.628C685.813 147.713 686.181 147.821 686.529 147.901C685.738 142.421 685.176 136.851 684.928 131.28C612.948 117.216 543.519 157.033 526.958 221.854Z" fill="#B89635" fill-opacity="0.83"/>
<path d="M686.827 97.1278C598.605 81.9823 514.326 130.345 491.962 208.903C493.683 209.391 495.373 209.896 497.064 210.402C500.957 211.577 504.835 212.819 508.626 214.21C528.512 142.844 605.098 98.9552 685.034 113.021C685.272 109.567 685.59 106.107 686.043 102.63C686.277 100.798 686.512 98.9655 686.802 97.1221L686.827 97.1278Z" fill="#B89635" fill-opacity="0.83"/>
<path d="M442.392 212.125C422.481 283.485 345.915 327.402 265.985 313.314C265.766 316.796 265.393 320.268 264.941 323.745C264.711 325.554 264.507 327.369 264.197 329.185C352.394 344.324 436.723 295.973 459.062 217.409C456.863 216.836 454.735 216.183 452.612 215.508C449.162 214.458 445.732 213.317 442.417 212.131L442.392 212.125Z" fill="#B89635" fill-opacity="0.83"/>
<path d="M276.75 228.123C311.443 235.849 345.401 216.388 352.41 184.738C359.418 153.088 336.89 121.046 302.197 113.319C267.509 105.569 233.57 125.059 226.543 156.681C219.534 188.331 242.062 220.373 276.75 228.123ZM298.752 128.883C324.032 134.51 340.431 157.849 335.324 180.934C330.197 203.991 305.504 218.168 280.225 212.541C254.95 206.892 238.496 183.564 243.628 160.485C248.725 137.444 273.472 123.257 298.752 128.883Z" fill="#B89635" fill-opacity="0.83"/>
<path d="M272.89 245.621C266.088 244.116 259.642 241.857 253.62 239.003C254.142 240.268 254.605 241.567 255.093 242.872C255.322 243.473 255.551 244.074 255.78 244.676C256.234 245.901 256.712 247.132 257.135 248.374C257.821 250.416 258.522 252.51 259.142 254.609C259.288 255 259.405 255.408 259.521 255.817C259.767 256.804 260.098 257.763 260.374 258.733C263.352 259.675 266.38 260.509 269.49 261.219C324.179 273.414 377.656 242.726 388.7 192.805C389.341 189.992 389.803 187.162 390.111 184.32C389.209 183.684 388.323 182.981 387.431 182.3C387.164 182.096 386.847 181.88 386.559 181.647C384.668 180.189 382.83 178.72 381.004 177.205C380.058 176.416 379.113 175.628 378.172 174.816C377.519 174.238 376.866 173.659 376.188 173.074C375.184 172.201 374.174 171.35 373.18 170.43C373.482 176.562 373.002 182.802 371.639 189.007C362.501 230.34 318.215 255.726 272.915 245.626L272.89 245.621Z" fill="#B89635" fill-opacity="0.83"/>
<path d="M265.556 278.701C265.183 278.616 264.81 278.531 264.462 278.451C265.254 283.931 265.815 289.501 266.088 295.077C338.043 309.136 407.477 269.295 424.009 204.492C418.527 201.904 413.202 199.09 407.998 196.088C407.946 196.434 407.898 196.758 407.82 197.098C394.638 256.627 330.798 293.28 265.526 278.718L265.556 278.701Z" fill="#B89635" fill-opacity="0.83"/>
<path d="M309.506 80.2336C254.841 68.0443 201.364 98.7326 190.301 148.624C189.679 151.466 189.212 154.319 188.884 157.133C189.761 157.763 190.559 158.398 191.406 159.045C191.787 159.323 192.188 159.629 192.565 159.93C194.367 161.32 196.14 162.727 197.903 164.18C198.982 165.07 200.026 166.001 201.105 166.892L202.52 168.145C203.609 169.11 204.727 170.057 205.811 171.045C205.508 164.913 206.014 158.679 207.401 152.479C216.539 111.147 260.825 85.7602 306.076 95.8489C312.877 97.3534 319.353 99.5952 325.371 102.472C324.862 101.258 324.409 100.033 323.936 98.7793C323.653 98.0702 323.4 97.3441 323.127 96.5896C322.708 95.4437 322.289 94.2978 321.869 93.1519C321.144 91.053 320.454 88.9143 319.814 86.7871C319.712 86.4297 319.605 86.095 319.499 85.7603C319.208 84.7393 318.887 83.7352 318.627 82.6971C315.649 81.755 312.61 80.9658 309.501 80.2562L309.506 80.2336Z" fill="#B89635" fill-opacity="0.83"/>
<path d="M154.911 136.944C160.418 139.537 165.718 142.346 170.922 145.348C170.994 145.03 171.047 144.684 171.125 144.344C184.312 84.7925 248.142 48.1842 313.394 62.7182C313.767 62.8034 314.135 62.9112 314.483 62.9907C313.691 57.5111 313.13 51.9407 312.882 46.3704C240.902 32.3059 171.473 72.1236 154.911 136.944Z" fill="#B89635" fill-opacity="0.83"/>
<path d="M314.778 12.2405C226.557 -2.90489 142.277 45.4582 119.914 124.016C121.635 124.504 123.325 125.009 125.016 125.514C128.909 126.689 132.787 127.932 136.578 129.323C156.464 57.9572 233.05 14.0681 312.986 28.1342C313.224 24.6797 313.542 21.2196 313.995 17.7426C314.229 15.9105 314.464 14.0783 314.753 12.2349L314.778 12.2405Z" fill="#B89635" fill-opacity="0.83"/>
<path d="M480.387 190.795C402.001 169.588 351.178 97.2892 363.287 24.2203C359.492 23.8792 355.702 23.3963 351.904 22.8397C349.927 22.5557 347.945 22.2944 345.96 21.9366C333.04 102.578 388.996 182.206 475.311 205.939C475.846 203.937 476.47 202.003 477.119 200.074C478.123 196.938 479.225 193.824 480.382 190.818L480.387 190.795Z" fill="#B89635" fill-opacity="0.83"/>
<path d="M456.339 37.5797C449.331 69.23 471.853 101.295 506.547 109.021C541.24 116.748 575.173 97.2818 582.181 65.6314C589.214 33.9867 566.662 1.93915 531.999 -5.80473C497.305 -13.5316 463.372 5.93497 456.339 37.5797ZM565.121 61.8333C560.018 84.8961 535.301 99.0664 509.996 93.4345C484.722 87.7855 468.317 64.469 473.419 41.4062C478.547 18.3491 503.249 4.12758 528.549 9.7822C553.804 15.4028 570.223 38.7705 565.121 61.8333Z" fill="#B89635" fill-opacity="0.83"/>
<path d="M437.167 33.2996C438.53 27.0943 440.727 21.2465 443.589 15.8129C442.234 16.2438 440.84 16.6179 439.441 17.0146C438.797 17.2017 438.152 17.3887 437.508 17.5758C436.194 17.9442 434.874 18.3354 433.541 18.6755C431.348 19.2253 429.1 19.7864 426.843 20.2738C426.423 20.3928 425.984 20.4835 425.544 20.5742C424.481 20.7612 423.452 21.0275 422.409 21.2429C421.504 23.9484 420.718 26.7051 420.071 29.5411C409.008 79.433 444.521 129.93 499.24 142.107C502.325 142.811 505.421 143.351 508.523 143.749C509.178 142.943 509.907 142.155 510.611 141.361C510.823 141.123 511.044 140.839 511.286 140.584C512.795 138.9 514.319 137.266 515.893 135.644C516.713 134.805 517.532 133.966 518.376 133.132C518.979 132.553 519.582 131.975 520.19 131.374C521.1 130.483 521.985 129.587 522.944 128.708C516.29 128.741 509.486 128.048 502.685 126.543C457.379 116.466 428 74.6492 437.162 33.3222L437.167 33.2996Z" fill="#B89635" fill-opacity="0.83"/>
<path d="M400.896 25.2373C400.974 24.897 401.052 24.5566 401.124 24.239C395.198 24.7483 389.164 25.0421 383.113 25.0693C370.716 90.7925 416.82 156.357 487.942 174.188C490.535 169.242 493.381 164.449 496.436 159.776C496.058 159.713 495.704 159.657 495.331 159.571C430.079 145.037 387.664 84.7547 400.877 25.2089L400.896 25.2373Z" fill="#B89635" fill-opacity="0.83"/>
<path d="M618.446 73.6936C629.504 23.8244 593.991 -26.6722 539.302 -38.8671C536.187 -39.554 533.066 -40.0992 529.994 -40.5139C529.345 -39.7313 528.686 -39.0223 528.017 -38.268C527.73 -37.9278 527.413 -37.5705 527.101 -37.2359C525.662 -35.6309 524.203 -34.0543 522.695 -32.489C521.77 -31.5305 520.8 -30.6061 519.875 -29.6476L518.568 -28.3943C517.563 -27.4302 516.578 -26.4378 515.548 -25.4794C522.203 -25.5121 529.001 -24.796 535.797 -23.2688C581.103 -13.1915 610.483 28.6251 601.33 69.9067C599.968 76.112 597.79 81.9882 594.904 87.4161C596.203 86.9966 597.517 86.6281 598.861 86.2427C599.621 86.0103 600.4 85.8062 601.21 85.5852C602.439 85.2451 603.668 84.9049 604.897 84.5648C607.15 83.981 609.447 83.4312 611.734 82.9268C612.119 82.8475 612.478 82.7625 612.838 82.6775C613.937 82.4508 615.015 82.1957 616.134 81.9974C617.039 79.2919 617.774 76.524 618.421 73.6879L618.446 73.6936Z" fill="#B89635" fill-opacity="0.83"/>
<path d="M550.581 -70.9982C547.983 -66.0297 545.141 -61.2598 542.087 -56.5864C542.435 -56.5069 542.813 -56.4444 543.186 -56.3593C608.463 -41.8196 650.828 18.4518 637.646 77.9806C637.568 78.3209 637.466 78.6556 637.394 78.9732C643.319 78.4638 649.353 78.1701 655.4 78.1656C667.802 12.4197 621.722 -53.139 550.581 -70.9982Z" fill="#B89635" fill-opacity="0.83"/>
<path d="M692.611 81.2866C705.536 0.62261 649.57 -78.9601 563.26 -102.716C562.798 -101.15 562.317 -99.6132 561.836 -98.0761C560.715 -94.5368 559.519 -91.0145 558.159 -87.5773C636.55 -66.3928 687.343 5.92266 675.259 78.9972C679.025 79.3553 682.799 79.7872 686.598 80.3438C688.599 80.6335 690.601 80.9232 692.617 81.2639L692.611 81.2866Z" fill="#B89635" fill-opacity="0.83"/>
<path d="M102.336 165.166C99.7379 170.134 96.8968 174.904 93.8421 179.578C94.1904 179.657 94.5686 179.719 94.9418 179.805C160.219 194.344 202.584 254.616 189.401 314.144C189.324 314.485 189.221 314.819 189.149 315.137C195.075 314.628 201.109 314.334 207.155 314.329C219.557 248.584 173.478 183.025 102.336 165.166Z" fill="#B89635" fill-opacity="0.83"/>
<path d="M244.367 317.451C257.292 236.787 201.325 157.205 115.015 133.449C114.554 135.014 114.072 136.552 113.591 138.089C112.47 141.628 111.274 145.15 109.914 148.588C188.305 169.772 239.099 242.087 227.015 315.162C230.78 315.52 234.555 315.952 238.353 316.509C240.355 316.798 242.356 317.088 244.372 317.429L244.367 317.451Z" fill="#B89635" fill-opacity="0.83"/>
<path d="M882.501 290.156C888.008 292.75 893.308 295.559 898.512 298.56C898.584 298.243 898.637 297.897 898.714 297.556C911.902 238.005 975.731 201.397 1040.98 215.931C1041.36 216.016 1041.72 216.124 1042.07 216.203C1041.28 210.723 1040.72 205.153 1040.47 199.583C968.492 185.518 899.063 225.336 882.501 290.156Z" fill="#B89635" fill-opacity="0.83"/>
<path d="M1042.37 165.452C954.147 150.307 869.867 198.67 847.504 277.228C849.224 277.716 850.915 278.221 852.606 278.726C856.499 279.901 860.376 281.144 864.168 282.535C884.054 211.169 960.64 167.28 1040.58 181.346C1040.81 177.891 1041.13 174.431 1041.58 170.954C1041.82 169.122 1042.05 167.29 1042.34 165.447L1042.37 165.452Z" fill="#B89635" fill-opacity="0.83"/>
<path d="M1126.58 -153.46C1113.65 -72.7955 1169.62 6.78723 1255.93 30.5429C1256.39 28.9774 1256.87 27.4403 1257.35 25.9032C1258.47 22.3639 1259.67 18.8416 1261.03 15.4044C1182.64 -5.78019 1131.85 -78.0956 1143.93 -151.17C1140.16 -151.528 1136.39 -151.96 1132.59 -152.517C1130.59 -152.806 1128.59 -153.096 1126.57 -153.437L1126.58 -153.46Z" fill="#B89635" fill-opacity="0.83"/>
<path d="M884.397 -28.3526C864.486 43.0074 787.92 86.9248 707.989 72.836C707.771 76.3188 707.398 79.7902 706.945 83.2673C706.716 85.0767 706.511 86.8919 706.202 88.707C794.398 103.847 878.728 55.4951 901.066 -23.0683C898.868 -23.6417 896.74 -24.2945 894.617 -24.9699C891.167 -26.02 887.737 -27.1608 884.422 -28.347L884.397 -28.3526Z" fill="#B89635" fill-opacity="0.83"/>
<path d="M718.778 -12.3489C753.472 -4.62207 787.43 -24.083 794.438 -55.7333C801.446 -87.3837 778.919 -119.426 744.225 -127.152C709.537 -134.902 675.599 -115.413 668.571 -83.7907C661.563 -52.1404 684.09 -20.0985 718.778 -12.3489ZM740.781 -111.588C766.061 -105.962 782.46 -82.6226 777.352 -59.5371C772.225 -36.48 747.533 -22.3039 722.253 -27.9302C696.978 -33.5791 680.524 -56.9071 685.656 -79.9869C690.753 -103.027 715.501 -117.214 740.781 -111.588Z" fill="#B89635" fill-opacity="0.83"/>
<path d="M714.897 5.14378C708.095 3.63927 701.649 1.38043 695.626 -1.47394C696.149 -0.208904 696.612 1.09013 697.1 2.39486C697.329 2.99618 697.558 3.59749 697.787 4.1988C698.241 5.42412 698.719 6.65514 699.142 7.89747C699.828 9.93965 700.528 12.0328 701.149 14.1317C701.295 14.5232 701.411 14.9316 701.528 15.34C701.774 16.3271 702.105 17.2858 702.381 18.2558C705.359 19.198 708.387 20.0324 711.497 20.7421C766.186 32.937 819.663 2.24866 830.706 -47.6716C831.348 -50.4849 831.81 -53.3153 832.118 -56.1571C831.216 -56.7926 830.33 -57.4961 829.438 -58.177C829.171 -58.3813 828.854 -58.5969 828.566 -58.8295C826.674 -60.2877 824.837 -61.7571 823.011 -63.272C822.065 -64.0606 821.12 -64.8493 820.179 -65.6607C819.526 -66.2394 818.873 -66.8181 818.195 -67.4025C817.19 -68.2762 816.181 -69.1272 815.186 -70.0463C815.489 -63.9144 815.009 -57.675 813.646 -51.4697C804.508 -10.137 760.222 15.2494 714.922 5.14946L714.897 5.14378Z" fill="#B89635" fill-opacity="0.83"/>
<path d="M707.585 38.2292C707.212 38.1441 706.838 38.0589 706.49 37.9794C707.282 43.4591 707.844 49.0294 708.116 54.6054C780.072 68.6642 849.506 28.8239 866.037 -35.9795C860.555 -38.5672 855.23 -41.3818 850.027 -44.3834C849.974 -44.0374 849.926 -43.7141 849.849 -43.3738C836.666 16.155 772.827 52.8086 707.555 38.2463L707.585 38.2292Z" fill="#B89635" fill-opacity="0.83"/>
<path d="M520.908 -111.285C500.997 -39.925 424.431 3.99243 344.5 -10.0963C344.282 -6.61354 343.909 -3.14213 343.456 0.334931C343.227 2.14437 343.022 3.9595 342.713 5.77459C430.909 20.9143 515.239 -27.4374 537.577 -106.001C535.379 -106.574 533.251 -107.227 531.128 -107.902C527.677 -108.952 524.247 -110.093 520.933 -111.279L520.908 -111.285Z" fill="#B89635" fill-opacity="0.83"/>
<path d="M344.099 -44.7259C343.726 -44.811 343.353 -44.8962 343.005 -44.9757C343.797 -39.496 344.358 -33.9257 344.631 -28.3497C416.586 -14.2909 486.02 -54.1312 502.552 -118.935C497.07 -121.522 491.745 -124.337 486.541 -127.339C486.489 -126.993 486.441 -126.669 486.363 -126.329C473.181 -66.8001 409.341 -30.1465 344.069 -44.7088L344.099 -44.7259Z" fill="#B89635" fill-opacity="0.83"/>
<path d="M113.167 102.999C34.7816 81.7915 -16.0417 9.49313 -3.93268 -63.5758C-7.72812 -63.9169 -11.5174 -64.3998 -15.316 -64.9564C-17.2925 -65.2404 -19.2742 -65.5017 -21.2601 -65.8595C-34.18 14.7818 21.7761 94.41 108.091 118.143C108.626 116.141 109.251 114.207 109.9 112.278C110.903 109.141 112.006 106.028 113.162 103.021L113.167 102.999Z" fill="#B89635" fill-opacity="0.83"/>
<path d="M89.1233 -50.2386C82.1151 -18.5882 104.637 13.4763 139.331 21.2031C174.024 28.93 207.957 9.46352 214.965 -22.1868C221.999 -53.8315 199.446 -85.8791 164.783 -93.623C130.09 -101.35 96.1564 -81.8833 89.1233 -50.2386ZM197.905 -25.985C192.803 -2.92225 168.085 11.2482 142.78 5.61622C117.506 -0.0327133 101.101 -23.3493 106.204 -46.4121C111.331 -69.4692 136.034 -83.6907 161.333 -78.036C186.588 -72.4155 203.007 -49.0478 197.905 -25.985Z" fill="#B89635" fill-opacity="0.83"/>
<path d="M69.9435 -54.4967C71.3062 -60.702 73.5034 -66.5498 76.365 -71.9833C75.0106 -71.5525 73.6168 -71.1784 72.2178 -70.7816C71.5732 -70.5946 70.9286 -70.4075 70.284 -70.2204C68.97 -69.852 67.6508 -69.4608 66.3171 -69.1207C64.1243 -68.571 61.8765 -68.0098 59.6194 -67.5225C59.1997 -67.4034 58.7603 -67.3128 58.3209 -67.2221C57.2576 -67.0351 56.2285 -66.7687 55.1849 -66.5534C54.2801 -63.8478 53.4944 -61.0912 52.8477 -58.2552C41.7844 -8.3633 77.2973 42.1333 132.017 54.3112C135.101 55.0152 138.197 55.5547 141.299 55.9524C141.954 55.147 142.683 54.3587 143.388 53.5647C143.599 53.3265 143.821 53.0429 144.062 52.7877C145.572 51.1033 147.096 49.47 148.669 47.848C149.489 47.0086 150.308 46.1693 151.153 45.3356C151.756 44.7571 152.359 44.1787 152.967 43.5775C153.876 42.6871 154.761 41.7911 155.721 40.912C149.066 40.9448 142.263 40.2514 135.461 38.7469C90.1553 28.6696 60.7758 -13.147 69.9384 -54.474L69.9435 -54.4967Z" fill="#B89635" fill-opacity="0.83"/>
<path d="M33.6747 -62.5582C33.7523 -62.8986 33.8299 -63.2389 33.9023 -63.5565C27.9763 -63.0472 21.9425 -62.7534 15.8909 -62.7262C3.49423 2.99695 49.5984 68.5614 120.72 86.3922C123.313 81.4464 126.16 76.6538 129.214 71.9804C128.836 71.9179 128.482 71.8611 128.109 71.7759C62.8572 57.2419 20.4425 -3.04083 33.655 -62.5866L33.6747 -62.5582Z" fill="#B89635" fill-opacity="0.83"/>
<path d="M251.23 -14.1254C262.288 -63.9946 226.775 -114.491 172.086 -126.686C168.971 -127.373 165.851 -127.918 162.779 -128.333C162.129 -127.55 161.47 -126.841 160.801 -126.087C160.514 -125.747 160.197 -125.389 159.885 -125.055C158.446 -123.45 156.987 -121.873 155.479 -120.308C154.554 -119.349 153.584 -118.425 152.659 -117.467L151.352 -116.213C150.347 -115.249 149.362 -114.257 148.332 -113.298C154.987 -113.331 161.785 -112.615 168.581 -111.088C213.887 -101.01 243.267 -59.1938 234.115 -17.9121C232.752 -11.7069 230.574 -5.83077 227.688 -0.402894C228.987 -0.822394 230.301 -1.19083 231.646 -1.57628C232.405 -1.8087 233.184 -2.01276 233.994 -2.23382C235.223 -2.57392 236.452 -2.91401 237.681 -3.25412C239.934 -3.83793 242.231 -4.38769 244.519 -4.89208C244.903 -4.97142 245.263 -5.05642 245.622 -5.14143C246.721 -5.36811 247.8 -5.62317 248.918 -5.82148C249.823 -8.52702 250.559 -11.295 251.205 -14.1311L251.23 -14.1254Z" fill="#B89635" fill-opacity="0.83"/>
<path d="M1239.94 39.9729C1220.03 111.333 1143.46 155.25 1063.53 141.162C1063.31 144.644 1062.94 148.116 1062.49 151.593C1062.26 153.402 1062.05 155.217 1061.74 157.032C1149.94 172.172 1234.27 123.821 1256.61 45.2571C1254.41 44.6838 1252.28 44.0311 1250.16 43.3556C1246.71 42.3056 1243.28 41.1648 1239.96 39.9786L1239.94 39.9729Z" fill="#B89635" fill-opacity="0.83"/>
<path d="M1074.32 55.9757C1109.02 63.7025 1142.97 44.2416 1149.98 12.5913C1156.99 -19.0591 1134.46 -51.101 1099.77 -58.8278C1065.08 -66.5774 1031.14 -47.0881 1024.12 -15.4661C1017.11 16.1842 1039.64 48.2261 1074.32 55.9757ZM1096.33 -43.2635C1121.61 -37.6373 1138.01 -14.298 1132.9 8.78746C1127.77 31.8446 1103.08 46.0207 1077.8 40.3944C1052.52 34.7455 1036.07 11.4175 1041.2 -11.6624C1046.3 -34.7025 1071.05 -48.8898 1096.33 -43.2635Z" fill="#B89635" fill-opacity="0.83"/>
<path d="M1070.44 73.4689C1063.64 71.9644 1057.19 69.7055 1051.17 66.8511C1051.69 68.1162 1052.15 69.4153 1052.64 70.72C1052.87 71.3213 1053.1 71.9226 1053.33 72.524C1053.78 73.7493 1054.26 74.9802 1054.68 76.2226C1055.37 78.2647 1056.07 80.358 1056.69 82.4569C1056.84 82.8483 1056.95 83.2567 1057.07 83.6652C1057.32 84.6522 1057.65 85.611 1057.92 86.581C1060.9 87.5232 1063.93 88.3576 1067.04 89.0672C1121.73 101.262 1175.2 70.5738 1186.25 20.6536C1186.89 17.8402 1187.35 15.0098 1187.66 12.168C1186.76 11.5325 1185.87 10.829 1184.98 10.1482C1184.71 9.9439 1184.4 9.72827 1184.11 9.49565C1182.22 8.03749 1180.38 6.56801 1178.55 5.05314C1177.61 4.26449 1176.66 3.47584 1175.72 2.66451C1175.07 2.0858 1174.41 1.50705 1173.74 0.922668C1172.73 0.0489292 1171.72 -0.802141 1170.73 -1.72126C1171.03 4.41062 1170.55 10.6502 1169.19 16.8555C1160.05 58.1881 1115.76 83.5746 1070.46 73.4746L1070.44 73.4689Z" fill="#B89635" fill-opacity="0.83"/>
<path d="M1063.13 106.555C1062.75 106.469 1062.38 106.384 1062.03 106.305C1062.82 111.785 1063.39 117.355 1063.66 122.931C1135.61 136.99 1205.05 97.1493 1221.58 32.3458C1216.1 29.7582 1210.77 26.9437 1205.57 23.942C1205.52 24.288 1205.47 24.6113 1205.39 24.9516C1192.21 84.4804 1128.37 121.134 1063.1 106.572L1063.13 106.555Z" fill="#B89635" fill-opacity="0.83"/>
<path d="M1107.08 -91.9131C1052.41 -104.102 998.934 -73.414 987.871 -23.5221C987.249 -20.6804 986.782 -17.8273 986.454 -15.0139C987.331 -14.3841 988.128 -13.7486 988.975 -13.1018C989.357 -12.8238 989.758 -12.5174 990.134 -12.2167C991.937 -10.8266 993.71 -9.41951 995.472 -7.96704C996.552 -7.07627 997.596 -6.14583 998.675 -5.25506L1000.09 -4.00115C1001.18 -3.03663 1002.3 -2.08916 1003.38 -1.10196C1003.08 -7.23383 1003.58 -13.4676 1004.97 -19.6672C1014.11 -60.9999 1058.39 -86.3864 1103.65 -76.2977C1110.45 -74.7932 1116.92 -72.5514 1122.94 -69.6744C1122.43 -70.8883 1121.98 -72.1137 1121.51 -73.3673C1121.22 -74.0764 1120.97 -74.8025 1120.7 -75.557C1120.28 -76.7029 1119.86 -77.8487 1119.44 -78.9946C1118.71 -81.0936 1118.02 -83.2322 1117.38 -85.3594C1117.28 -85.7168 1117.18 -86.0516 1117.07 -86.3863C1116.78 -87.4074 1116.46 -88.4114 1116.2 -89.4495C1113.22 -90.3917 1110.18 -91.1807 1107.07 -91.8904L1107.08 -91.9131Z" fill="#B89635" fill-opacity="0.83"/>
<path d="M952.487 -35.2026C957.993 -32.6092 963.294 -29.8004 968.497 -26.7987C968.57 -27.1163 968.623 -27.4623 968.7 -27.8027C981.888 -87.3541 1045.72 -123.962 1110.97 -109.428C1111.34 -109.343 1111.71 -109.235 1112.06 -109.156C1111.27 -114.636 1110.71 -120.206 1110.46 -125.776C1038.48 -139.841 969.048 -100.023 952.487 -35.2026Z" fill="#B89635" fill-opacity="0.83"/>
</g>
</g>
<defs>
<clipPath id="clip0_1047_17696">
<rect width="1240" height="180" fill="white"/>
</clipPath>
</defs>
</svg>
