<svg width="108" height="107" viewBox="0 0 108 107" fill="none" xmlns="http://www.w3.org/2000/svg">
<g clip-path="url(#clip0_548_10406)">
<path d="M14.7094 56.6646C14.5844 56.6743 14.4594 56.6839 14.3344 56.6935V56.6743C8.59435 56.9627 2.21967 59.2895 0.440918 55.6743C1.24857 58.1261 3.24847 64.2893 4.94069 69.7794C6.59445 75.1733 7.81555 80.5577 9.42123 81.7211C14.3537 85.3074 24.257 81.9903 30.1125 86.2401C35.6603 90.2687 34.4007 103.999 39.4966 104.605C44.756 105.229 44.2272 97.4895 45.9482 91.4225C47.4193 86.2401 49.525 79.9039 54.6016 72.385C52.8037 69.9717 50.0346 66.9911 45.8713 63.9624C42.7849 61.7221 39.1217 60.1164 35.3526 58.9915C26.7088 56.5108 20.0745 56.4531 14.7094 56.655" fill="#ABE1FA"/>
<mask id="mask0_548_10406" style="mask-type:luminance" maskUnits="userSpaceOnUse" x="0" y="55" width="55" height="50">
<path d="M4.94069 69.7989C6.59445 75.1929 7.81555 80.5772 9.41162 81.7406C14.3441 85.3173 24.2474 82.0098 30.1029 86.2596C35.6507 90.2882 34.3911 104.018 39.487 104.624C44.756 105.249 44.2176 97.509 45.9386 91.442C47.4097 86.2596 49.5154 79.9138 54.592 72.4142C52.794 70.0008 50.025 67.0202 45.8617 63.9915C42.7849 61.7512 39.112 60.1455 35.343 59.0206C26.7088 56.54 20.0649 56.4823 14.7094 56.6842C14.5844 56.6938 14.4594 56.7034 14.3344 56.713V56.6938C8.59435 56.9822 2.21967 59.309 0.440918 55.6938C1.23895 58.1456 3.24847 64.3088 4.94069 69.7989Z" fill="white"/>
</mask>
<g mask="url(#mask0_548_10406)">
<path d="M14.5557 71.0295V76.51L15.8825 77.8368H16.5075V69.7026H15.8825L14.5557 71.0295Z" fill="#006594"/>
<path d="M20.5266 103.816H16.7576V111.941H20.5266V103.816Z" fill="#006594"/>
<path d="M14.5557 79.5573V85.0378L15.8825 86.3647H16.5075V78.2305H15.8825L14.5557 79.5573Z" fill="#006594"/>
<path d="M12.2583 95.2876V103.422H12.8352L14.1621 102.095V96.6145L12.8352 95.2876H12.2583Z" fill="#006594"/>
<path d="M14.5557 53.9724V59.4529L15.8825 60.7797H16.5075V52.6455H15.8825L14.5557 53.9724Z" fill="#006594"/>
<path d="M16.7576 86.3647H20.5266V78.2305H16.7576V86.3647Z" fill="#006594"/>
<path d="M20.5266 95.2876H16.7576V103.422H20.5266V95.2876Z" fill="#006594"/>
<path d="M16.7576 77.8368H20.5266V69.7026H16.7576V77.8368Z" fill="#006594"/>
<path d="M20.5266 86.7593H16.7576V94.8935H20.5266V86.7593Z" fill="#006594"/>
<path d="M12.2583 86.7593V94.8839H12.8352L14.1621 93.5666V88.0861L12.8352 86.7593H12.2583Z" fill="#006594"/>
<path d="M14.5557 88.0861V93.5666L15.8825 94.8935H16.5075V86.7593H15.8825L14.5557 88.0861Z" fill="#006594"/>
<path d="M12.2583 69.7026V77.8368H12.8352L14.1621 76.51V71.0295L12.8352 69.7026H12.2583Z" fill="#006594"/>
<path d="M16.7576 69.3085H20.5266V61.1743H16.7576V69.3085Z" fill="#006594"/>
<path d="M12.2583 61.1743V69.3085H12.8352L14.1621 67.9817V62.5012L12.8352 61.1743H12.2583Z" fill="#006594"/>
<path d="M12.2583 78.2305V86.3647H12.8352L14.1621 85.0378V79.5573L12.8352 78.2305H12.2583Z" fill="#006594"/>
<path d="M12.2583 52.6455V60.7797H12.8352L14.1621 59.4529V53.9724L12.8352 52.6455H12.2583Z" fill="#006594"/>
<path d="M14.5557 96.6145V102.085L15.8825 103.412H16.5075V95.2876H15.8825L14.5557 96.6145Z" fill="#006594"/>
<path d="M14.5557 105.143V110.614L15.8825 111.941H16.5075V103.816H15.8825L14.5557 105.143Z" fill="#006594"/>
<path d="M14.5557 62.5012V67.9817L15.8825 69.3085H16.5075V61.1743H15.8825L14.5557 62.5012Z" fill="#006594"/>
<path d="M23.0742 62.5012V67.9817L24.4011 69.3085H25.026V61.1743H24.4011L23.0742 62.5012Z" fill="#006594"/>
<path d="M23.0742 53.9724V59.4529L24.4011 60.7797H25.026V52.6455H24.4011L23.0742 53.9724Z" fill="#006594"/>
<path d="M23.0742 79.5573V85.0378L24.4011 86.3647H25.026V78.2305H24.4011L23.0742 79.5573Z" fill="#006594"/>
<path d="M23.0742 88.0861V93.5666L24.4011 94.8935H25.026V86.7593H24.4011L23.0742 88.0861Z" fill="#006594"/>
<path d="M29.0464 95.2876H25.2773V103.422H29.0464V95.2876Z" fill="#006594"/>
<path d="M29.0464 103.816H25.2773V111.941H29.0464V103.816Z" fill="#006594"/>
<path d="M25.2773 94.8935H29.0464V86.7593H25.2773V94.8935Z" fill="#006594"/>
<path d="M23.0742 96.6145V102.085L24.4011 103.412H25.026V95.2876H24.4011L23.0742 96.6145Z" fill="#006594"/>
<path d="M20.7766 52.6455V60.7797H21.3535L22.6804 59.4529V53.9724L21.3535 52.6455H20.7766Z" fill="#006594"/>
<path d="M20.7766 86.7593V94.8839H21.3535L22.6804 93.5666V88.0861L21.3535 86.7593H20.7766Z" fill="#006594"/>
<path d="M20.7766 95.2876V103.422H21.3535L22.6804 102.095V96.6145L21.3535 95.2876H20.7766Z" fill="#006594"/>
<path d="M20.7766 103.816V111.941H21.3535L22.6804 110.623V105.143L21.3535 103.816H20.7766Z" fill="#006594"/>
<path d="M20.7766 78.2305V86.3647H21.3535L22.6804 85.0378V79.5573L21.3535 78.2305H20.7766Z" fill="#006594"/>
<path d="M23.0742 105.143V110.614L24.4011 111.941H25.026V103.816H24.4011L23.0742 105.143Z" fill="#006594"/>
<path d="M20.7766 69.7026V77.8368H21.3535L22.6804 76.51V71.0295L21.3535 69.7026H20.7766Z" fill="#006594"/>
<path d="M16.7576 60.7797H20.5266V52.6455H16.7576V60.7797Z" fill="#006594"/>
<path d="M20.7766 61.1743V69.3085H21.3535L22.6804 67.9817V62.5012L21.3535 61.1743H20.7766Z" fill="#006594"/>
<path d="M25.2773 86.3647H29.0464V78.2305H25.2773V86.3647Z" fill="#006594"/>
<path d="M3.48925 69.7026H-0.279785V77.8272H3.48925V69.7026Z" fill="#006594"/>
<path d="M3.48925 78.2305H-0.279785V86.3647H3.48925V78.2305Z" fill="#006594"/>
<path d="M12.2583 103.816V111.941H12.8352L14.1621 110.623V105.143L12.8352 103.816H12.2583Z" fill="#006594"/>
<path d="M3.48925 86.7593H-0.279785V94.8935H3.48925V86.7593Z" fill="#006594"/>
<path d="M-0.279785 60.7797H3.48925V52.6455H-0.279785V60.7797Z" fill="#006594"/>
<path d="M3.73901 95.2876V103.422H4.31591L5.64276 102.095V96.6145L4.31591 95.2876H3.73901Z" fill="#006594"/>
<path d="M3.73901 86.7593V94.8839H4.31591L5.64276 93.5666V88.0861L4.31591 86.7593H3.73901Z" fill="#006594"/>
<path d="M3.73901 103.816V111.941H4.31591L5.64276 110.623V105.143L4.31591 103.816H3.73901Z" fill="#006594"/>
<path d="M3.48925 95.2876H-0.279785V103.422H3.48925V95.2876Z" fill="#006594"/>
<path d="M3.48925 103.816H-0.279785V111.941H3.48925V103.816Z" fill="#006594"/>
<path d="M3.73901 78.2305V86.3647H4.31591L5.64276 85.0378V79.5573L4.31591 78.2305H3.73901Z" fill="#006594"/>
<path d="M-0.279785 69.3085H3.48925V61.1743H-0.279785V69.3085Z" fill="#006594"/>
<path d="M8.23975 86.3647H12.0088V78.2305H8.23975V86.3647Z" fill="#006594"/>
<path d="M12.0088 86.7593H8.23975V94.8935H12.0088V86.7593Z" fill="#006594"/>
<path d="M12.0088 95.2876H8.23975V103.422H12.0088V95.2876Z" fill="#006594"/>
<path d="M12.0088 103.816H8.23975V111.941H12.0088V103.816Z" fill="#006594"/>
<path d="M8.23975 60.7797H12.0088V52.6455H8.23975V60.7797Z" fill="#006594"/>
<path d="M6.03662 53.9724V59.4529L7.35386 60.7797H7.98845V52.6455H7.35386L6.03662 53.9724Z" fill="#006594"/>
<path d="M3.73901 69.7026V77.8368H4.31591L5.64276 76.51V71.0295L4.31591 69.7026H3.73901Z" fill="#006594"/>
<path d="M8.23975 77.8368H12.0088V69.7026H8.23975V77.8368Z" fill="#006594"/>
<path d="M8.23975 69.3085H12.0088V61.1743H8.23975V69.3085Z" fill="#006594"/>
<path d="M3.73901 52.6455V60.7797H4.31591L5.64276 59.4529V53.9724L4.31591 52.6455H3.73901Z" fill="#006594"/>
<path d="M6.03662 96.6145V102.085L7.35386 103.412H7.98845V95.2876H7.35386L6.03662 96.6145Z" fill="#006594"/>
<path d="M6.03662 105.143V110.614L7.35386 111.941H7.98845V103.816H7.35386L6.03662 105.143Z" fill="#006594"/>
<path d="M6.03662 62.5012V67.9817L7.35386 69.3085H7.98845V61.1743H7.35386L6.03662 62.5012Z" fill="#006594"/>
<path d="M3.73901 61.1743V69.3085H4.31591L5.64276 67.9817V62.5012L4.31591 61.1743H3.73901Z" fill="#006594"/>
<path d="M6.03662 71.0295V76.51L7.35386 77.8368H7.98845V69.7026H7.35386L6.03662 71.0295Z" fill="#006594"/>
<path d="M6.03662 88.0861V93.5666L7.35386 94.8935H7.98845V86.7593H7.35386L6.03662 88.0861Z" fill="#006594"/>
<path d="M6.03662 79.5573V85.0378L7.35386 86.3647H7.98845V78.2305H7.35386L6.03662 79.5573Z" fill="#006594"/>
<path d="M23.0742 71.0295V76.51L24.4011 77.8368H25.026V69.7026H24.4011L23.0742 71.0295Z" fill="#006594"/>
<path d="M46.3429 78.2305V86.3647H46.9198L48.2466 85.0378V79.5573L46.9198 78.2305H46.3429Z" fill="#006594"/>
<path d="M46.3429 69.7026V77.8368H46.9198L48.2466 76.51V71.0295L46.9198 69.7026H46.3429Z" fill="#006594"/>
<path d="M46.3429 95.2876V103.422H46.9198L48.2466 102.095V96.6145L46.9198 95.2876H46.3429Z" fill="#006594"/>
<path d="M46.3429 61.1743V69.3085H46.9198L48.2466 67.9817V62.5012L46.9198 61.1743H46.3429Z" fill="#006594"/>
<path d="M48.6407 79.5573V85.0378L49.9676 86.3647H50.5926V78.2305H49.9676L48.6407 79.5573Z" fill="#006594"/>
<path d="M48.6407 88.0861V93.5666L49.9676 94.8935H50.5926V86.7593H49.9676L48.6407 88.0861Z" fill="#006594"/>
<path d="M46.3429 52.6455V60.7797H46.9198L48.2466 59.4529V53.9724L46.9198 52.6455H46.3429Z" fill="#006594"/>
<path d="M48.6407 96.6145V102.085L49.9676 103.412H50.5926V95.2876H49.9676L48.6407 96.6145Z" fill="#006594"/>
<path d="M48.6407 105.143V110.614L49.9676 111.941H50.5926V103.816H49.9676L48.6407 105.143Z" fill="#006594"/>
<path d="M46.3429 86.7593V94.8839H46.9198L48.2466 93.5666V88.0861L46.9198 86.7593H46.3429Z" fill="#006594"/>
<path d="M42.3239 86.3647H46.0929V78.2305H42.3239V86.3647Z" fill="#006594"/>
<path d="M46.3429 103.816V111.941H46.9198L48.2466 110.623V105.143L46.9198 103.816H46.3429Z" fill="#006594"/>
<path d="M42.3239 103.412H46.0929V95.2876H42.3239V103.412Z" fill="#006594"/>
<path d="M42.3239 111.941H46.0929V103.816H42.3239V111.941Z" fill="#006594"/>
<path d="M42.3239 94.8935H46.0929V86.7593H42.3239V94.8935Z" fill="#006594"/>
<path d="M42.3239 77.8368H46.0929V69.7026H42.3239V77.8368Z" fill="#006594"/>
<path d="M40.1117 53.9724V59.4529L41.4386 60.7797H42.0731V52.6455H41.4386L40.1117 53.9724Z" fill="#006594"/>
<path d="M42.3239 69.3085H46.0929V61.1743H42.3239V69.3085Z" fill="#006594"/>
<path d="M46.0929 52.6455H42.3239V60.7701H46.0929V52.6455Z" fill="#006594"/>
<path d="M54.6113 52.6455H50.8423V60.7701H54.6113V52.6455Z" fill="#006594"/>
<path d="M54.6113 95.2876H50.8423V103.422H54.6113V95.2876Z" fill="#006594"/>
<path d="M48.6407 71.0295V76.51L49.9676 77.8368H50.5926V69.7026H49.9676L48.6407 71.0295Z" fill="#006594"/>
<path d="M50.8423 69.3085H54.6113V61.1743H50.8423V69.3085Z" fill="#006594"/>
<path d="M48.6407 53.9724V59.4529L49.9676 60.7797H50.5926V52.6455H49.9676L48.6407 53.9724Z" fill="#006594"/>
<path d="M48.6407 62.5012V67.9817L49.9676 69.3085H50.5926V61.1743H49.9676L48.6407 62.5012Z" fill="#006594"/>
<path d="M54.6113 103.816H50.8423V111.941H54.6113V103.816Z" fill="#006594"/>
<path d="M54.6113 86.7593H50.8423V94.8935H54.6113V86.7593Z" fill="#006594"/>
<path d="M50.8423 77.8368H54.6113V69.7026H50.8423V77.8368Z" fill="#006594"/>
<path d="M50.8423 86.3647H54.6113V78.2305H50.8423V86.3647Z" fill="#006594"/>
<path d="M40.1117 96.6145V102.085L41.4386 103.412H42.0731V95.2876H41.4386L40.1117 96.6145Z" fill="#006594"/>
<path d="M31.5933 96.6145V102.085L32.9201 103.412H33.5451V95.2876H32.9201L31.5933 96.6145Z" fill="#006594"/>
<path d="M31.5933 79.5573V85.0378L32.9201 86.3647H33.5451V78.2305H32.9201L31.5933 79.5573Z" fill="#006594"/>
<path d="M33.7954 103.412H37.5644V95.2876H33.7954V103.412Z" fill="#006594"/>
<path d="M31.5933 105.143V110.614L32.9201 111.941H33.5451V103.816H32.9201L31.5933 105.143Z" fill="#006594"/>
<path d="M31.5933 62.5012V67.9817L32.9201 69.3085H33.5451V61.1743H32.9201L31.5933 62.5012Z" fill="#006594"/>
<path d="M31.5933 53.9724V59.4529L32.9201 60.7797H33.5451V52.6455H32.9201L31.5933 53.9724Z" fill="#006594"/>
<path d="M33.7954 111.941H37.5644V103.816H33.7954V111.941Z" fill="#006594"/>
<path d="M31.5933 71.0295V76.51L32.9201 77.8368H33.5451V69.7026H32.9201L31.5933 71.0295Z" fill="#006594"/>
<path d="M29.2957 52.6455V60.7797H29.8725L31.1994 59.4529V53.9724L29.8725 52.6455H29.2957Z" fill="#006594"/>
<path d="M31.5933 88.0861V93.5666L32.9201 94.8935H33.5451V86.7593H32.9201L31.5933 88.0861Z" fill="#006594"/>
<path d="M29.2957 103.816V111.941H29.8725L31.1994 110.623V105.143L29.8725 103.816H29.2957Z" fill="#006594"/>
<path d="M25.2773 60.7797H29.0464V52.6455H25.2773V60.7797Z" fill="#006594"/>
<path d="M29.2957 61.1743V69.3085H29.8725L31.1994 67.9817V62.5012L29.8725 61.1743H29.2957Z" fill="#006594"/>
<path d="M29.2957 95.2876V103.422H29.8725L31.1994 102.095V96.6145L29.8725 95.2876H29.2957Z" fill="#006594"/>
<path d="M25.2773 69.3085H29.0464V61.1743H25.2773V69.3085Z" fill="#006594"/>
<path d="M29.2957 69.7026V77.8368H29.8725L31.1994 76.51V71.0295L29.8725 69.7026H29.2957Z" fill="#006594"/>
<path d="M29.2957 86.7593V94.8839H29.8725L31.1994 93.5666V88.0861L29.8725 86.7593H29.2957Z" fill="#006594"/>
<path d="M29.2957 78.2305V86.3647H29.8725L31.1994 85.0378V79.5573L29.8725 78.2305H29.2957Z" fill="#006594"/>
<path d="M33.7954 77.8368H37.5644V69.7026H33.7954V77.8368Z" fill="#006594"/>
<path d="M40.1117 105.143V110.614L41.4386 111.941H42.0731V103.816H41.4386L40.1117 105.143Z" fill="#006594"/>
<path d="M33.7954 94.8935H37.5644V86.7593H33.7954V94.8935Z" fill="#006594"/>
<path d="M37.8141 61.1743V69.3085H38.4006L39.7274 67.9817V62.5012L38.4006 61.1743H37.8141Z" fill="#006594"/>
<path d="M25.2773 77.8368H29.0464V69.7026H25.2773V77.8368Z" fill="#006594"/>
<path d="M40.1117 79.5573V85.0378L41.4386 86.3647H42.0731V78.2305H41.4386L40.1117 79.5573Z" fill="#006594"/>
<path d="M40.1117 71.0295V76.51L41.4386 77.8368H42.0731V69.7026H41.4386L40.1117 71.0295Z" fill="#006594"/>
<path d="M37.8141 69.7026V77.8368H38.4006L39.7274 76.51V71.0295L38.4006 69.7026H37.8141Z" fill="#006594"/>
<path d="M40.1117 88.0861V93.5666L41.4386 94.8935H42.0731V86.7593H41.4386L40.1117 88.0861Z" fill="#006594"/>
<path d="M37.8141 52.6455V60.7797H38.4006L39.7274 59.4529V53.9724L38.4006 52.6455H37.8141Z" fill="#006594"/>
<path d="M40.1117 62.5012V67.9817L41.4386 69.3085H42.0731V61.1743H41.4386L40.1117 62.5012Z" fill="#006594"/>
<path d="M33.7954 69.3085H37.5644V61.1743H33.7954V69.3085Z" fill="#006594"/>
<path d="M33.7954 60.7797H37.5644V52.6455H33.7954V60.7797Z" fill="#006594"/>
<path d="M33.7954 86.3647H37.5644V78.2305H33.7954V86.3647Z" fill="#006594"/>
<path d="M37.8141 78.2305V86.3647H38.4006L39.7274 85.0378V79.5573L38.4006 78.2305H37.8141Z" fill="#006594"/>
<path d="M37.8141 86.7593V94.8839H38.4006L39.7274 93.5666V88.0861L38.4006 86.7593H37.8141Z" fill="#006594"/>
<path d="M37.8141 103.816V111.941H38.4006L39.7274 110.623V105.143L38.4006 103.816H37.8141Z" fill="#006594"/>
<path d="M37.8141 95.2876V103.422H38.4006L39.7274 102.095V96.6145L38.4006 95.2876H37.8141Z" fill="#006594"/>
</g>
<path d="M45.9665 91.3454C45.9376 91.4704 45.9088 91.5954 45.88 91.7108H45.8607C44.3608 97.2586 44.6108 104.037 40.6206 104.614C43.1974 104.614 49.6778 104.604 55.4275 104.701C61.0619 104.787 66.5616 105.297 68.1673 104.133C73.0997 100.547 73.0036 90.1051 78.8591 85.8553C81.5416 83.9035 85.8972 84.1727 89.9162 84.4419C94.2044 84.7304 98.1177 85.0092 99.2234 82.6055C101.444 77.7884 93.916 75.9039 88.6759 72.3945C84.2049 69.3946 78.8206 65.4333 73.2439 58.2798C70.3883 59.2413 66.7058 60.9527 62.533 63.9814C59.4466 66.2217 56.7929 69.2119 54.5526 72.4425C49.524 79.8941 47.4183 86.1918 45.9473 91.3454" fill="#FFE6CA"/>
<mask id="mask1_548_10406" style="mask-type:luminance" maskUnits="userSpaceOnUse" x="40" y="58" width="60" height="47">
<path d="M62.5522 63.9718C59.4658 66.2121 56.8121 69.2119 54.5718 72.4329C49.5432 79.8845 47.4376 86.1822 45.9665 91.3358C45.9376 91.4608 45.9088 91.5858 45.88 91.7012H45.8607C44.3608 97.249 44.6012 104.027 40.6206 104.604C43.1974 104.604 49.6778 104.595 55.4275 104.691C61.0619 104.777 66.5616 105.287 68.1673 104.124C73.0997 100.547 73.0036 90.0955 78.8591 85.8457C81.5416 83.8939 85.8972 84.1631 89.9162 84.4323C94.2044 84.7208 98.1177 84.9996 99.2234 82.5959C101.444 77.7788 93.916 75.8943 88.6759 72.3848C84.2049 69.385 78.8206 65.4237 73.2439 58.2798C70.3883 59.2413 66.7058 60.9527 62.533 63.9814" fill="white"/>
</mask>
<g mask="url(#mask1_548_10406)">
<path d="M59.6098 98.0088C59.7924 97.1434 61.4174 89.5573 61.4077 88.5189C61.3981 87.2593 59.8405 85.2113 59.6386 85.0287C59.4848 84.8844 59.2444 84.894 59.1098 85.0575C58.9752 85.2113 58.9848 85.4517 59.1386 85.5959C59.3886 85.8363 60.6097 87.6151 60.6578 88.49V88.5285C60.6674 89.2496 59.6001 94.4801 58.8886 97.8357C58.7925 98.1722 57.6483 102.076 57.3214 105.037C57.581 105.037 57.831 105.037 58.081 105.037C58.4271 102.085 59.6001 98.0953 59.6194 98.0376V98.0088" fill="#3678A8"/>
<path d="M61.5423 96.1333C62.1095 93.6527 62.898 90.2682 62.8018 88.8549C62.6864 87.0473 62.4557 85.057 61.2154 84.3935C60.1866 83.8551 58.0136 83.9224 56.8502 83.9513C56.7156 83.9513 56.6002 83.9513 56.5137 83.9513C55.6003 83.9705 52.5716 85.1435 51.4947 86.1242C51.312 86.2877 51.0716 86.4896 50.8024 86.73C49.4563 87.8838 47.418 89.624 46.6873 91.1817C46.3315 91.9316 45.87 92.6047 45.4181 93.1623C45.3123 93.6623 45.2258 94.1527 45.1296 94.6334C45.8027 93.9315 46.7353 92.845 47.3603 91.499C48.0141 90.0952 50.0621 88.3549 51.2736 87.3069C51.5524 87.0665 51.8024 86.855 51.9851 86.6915C52.9562 85.8069 55.8406 84.7204 56.5233 84.7108C56.6194 84.7108 56.7348 84.7108 56.8694 84.7012C57.8117 84.6724 60.0135 84.6051 60.8692 85.057C61.8403 85.5666 61.9846 87.8068 62.0519 88.8837V88.9222C62.1192 90.2394 61.3307 93.6623 60.8115 95.941C60.6673 96.5756 60.5423 97.1237 60.4462 97.5467C60.1193 99.0755 59.6866 102.441 59.427 105.008C59.6866 105.008 59.9366 105.008 60.1866 105.008C60.4366 102.479 60.8692 99.2005 61.1865 97.7006C61.2731 97.2871 61.398 96.7391 61.5423 96.1045" fill="#000034"/>
<path d="M49.2365 87.1243C51.371 85.8263 53.8612 84.2206 53.8901 84.211C54.0631 84.0956 54.1208 83.8649 54.0054 83.6822C53.8901 83.4995 53.6593 83.4514 53.4862 83.5668C53.467 83.586 50.9768 85.1821 48.8519 86.4705C48.0538 86.9513 47.2077 87.9127 46.4097 88.9704C46.2174 89.6819 46.0443 90.3742 45.8809 91.0568C46.8904 89.5184 48.15 87.7877 49.2365 87.1243Z" fill="#E0861B"/>
<path d="M53.3211 83.3364C55.3883 82.9807 58.9747 82.9326 59.0132 82.923C59.042 82.923 62.3207 82.9711 62.7437 84.7691C63.2629 86.9516 63.5802 90.7303 63.3495 91.8745C63.0899 93.1148 61.2342 99.576 61.215 99.6337C61.1573 99.8356 61.2727 100.047 61.4746 100.105C61.6765 100.163 61.888 100.047 61.9457 99.8452C62.0226 99.576 63.8206 93.2975 64.0898 92.0283C64.3687 90.6918 63.9841 86.7017 63.4841 84.5864C62.9168 82.2019 59.1766 82.1538 59.0132 82.1538C58.8593 82.1538 55.3307 82.2115 53.2058 82.5769C51.5712 82.8557 48.8983 84.4229 47.6003 85.2306C47.4464 85.644 47.3022 86.0575 47.1676 86.4613L47.2926 86.3267C47.7157 86.0478 51.4174 83.6633 53.3308 83.3364" fill="#006594"/>
<path d="M65.4749 91.0375C65.4652 90.6721 65.4556 90.2683 65.4556 89.8549C65.4075 87.1435 65.3595 83.7783 64.0903 82.4514C62.6769 80.9803 60.5809 80.2592 58.1868 80.4227C55.8792 80.5861 52.3986 81.3745 51.3986 81.663C50.8987 81.8072 49.6583 82.4129 48.4373 83.0668C48.2834 83.4417 48.1296 83.8071 47.9854 84.1821C49.3603 83.4129 51.0333 82.5572 51.6006 82.3937C52.5813 82.1149 55.9849 81.3457 58.2348 81.1822C60.4366 81.0284 62.2731 81.6534 63.5423 82.9802C64.5999 84.0859 64.6576 87.4223 64.696 89.8645C64.696 90.2875 64.7057 90.6914 64.7153 91.0567C64.773 93.0374 63.9269 96.2488 62.1962 100.614C61.6193 102.066 61.1962 103.527 60.927 105.037C61.1866 105.037 61.4462 105.037 61.6962 105.037C61.9654 103.633 62.3596 102.258 62.8981 100.902C64.6672 96.4411 65.5325 93.1239 65.4749 91.0375Z" fill="#4A8ECC"/>
<path d="M65.9937 97.278C66.2629 95.5185 66.5417 93.7013 66.8686 92.6244C67.5801 90.3072 66.7244 84.9229 66.436 83.3268C65.9937 80.8077 64.1572 79.8654 62.8208 79.3751C61.4651 78.8751 57.2249 79.3366 55.7057 79.5C54.4846 79.6347 51.4656 80.4038 49.3214 81.1154C49.1676 81.4326 49.0234 81.7499 48.8792 82.0672C51.004 81.3557 54.5423 80.4039 55.7923 80.2692C57.9845 80.0289 61.542 79.7212 62.5708 80.0962C63.8303 80.5577 65.3302 81.3557 65.6956 83.4614C66.2629 86.6535 66.6763 90.6822 66.1475 92.3936C65.8014 93.5282 65.5129 95.3742 65.2437 97.1626C65.0226 98.6337 64.811 100.028 64.5899 100.807C64.3591 101.624 63.9072 103.335 63.465 105.047H64.2438C64.6764 103.412 65.0899 101.797 65.311 101.018C65.5418 100.201 65.7629 98.7779 65.9937 97.278Z" fill="#8B0304"/>
<path d="M64.3503 99.9122C64.4079 99.7103 64.2926 99.4988 64.0907 99.4411C63.8887 99.3834 63.6772 99.4988 63.6291 99.7103C63.6291 99.7199 63.3503 100.71 63.0234 101.537C62.8503 101.979 62.4273 103.652 62.11 105.037C62.3792 105.037 62.6388 105.037 62.8888 105.037C63.1772 103.758 63.5522 102.258 63.7253 101.816C64.0618 100.951 64.3406 99.9507 64.3503 99.9122Z" fill="#CA6C18"/>
<path d="M68.1383 94.7491V94.701C68.1768 94.3837 68.7825 86.9322 68.3595 85.1534C67.946 83.3939 67.1288 79.9421 65.7154 78.971C64.427 78.0768 61.0618 76.8365 59.5907 76.7692C58.6677 76.7308 56.6101 77.125 55.1005 77.3557C54.3986 77.4615 53.7929 77.5576 53.591 77.5673C53.3025 77.5865 52.2064 77.7115 50.9757 77.8557C50.8219 78.1249 50.6777 78.4038 50.5334 78.6826C51.9757 78.4999 53.3314 78.3461 53.6294 78.3268C53.8698 78.3172 54.4275 78.2307 55.2063 78.1153C56.5908 77.9038 58.6965 77.4999 59.5426 77.5384C60.7637 77.5961 64.0135 78.7403 65.2731 79.6152C66.4461 80.4229 67.2441 83.8073 67.6095 85.3457C67.9268 86.6726 67.5999 91.98 67.3788 94.6241C67.2922 95.0375 66.1 100.528 65.8596 101.614C65.7346 102.191 65.3692 103.614 64.9654 105.056H65.7442C66.1384 103.633 66.4846 102.278 66.5903 101.778C66.8403 100.643 68.1095 94.7587 68.1095 94.7587" fill="#007243"/>
<path d="M53.9765 79.3937C54.8226 79.2014 56.8802 78.9802 57.9955 78.8649L58.4282 78.8168C59.2454 78.7302 60.803 78.8456 60.8126 78.8456C61.0242 78.8648 61.1972 78.7014 61.2165 78.4899C61.2357 78.2783 61.0819 78.0957 60.8703 78.0764C60.803 78.0764 59.2358 77.9514 58.3416 78.0476L57.9186 78.0957C56.7936 78.211 54.6976 78.4322 53.813 78.6341C53.265 78.7591 51.6497 79.0187 50.2266 79.2494C50.0824 79.5283 49.9478 79.8071 49.8036 80.0956C49.9767 80.0667 50.1497 80.0379 50.3324 80.009C51.8419 79.7686 53.3996 79.5187 53.9765 79.3841" fill="#006594"/>
<path d="M63.2441 76.9904C63.446 77.0385 63.6479 76.9039 63.696 76.6924C63.7345 76.4905 63.6095 76.2789 63.4076 76.2405C62.9268 76.1347 58.6386 75.5001 57.7059 75.6251C57.0906 75.7117 55.1868 75.9136 52.062 75.9713C51.9081 76.2309 51.7543 76.4905 51.6005 76.7405C54.1003 76.702 56.956 76.4905 57.8021 76.3751C58.4078 76.2885 61.4846 76.5962 63.2441 76.9808" fill="#006594"/>
<path d="M57.4279 75.1441C59.0913 75.1152 62.6488 75.596 63.7641 76.0863C64.8699 76.5767 66.1679 78.3939 67.062 79.7111C67.9947 81.1053 68.812 84.0667 68.9081 84.6724C68.985 85.1051 68.9562 88.1338 68.9081 90.0664C68.9081 90.2779 69.0716 90.451 69.2735 90.4606C69.485 90.4606 69.6581 90.2971 69.6581 90.0856C69.6581 89.5856 69.7446 85.2013 69.6388 84.5474C69.5138 83.8263 68.6677 80.7688 67.6678 79.2881C66.6486 77.7689 65.3218 75.9517 64.0526 75.3941C62.8315 74.8556 59.1586 74.3556 57.3991 74.3845C56.8126 74.3941 55.7165 74.4037 54.5531 74.4037C54.0435 74.4037 53.5243 74.4037 53.0147 74.4037C52.8512 74.6633 52.6878 74.9133 52.5339 75.1729C53.207 75.1729 53.9089 75.1729 54.5531 75.1633C55.7261 75.1633 56.8222 75.1537 57.4183 75.1441" fill="#ED1D24"/>
<path d="M72.4079 98.239C72.4752 97.9506 74.1482 91.2297 74.2155 87.8934C74.2829 84.7493 72.3791 80.5188 70.5042 78.2496C68.6389 75.9901 66.0621 73.1922 64.4276 72.7018C62.9277 72.2595 57.9375 71.0192 55.4088 71C55.2646 71.1827 55.13 71.375 54.9858 71.5577L54.8319 71.7692C54.9473 71.7692 55.0627 71.7692 55.1588 71.7692C57.5049 71.7019 62.6873 72.9903 64.2064 73.4422C65.3218 73.7787 67.4082 75.7113 69.9177 78.74C71.6676 80.8553 73.5137 84.9512 73.456 87.8741C73.3887 91.124 71.7445 97.7679 71.6772 98.0467L71.658 98.1332C71.4465 98.9697 71.0811 100.45 70.7638 102.085C71.2445 101.325 71.6772 100.47 72.0714 99.5947C72.1868 99.0851 72.3022 98.6524 72.3791 98.3255L72.3983 98.239" fill="#ED1D24"/>
<path d="M75.0616 84.2783C74.2732 81.5862 72.2348 78.4036 71.9944 78.0479C71.331 77.0287 68.6581 73.702 66.5332 72.2116C64.6006 70.8559 60.4277 69.9425 57.6586 69.3464L57.101 69.2214C57.0144 69.2022 56.9279 69.1926 56.8414 69.1733C56.6587 69.4041 56.4664 69.6252 56.2837 69.856C56.4952 69.8848 56.7164 69.9233 56.9375 69.9714L57.4952 70.0964C60.0335 70.654 64.2929 71.5771 66.1005 72.8462C68.0427 74.2115 70.6676 77.4133 71.3599 78.4709C72.1771 79.7209 73.7155 82.4034 74.3309 84.4995C74.9847 86.7205 74.7924 90.1915 74.6866 92.0568C74.6866 92.1818 74.6674 92.3356 74.6481 92.4991C74.8981 91.8453 75.177 91.1626 75.5135 90.4896C75.5808 88.557 75.5712 86.0763 75.052 84.2783" fill="#000034"/>
<path d="M71.2061 69.3273C68.9659 67.7313 66.1583 65.8083 64.2738 65.1256C63.6104 64.8853 62.6008 64.5584 61.5528 64.2314C61.3316 64.4334 61.1201 64.6257 60.9086 64.8276C62.0912 65.1929 63.2835 65.5775 64.0238 65.8467C65.8218 66.5006 68.5813 68.3851 70.7831 69.9523C72.7157 71.3272 75.9559 75.7597 76.6674 77.4519C77.3693 79.1057 78.35 85.4323 78.2346 86.3842C78.2346 86.4611 78.225 86.5572 78.225 86.6438C78.4654 86.4034 78.725 86.1823 78.9942 85.9707C78.9173 84.0958 78.0519 78.7692 77.3693 77.1443C76.6097 75.3367 73.2829 70.7888 71.2254 69.3177" fill="#CE8A14"/>
<path d="M73.7242 71.2406C73.8684 71.3944 74.1088 71.3944 74.2626 71.2406C74.4069 71.0964 74.4165 70.8464 74.2626 70.7021C74.1953 70.6252 72.5416 68.933 70.657 67.6158C68.9937 66.4524 64.7343 63.9429 62.7921 63.1641L62.5517 63.3564C62.4075 63.4814 62.2632 63.6063 62.119 63.7313C63.5709 64.164 68.3014 66.8946 70.2244 68.2407C72.0512 69.5099 73.6954 71.2117 73.7146 71.231" fill="#ED1D24"/>
<path d="M74.8779 69.6252C73.2145 67.2696 69.0512 64.2216 66.8013 63.0102C66.1668 62.6736 65.3207 62.289 64.4265 61.9141C64.1861 62.0871 63.9457 62.2602 63.715 62.4429C64.7534 62.8756 65.7437 63.3082 66.4552 63.6832C68.6859 64.8851 72.7337 67.8849 74.2721 70.0675C75.8009 72.2309 78.2623 78.5382 78.743 80.3362C78.9353 81.0573 79.4161 83.0861 79.8007 85.4033C80.0218 85.2686 80.2622 85.134 80.5026 85.0187C80.118 82.7688 79.6661 80.8362 79.4738 80.1343C78.9642 78.2402 76.4932 71.8847 74.8875 69.6156" fill="#276A9B"/>
<path d="M78.8307 75.3172C78.3403 74.2115 77.8692 73.1731 77.6288 72.5L77.5231 72.2116C76.9173 70.4905 75.8982 67.5964 73.6579 66.1157C71.4272 64.635 68.4755 62.6255 68.4466 62.5967C68.2735 62.4813 68.0428 62.5197 67.9274 62.7024L67.8601 62.9332C67.8601 63.0486 67.9274 63.1639 68.0236 63.2313C68.0524 63.2505 71.0042 65.2696 73.2444 66.7503C75.2732 68.0868 76.2347 70.827 76.8212 72.4616L76.927 72.75C77.1769 73.4519 77.6481 74.5095 78.148 75.6249C78.8115 77.1152 79.5711 78.7978 79.8595 79.8073C80.1576 80.8457 80.6768 83.4129 81.0421 85.3167C81.2729 85.2109 81.5133 85.1244 81.7536 85.0378C81.3979 83.1629 80.8883 80.6342 80.5806 79.5862C80.2729 78.5286 79.5422 76.8844 78.8307 75.3076" fill="#CA6C18"/>
<path d="M79.7443 70.8083C79.4463 70.5294 78.9751 69.8949 78.4175 69.1545C77.504 67.9334 76.3599 66.4143 75.1965 65.3374C73.1773 63.4817 69.8217 61.6741 67.5719 61.2222C67.1488 61.1357 66.6488 60.9818 66.1008 60.7896C65.8316 60.953 65.572 61.1357 65.3027 61.3088C66.0815 61.6068 66.8219 61.8568 67.4276 61.9722C69.5333 62.3856 72.7927 64.1548 74.6965 65.8951C75.8118 66.9239 76.9272 68.4142 77.831 69.6064C78.4271 70.4044 78.8982 71.0294 79.2347 71.3563C80.0135 72.0967 83.1576 77.4906 83.6287 80.4809C83.8018 81.577 83.8691 83.2596 83.8787 84.5576C84.1191 84.5384 84.3787 84.5287 84.6287 84.5191C84.6095 83.2019 84.5421 81.4904 84.3691 80.3559C83.8787 77.1541 80.6 71.5967 79.7443 70.789" fill="#000034"/>
<path d="M81.2438 69.6928C81.0707 69.3756 80.8976 69.0679 80.7438 68.789C79.4939 66.5007 77.7439 64.4912 75.0518 62.2894C72.898 60.5298 71.1962 59.3953 69.7732 58.7896C69.4559 58.9338 69.1386 59.0876 68.8309 59.2511C70.2924 59.7222 72.1288 60.876 74.5806 62.8855C77.1863 65.02 78.8881 66.9526 80.0804 69.1544C80.2342 69.4429 80.4073 69.7409 80.5803 70.0678C81.9168 72.4812 83.7436 75.7887 84.5801 79.1058C84.9936 80.7308 85.2243 82.9326 85.3301 84.519C85.5801 84.519 85.8301 84.5286 86.0897 84.5382C85.9839 82.8845 85.7435 80.6154 85.3205 78.9135C84.4551 75.5002 82.5995 72.1446 81.2438 69.6928Z" fill="#DC651E"/>
<path d="M74.1675 63.6638C74.8309 64.26 78.0711 67.9425 78.5134 68.6444C78.6288 68.827 78.8596 68.8751 79.0326 68.7597C79.2057 68.6444 79.2634 68.4136 79.148 68.2309C78.6769 67.4713 75.3694 63.7119 74.6675 63.0869C73.9271 62.4235 70.36 60.7409 68.6005 60.3082C68.3024 60.2313 67.937 60.1063 67.5332 59.9429C67.2544 60.0967 66.9852 60.2602 66.7159 60.4236C67.3601 60.7121 67.9563 60.9428 68.4274 61.0582C70.1388 61.4813 73.5714 63.135 74.1675 63.6638Z" fill="#ED1D24"/>
<path d="M81.7913 67.1155C81.5894 66.9424 81.3971 66.7694 81.1952 66.5771C79.2722 64.7887 77.4069 62.9619 75.6762 60.8466C74.3397 59.9043 72.859 59.0486 71.2437 58.289L71.0514 58.1929C70.7534 58.3275 70.4553 58.4621 70.1669 58.5967C70.4265 58.7313 70.6765 58.8563 70.9264 58.9717C75.282 61.0293 78.4549 63.6157 80.6375 66.8463C83.5316 71.1538 84.9065 74.4997 85.868 79.6341C86.1949 81.3552 86.3584 83.1435 86.4641 84.4512C86.7141 84.4608 86.9641 84.4704 87.2237 84.4896C87.1179 83.1339 86.9545 81.2879 86.6083 79.4899C85.6949 74.6343 84.3585 71.0864 81.8009 67.0963" fill="#0072BC"/>
<path d="M74.763 59.7121C74.3784 59.2122 73.9938 58.7026 73.6188 58.1834C73.2534 57.9718 72.8977 57.7699 72.5612 57.5776C72.2631 57.693 71.9554 57.8084 71.667 57.9334C72.5035 58.4237 73.4746 58.9718 74.5226 59.5679L74.763 59.7025" fill="#C4161C"/>
<path d="M84.3584 69.1732C83.8681 68.7982 83.3777 68.4136 82.897 68.0098C82.9739 68.1444 83.1277 68.5482 83.2046 68.6732C85.0699 72.048 86.2045 76.1824 86.5987 77.7977C86.9448 79.1919 87.4929 82.2398 87.9256 84.5282C88.1852 84.5474 88.4448 84.557 88.7044 84.5762C88.2525 82.2302 87.6852 79.0669 87.3294 77.615C86.9641 76.144 85.9257 72.3653 84.3584 69.1732Z" fill="#ED1D24"/>
<path d="M86.9553 71.0099C86.5995 70.7695 86.2342 70.5291 85.8784 70.2695C86.4072 71.5964 86.8399 73.2213 87.0899 74.6347C87.6572 77.9326 88.3687 81.9036 88.936 84.5861C89.1956 84.6053 89.4552 84.615 89.7148 84.6342C89.1379 81.9516 88.4167 77.8749 87.8302 74.5001C87.6476 73.4521 87.3495 72.1444 86.9553 71.0099Z" fill="#F7941E"/>
<path d="M88.6955 72.1441C88.3878 71.9518 88.0705 71.7595 87.7628 71.5576C88.3589 73.5287 89.5416 80.461 89.9454 83.182C89.9935 83.5089 90.0896 84.2204 90.1569 84.6435C90.4165 84.6627 90.6665 84.6723 90.9261 84.682C90.8492 84.2301 90.7531 83.4609 90.6954 83.0667C90.3781 80.9321 89.3685 74.894 88.6955 72.1441Z" fill="#2E3092"/>
<path d="M92.6468 76.7016C92.618 76.3555 92.5122 75.4613 92.3872 74.4709C92.118 74.3267 91.8392 74.1729 91.5699 74.019C91.7238 75.144 91.868 76.2689 91.9065 76.7593C91.9449 77.2593 92.2814 79.6534 92.666 82.4225C92.7622 83.0763 92.916 84.2589 93.0122 84.9223C93.2718 84.9223 93.5218 84.9223 93.7718 84.9223C93.6756 84.2204 93.5025 83.009 93.4064 82.3167C93.0314 79.6726 92.6853 77.1823 92.6468 76.7112" fill="#D78817"/>
<path d="M94.5511 80.6634C94.7338 79.1731 94.6473 77.3078 94.3684 75.529C94.0896 75.3848 93.8108 75.231 93.5223 75.0771C93.8781 76.9521 93.9935 78.9808 93.8012 80.5673C93.6762 81.6249 93.7819 83.5383 93.9165 84.8651C94.1761 84.8651 94.4261 84.8459 94.6761 84.8363C94.5319 83.5479 94.4261 81.6634 94.5511 80.6634Z" fill="#030F50"/>
<path d="M96.1764 76.4899C95.936 76.3553 95.6957 76.2303 95.4361 76.0957V76.3553C95.2822 78.1725 95.1476 82.1242 95.2726 84.8068C95.5322 84.7876 95.7822 84.7587 96.0226 84.7203C95.9072 82.4223 95.9841 78.884 96.1668 76.4899" fill="#2D7D2F"/>
<path d="M98.1761 77.663L98.1281 77.6246C98.0031 77.5477 97.8781 77.4611 97.7435 77.3746C97.6473 77.3169 97.5416 77.2592 97.4358 77.1919C97.7242 79.038 97.9358 81.6917 98.0511 84.0473C98.3204 83.9319 98.5703 83.8069 98.7915 83.6531C98.6953 81.6628 98.5127 79.3745 98.2819 77.7207L98.1761 77.6438" fill="#DB521F"/>
<path d="M99.782 81.0861C99.7243 80.413 99.6762 79.7304 99.6089 79.0766C99.4647 78.8458 99.2916 78.6151 99.0705 78.3939C98.9839 78.3074 98.8878 78.2305 98.7916 78.1439L98.7532 78.1055C98.8686 79.0766 98.9551 80.115 99.032 81.1534C99.0801 81.7687 99.1282 82.4033 99.1858 83.0187C99.4743 82.7495 99.7051 82.4226 99.8589 82.0476C99.83 81.7303 99.8012 81.4034 99.782 81.0861Z" fill="#000034"/>
<path d="M57.9368 87.8164C56.9465 86.6819 56.0234 87.1819 55.2062 87.6241L55.0139 87.7299C54.2351 88.1434 51.9275 90.4702 49.7737 92.6912L49.4853 92.9989C48.6103 93.8931 47.9181 95.2488 47.6392 96.6237C47.5142 97.239 47.1873 98.2486 46.8989 99.1428C46.6008 100.047 46.4278 100.623 46.3797 100.902C46.3124 101.364 45.0624 104.171 44.5529 105.027C44.8317 105.027 45.1201 105.027 45.4182 105.027C46.0336 103.854 47.0527 101.547 47.1296 101.018C47.1585 100.787 47.3893 100.075 47.62 99.3928C47.9181 98.4794 48.245 97.4506 48.3892 96.7968C48.6392 95.5853 49.2738 94.345 50.0333 93.5565L50.3314 93.2489C51.3891 92.1528 54.6004 88.8356 55.3792 88.4222L55.5811 88.3164C56.4465 87.8549 56.8215 87.6915 57.3887 88.3453C57.908 88.9414 57.3791 90.8548 56.6676 92.3739C56.3888 92.97 55.3119 95.018 54.0331 96.6141C52.7159 98.2582 51.4179 100.835 51.0237 101.979C50.7064 102.902 50.8314 104.075 51.0045 105.027C51.2641 105.027 51.514 105.027 51.7736 105.027C51.6102 104.133 51.466 103.018 51.7352 102.229C52.1102 101.114 53.3986 98.614 54.61 97.0948C55.9465 95.4314 57.033 93.3546 57.3407 92.7008C57.8503 91.6143 58.9271 88.9606 57.9464 87.8357" fill="#ED1D24"/>
<path d="M59.9176 88.4705C59.8792 87.5859 59.7638 86.6533 59.0042 85.9706C58.2639 85.3072 57.4274 84.7303 56.0717 85.5379C55.4275 85.9321 54.1102 86.9802 52.8411 87.9897C51.9181 88.7301 51.0431 89.4224 50.6489 89.6916C50.495 89.7973 46.8125 92.2684 46.3703 94.2971C46.0241 95.8643 45.3799 98.9699 45.3511 99.2392C44.9953 101.412 42.957 104.681 42.6493 105.008C42.9474 105.008 43.2646 105.008 43.6108 105.008C44.428 103.874 45.7453 101.249 46.0914 99.3642V99.3353C46.0914 99.3353 46.7549 96.0278 47.101 94.4702C47.3798 93.201 49.6778 91.2588 51.0623 90.3454C51.4854 90.0569 52.3315 89.3839 53.3122 88.6051C54.5045 87.6532 55.8602 86.5667 56.4563 86.2014C57.3024 85.6822 57.7543 85.8841 58.4946 86.5475C58.9946 86.9898 59.11 87.5763 59.1581 88.5089C59.1965 89.2012 58.7254 92.4799 58.5427 93.7202C58.4081 94.1817 56.4851 100.72 55.6198 103.354C55.4467 103.883 55.3313 104.45 55.2544 105.027H56.014C56.0813 104.527 56.1871 104.037 56.3313 103.595C57.2255 100.874 59.2446 93.9894 59.2638 93.9125V93.8644C59.3023 93.6818 59.9465 89.3935 59.8984 88.4705" fill="#FAA61A"/>
<path d="M50.1112 103.047C50.1689 102.816 50.2266 102.547 50.2843 102.268C50.4862 101.335 50.7362 100.162 51.1689 99.3642C52.6496 96.6432 52.8323 96.3932 53.4668 95.5952C53.6688 95.3356 53.9284 95.0087 54.2841 94.5279L54.4956 94.2491C55.0052 93.5664 55.409 93.0376 56.2744 91.2204C56.6109 90.5089 56.8994 89.7301 56.4475 89.3551C56.3128 89.2397 55.8802 88.8936 54.4956 89.9801C54.063 90.3166 52.688 91.7011 52.0823 92.3934C51.5054 93.0568 51.4573 93.153 50.7266 94.701L50.5151 95.1433C50.4285 95.3356 50.5055 95.5663 50.6881 95.6625C50.8804 95.7586 51.1016 95.6721 51.1977 95.4798L51.4093 95.0279C52.1304 93.5087 52.14 93.4799 52.6496 92.8934C53.2169 92.23 54.5629 90.8935 54.9572 90.5762C55.4283 90.2108 55.736 90.057 55.8994 89.9993C55.8802 90.1339 55.8033 90.3935 55.5821 90.8646C54.7456 92.6049 54.3899 93.0953 53.8803 93.7683L53.6688 94.0568C53.3226 94.5279 53.0726 94.8452 52.8707 95.1048C52.2265 95.9221 52.015 96.2009 50.5055 98.9796C50.0247 99.8738 49.7555 101.105 49.544 102.085C49.4863 102.354 49.4286 102.614 49.3709 102.845C49.2171 103.47 49.1882 104.306 49.1978 104.999C49.4574 104.999 49.717 104.999 49.967 104.999C49.9574 104.354 49.9766 103.576 50.1112 103.027" fill="#9E0B0F"/>
<path d="M48.0626 104.316L48.1779 104.008C48.5914 102.941 49.101 101.604 49.2548 100.508L49.3221 100.037C49.4567 99.066 49.5721 98.2295 49.6971 97.1141C49.7163 96.9026 49.5721 96.7103 49.3606 96.6911C49.149 96.6718 48.9664 96.8257 48.9375 97.0372C48.8125 98.1429 48.6971 98.9794 48.5625 99.9409L48.4952 100.412C48.351 101.422 47.8606 102.71 47.4664 103.748L47.351 104.056C47.2261 104.373 47.1203 104.72 47.0145 105.027C47.2837 105.027 47.553 105.027 47.8126 105.027C47.8895 104.796 47.9664 104.556 48.0529 104.335" fill="#232176"/>
<path d="M72.2056 84.7688C72.1479 84.538 72.0998 84.3457 72.0614 84.0861C71.9364 83.115 71.4364 81.9132 71.0037 81.1728C70.5326 80.3652 68.5231 78.4999 68.2923 78.2883L68.2635 78.2691C67.7827 77.4518 67.2924 76.7019 66.8693 76.1634C65.3405 74.2212 62.6868 73.5097 61.7061 73.4809C61.3119 73.4713 59.8793 73.3559 58.3601 73.2213C56.8121 73.0963 55.1295 72.9521 54.0238 72.8848C53.8507 73.1251 53.6969 73.3751 53.5334 73.6251C54.5719 73.6828 56.6006 73.8463 58.3024 73.9905C59.8985 74.1251 61.2734 74.2308 61.6869 74.2501C62.6484 74.2789 64.9944 75.0097 66.2828 76.6442C67.7058 78.4422 69.5903 82.2785 69.6576 82.9419L69.6865 83.1823C70.2922 88.4321 70.2249 89.7974 70.1288 90.1435C70.0038 90.605 69.5038 92.7011 68.9365 95.1336C68.1866 98.2873 67.2635 102.21 67.052 102.902C66.9558 103.21 66.7828 104.008 66.5712 105.056H66.8405C67.0135 105.056 67.1866 105.037 67.3501 105.008C67.5327 104.085 67.6866 103.393 67.7635 103.133C67.9846 102.422 68.8692 98.6431 69.6576 95.3163C70.2057 92.9991 70.7249 90.8069 70.8499 90.3647C71.0518 89.6339 70.9172 87.259 70.4364 83.1054L70.4076 82.865C70.3691 82.49 69.9942 81.6055 69.4846 80.5671C69.8692 80.9709 70.1961 81.3555 70.3307 81.5862C70.8018 82.3939 71.196 83.4708 71.2922 84.2111C71.3306 84.5092 71.3883 84.7399 71.4556 84.9803C71.5806 85.4611 71.7152 85.9995 71.7152 87.2975C71.7152 89.7493 71.3787 92.1434 70.7249 94.3933C69.9461 97.0758 69.7922 97.6912 69.7826 97.7201C69.7346 97.9316 69.8595 98.1335 70.0615 98.1912H70.1576C70.3307 98.2008 70.4845 98.0854 70.523 97.9123C70.523 97.9123 70.6864 97.2681 71.4556 94.6144C72.1287 92.2876 72.4748 89.8262 72.4748 87.2975C72.4748 85.9033 72.321 85.3072 72.1864 84.788" fill="#000034"/>
<path d="M69.7249 103.489C69.8115 101.643 70.0711 99.8735 70.0807 99.8447C70.1095 99.6332 69.9653 99.4409 69.7634 99.4024C69.5519 99.3639 69.3596 99.5178 69.3307 99.7293C69.3115 99.8543 68.975 102.114 68.9365 104.239C69.2057 104.027 69.475 103.768 69.7249 103.489Z" fill="#8B0304"/>
<path d="M75.4562 80.5284C74.6389 78.6823 72.0429 74.7402 71.216 73.9422L71.0525 73.7787C70.1776 72.9326 68.1392 70.952 65.4567 69.827C62.6491 68.6444 58.832 68.0771 58.6782 68.0579C58.4666 68.029 58.2743 68.1733 58.2455 68.3848C58.2166 68.5963 58.3609 68.7886 58.5724 68.8271C58.6109 68.8271 62.4472 69.404 65.1682 70.5481C67.7162 71.6154 69.6872 73.5288 70.5333 74.3364L70.6968 74.4999C71.3794 75.1537 73.9562 79.0189 74.7639 80.8457C75.4465 82.3841 75.9657 86.6723 76.2253 88.7395C76.2446 88.8837 76.2542 89.0087 76.2734 89.1337C76.4753 88.7972 76.6869 88.4703 76.9272 88.1626C76.6388 85.8262 76.1484 82.0668 75.4658 80.5284" fill="#006594"/>
<path d="M83.1385 84.7398C83.1192 82.7688 82.6289 79.3267 82.1097 77.8556C81.6962 76.7114 80.6194 75.048 79.754 73.7019C79.2829 72.9712 78.8406 72.2885 78.7252 72.0193C78.6483 71.827 78.4175 71.7309 78.2252 71.8078C78.0329 71.8943 77.9368 72.1155 78.0233 72.3174C78.1579 72.6539 78.581 73.3077 79.1194 74.125C79.9175 75.3653 81.0136 77.0575 81.3982 78.1152C81.9078 79.5478 82.3885 83.0284 82.3885 84.8841H82.427C82.6577 84.8168 82.8981 84.7687 83.1481 84.7302" fill="#9E0B0F"/>
<path d="M91.6574 80.0764C91.4555 78.6727 91.3881 78.2015 91.1285 76.9997C90.8497 75.7209 90.4844 74.2017 90.2536 73.2595C89.9459 73.0864 89.6479 72.9037 89.3306 72.7114C89.4844 73.3268 90.0132 75.4517 90.3882 77.1631C90.6478 78.3361 90.7151 78.7977 90.9074 80.1822C91.0324 81.0572 91.2824 82.7398 91.5901 84.7877C91.8497 84.7974 92.1093 84.807 92.3689 84.8166C92.042 82.6917 91.792 80.961 91.667 80.0764" fill="#D191C0"/>
<path d="M77.2149 81.9421C76.6861 78.9038 74.3401 74.029 71.8017 71.8753C69.398 69.837 63.6675 66.1737 61.408 65.6641C61.11 65.5968 60.735 65.5006 60.3216 65.3853C60.11 65.5872 59.9081 65.7987 59.7062 66.0102C60.3023 66.1833 60.8311 66.3275 61.2542 66.414C61.9465 66.5679 63.0714 67.0871 64.3406 67.789C63.9464 67.7313 63.5329 67.6928 63.1579 67.664C62.4176 67.6159 60.6677 66.8948 59.3793 66.3467C59.187 66.5487 59.0043 66.741 58.812 66.9429C60.3216 67.5871 62.1772 68.3755 63.1099 68.4332C64.2733 68.5101 65.8309 68.7985 66.2059 68.8658C68.1192 70.0389 70.0807 71.4042 71.3306 72.4522C73.744 74.5002 75.9842 79.1634 76.4842 82.0671C76.8496 84.1535 77.1476 86.24 77.1092 87.8937C77.3399 87.5861 77.5899 87.2976 77.8495 87.0188C77.7918 85.5862 77.5611 83.8939 77.2245 81.9421" fill="#985006"/>
<path d="M96.6857 84.5859H96.7434C96.9838 84.5282 97.2049 84.4609 97.4261 84.3936C97.4165 84.1917 97.4069 83.5571 97.4069 83.4129C97.4069 82.1725 97.2434 78.9515 97.2338 78.8169C97.2242 78.6054 97.0415 78.442 96.8396 78.4516C96.6281 78.4612 96.4742 78.6439 96.4838 78.8554C96.4838 78.8842 96.6473 82.1918 96.6569 83.4225C96.6569 83.6148 96.6665 84.307 96.6857 84.5859Z" fill="#2F631C"/>
<path d="M53.8126 105.027C53.8318 103.845 54.1299 101.998 54.428 101.056C54.6299 100.412 55.1395 99.7101 55.5914 99.0948C55.8702 98.7102 56.1394 98.3448 56.3125 98.0083C56.5336 97.5948 57.6586 94.6142 57.7836 94.2777C57.8605 94.0758 57.7643 93.8546 57.5624 93.7777C57.3701 93.7008 57.149 93.8066 57.0721 93.9989C56.5817 95.3065 55.7933 97.3545 55.6491 97.6333C55.4952 97.9217 55.2452 98.2583 54.9856 98.6236C54.5049 99.287 53.9568 100.037 53.7165 100.806C53.428 101.729 53.0915 103.681 53.0723 105.018C53.3319 105.018 53.5819 105.018 53.8318 105.018" fill="#CA6C18"/>
</g>
<path d="M38.0239 16.2146C37.9758 16.0993 37.9278 15.9743 37.8797 15.8685V15.8493C35.8509 10.4841 31.6685 5.14788 34.5529 2.34033C32.4665 3.85949 27.236 7.6766 22.5247 10.9745C17.9095 14.2147 13.1694 17.0415 12.5541 18.9164C10.6695 24.7142 16.8904 33.108 14.6501 39.9923C12.5348 46.5112 -0.916417 49.5591 0.0835318 54.5973C1.12194 59.799 8.31388 56.8953 14.6116 56.6645C19.996 56.4626 26.6783 56.5107 35.3894 59.0105C37.1297 56.5587 39.1104 53.0012 40.7065 48.0976C41.8795 44.4728 42.2737 40.4922 42.1872 36.5598C41.8795 27.5794 39.8796 21.2432 38.0335 16.205" fill="#FCC8AC"/>
<mask id="mask2_548_10406" style="mask-type:luminance" maskUnits="userSpaceOnUse" x="0" y="2" width="43" height="58">
<path d="M22.5247 10.9843C17.9096 14.2245 13.1694 17.0513 12.5541 18.9358C10.6695 24.7336 16.8904 33.1274 14.6501 40.0117C12.5348 46.5306 -0.916418 49.5785 0.0835318 54.6167C1.12194 59.8087 8.31388 56.9146 14.6116 56.6839C19.996 56.482 26.6783 56.5204 35.3894 59.0299C37.1297 56.5781 39.1104 53.0206 40.6969 48.117C41.8699 44.4922 42.2641 40.5116 42.1776 36.5791C41.8699 27.5988 39.87 21.2626 38.0239 16.2244C37.9758 16.109 37.9278 15.9936 37.8797 15.8783V15.859C35.851 10.4939 31.6589 5.14803 34.5529 2.3501C32.4665 3.86925 27.2264 7.68637 22.5247 10.9843Z" fill="white"/>
</mask>
<g mask="url(#mask2_548_10406)">
<path d="M31.5251 23.6566L31.4097 23.4643C31.7654 23.5509 32.1404 23.5989 32.5154 23.5893C35.0537 23.5797 37.1017 21.5029 37.0921 18.9646C37.0921 18.58 37.044 18.2146 36.9479 17.8589L37.1594 17.9838L37.2459 18.0415L37.4478 18.1569C37.5632 18.2146 37.669 18.2819 37.7843 18.3396L37.8613 18.3781L38.0151 18.455C38.0343 18.628 38.0439 18.7915 38.0439 18.9742C38.0632 22.0413 35.5825 24.5412 32.5154 24.5604C32.3423 24.5604 32.1693 24.5604 31.9962 24.5412L31.9096 24.3778L31.8808 24.3201C31.8231 24.2047 31.7558 24.0893 31.6885 23.9739L31.5827 23.7912L31.5154 23.6759M22.4774 35.8579H22.4101C18.7565 35.8772 15.7566 32.9254 15.7374 29.2621V29.1948C15.4297 29.3102 15.1124 29.4063 14.7855 29.4833C14.9201 33.4927 18.1796 36.704 22.189 36.8002C22.2659 36.4733 22.3621 36.156 22.4678 35.8483M23.9293 38.9347C24.1216 34.4926 27.6695 30.9063 32.1019 30.6659C32.0731 30.464 32.0443 30.2525 32.0346 30.0409C32.0346 29.9352 32.0154 29.8198 32.0058 29.714C27.1214 30.0025 23.2082 33.9542 22.9774 38.8482C23.1024 38.8482 23.2274 38.8578 23.3428 38.877C23.5351 38.8962 23.737 38.9155 23.9293 38.9347ZM22.9966 34.5888L23.0255 34.5215C23.0832 34.4061 23.1409 34.2907 23.2082 34.1849L23.3235 33.983L23.3812 33.8869L23.5062 33.6754C23.1505 33.7619 22.7851 33.8196 22.4005 33.8196C19.8622 33.8388 17.7854 31.7812 17.7757 29.2429C17.7757 28.8583 17.8142 28.4929 17.9104 28.1372L17.7181 28.2526L17.5931 28.3295L17.4104 28.4352C17.295 28.5025 17.1796 28.5602 17.0642 28.6275L17.0162 28.6564L16.8431 28.7429C16.8335 28.916 16.8239 29.0891 16.8239 29.2621C16.8431 32.3293 19.3526 34.8099 22.4101 34.7907C22.5832 34.7907 22.7563 34.7811 22.9293 34.7618L23.0063 34.5984M32.5154 25.6469H32.4577C32.5731 25.9546 32.6692 26.2719 32.7461 26.5988C36.7556 26.4642 39.9765 23.2047 40.0631 19.1953C39.7362 19.1184 39.4189 19.0223 39.1112 18.9165V18.9742C39.1304 22.6278 36.1787 25.6277 32.5154 25.6469ZM8.6416 19.1472C8.63198 17.205 10.1992 15.609 12.151 15.5993C14.0932 15.5897 15.6893 17.1666 15.6989 19.1088C15.7085 21.051 14.1413 22.6471 12.1895 22.6567C10.2473 22.6663 8.65121 21.0895 8.6416 19.1472ZM9.59347 19.1472C9.59347 20.5606 10.7569 21.7144 12.1799 21.7048C13.5933 21.7048 14.7471 20.5414 14.7374 19.1184C14.7374 17.705 13.574 16.5512 12.151 16.5608C10.7376 16.5608 9.58386 17.7242 9.59347 19.1472ZM32.4962 22.5413C30.5539 22.5509 28.9579 20.9741 28.9483 19.0319C28.9386 17.0897 30.5059 15.4936 32.4577 15.484C34.3999 15.4744 35.996 17.0416 36.0056 18.9934C36.0152 20.9356 34.448 22.5317 32.4962 22.5413ZM35.0441 19.003C35.0441 17.5896 33.8807 16.4358 32.4577 16.4455C31.0443 16.4455 29.8905 17.6089 29.9001 19.0319C29.9001 20.4453 31.0635 21.5894 32.4865 21.5894C33.8999 21.5894 35.0537 20.426 35.0441 19.003ZM22.8236 19.9549C22.8043 20.1664 22.7851 20.3683 22.7563 20.5799C27.1887 20.7722 30.7847 24.3201 31.0251 28.7525C31.2462 28.7237 31.4674 28.6948 31.6885 28.6756C31.7847 28.6756 31.8808 28.6564 31.977 28.6468C31.6885 23.7624 27.7368 19.8491 22.8428 19.6184C22.8428 19.7338 22.8332 19.8395 22.8236 19.9549ZM21.7948 18.5223C21.7948 18.4165 21.814 18.3011 21.814 18.1954C21.8332 17.9838 21.8525 17.7723 21.8813 17.5704C17.4488 17.3781 13.8529 13.8302 13.6125 9.39774C13.4202 9.42659 13.2279 9.44582 13.026 9.46505C12.901 9.47466 12.7856 9.48428 12.6606 9.49389C12.9491 14.3783 16.9008 18.2915 21.7948 18.5223ZM12.1895 23.7336C11.8049 23.7336 11.4395 23.6855 11.0838 23.6086L11.2088 23.8009L11.2761 23.9162L11.3818 24.0989C11.4491 24.2143 11.5068 24.3297 11.5741 24.4451L11.603 24.5027L11.6895 24.6662C11.8626 24.6854 12.0357 24.6854 12.2087 24.6854C15.2759 24.6662 17.7469 22.1567 17.7373 19.0992C17.7373 18.9261 17.7277 18.753 17.7084 18.58L17.5546 18.503L17.4777 18.4646C17.3623 18.4069 17.2565 18.3492 17.1412 18.2915L16.9393 18.1761L16.8431 18.1185L16.6316 17.9935C16.7277 18.3492 16.7758 18.7146 16.7758 19.0992C16.7854 21.6375 14.7374 23.7143 12.1991 23.7239M18.8622 29.2429C18.8526 27.3007 20.4198 25.7046 22.3717 25.695C24.3139 25.6854 25.91 27.2526 25.9196 29.2044C25.9292 31.1466 24.362 32.7427 22.4197 32.7523C20.4775 32.7619 18.8815 31.1851 18.8718 29.2429M19.8333 29.2429C19.8333 30.6563 20.9967 31.8101 22.4197 31.8005C23.8331 31.8005 24.9773 30.637 24.9773 29.214C24.9773 27.8007 23.8139 26.6565 22.3909 26.6565C20.9775 26.6565 19.8237 27.8199 19.8333 29.2429ZM12.228 25.7623H12.1703C12.2856 26.07 12.3818 26.3873 12.4587 26.7142C16.4681 26.5796 19.6891 23.3201 19.7756 19.3107C19.4487 19.2338 19.1314 19.1376 18.8238 19.0319V19.0896C18.843 22.7432 15.8912 25.7431 12.228 25.7623ZM22.3044 22.599H22.3717C26.0253 22.5798 29.0252 25.5315 29.0444 29.1948V29.2525C29.3521 29.1371 29.6694 29.041 29.9963 28.9641C29.8521 24.9546 26.6022 21.7337 22.5928 21.6471C22.5159 21.974 22.4197 22.2913 22.314 22.599M21.7852 23.8682L21.7563 23.9259C21.6986 24.0412 21.6313 24.1566 21.5736 24.272L21.4679 24.4547L21.4006 24.5797L21.2852 24.772C21.6409 24.6758 22.0063 24.6277 22.3909 24.6277C24.9292 24.6085 27.0061 26.6661 27.0157 29.2044C27.0157 29.589 26.9676 29.9544 26.8811 30.3101L27.0926 30.1852L27.1791 30.1275L27.381 30.0121C27.4964 29.9448 27.6022 29.8871 27.7176 29.8294L27.7849 29.7909L27.9387 29.714C27.9579 29.541 27.9579 29.3679 27.9579 29.1948C27.9387 26.1277 25.4292 23.647 22.3717 23.6663C22.1986 23.6663 22.0255 23.6759 21.8525 23.6951L21.7755 23.8585M20.8429 19.503C20.6506 23.9355 17.1027 27.5314 12.6702 27.7718C12.6991 27.9737 12.7279 28.1853 12.7375 28.3872C12.7472 28.4929 12.7568 28.6083 12.7664 28.7237C17.6508 28.4352 21.564 24.4835 21.7948 19.5895C21.6986 19.5895 21.6025 19.5799 21.5063 19.5703C21.2852 19.5511 21.064 19.5318 20.8429 19.503ZM31.9289 9.40736C27.0445 9.6958 23.1312 13.6475 22.9005 18.5415C23.0255 18.5415 23.1505 18.5511 23.2659 18.5704C23.4678 18.5896 23.6601 18.6088 23.8524 18.628C24.0447 14.186 27.5926 10.5996 32.025 10.3592C31.9962 10.1573 31.977 9.94579 31.9577 9.73426C31.9481 9.6285 31.9385 9.51312 31.9289 9.40736ZM32.4769 13.4552C29.4098 13.4745 26.9387 15.9839 26.9484 19.0415C26.9484 19.2146 26.958 19.3876 26.9772 19.5607L27.1407 19.6472L27.1983 19.6761C27.3137 19.7338 27.4291 19.8011 27.5445 19.8587L27.7272 19.9645L27.8522 20.0414L28.0445 20.1568C27.9579 19.8011 27.9002 19.4261 27.9002 19.0511C27.881 16.5128 29.9386 14.4359 32.4769 14.4263C32.8615 14.4263 33.2269 14.4648 33.5826 14.5513L33.4576 14.3494L33.4 14.2533L33.2846 14.0514C33.2173 13.9456 33.1596 13.8302 33.1019 13.7148L33.0634 13.6475L32.9769 13.4841C32.8038 13.4648 32.6404 13.4648 32.4577 13.4648M24.91 18.8396C25.2369 18.9165 25.5542 19.0126 25.8619 19.1184V19.0607C25.8426 15.4071 28.7944 12.4072 32.4577 12.388H32.5154C32.4096 12.0803 32.3039 11.763 32.2269 11.4361C28.2175 11.5707 25.0061 14.8302 24.91 18.8396ZM32.8615 7.34977C32.8904 7.55168 32.9192 7.76321 32.9288 7.97474C32.9384 8.0805 32.9481 8.19588 32.9577 8.31126C37.842 8.02281 41.7553 4.07109 41.9861 -0.822894C41.8899 -0.822894 41.7938 -0.832509 41.6976 -0.842124C41.4765 -0.861353 41.2553 -0.880583 41.0342 -0.909428C40.8419 3.52304 37.294 7.11901 32.8615 7.35938M30.9289 8.44587C31.1501 8.41702 31.3712 8.38818 31.5924 8.36895C31.6885 8.36895 31.7847 8.34972 31.8808 8.34972C31.5924 3.46535 27.6406 -0.447913 22.7467 -0.67867C22.7467 -0.563292 22.737 -0.457528 22.7274 -0.342149C22.7082 -0.130621 22.689 0.0712916 22.6601 0.282819C27.0926 0.475117 30.6886 4.02301 30.9289 8.45548M29.0829 39.3674C29.0732 37.4252 30.6405 35.8291 32.5923 35.8195C34.5345 35.8099 36.1306 37.3771 36.1402 39.3289C36.1498 41.2711 34.573 42.8672 32.6308 42.8768C30.6886 42.8864 29.0925 41.3192 29.0829 39.3674ZM30.0444 39.3674C30.0444 40.7808 31.2078 41.9346 32.6308 41.9249C34.0442 41.9249 35.1979 40.7615 35.1883 39.3385C35.1883 37.9251 34.0249 36.7714 32.6019 36.781C31.1885 36.781 30.0444 37.9444 30.0444 39.3674ZM14.1125 31.7908C13.9106 31.137 13.4683 30.4448 13.4202 29.7332C13.2279 29.7621 13.3529 29.7813 13.1606 29.8006C13.0356 29.8102 12.9202 29.8198 12.7952 29.8294C13.0837 34.7138 17.0354 38.627 21.9294 38.8578C21.9294 38.752 21.939 38.6366 21.9486 38.5309C21.9678 38.3194 21.9871 38.1078 22.0159 37.9059C18.295 37.7425 15.1701 35.2234 14.1125 31.7908ZM12.276 35.9445C14.2182 35.9349 15.8143 37.5117 15.8239 39.4539C15.8335 41.3961 14.2567 42.9922 12.3145 43.0018C10.3723 43.0114 8.7762 41.4346 8.76659 39.4924C8.75697 37.5502 10.3242 35.9541 12.276 35.9445ZM9.72808 39.4828C9.72808 40.8961 10.8915 42.0499 12.3145 42.0403C13.7279 42.0403 14.8817 40.8769 14.872 39.4539C14.872 38.0405 13.7086 36.8867 12.2856 36.8964C10.8723 36.8964 9.72808 38.0597 9.72808 39.4828ZM31.8231 49.0111C31.9193 49.0111 32.0154 48.9919 32.1116 48.9919C31.8231 44.1075 27.8714 40.1943 22.9774 39.9635C22.9774 40.0789 22.9678 40.1846 22.9582 40.3C22.9389 40.5116 22.9197 40.7135 22.8909 40.925C27.3233 41.1173 30.9193 44.6652 31.1597 49.0977C31.3808 49.0688 31.602 49.04 31.8231 49.0207M42.6976 25.6181C44.6398 25.6085 46.2358 27.1757 46.2455 29.1275C46.2551 31.0697 44.6878 32.6658 42.7456 32.6754C40.8034 32.685 39.2074 31.1178 39.1977 29.166C39.1881 27.2238 40.7554 25.6277 42.7072 25.6181M42.7072 26.5796C41.2938 26.5796 40.14 27.743 40.1496 29.166C40.1496 30.5794 41.313 31.7331 42.736 31.7235C44.1494 31.7235 45.2936 30.5601 45.2936 29.1371C45.2936 27.7237 44.1302 26.5796 42.7072 26.5796ZM38.2459 28.0603L38.0536 28.1756L37.9286 28.2526L37.7459 28.3583C37.6305 28.4256 37.5151 28.4833 37.3998 28.5506L37.3517 28.5795L37.1786 28.666C37.169 28.8391 37.1594 29.0121 37.1594 29.1852C37.1786 32.2524 39.6881 34.7234 42.7456 34.7138C42.9187 34.7138 43.0918 34.7042 43.2648 34.6849L43.3418 34.5215L43.3706 34.4542C43.4283 34.3388 43.486 34.2234 43.5533 34.1176L43.6687 33.9157L43.7264 33.8196L43.8513 33.6081C43.4956 33.6946 43.1302 33.7523 42.7456 33.7523C40.2073 33.7619 38.1305 31.7139 38.1209 29.1756C38.1209 28.791 38.1593 28.4256 38.2555 28.0699M33.3807 9.38813C33.2557 9.39774 33.1404 9.40736 33.0154 9.41697C33.3038 14.3013 37.2555 18.2146 42.1495 18.4454C42.1495 18.3396 42.1687 18.2242 42.1687 18.1185C42.188 17.9069 42.2072 17.6954 42.236 17.4935C37.8036 17.3012 34.2076 13.7533 33.9672 9.32082C33.7749 9.34967 33.5826 9.3689 33.3807 9.38813ZM23.1889 54.8858C23.2466 54.7704 23.3043 54.6551 23.3716 54.5493L23.487 54.3474L23.5447 54.2512L23.6697 54.0397C23.3139 54.1262 22.9486 54.1839 22.564 54.1839C20.0256 54.2032 17.9488 52.1456 17.9392 49.6072C17.9392 49.2226 17.9873 48.8573 18.0738 48.5015L17.8815 48.6169L17.7565 48.6938L17.5738 48.7996C17.4585 48.8669 17.3431 48.9246 17.2277 48.9919L17.1796 49.0207L17.0066 49.1073C16.9969 49.2803 16.9873 49.4534 16.9873 49.6265C17.0066 52.6936 19.5064 55.1743 22.5736 55.155C22.7467 55.155 22.9197 55.1454 23.0928 55.1262L23.1697 54.9627L23.1985 54.8954M22.5736 56.2223C18.9103 56.2415 15.9201 53.2897 15.9008 49.6265V49.5688C15.5932 49.6842 15.2759 49.7803 14.949 49.8572C15.0836 53.8666 18.343 57.078 22.3524 57.1742C22.4294 56.8473 22.5255 56.53 22.6313 56.2223H22.564M26.9964 50.6745L27.208 50.5399L27.2945 50.4822L27.4964 50.3668C27.6022 50.3091 27.7176 50.2418 27.8329 50.1841L27.9002 50.1457L28.0541 50.0688C28.0733 49.8957 28.0829 49.7322 28.0733 49.5496C28.0541 46.4824 25.5446 44.0018 22.487 44.021C22.314 44.021 22.1409 44.0306 21.9678 44.0498L21.8909 44.2133L21.8621 44.271C21.8044 44.3864 21.7467 44.5017 21.6794 44.6171L21.5736 44.7998L21.5063 44.9152L21.3909 45.1075C21.7467 45.0209 22.1217 44.9632 22.4967 44.9632C25.035 44.944 27.1118 47.0016 27.1214 49.5399C27.1214 49.9245 27.0734 50.2899 26.9964 50.6457M29.1598 49.588C29.4675 49.4726 29.7848 49.3765 30.1117 49.2996C29.9674 45.2902 26.7176 42.0692 22.7082 41.9826C22.6313 42.3095 22.5351 42.6268 22.4294 42.9345H22.4967C26.1503 42.9153 29.1502 45.867 29.1694 49.5303V49.588M2.19 43.0499C5.84366 43.0307 8.84351 45.9824 8.86274 49.6457V49.7034C9.17042 49.5976 9.48771 49.4919 9.81461 49.4149C9.67039 45.4055 6.42055 42.1942 2.41114 42.098C2.33422 42.4249 2.23807 42.7422 2.13231 43.0499H2.19961M19.0257 49.588C19.0161 47.6458 20.5833 46.0497 22.5351 46.0401C24.4773 46.0305 26.0734 47.6073 26.083 49.5496C26.0926 51.4918 24.5158 53.0878 22.5736 53.0975C20.6314 53.1071 19.0353 51.5398 19.0257 49.588ZM19.9776 49.588C19.9776 51.0014 21.141 52.1456 22.564 52.1456C23.9774 52.1456 25.1311 50.9822 25.1215 49.5592C25.1215 48.1458 23.9581 47.0016 22.5351 47.0016C21.1217 47.0016 19.9679 48.165 19.9776 49.588ZM39.342 49.4823C39.3323 47.54 40.8996 45.944 42.8514 45.9343C44.7936 45.9247 46.3897 47.492 46.3993 49.4438C46.4089 51.386 44.8417 52.9821 42.8899 52.9917C40.9477 53.0013 39.3516 51.4245 39.342 49.4823ZM40.3035 49.4823C40.3035 50.8956 41.4669 52.0494 42.8899 52.0398C44.3032 52.0398 45.457 50.8764 45.4474 49.4534C45.4474 48.04 44.284 46.8958 42.861 46.8958C41.4476 46.8958 40.2938 48.0592 40.3035 49.4823ZM2.20923 45.0979C4.74756 45.0882 6.82438 47.1362 6.83399 49.6745C6.83399 50.0591 6.78592 50.4245 6.69939 50.7803L6.91091 50.6553L6.99745 50.5976L7.19936 50.4822C7.30512 50.4149 7.4205 50.3572 7.53588 50.2995L7.60319 50.2611L7.75702 50.1841C7.77625 50.0111 7.77625 49.8476 7.77625 49.6649C7.75702 46.5978 5.24754 44.1268 2.19 44.1364C2.01693 44.1364 1.84386 44.146 1.67079 44.1652L1.59388 44.3287L1.56503 44.3864C1.50734 44.5017 1.44965 44.6171 1.38235 44.7325L1.27658 44.9152L1.20928 45.0306L1.0939 45.2229C1.44965 45.1363 1.81502 45.0786 2.19961 45.0786M10.8723 49.1938C11.0934 49.165 11.3145 49.1361 11.5357 49.1169C11.6318 49.1169 11.728 49.0977 11.8241 49.0977C11.5357 44.2133 7.58396 40.3 2.68997 40.0693C2.68997 40.1846 2.67074 40.2904 2.67074 40.3962C2.65151 40.6077 2.63228 40.8096 2.60344 41.0211C7.04552 41.2134 10.6319 44.7613 10.8723 49.1938ZM43.5148 54.7416C43.5725 54.6262 43.6302 54.5108 43.6975 54.4051L43.8129 54.2032L43.8706 54.107L43.9956 53.8955C43.6398 53.982 43.2745 54.0397 42.8899 54.0397C40.3515 54.0493 38.2747 52.0014 38.2651 49.463C38.2651 49.0784 38.3132 48.7131 38.3997 48.3573L38.2074 48.4727L38.0824 48.5496L37.8997 48.6554C37.7844 48.7227 37.669 48.7804 37.5536 48.8477L37.5055 48.8765L37.3325 48.963C37.3228 49.1361 37.3132 49.3092 37.3132 49.4823C37.3325 52.5494 39.8323 55.03 42.8995 55.0108C43.0725 55.0108 43.2456 55.0012 43.4187 54.982L43.4956 54.8185L43.5244 54.7512M2.26692 56.3088C-1.38674 56.3281 -4.38659 53.3667 -4.40582 49.713V49.6553C-4.7135 49.7707 -5.03079 49.8668 -5.3577 49.9438C-5.22309 53.9532 -1.96364 57.1742 2.04578 57.2607C2.12269 56.9338 2.21884 56.6165 2.32461 56.3088H2.2573M42.8899 56.0781C39.2266 56.0973 36.2364 53.1359 36.2171 49.4823V49.4246C35.9094 49.5399 35.5922 49.6361 35.2652 49.713C35.4095 53.7224 38.6593 56.9338 42.6687 57.0299C42.7456 56.703 42.8418 56.3857 42.9476 56.0781H42.8802M22.2467 4.29223C24.785 4.273 26.8618 6.33059 26.8714 8.86892C26.8714 9.25352 26.833 9.61889 26.7368 9.97464L26.9484 9.84964L27.0445 9.79195L27.2464 9.67657C27.3522 9.60927 27.4676 9.55158 27.5829 9.49389L27.6502 9.45543L27.8041 9.37851C27.8137 9.20544 27.8233 9.03238 27.8233 8.85931C27.8041 5.79216 25.2946 3.31151 22.2371 3.33074C22.064 3.33074 21.8909 3.34036 21.7179 3.35959L21.6409 3.52304L21.6121 3.58073C21.5544 3.69611 21.4871 3.81149 21.4294 3.92687L21.3236 4.10955L21.2563 4.23454L21.141 4.42684C21.4967 4.33069 21.8621 4.28262 22.2467 4.28262M18.7469 8.89777C18.7372 6.95556 20.3141 5.35949 22.2563 5.34987C24.1985 5.34026 25.7946 6.90748 25.8042 8.85931C25.8138 10.8015 24.237 12.3976 22.2948 12.4072C20.3525 12.4168 18.7565 10.84 18.7469 8.89777ZM19.7083 8.89777C19.7083 10.3112 20.8717 11.4553 22.2948 11.4553C23.7081 11.4553 24.8523 10.2919 24.8523 8.86892C24.8523 7.45553 23.6889 6.31136 22.2659 6.31136C20.8525 6.31136 19.6987 7.47476 19.7083 8.89777ZM2.84381 54.9435C2.9015 54.8281 2.95919 54.7128 3.02649 54.607L3.14187 54.4051L3.19956 54.3089L3.32456 54.0974C2.96881 54.1839 2.60344 54.2416 2.21884 54.2416C-0.319489 54.2512 -2.39631 52.2033 -2.40592 49.6649C-2.40592 49.2803 -2.35785 48.915 -2.27131 48.5592L-2.46361 48.6746L-2.5886 48.7515L-2.77129 48.8573C-2.88667 48.9246 -3.00205 48.9823 -3.11742 49.0496L-3.1655 49.0784L-3.33857 49.165C-3.3578 49.338 -3.3578 49.5015 -3.3578 49.6842C-3.33857 52.7513 -0.838694 55.232 2.22846 55.2127C2.40153 55.2127 2.57459 55.2031 2.74766 55.1839L2.82458 55.0204L2.85343 54.9531M42.1014 19.4645C42.0053 19.4645 41.9091 19.4549 41.813 19.4453C41.5919 19.4261 41.3707 19.4069 41.1496 19.378C40.9573 23.8201 37.4094 27.4064 32.9769 27.6468C33.0057 27.8487 33.0346 28.0603 33.0442 28.2718C33.0538 28.3775 33.0634 28.4929 33.0731 28.6083C37.9574 28.3199 41.8707 24.3681 42.1014 19.4742M32.5827 34.7234C32.9673 34.7234 33.3327 34.7715 33.6884 34.8484L33.5634 34.6465L33.5057 34.5503L33.3903 34.3484C33.3326 34.233 33.2653 34.1273 33.2077 34.0119L33.1692 33.9446L33.0923 33.7811C32.9192 33.7619 32.7461 33.7619 32.5731 33.7619C29.5059 33.7811 27.0253 36.2906 27.0445 39.3481C27.0445 39.5212 27.0541 39.6943 27.0734 39.8674L27.2368 39.9539L27.2945 39.9827C27.4099 40.0404 27.5253 40.1077 27.6406 40.1654L27.8233 40.2712L27.9483 40.3481L28.1406 40.4635C28.0541 40.1077 27.9964 39.7424 27.9964 39.3578C27.9772 36.8194 30.0347 34.7426 32.5731 34.733M22.2948 14.4744C22.4678 14.4744 22.6409 14.4648 22.814 14.4456L22.8909 14.2821L22.9197 14.2148C22.9774 14.0994 23.0351 13.984 23.1024 13.8783L23.2178 13.6764L23.2755 13.5802L23.4005 13.3687C23.0447 13.4648 22.6793 13.5129 22.2948 13.5129C19.7564 13.5321 17.6796 11.4746 17.67 8.93623C17.67 8.55163 17.7084 8.18626 17.795 7.8209L17.6027 7.93628L17.4777 8.0132L17.295 8.11896C17.1796 8.18626 17.0642 8.24395 16.9489 8.31126L16.9008 8.3401L16.7277 8.42664C16.7181 8.59971 16.7085 8.76316 16.7085 8.94584C16.7277 12.013 19.2372 14.484 22.2948 14.4744ZM42.7937 35.7522H42.7264C39.0727 35.7714 36.0825 32.8196 36.0537 29.1564V29.0987C35.746 29.214 35.4287 29.3102 35.1018 29.3871C35.2364 33.3965 38.4958 36.6079 42.5053 36.7041C42.5822 36.3771 42.6783 36.0599 42.7841 35.7522M35.9383 8.84008V8.78239C35.6306 8.89777 35.3133 8.99392 34.9864 9.07084C35.1306 13.0802 38.3805 16.2916 42.3899 16.3878C42.4668 16.0609 42.563 15.7436 42.6687 15.4359H42.6014C38.9478 15.4551 35.9479 12.5034 35.9287 8.84008M22.2371 2.26349C25.8907 2.24426 28.8906 5.20565 28.9098 8.85931V8.917C29.2175 8.80162 29.5348 8.70547 29.8617 8.62855C29.7271 4.61914 26.4676 1.39815 22.4582 1.31161C22.3813 1.63852 22.2851 1.95581 22.1794 2.26349H22.2467M22.1025 16.4743C22.1794 16.1474 22.2755 15.8301 22.3813 15.5224H22.314C18.6603 15.5417 15.6605 12.5899 15.6412 8.92661V8.86892C15.3336 8.9843 15.0163 9.08045 14.6894 9.15737C14.824 13.1668 18.0834 16.3782 22.0928 16.4743M-1.33867 49.6553C-1.34828 47.7131 0.218946 46.117 2.17077 46.1074C4.11298 46.0978 5.70905 47.6746 5.71867 49.6169C5.72828 51.5591 4.16105 53.1551 2.20923 53.1648C0.26702 53.1744 -1.32905 51.6071 -1.33867 49.6553ZM-0.386793 49.6553C-0.386793 51.0687 0.776609 52.2225 2.19961 52.2129C3.613 52.2129 4.76679 51.0495 4.75718 49.6265C4.75718 48.2131 3.59377 47.0689 2.17077 47.0689C0.75738 47.0689 -0.396408 48.2323 -0.386793 49.6553ZM32.5635 32.6754H32.6211C32.5154 32.3677 32.4192 32.0504 32.3327 31.7235C28.3233 31.8581 25.1023 35.1176 25.0158 39.127C25.3427 39.2039 25.66 39.3001 25.9676 39.4058V39.3481C25.9484 35.6945 28.9002 32.6946 32.5635 32.6754ZM12.3818 56.2127C10.4396 56.2223 8.86274 57.8088 8.87235 59.7606H9.82423C9.82423 58.3376 10.9588 57.1838 12.3818 57.1742C13.7952 57.1742 14.9586 58.3087 14.9682 59.7317H15.9297C15.9201 57.7799 14.324 56.2127 12.3818 56.2223M12.3818 55.1454C12.7664 55.1454 13.1318 55.1839 13.4875 55.2704L13.3625 55.0685L13.3048 54.9724L13.1894 54.7801C13.1318 54.6647 13.0644 54.5589 13.0068 54.4435L12.9683 54.3762L12.8914 54.2128C12.7183 54.2032 12.5549 54.1935 12.3722 54.1935C9.30502 54.2128 6.82438 56.7223 6.84361 59.7798H7.79548C7.78587 57.2415 9.83384 55.1647 12.3722 55.155M12.3626 53.1263H12.4299C12.3145 52.8186 12.2183 52.5013 12.1414 52.1744C8.13201 52.309 4.91101 55.5685 4.82448 59.5779C5.08408 59.6452 5.34369 59.7125 5.59367 59.799H5.77636C5.75713 56.1454 8.71852 53.1455 12.3722 53.1263M32.6885 53.0109H32.7461C32.6404 52.7032 32.5346 52.3859 32.4577 52.059C28.4483 52.1937 25.2369 55.4531 25.1408 59.4625C25.4004 59.5298 25.66 59.5971 25.91 59.6837H26.0926C26.0734 56.03 29.0348 53.0301 32.6885 53.0109ZM32.7077 56.1165C30.7655 56.1261 29.1886 57.7222 29.1982 59.6644H30.1501C30.1501 58.2414 31.2847 57.0876 32.7077 57.078C34.1211 57.078 35.2845 58.2126 35.2941 59.6356H36.246C36.2364 57.6838 34.6403 56.1165 32.6981 56.1261M32.6981 55.0493C33.0827 55.0493 33.448 55.0973 33.8038 55.1743L33.6788 54.9724L33.6211 54.8762L33.5057 54.6743C33.448 54.5589 33.3807 54.4532 33.323 54.3378L33.2846 54.2705L33.198 54.107C33.025 54.0878 32.8519 54.0878 32.6788 54.0878C29.6117 54.107 27.1407 56.6069 27.1503 59.674H28.1021C28.0925 57.1357 30.1405 55.0589 32.6788 55.0493M53.0047 56.0108C51.0625 56.0204 49.4857 57.6165 49.4953 59.5587H50.4568C50.4568 58.1357 51.5913 56.9819 53.0143 56.9723V56.0108M52.9951 52.9052V52.7225C52.9086 52.4725 52.8317 52.2129 52.7644 51.9533C48.7549 52.0975 45.534 55.3473 45.4474 59.3568C45.707 59.4144 45.9666 59.4914 46.2166 59.5779H46.3993C46.3801 55.9146 49.3415 52.9244 52.9951 52.9052ZM53.0047 54.9339V53.9724C49.9376 53.9916 47.4569 56.5011 47.4762 59.5587H48.428C48.4088 57.0203 50.4664 54.9435 53.0047 54.9243M32.6308 44.8767C35.6979 44.8575 38.1689 42.348 38.1593 39.2905C38.1593 39.1174 38.1497 38.9443 38.1305 38.7713L37.9766 38.6943L37.8997 38.6559C37.7844 38.5982 37.6786 38.5405 37.5632 38.4828L37.3613 38.3674L37.2748 38.3097L37.0632 38.1847C37.1498 38.5405 37.2075 38.9059 37.2075 39.2905C37.2267 41.8288 35.1691 43.9056 32.6308 43.9152C32.2462 43.9152 31.8808 43.8768 31.5251 43.7806L31.65 43.9729L31.7174 44.0883L31.8231 44.271C31.8904 44.3864 31.9481 44.5017 32.0058 44.6171L32.0346 44.6748L32.1212 44.8383C32.2942 44.8575 32.4673 44.8575 32.6404 44.8575M40.1977 39.4828C39.8708 39.4058 39.5535 39.3097 39.2458 39.2039V39.2616C39.265 42.9153 36.3133 45.9151 32.65 45.9343H32.5923C32.6981 46.242 32.7942 46.5593 32.8808 46.8862C36.8902 46.7516 40.1112 43.4922 40.1977 39.4828ZM13.8625 50.0015C13.6702 50.0303 13.4779 50.0495 13.276 50.0688C13.151 50.0784 13.0356 50.088 12.9106 50.0976C13.1991 54.982 17.1508 58.8952 22.0448 59.126C22.0448 59.0202 22.0544 58.9145 22.064 58.7991C22.0832 58.5876 22.1025 58.376 22.1313 58.1741C17.6988 57.9818 14.1029 54.4339 13.8625 50.0015ZM52.5624 50.8572C52.5336 50.6553 52.5048 50.4437 52.4855 50.2322C52.4855 50.1264 52.4663 50.0207 52.4567 49.9053C47.5723 50.1938 43.6591 54.1455 43.4283 59.0395C43.5533 59.0395 43.6783 59.0587 43.7937 59.0683C43.986 59.0875 44.1879 59.1068 44.3802 59.126C44.5725 54.6935 48.1204 51.0976 52.5528 50.8572M12.8625 49.0207C17.7469 48.7323 21.6602 44.7806 21.8909 39.8866C21.7948 39.8866 21.6986 39.877 21.6025 39.8674C21.3813 39.8481 21.1602 39.8289 20.939 39.8C20.7468 44.2325 17.1989 47.8285 12.7664 48.0689C12.7952 48.2708 12.8145 48.4823 12.8337 48.6842C12.8433 48.79 12.8529 48.9054 12.8625 49.0207ZM33.1788 48.9054C38.0632 48.6169 41.9764 44.6652 42.2072 39.7712C42.1111 39.7712 42.0149 39.7616 41.9188 39.752C41.6976 39.7327 41.4765 39.7135 41.2553 39.6847C41.063 44.1268 37.5151 47.7131 33.0827 47.9535C33.1115 48.1554 33.1404 48.3669 33.15 48.5784C33.1596 48.6842 33.1692 48.7996 33.1788 48.915M34.1691 49.8957C33.9768 49.9245 33.7845 49.9438 33.5826 49.963C33.4576 49.9726 33.3423 49.9822 33.2173 49.9918C33.5057 54.8762 37.4574 58.7895 42.3514 59.0202C42.3514 58.9145 42.361 58.7991 42.3707 58.6933C42.3899 58.4818 42.4091 58.2703 42.438 58.0684C37.9959 57.8761 34.4095 54.3282 34.1691 49.8957ZM32.2366 50.9822C32.2077 50.7706 32.1789 50.5687 32.1596 50.3572C32.1596 50.2514 32.1404 50.1361 32.1308 50.0303C27.2464 50.3187 23.3332 54.2705 23.1024 59.1645C23.2274 59.1645 23.3524 59.1837 23.4678 59.1933C23.6601 59.2125 23.862 59.2318 24.0543 59.251C24.2466 54.8089 27.7945 51.2225 32.2269 50.9822M19.8622 39.6077C19.5353 39.5308 19.218 39.4347 18.9103 39.3289V39.3866C18.9295 43.0403 15.9778 46.0401 12.3145 46.0593H12.2472C12.3626 46.367 12.4587 46.6843 12.5356 47.0112C16.545 46.8766 19.766 43.6172 19.8526 39.6077M11.901 51.0976C11.8722 50.886 11.8434 50.6841 11.8241 50.4726C11.8241 50.3668 11.8049 50.2611 11.7953 50.1457C6.91091 50.4341 2.99765 54.3858 2.76689 59.2798C2.89189 59.2798 3.01688 59.2991 3.13226 59.3087C3.32456 59.3279 3.52647 59.3471 3.71877 59.3664C3.91107 54.9339 7.45896 51.3379 11.8914 51.0976M11.3626 44.2133L11.4684 44.396C11.5357 44.5113 11.5934 44.6267 11.6607 44.7421L11.6895 44.7998L11.7761 44.9632C11.9491 44.9825 12.1222 44.9825 12.2953 44.9825C15.3624 44.9632 17.8334 42.4538 17.8238 39.3962C17.8238 39.2232 17.8142 39.0501 17.795 38.877L17.6411 38.8001L17.5642 38.7616C17.4488 38.7039 17.3335 38.6463 17.2277 38.579L17.0258 38.4636L16.9393 38.4059L16.7277 38.2809C16.8143 38.6366 16.8623 39.002 16.8719 39.3866C16.8912 41.9249 14.8336 44.0018 12.2953 44.0114C11.9107 44.0114 11.5453 43.9729 11.1895 43.8864L11.3049 44.0787L11.3722 44.1941M-6.46341 50.1168C-6.65571 50.1457 -6.848 50.1649 -7.04992 50.1841C-7.17491 50.1938 -7.29029 50.2034 -7.41528 50.213C-7.12684 55.0973 -3.17511 59.0106 1.71887 59.2414C1.71887 59.1356 1.72849 59.0202 1.7381 58.9145C1.75733 58.7029 1.77656 58.4914 1.8054 58.2895C-2.62706 58.0972 -6.22304 54.5493 -6.46341 50.1168ZM32.4096 5.31141H32.3519C32.4577 5.61909 32.5635 5.93638 32.6404 6.26329C36.6498 6.12868 39.8612 2.86923 39.9573 -1.14019C39.6977 -1.20749 39.4381 -1.27479 39.1881 -1.36133H39.0054C39.0247 2.30195 36.0633 5.29218 32.4096 5.31141ZM31.477 3.46535L31.5827 3.64803C31.65 3.76341 31.7077 3.87879 31.775 3.99417L31.8039 4.05186L31.8904 4.21531C32.0635 4.23454 32.2366 4.23454 32.4096 4.23454C35.4768 4.21531 37.9478 1.70582 37.9382 -1.35171H36.9767C36.9959 1.18662 34.9383 3.26344 32.4 3.28267C32.0154 3.28267 31.65 3.23459 31.2943 3.14806L31.4097 3.34036L31.477 3.45574M42.4091 38.7039C42.4283 38.3867 42.438 38.0694 42.4476 37.7521H42.313C37.8709 37.5502 34.2845 34.0023 34.0442 29.5698C33.8519 29.5986 33.6596 29.6179 33.4576 29.6371C33.3326 29.6467 33.2173 29.6563 33.0923 29.6659C33.3807 34.5503 37.3325 38.4636 42.2264 38.6943H42.4091" fill="#ED1D24"/>
</g>
<path d="M88.6091 72.3275C88.7148 72.3948 88.8302 72.4621 88.9264 72.5198V72.539C93.7338 75.6735 100.253 77.5388 99.57 81.5097C100.358 79.0579 102.358 72.8948 104.224 67.4528C106.05 62.1165 108.233 57.0398 107.618 55.1649C105.733 49.3671 95.7722 46.2327 93.5319 39.3484C91.4166 32.8295 100.503 22.455 96.7337 18.9745C92.8396 15.3785 88.7244 21.9551 83.7632 25.8491C79.523 29.1759 74.0906 33.0699 65.5718 36.1563C65.6102 39.1657 66.091 43.204 67.6871 48.1076C68.8697 51.7324 70.8888 55.1842 73.2733 58.309C78.8019 65.3952 84.1381 69.3469 88.5995 72.3371" fill="#B4DDC1"/>
<mask id="mask3_548_10406" style="mask-type:luminance" maskUnits="userSpaceOnUse" x="65" y="17" width="43" height="65">
<path d="M83.7737 25.8393C79.5335 29.1661 74.1011 33.0601 65.5823 36.1465C65.6207 39.156 66.1015 43.1942 67.6976 48.0978C68.8706 51.7226 70.8993 55.1744 73.2838 58.2992C78.8124 65.3854 84.1486 69.3275 88.6003 72.3177C88.7061 72.3851 88.8215 72.4524 88.9176 72.51V72.5293C93.7251 75.6637 100.254 77.529 99.5613 81.5C100.35 79.0482 102.35 72.885 104.215 67.443C106.042 62.1067 108.224 57.0301 107.609 55.1552C105.724 49.3574 95.7634 46.2229 93.5232 39.3386C91.4079 32.8197 100.494 22.4453 96.7249 18.9647C95.9365 18.2339 95.1385 17.9263 94.3212 17.9263C91.1291 17.9263 87.7062 22.7337 83.7544 25.8393" fill="white"/>
</mask>
<g mask="url(#mask3_548_10406)">
<path d="M74.793 53.6743C74.8219 53.8185 78.1294 67.0006 79.1967 70.9234C75.9949 65.8083 74.12 59.7702 74.793 53.6743Z" fill="#004521"/>
<path d="M74.9568 45.5303C75.7933 49.7801 81.6295 65.7985 82.9852 67.9907C79.8027 64.8851 73.9184 54.8567 74.9568 45.5303Z" fill="#004521"/>
<path d="M75.7549 40.4828C76.7164 46.319 78.7163 50.0977 82.7834 57.8665L85.4275 62.7701L85.3794 62.8086L85.2832 62.6451L85.4371 62.7797L85.3986 62.8182C81.0815 59.7029 74.7645 49.5688 75.7645 40.4731" fill="#004521"/>
<path d="M76.2935 37.2715C77.4088 42.7231 84.5815 52.5592 87.8794 57.8858C82.0528 52.8861 75.5627 44.8865 76.2935 37.2715Z" fill="#004521"/>
<path d="M77.0054 33.9731C78.063 39.0498 85.005 46.386 89.9086 54.299C84.2358 49.3858 76.3612 41.3574 77.0054 33.9731Z" fill="#004521"/>
<path d="M77.706 31.3101C78.754 36.1079 86.119 41.0019 92.436 50.7802C85.7345 44.9536 77.2349 37.7136 77.706 31.3101Z" fill="#004521"/>
<path d="M78.456 29.2236C79.4271 33.2811 89.0612 37.2232 95.0513 46.7227C86.6479 39.5693 78.1483 34.2618 78.456 29.2236Z" fill="#004521"/>
<path d="M79.0436 27.166C79.5724 29.1563 82.0531 29.6659 86.9567 32.608C90.7065 34.8579 94.9851 38.7616 97.5042 42.6941C87.7643 34.5118 78.8994 31.0024 79.0436 27.166Z" fill="#004521"/>
<path d="M79.5247 25.5601C79.5247 25.5601 79.5439 25.81 79.8035 26.06C81.5535 27.6465 92.3125 26.8196 99.8218 38.3959C91.4472 31.0982 85.6686 30.1175 80.9766 27.31C79.2363 26.2908 79.5247 25.5601 79.5247 25.5601Z" fill="#004521"/>
<path d="M80.1577 24.3973C80.1577 24.3973 80.0904 24.7242 81.0615 24.7434C81.3019 24.7434 81.7346 24.705 82.3403 24.6665C85.9747 24.4069 95.5416 24.1473 102.445 34.6276C98.2626 30.9547 95.5993 29.1663 89.8688 27.2049C84.2248 25.2626 80.1481 25.4646 80.1673 24.3877" fill="#004521"/>
<path d="M80.4466 23.0218C80.4466 23.0218 80.2927 23.2237 81.5235 22.7814C91.398 19.272 99.2629 22.5507 104.743 30.8099C98.3976 25.1563 92.1575 22.2526 82.9368 22.9737C81.7158 23.0795 80.687 23.2141 80.4947 23.0891L80.4562 23.0122" fill="#004521"/>
<path d="M80.8311 21.5702C86.5038 16.5224 98.1379 15.3302 106.782 27.4642C100.945 22.2817 95.6284 19.1088 87.2634 19.9453C84.4078 20.2434 82.081 20.9453 80.8311 21.5702Z" fill="#004521"/>
<path d="M72.2652 49.5591C70.7076 53.4627 68.3423 57.9625 62.7849 62.2123C66.9482 54.9819 68.9481 52.7032 72.2652 49.5591Z" fill="#004521"/>
<path d="M73.2069 44.3765C68.9187 53.9625 60.6787 57.6931 59.0057 58.0969C60.7845 57.0008 61.0249 56.4528 73.2069 44.3765Z" fill="#004521"/>
<path d="M73.8698 40.2424C70.8699 46.6363 64.3703 51.8476 56.3322 53.2129L56.3033 53.136L56.5341 53.0975L56.3322 53.2033L56.3033 53.1263C68.4181 45.9632 71.341 42.9538 73.8602 40.2231" fill="#004521"/>
<path d="M74.3703 37.1177C71.0724 43.8866 62.5632 46.5114 55.1021 47.521C61.8229 44.1462 70.3801 41.204 74.3703 37.1177Z" fill="#004521"/>
<path d="M75.3031 33.6851C72.0917 40.1655 62.6787 42.2423 55.3041 43.2711C60.3615 40.7328 71.6975 37.3579 75.3031 33.6851Z" fill="#004521"/>
<path d="M82.437 11.6668C77.9373 23.2816 75.3124 34.2426 73.7356 45.819C73.4375 48.0208 73.0337 50.3091 72.5529 52.4821C71.303 58.1356 70.9665 64.7699 71.9279 71.1831C73.0048 65.1064 73.4856 58.7221 73.6009 54.107C73.7259 49.3092 74.2836 44.3767 75.2547 39.675C77.1777 30.3774 79.9083 21.4644 83.7447 12.1668L82.437 11.6572" fill="#004521"/>
<path d="M99.917 58.5397C103.724 56.9436 119.483 53.0111 121.935 52.915C117.791 52.0496 106.734 52.7515 99.917 58.5397Z" fill="#004521"/>
<path d="M96.3595 61.8566C101.484 59.5105 105.532 59.0779 113.83 58.1452L119.108 57.6164V57.5587H118.935L119.118 57.6068V57.5491C114.368 55.7992 103.003 56.203 96.3499 61.8373" fill="#004521"/>
<path d="M94.1097 63.9913C99.0133 61.9722 110.599 62.3952 116.561 62.1645C109.513 60.2222 99.7345 59.3665 94.1097 63.9913Z" fill="#004521"/>
<path d="M91.8784 66.318C94.811 65.1161 99.7819 65.3373 105.31 65.5584C108.387 65.6834 111.637 65.8084 114.8 65.6834C107.897 63.8181 97.3685 61.8759 91.8784 66.318Z" fill="#004521"/>
<path d="M90.1575 68.2792C92.715 67.2601 96.4841 67.9619 101.417 68.6542C104.839 69.1446 108.839 69.6253 113.377 69.5388C105.214 67.3466 94.9649 64.491 90.1575 68.2792Z" fill="#004521"/>
<path d="M88.899 69.9909C90.9182 69.2313 94.2642 70.5101 98.6101 71.7792C102.283 72.8561 106.658 73.933 111.552 73.7791C101.427 70.9524 92.7065 67.0679 88.899 69.9909Z" fill="#004521"/>
<path d="M87.5906 71.5483C89.4463 70.9041 91.1673 72.5963 96.0998 74.9039C99.8688 76.6634 105.234 77.971 109.686 77.8653C98.0324 74.5289 90.5424 69.3945 87.5906 71.5483Z" fill="#004521"/>
<path d="M101.667 54.2702C103.917 50.9627 106.215 46.7033 106.619 40.0498C103.129 47.1841 102.388 49.982 101.667 54.2702Z" fill="#004521"/>
<path d="M98.0802 57.7702C103.368 49.2803 101.926 40.7807 101.349 39.252C101.426 41.2422 101.128 41.723 98.0802 57.7702Z" fill="#004521"/>
<path d="M95.1674 60.5007C98.6191 54.7318 99.2729 46.8188 96.0808 39.7422L96.0038 39.7614L96.1 39.9633L96.0808 39.7422L96.0038 39.7614C96.7923 53.1454 95.975 57.049 95.1674 60.4911" fill="#004521"/>
<path d="M92.955 62.5584C96.551 56.3568 94.0895 48.2322 90.9166 41.7998C91.83 48.8956 94.0703 57.2317 92.955 62.5584Z" fill="#004521"/>
<path d="M90.744 65.1257C94.1476 59.1452 90.9363 50.9149 87.821 44.5498C88.5133 49.8957 91.7247 60.3182 90.744 65.1257Z" fill="#004521"/>
<path d="M88.8985 66.9044C91.6676 61.9335 88.0332 54.4243 84.0142 46.2612C85.5333 56.4819 89.8119 62.2027 88.8985 66.9044Z" fill="#004521"/>
<path d="M87.187 68.904C89.3407 64.9138 84.966 58.5199 80.1008 48.8569C81.62 59.6737 87.9274 64.7696 87.187 68.904Z" fill="#004521"/>
<path d="M85.7642 70.3945C87.3411 67.2793 81.5914 62.4334 76.0051 51.4243C76.7455 56.4529 79.0723 61.0777 82.274 64.914C84.6874 67.7889 86.0142 68.7311 85.7642 70.4041" fill="#004521"/>
<path d="M77.1587 82.4903C83.9372 72.7504 91.1964 64.8374 99.5037 57.4339C101.081 56.0301 102.677 54.4821 104.128 52.9534C107.936 48.9536 112.984 45.1557 118.57 42.502C114.34 46.5979 109.561 50.3669 105.975 52.9149C102.254 55.5686 98.6576 58.6358 95.4558 61.9048C89.1389 68.3756 83.5526 75.2791 78.2548 83.2499L77.1587 82.4807" fill="#004521"/>
</g>
<path d="M83.6958 25.8971C83.7919 25.8105 83.8881 25.7336 83.9746 25.6567H83.9938C88.4647 22.0607 92.253 16.436 95.8105 18.3109C93.7241 16.8014 88.4743 12.9939 83.8784 9.54214C79.369 6.15769 75.2154 2.51365 73.2444 2.51365C67.1485 2.51365 61.0815 11.0132 53.8511 11.0132C46.9957 11.0132 39.9383 -0.832336 35.4674 1.67715C30.8427 4.26356 35.8232 10.2152 37.9961 16.138C39.8518 21.1954 41.8709 27.5605 42.1882 36.6177C45.0631 37.5119 49.0533 38.3003 54.2069 38.3003C58.0144 38.3003 61.9276 37.435 65.639 36.1466C74.0809 33.0698 79.494 29.2238 83.715 25.9067" fill="#000034"/>
<mask id="mask4_548_10406" style="mask-type:luminance" maskUnits="userSpaceOnUse" x="33" y="1" width="63" height="38">
<path d="M35.4674 1.67685C30.8427 4.26326 35.8232 10.2149 37.9961 16.1377C39.8518 21.1951 41.8709 27.5602 42.1882 36.6174C45.0631 37.5116 49.0533 38.3 54.2069 38.3C58.0144 38.3 61.9276 37.4443 65.639 36.1463C74.0905 33.0695 79.494 29.2139 83.715 25.9064C83.8111 25.8199 83.9073 25.7429 83.9938 25.666H84.013C88.484 22.0701 92.2722 16.4357 95.8297 18.3202C93.7433 16.8107 88.4936 13.0032 83.8977 9.55146C79.3883 6.16701 75.2346 2.52296 73.254 2.52296C67.1581 2.52296 61.0911 11.0321 53.8607 11.0321C47.6591 11.0321 41.294 1.34033 36.8231 1.34033C36.352 1.34033 35.9001 1.4461 35.4674 1.68647" fill="white"/>
</mask>
<g mask="url(#mask4_548_10406)">
<path d="M91.1372 15.2818L91.0987 15.3683V15.7241C90.8872 15.8106 90.7526 16.0029 90.7526 16.2337C90.7526 16.5317 90.9929 16.7817 91.3006 16.7817C91.6083 16.7817 91.8487 16.5413 91.8487 16.2337C91.8487 15.9452 91.6275 15.7145 91.3391 15.6856V15.4164L91.6371 15.1183L91.4448 14.9741L91.1372 15.2818Z" fill="#52C6D8"/>
<path d="M35.255 11.436L35.3608 11.6572L35.255 11.436Z" fill="#52C6D8"/>
<path d="M62.9365 17.3395L62.975 17.426L64.0615 18.5125L64.148 18.5509H66.4171L67.2632 19.397V20.9354L65.1095 23.0892L65.071 23.1757V24.4064L65.1095 24.4929L65.5229 24.9064L65.6095 24.9448H67.3402L68.5036 26.1082L68.5901 26.1467H71.3496L71.4361 26.1082L72.561 24.9833C72.6572 25.0506 72.763 25.0891 72.8783 25.0891C73.1764 25.0891 73.4264 24.8487 73.4264 24.541C73.4264 24.2333 73.186 23.993 72.8783 23.993C72.5707 23.993 72.3303 24.2333 72.3303 24.541C72.3303 24.6372 72.3591 24.7237 72.3976 24.8102L71.3015 25.9063H68.6382L67.4748 24.7429L67.3882 24.7045H65.6672L65.321 24.3583V23.2334L67.4748 21.0796L67.5132 20.9931V19.3586L67.4748 19.272L66.5613 18.3586L66.4748 18.3202H64.2057L63.1865 17.301V8.29183L63.1577 8.21491L62.6 7.37842L62.4077 7.51303L62.9558 8.33029V17.3298" fill="#52C6D8"/>
<path d="M66.6391 15.1186C66.5334 15.0225 66.4084 14.9744 66.2738 14.9744C65.9757 14.9744 65.7257 15.2148 65.7257 15.5225C65.7257 15.8301 65.9661 16.0705 66.2738 16.0705C66.5814 16.0705 66.8218 15.8301 66.8218 15.5225L66.7833 15.3205L66.966 15.1379L67.0045 15.0513V4.21533L66.7641 4.35956V14.9936L66.6487 15.109" fill="#52C6D8"/>
<path d="M68.0136 7.71523L69.5231 9.22477V11.5612C69.2828 11.6189 69.1001 11.84 69.1001 12.09C69.1001 12.3881 69.3404 12.6381 69.6481 12.6381C69.9558 12.6381 70.1962 12.3977 70.1962 12.09C70.1962 11.84 70.0135 11.6189 69.7731 11.5612V9.1767L69.7347 9.09016L68.2251 7.58062V3.50391L67.9847 3.63851V7.6287L68.0232 7.71523" fill="#52C6D8"/>
<path d="M75.8782 13.4936L73.2822 16.0896H71.8688L71.7822 16.1281L70.4746 17.4357L70.4362 17.5222V21.6374L70.0131 22.0604C69.9073 21.9643 69.7823 21.9162 69.6477 21.9162C69.3497 21.9162 69.0997 22.1566 69.0997 22.4643C69.0997 22.7719 69.3497 23.0123 69.6477 23.0123C69.9458 23.0123 70.1958 22.7623 70.1958 22.4643L70.1573 22.2624L70.6477 21.772L70.6861 21.6855V17.5703L71.9265 16.33H73.3399L73.4264 16.2915L76.0897 13.6282L76.1282 13.5416V10.0899L76.0897 10.0034L69.1093 3.02295L68.8785 3.12871L75.8782 10.1284V13.484" fill="#52C6D8"/>
<path d="M78.2341 10.9651V17.2724L77.4841 18.0224L77.4457 18.1089V23.301L76.9168 23.8298C76.8207 23.7336 76.6861 23.6856 76.5515 23.6856C76.2534 23.6856 76.0034 23.9259 76.0034 24.2336C76.0034 24.5413 76.2438 24.7817 76.5515 24.7817C76.8591 24.7817 77.0995 24.5413 77.0995 24.2336L77.0514 24.0221L77.6379 23.4356L77.6764 23.349V18.157L78.4168 17.4167L78.4552 17.3301V11.0227L81.657 7.82098L81.4647 7.67676L78.2533 10.8881L78.2148 10.9747" fill="#52C6D8"/>
<path d="M40.7646 2.42676H34.1111C34.0534 2.47483 33.9765 2.56137 33.8804 2.66713H41.2454C41.0819 2.5806 40.9185 2.50368 40.7646 2.42676Z" fill="#52C6D8"/>
<path d="M76.773 13.8495L73.677 16.9455H72.4943L72.4078 16.984L71.2059 18.1858L71.1675 18.2724V22.9837L70.0137 24.1374C69.9079 24.0317 69.7733 23.974 69.6291 23.974C69.331 23.974 69.0811 24.2144 69.0811 24.522C69.0811 24.8297 69.3214 25.0701 69.6291 25.0701C69.9368 25.0701 70.1772 24.8297 70.1772 24.522L70.1483 24.3394L71.3694 23.1183L71.4079 23.0317V18.3204L72.5424 17.1859H73.7251L73.8116 17.1474L76.9845 13.9745L77.023 13.888V7.66712L76.9845 7.58059L71.4944 2.1001C71.4079 2.11933 71.3117 2.13856 71.2252 2.1674L76.7826 7.7152V13.8399" fill="#52C6D8"/>
<path d="M63.7739 16.6088L64.918 17.753L65.0046 17.7914H67.1006C67.1968 17.8588 67.591 18.2626 68.0044 18.7145V21.8393L66.7929 23.0508C66.6968 22.9739 66.5814 22.9354 66.4564 22.9354C66.1584 22.9354 65.9084 23.1758 65.9084 23.4835C65.9084 23.7911 66.1584 24.0315 66.4564 24.0315C66.7545 24.0315 67.0045 23.7911 67.0045 23.4835L66.9468 23.2431L68.216 21.9739L68.2544 21.8874V18.6664L68.2256 18.5895C67.2929 17.5511 67.1968 17.5511 67.1391 17.5511H65.0623L63.9854 16.4742V6.26318L63.8893 6.33049L63.7546 6.42664V16.5127L63.7931 16.5992" fill="#52C6D8"/>
<path d="M42.7556 7.23428C43.0537 7.23428 43.3036 6.99391 43.3036 6.68623C43.3036 6.37856 43.0633 6.13818 42.7556 6.13818C42.5152 6.13818 42.3133 6.30164 42.2364 6.51316H33.1215C33.1407 6.5997 33.1503 6.67662 33.1695 6.76315H42.2172C42.2556 7.02275 42.4864 7.22467 42.7556 7.22467" fill="#52C6D8"/>
<path d="M64.3603 15.9167L65.1775 16.734L65.2641 16.7725H67.6966L68.8793 17.9551V19.3012L68.9177 19.3877L69.1869 19.6569C69.1293 19.7435 69.1004 19.8492 69.1004 19.9454C69.1004 20.2434 69.3408 20.4934 69.6485 20.4934C69.9561 20.4934 70.1965 20.2531 70.1965 19.9454C70.1965 19.6377 69.9561 19.3973 69.6485 19.3973C69.5427 19.3973 69.4465 19.4262 69.36 19.4839L69.1293 19.2435V17.8974L69.0908 17.8109L67.8409 16.5609L67.7543 16.5225H65.3218L64.5718 15.7725V5.84033L64.3314 6.0134V15.8302L64.3699 15.9167" fill="#52C6D8"/>
<path d="M34.3905 9.68604L34.429 9.77255L34.3905 9.68604Z" fill="#52C6D8"/>
<path d="M34.3136 9.53223L34.3905 9.68606L34.3136 9.53223Z" fill="#52C6D8"/>
<path d="M56.2358 35.8191C56.4858 35.7614 56.6588 35.5402 56.6588 35.2902C56.6588 34.9922 56.4185 34.7422 56.1108 34.7422C55.8031 34.7422 55.5627 34.9922 55.5627 35.2902C55.5627 35.5498 55.7454 35.771 55.9858 35.8191V37.9632L56.0243 38.0497L56.3031 38.3285C56.4089 38.3285 56.5146 38.3093 56.6108 38.2997L56.2262 37.9151V35.8287" fill="#52C6D8"/>
<path d="M81.5997 8.51294V13.5896L78.9364 16.2529V22.3103L79.9748 23.3487L79.9267 23.5699C79.9267 23.8679 80.1671 24.1179 80.4748 24.1179C80.7825 24.1179 81.0228 23.8775 81.0228 23.5699C81.0228 23.2622 80.7825 23.0218 80.4748 23.0218C80.3498 23.0218 80.2248 23.0699 80.1383 23.1468L79.1864 22.1949V16.3491L81.8497 13.6858V8.60908L82.2439 8.21487L82.042 8.06104L81.6478 8.46486L81.6093 8.50332" fill="#52C6D8"/>
<path d="M94.7143 18.0321L95.0989 17.6475L94.897 17.4937L94.3585 18.0321C94.4835 18.0321 94.5989 18.0321 94.7143 18.0321Z" fill="#52C6D8"/>
<path d="M54.7365 37.0119V34.1467C54.9768 34.089 55.1595 33.8775 55.1595 33.6179C55.1595 33.3198 54.9191 33.0698 54.6115 33.0698C54.3038 33.0698 54.0634 33.3102 54.0634 33.6179C54.0634 33.8775 54.2461 34.089 54.4865 34.1467V36.7619H53.3808L51.7078 38.4349C51.8231 38.4349 51.9385 38.4446 52.0539 38.4542L53.4865 37.0215H54.7365" fill="#52C6D8"/>
<path d="M77.8215 8.86907C77.8215 9.16713 78.0619 9.41712 78.3696 9.41712C78.6773 9.41712 78.9176 9.17675 78.9176 8.86907C78.9176 8.60947 78.7349 8.39794 78.4946 8.34025V4.68659L78.2446 4.50391V8.34987C78.0042 8.40756 77.8215 8.61908 77.8215 8.87868" fill="#52C6D8"/>
<path d="M72.2053 9.42668L70.1093 7.33064C70.1574 7.2441 70.1958 7.14795 70.1958 7.04219C70.1958 6.74413 69.9555 6.49414 69.6478 6.49414C69.3401 6.49414 69.0997 6.74413 69.0997 7.04219C69.0997 7.34025 69.3401 7.59024 69.6478 7.59024C69.7535 7.59024 69.8497 7.56139 69.9362 7.50371L71.965 9.53245V13.9168L69.9266 15.9552C69.8497 15.9071 69.7535 15.8783 69.6478 15.8783C69.3497 15.8783 69.0997 16.1187 69.0997 16.4263C69.0997 16.734 69.3401 16.9744 69.6478 16.9744C69.9555 16.9744 70.1958 16.734 70.1958 16.4263C70.1958 16.3206 70.167 16.2148 70.1093 16.1283L72.215 14.0226V9.42668" fill="#52C6D8"/>
<path d="M59.4757 12.657H57.1201L54.9856 10.5417C54.8702 10.5513 54.7644 10.5609 54.649 10.5705L57.0143 12.9166H59.7161V12.7916C59.7642 11.1955 59.7738 8.23413 59.7642 7.78223L59.5142 7.89761C59.5142 8.5418 59.495 11.8205 59.4757 12.657Z" fill="#52C6D8"/>
<path d="M43.2172 4.54248H33.0446L33.0157 4.79247H43.5441C43.4287 4.70593 43.3229 4.62901 43.2075 4.54248" fill="#52C6D8"/>
<path d="M62.101 8.65738V17.7338L62.1395 17.8204L64.3413 20.0222L64.4278 20.0606H65.1682C65.2259 20.3106 65.447 20.4933 65.697 20.4933C65.9951 20.4933 66.245 20.2529 66.245 19.9453C66.245 19.6376 66.0047 19.3972 65.697 19.3972C65.447 19.3972 65.2162 19.5799 65.1682 19.8203H64.4759L62.3414 17.6858V8.61892L62.3125 8.542L61.9183 7.88818L61.7164 8.02279L62.1106 8.66699" fill="#52C6D8"/>
<path d="M41.6216 3.42676H33.3816C33.3432 3.50368 33.3047 3.59021 33.2662 3.67674H41.9869C41.862 3.59021 41.737 3.50368 41.612 3.42676" fill="#52C6D8"/>
<path d="M33.6499 8.15746L33.6788 8.21515H37.217C37.2555 8.47475 37.4863 8.67666 37.7555 8.67666C38.0535 8.67666 38.3035 8.43629 38.3035 8.12862C38.3035 7.82094 38.0632 7.58057 37.7555 7.58057C37.5151 7.58057 37.3132 7.74402 37.2363 7.95555H33.573L33.6499 8.15746Z" fill="#52C6D8"/>
<path d="M33.6497 8.15723L33.6772 8.21222L33.6497 8.15723Z" fill="#52C6D8"/>
<path d="M91.3298 17.7721C91.0317 17.7721 90.7817 18.0125 90.7817 18.3201C90.7817 18.6278 91.0221 18.8682 91.3298 18.8682C91.6375 18.8682 91.8778 18.6278 91.8778 18.3201C91.8778 18.2144 91.849 18.1182 91.7913 18.0317L93.4162 16.4068L93.2143 16.2529L91.6182 17.849C91.5317 17.8009 91.4356 17.7625 91.3298 17.7625" fill="#52C6D8"/>
</g>
</g>
<defs>
<clipPath id="clip0_548_10406">
<rect width="107.513" height="106.165" fill="white"/>
</clipPath>
</defs>
</svg>
