<?xml version="1.0" encoding="UTF-8"?>
<svg id="Layer_2" data-name="Layer 2" xmlns="http://www.w3.org/2000/svg" xmlns:xlink="http://www.w3.org/1999/xlink" viewBox="0 0 311.09 401.43">
  <defs>
    <style>
      .cls-1 {
        fill: none;
      }

      .cls-2 {
        clip-path: url(#clippath);
      }

      .cls-3 {
        fill: #f59223;
      }

      .cls-4 {
        fill: #f9a527;
      }

      .cls-5 {
        fill: #003e20;
      }

      .cls-6 {
        fill: #0070b9;
      }

      .cls-7 {
        fill: #06012c;
      }

      .cls-8 {
        fill: #ea2026;
      }

      .cls-9 {
        fill: #fcc8ac;
      }

      .cls-10 {
        fill: #fde5ca;
      }

      .cls-11 {
        fill: #991c1f;
      }

      .cls-12 {
        fill: #945621;
      }

      .cls-13 {
        fill: #b5dcc0;
      }

      .cls-14 {
        fill: #cf8fbf;
      }

      .cls-15 {
        fill: #abdff7;
      }

      .cls-16 {
        fill: #d96827;
      }

      .cls-17 {
        fill: #c02126;
      }

      .cls-18 {
        fill: #ca8c27;
      }

      .cls-19 {
        fill: #de8825;
      }

      .cls-20 {
        fill: #c77028;
      }

      .cls-21 {
        fill: #d48a27;
      }

      .cls-22 {
        fill: #d85527;
      }

      .cls-23 {
        fill: #057345;
      }

      .cls-24 {
        fill: #1c1e4b;
      }

      .cls-25 {
        fill: #3e7da8;
      }

      .cls-26 {
        fill: #0b6894;
      }

      .cls-27 {
        fill: #2c2d6f;
      }

      .cls-28 {
        fill: #30729e;
      }

      .cls-29 {
        fill: #3a642f;
      }

      .cls-30 {
        fill: #3c7f3d;
      }

      .cls-31 {
        fill: #2e3588;
      }

      .cls-32 {
        fill: #55c4d7;
      }

      .cls-33 {
        fill: #4a8eca;
      }

      .cls-34 {
        fill: #841618;
      }

      .cls-35 {
        clip-path: url(#clippath-1);
      }

      .cls-36 {
        clip-path: url(#clippath-4);
      }

      .cls-37 {
        clip-path: url(#clippath-3);
      }

      .cls-38 {
        clip-path: url(#clippath-2);
      }

      .cls-39 {
        clip-path: url(#clippath-7);
      }

      .cls-40 {
        clip-path: url(#clippath-8);
      }

      .cls-41 {
        clip-path: url(#clippath-6);
      }

      .cls-42 {
        clip-path: url(#clippath-5);
      }

      .cls-43 {
        clip-path: url(#clippath-9);
      }
    </style>
    <clipPath id="clippath">
      <rect class="cls-1" width="311.09" height="401.43"/>
    </clipPath>
    <clipPath id="clippath-1">
      <path class="cls-1" d="M16.7,201.29c4.72,15.36,8.2,30.71,12.76,34.02,14.05,10.21,42.28,.76,58.97,12.88,15.81,11.49,12.23,50.62,26.75,52.34,15,1.77,13.48-20.28,18.39-37.57,4.19-14.78,10.2-32.84,24.66-54.24-5.12-6.88-13.01-15.37-24.89-24.01-8.78-6.38-19.24-10.95-29.97-14.17-24.62-7.06-43.54-7.23-58.82-6.67-.36,.03-.72,.06-1.06,.09-.01-.02-.03-.03-.04-.04-16.33,.82-34.5,7.45-39.56-2.84,2.29,6.98,8.01,24.54,12.82,40.21"/>
    </clipPath>
    <clipPath id="clippath-2">
      <rect class="cls-1" width="311.09" height="401.43"/>
    </clipPath>
    <clipPath id="clippath-3">
      <path class="cls-1" d="M180.89,184.7c-8.78,6.38-16.36,14.92-22.74,24.12-14.33,21.23-20.33,39.17-24.52,53.88-.08,.35-.17,.71-.24,1.03-.02,0-.03,.02-.05,.02-4.27,15.79-3.58,35.11-14.93,36.75,7.35-.02,25.82-.03,42.2,.24,16.07,.26,31.74,1.69,36.3-1.62,14.05-10.21,13.79-39.98,30.47-52.1,7.65-5.56,20.05-4.8,31.51-4.04,12.22,.81,23.37,1.62,26.53-5.23,6.32-13.72-15.12-19.09-30.05-29.1-12.76-8.55-28.08-19.85-43.97-40.21-8.13,2.74-18.64,7.62-30.52,16.26"/>
    </clipPath>
    <clipPath id="clippath-4">
      <rect class="cls-1" width="311.09" height="401.43"/>
    </clipPath>
    <clipPath id="clippath-5">
      <path class="cls-1" d="M66.8,33.69c-13.15,9.23-26.67,17.29-28.42,22.65-5.36,16.52,12.35,40.45,5.97,60.06-6.04,18.59-44.36,27.27-41.51,41.61,2.95,14.81,23.46,6.56,41.41,5.88,15.35-.58,34.38-.45,59.21,6.69,4.96-6.99,10.6-17.12,15.14-31.09,3.36-10.33,4.47-21.69,4.22-32.88-.89-25.6-6.58-43.64-11.84-58-.14-.33-.28-.67-.42-.98,.01-.01,.02-.03,.03-.05-5.82-15.28-17.74-30.51-9.52-38.51-5.93,4.33-20.87,15.2-34.28,24.61"/>
    </clipPath>
    <clipPath id="clippath-6">
      <rect class="cls-1" width="311.09" height="401.43"/>
    </clipPath>
    <clipPath id="clippath-7">
      <path class="cls-1" d="M241.37,76.02c-12.08,9.49-27.55,20.57-51.83,29.39,.1,8.58,1.49,20.09,6.03,34.05,3.35,10.33,9.13,20.17,15.92,29.08,15.77,20.18,30.97,31.44,43.67,39.97,.31,.18,.62,.38,.91,.54,0,.02,0,.04,0,.06,13.69,8.94,32.29,14.25,30.33,25.56,2.25-6.99,7.95-24.56,13.27-40.06,5.21-15.2,11.42-29.66,9.68-35.03-5.37-16.52-33.76-25.46-40.13-45.08-6.04-18.59,19.86-48.14,9.12-58.06-2.25-2.08-4.53-2.97-6.84-2.97-9.11,0-18.85,13.7-30.12,22.55"/>
    </clipPath>
    <clipPath id="clippath-8">
      <rect class="cls-1" width="311.09" height="401.43"/>
    </clipPath>
    <clipPath id="clippath-9">
      <path class="cls-1" d="M103.69,7.15c-13.18,7.38,1.01,24.34,7.21,41.2,5.29,14.42,11.05,32.56,11.93,58.38,8.18,2.56,19.56,4.79,34.25,4.79,10.86,0,22-2.45,32.57-6.15,24.07-8.76,39.48-19.74,51.5-29.18,.27-.24,.55-.47,.8-.7,.02,0,.04,0,.06,.02,12.73-10.26,23.53-26.31,33.68-20.95-5.96-4.3-20.9-15.15-34-25-12.84-9.65-24.68-20.03-30.32-20.03-17.37,0-34.65,24.24-55.28,24.24-17.67,0-35.8-27.61-48.55-27.61-1.35,0-2.64,.31-3.86,.99"/>
    </clipPath>
  </defs>
  <g id="Layer_1-2" data-name="Layer 1">
    <g class="cls-2">
      <path class="cls-15" d="M44.54,163.88c-.36,.03-.72,.06-1.06,.09-.01-.02-.03-.03-.04-.04-16.33,.82-34.5,7.45-39.56-2.85,2.29,6.98,8.01,24.54,12.82,40.21,4.71,15.36,8.2,30.71,12.76,34.02,14.05,10.21,42.28,.76,58.97,12.88,15.81,11.49,12.23,50.62,26.75,52.34,15,1.78,13.48-20.28,18.39-37.57,4.19-14.77,10.2-32.84,24.66-54.24-5.12-6.88-13.01-15.37-24.89-24.01-8.78-6.38-19.24-10.95-29.97-14.17-24.62-7.06-43.54-7.23-58.82-6.67"/>
    </g>
    <g class="cls-35">
      <polygon class="cls-26" points="44.09 204.81 44.09 220.42 47.87 224.19 49.66 224.19 49.66 201.03 47.87 201.03 44.09 204.81"/>
      <rect class="cls-26" x="50.38" y="298.24" width="10.74" height="23.17"/>
      <polygon class="cls-26" points="44.09 229.11 44.09 244.72 47.87 248.5 49.66 248.5 49.66 225.33 47.87 225.33 44.09 229.11"/>
      <polygon class="cls-26" points="37.55 273.94 37.55 297.11 39.2 297.11 42.98 293.33 42.98 277.72 39.2 273.94 37.55 273.94"/>
      <polygon class="cls-26" points="44.09 156.2 44.09 171.81 47.87 175.59 49.66 175.59 49.66 152.42 47.87 152.42 44.09 156.2"/>
      <rect class="cls-26" x="50.38" y="225.33" width="10.74" height="23.17"/>
      <rect class="cls-26" x="50.38" y="273.94" width="10.74" height="23.17"/>
      <rect class="cls-26" x="50.38" y="201.03" width="10.74" height="23.17"/>
      <rect class="cls-26" x="50.38" y="249.64" width="10.74" height="23.17"/>
      <polygon class="cls-26" points="37.55 249.64 37.55 272.8 39.2 272.8 42.98 269.02 42.98 253.42 39.2 249.64 37.55 249.64"/>
      <polygon class="cls-26" points="44.09 253.42 44.09 269.02 47.87 272.8 49.66 272.8 49.66 249.64 47.87 249.64 44.09 253.42"/>
      <polygon class="cls-26" points="37.55 201.03 37.55 224.2 39.2 224.2 42.98 220.41 42.98 204.81 39.2 201.03 37.55 201.03"/>
      <rect class="cls-26" x="50.38" y="176.72" width="10.74" height="23.17"/>
      <polygon class="cls-26" points="37.55 176.72 37.55 199.89 39.2 199.89 42.98 196.11 42.98 180.5 39.2 176.72 37.55 176.72"/>
      <polygon class="cls-26" points="37.55 225.33 37.55 248.5 39.2 248.5 42.98 244.72 42.98 229.11 39.2 225.33 37.55 225.33"/>
      <polygon class="cls-26" points="37.55 152.42 37.55 175.59 39.2 175.59 42.98 171.81 42.98 156.2 39.2 152.42 37.55 152.42"/>
      <polygon class="cls-26" points="44.09 277.72 44.09 293.33 47.87 297.11 49.66 297.11 49.66 273.94 47.87 273.94 44.09 277.72"/>
      <polygon class="cls-26" points="44.09 302.03 44.09 317.63 47.87 321.41 49.66 321.41 49.66 298.25 47.87 298.25 44.09 302.03"/>
      <polygon class="cls-26" points="44.09 180.5 44.09 196.11 47.87 199.89 49.66 199.89 49.66 176.72 47.87 176.72 44.09 180.5"/>
      <polygon class="cls-26" points="68.38 180.5 68.38 196.11 72.16 199.89 73.95 199.89 73.95 176.72 72.16 176.72 68.38 180.5"/>
      <polygon class="cls-26" points="68.38 156.2 68.38 171.81 72.16 175.59 73.95 175.59 73.95 152.42 72.16 152.42 68.38 156.2"/>
      <polygon class="cls-26" points="68.38 229.11 68.38 244.72 72.16 248.5 73.95 248.5 73.95 225.33 72.16 225.33 68.38 229.11"/>
      <polygon class="cls-26" points="68.38 253.42 68.38 269.02 72.16 272.8 73.95 272.8 73.95 249.64 72.16 249.64 68.38 253.42"/>
      <rect class="cls-26" x="74.66" y="273.94" width="10.74" height="23.17"/>
      <rect class="cls-26" x="74.66" y="298.24" width="10.74" height="23.17"/>
      <rect class="cls-26" x="74.66" y="249.64" width="10.74" height="23.17"/>
      <polygon class="cls-26" points="68.38 277.72 68.38 293.33 72.16 297.11 73.95 297.11 73.95 273.94 72.16 273.94 68.38 277.72"/>
      <polygon class="cls-26" points="61.83 152.42 61.83 175.59 63.48 175.59 67.26 171.81 67.26 156.2 63.48 152.42 61.83 152.42"/>
      <polygon class="cls-26" points="61.83 249.64 61.83 272.8 63.48 272.8 67.26 269.02 67.26 253.42 63.48 249.64 61.83 249.64"/>
      <polygon class="cls-26" points="61.83 273.94 61.83 297.11 63.48 297.11 67.26 293.33 67.26 277.72 63.48 273.94 61.83 273.94"/>
      <polygon class="cls-26" points="61.83 298.25 61.83 321.41 63.48 321.41 67.26 317.63 67.26 302.03 63.48 298.25 61.83 298.25"/>
      <polygon class="cls-26" points="61.83 225.33 61.83 248.5 63.48 248.5 67.26 244.72 67.26 229.11 63.48 225.33 61.83 225.33"/>
      <polygon class="cls-26" points="68.38 302.03 68.38 317.63 72.16 321.41 73.95 321.41 73.95 298.25 72.16 298.25 68.38 302.03"/>
      <polygon class="cls-26" points="61.83 201.03 61.83 224.2 63.48 224.2 67.26 220.41 67.26 204.81 63.48 201.03 61.83 201.03"/>
      <rect class="cls-26" x="50.38" y="152.42" width="10.74" height="23.17"/>
      <polygon class="cls-26" points="61.83 176.72 61.83 199.89 63.48 199.89 67.26 196.11 67.26 180.5 63.48 176.72 61.83 176.72"/>
      <rect class="cls-26" x="74.66" y="225.33" width="10.74" height="23.17"/>
      <rect class="cls-26" x="1.82" y="201.03" width="10.74" height="23.17"/>
      <rect class="cls-26" x="1.82" y="225.33" width="10.74" height="23.17"/>
      <polygon class="cls-26" points="37.55 298.25 37.55 321.41 39.2 321.41 42.98 317.63 42.98 302.03 39.2 298.25 37.55 298.25"/>
      <rect class="cls-26" x="1.82" y="249.64" width="10.74" height="23.17"/>
      <rect class="cls-26" x="1.82" y="152.42" width="10.74" height="23.17"/>
      <polygon class="cls-26" points="13.27 273.94 13.27 297.11 14.92 297.11 18.7 293.33 18.7 277.72 14.92 273.94 13.27 273.94"/>
      <polygon class="cls-26" points="13.27 249.64 13.27 272.8 14.92 272.8 18.7 269.02 18.7 253.42 14.92 249.64 13.27 249.64"/>
      <polygon class="cls-26" points="13.27 298.25 13.27 321.41 14.92 321.41 18.7 317.63 18.7 302.03 14.92 298.25 13.27 298.25"/>
      <rect class="cls-26" x="1.82" y="273.94" width="10.74" height="23.17"/>
      <rect class="cls-26" x="1.82" y="298.24" width="10.74" height="23.17"/>
      <polygon class="cls-26" points="13.27 225.33 13.27 248.5 14.92 248.5 18.7 244.72 18.7 229.11 14.92 225.33 13.27 225.33"/>
      <rect class="cls-26" x="1.82" y="176.72" width="10.74" height="23.17"/>
      <rect class="cls-26" x="26.09" y="225.33" width="10.74" height="23.17"/>
      <rect class="cls-26" x="26.09" y="249.64" width="10.74" height="23.17"/>
      <rect class="cls-26" x="26.09" y="273.94" width="10.74" height="23.17"/>
      <rect class="cls-26" x="26.09" y="298.24" width="10.74" height="23.17"/>
      <rect class="cls-26" x="26.09" y="152.42" width="10.74" height="23.17"/>
      <polygon class="cls-26" points="19.81 156.2 19.81 171.81 23.59 175.59 25.38 175.59 25.38 152.42 23.59 152.42 19.81 156.2"/>
      <polygon class="cls-26" points="13.27 201.03 13.27 224.2 14.92 224.2 18.7 220.41 18.7 204.81 14.92 201.03 13.27 201.03"/>
      <rect class="cls-26" x="26.09" y="201.03" width="10.74" height="23.17"/>
      <rect class="cls-26" x="26.09" y="176.72" width="10.74" height="23.17"/>
      <polygon class="cls-26" points="13.27 152.42 13.27 175.59 14.92 175.59 18.7 171.81 18.7 156.2 14.92 152.42 13.27 152.42"/>
      <polygon class="cls-26" points="19.81 277.72 19.81 293.33 23.59 297.11 25.38 297.11 25.38 273.94 23.59 273.94 19.81 277.72"/>
      <polygon class="cls-26" points="19.81 302.03 19.81 317.63 23.59 321.41 25.38 321.41 25.38 298.25 23.59 298.25 19.81 302.03"/>
      <polygon class="cls-26" points="19.81 180.5 19.81 196.11 23.59 199.89 25.38 199.89 25.38 176.72 23.59 176.72 19.81 180.5"/>
      <polygon class="cls-26" points="13.27 176.72 13.27 199.89 14.92 199.89 18.7 196.11 18.7 180.5 14.92 176.72 13.27 176.72"/>
      <polygon class="cls-26" points="19.81 204.81 19.81 220.42 23.59 224.19 25.38 224.19 25.38 201.03 23.59 201.03 19.81 204.81"/>
      <polygon class="cls-26" points="19.81 253.42 19.81 269.02 23.59 272.8 25.38 272.8 25.38 249.64 23.59 249.64 19.81 253.42"/>
      <polygon class="cls-26" points="19.81 229.11 19.81 244.72 23.59 248.5 25.38 248.5 25.38 225.33 23.59 225.33 19.81 229.11"/>
      <polygon class="cls-26" points="68.38 204.81 68.38 220.42 72.16 224.19 73.95 224.19 73.95 201.03 72.16 201.03 68.38 204.81"/>
      <polygon class="cls-26" points="134.68 225.33 134.68 248.5 136.33 248.5 140.11 244.72 140.11 229.11 136.33 225.33 134.68 225.33"/>
      <polygon class="cls-26" points="134.68 201.03 134.68 224.2 136.33 224.2 140.11 220.41 140.11 204.81 136.33 201.03 134.68 201.03"/>
      <polygon class="cls-26" points="134.68 273.94 134.68 297.11 136.33 297.11 140.11 293.33 140.11 277.72 136.33 273.94 134.68 273.94"/>
      <polygon class="cls-26" points="134.68 176.72 134.68 199.89 136.33 199.89 140.11 196.11 140.11 180.5 136.33 176.72 134.68 176.72"/>
      <polygon class="cls-26" points="141.23 229.11 141.23 244.72 145.01 248.5 146.8 248.5 146.8 225.33 145.01 225.33 141.23 229.11"/>
      <polygon class="cls-26" points="141.23 253.42 141.23 269.02 145.01 272.8 146.8 272.8 146.8 249.64 145.01 249.64 141.23 253.42"/>
      <polygon class="cls-26" points="134.68 152.42 134.68 175.59 136.33 175.59 140.11 171.81 140.11 156.2 136.33 152.42 134.68 152.42"/>
      <polygon class="cls-26" points="141.23 277.72 141.23 293.33 145.01 297.11 146.8 297.11 146.8 273.94 145.01 273.94 141.23 277.72"/>
      <polygon class="cls-26" points="141.23 302.03 141.23 317.63 145.01 321.41 146.8 321.41 146.8 298.25 145.01 298.25 141.23 302.03"/>
      <polygon class="cls-26" points="134.68 249.64 134.68 272.8 136.33 272.8 140.11 269.02 140.11 253.42 136.33 249.64 134.68 249.64"/>
      <rect class="cls-26" x="123.23" y="225.33" width="10.74" height="23.17"/>
      <polygon class="cls-26" points="134.68 298.25 134.68 321.41 136.33 321.41 140.11 317.63 140.11 302.03 136.33 298.25 134.68 298.25"/>
      <rect class="cls-26" x="123.23" y="273.94" width="10.74" height="23.17"/>
      <rect class="cls-26" x="123.23" y="298.24" width="10.74" height="23.17"/>
      <rect class="cls-26" x="123.23" y="249.64" width="10.74" height="23.17"/>
      <rect class="cls-26" x="123.23" y="201.03" width="10.74" height="23.17"/>
      <polygon class="cls-26" points="116.94 156.2 116.94 171.81 120.72 175.59 122.52 175.59 122.52 152.42 120.72 152.42 116.94 156.2"/>
      <rect class="cls-26" x="123.23" y="176.72" width="10.74" height="23.17"/>
      <rect class="cls-26" x="123.23" y="152.42" width="10.74" height="23.17"/>
      <polygon class="cls-26" points="158.97 249.64 158.97 272.8 160.61 272.8 164.39 269.02 164.39 253.42 160.61 249.64 158.97 249.64"/>
      <polygon class="cls-26" points="158.97 273.94 158.97 297.11 160.61 297.11 164.39 293.33 164.39 277.72 160.61 273.94 158.97 273.94"/>
      <polygon class="cls-26" points="158.97 225.33 158.97 248.5 160.61 248.5 164.39 244.72 164.39 229.11 160.61 225.33 158.97 225.33"/>
      <rect class="cls-26" x="147.51" y="152.42" width="10.74" height="23.17"/>
      <polygon class="cls-26" points="158.97 298.25 158.97 321.41 160.61 321.41 164.39 317.63 164.39 302.03 160.61 298.25 158.97 298.25"/>
      <polygon class="cls-26" points="160.61 152.42 158.97 152.42 158.97 175.59 160.61 175.59 164.39 171.81 164.39 156.2 160.61 152.42"/>
      <polygon class="cls-26" points="158.97 201.03 158.97 224.2 160.61 224.2 164.39 220.41 164.39 204.81 160.61 201.03 158.97 201.03"/>
      <polygon class="cls-26" points="158.97 176.72 158.97 199.89 160.61 199.89 164.39 196.11 164.39 180.5 160.61 176.72 158.97 176.72"/>
      <rect class="cls-26" x="147.51" y="273.94" width="10.74" height="23.17"/>
      <polygon class="cls-26" points="141.23 204.81 141.23 220.42 145.01 224.19 146.8 224.19 146.8 201.03 145.01 201.03 141.23 204.81"/>
      <rect class="cls-26" x="147.51" y="176.72" width="10.74" height="23.17"/>
      <polygon class="cls-26" points="141.23 156.2 141.23 171.81 145.01 175.59 146.8 175.59 146.8 152.42 145.01 152.42 141.23 156.2"/>
      <polygon class="cls-26" points="141.23 180.5 141.23 196.11 145.01 199.89 146.8 199.89 146.8 176.72 145.01 176.72 141.23 180.5"/>
      <rect class="cls-26" x="147.51" y="298.24" width="10.74" height="23.17"/>
      <rect class="cls-26" x="147.51" y="249.64" width="10.74" height="23.17"/>
      <rect class="cls-26" x="147.51" y="201.03" width="10.74" height="23.17"/>
      <rect class="cls-26" x="147.51" y="225.33" width="10.74" height="23.17"/>
      <polygon class="cls-26" points="116.94 277.72 116.94 293.33 120.72 297.11 122.52 297.11 122.52 273.94 120.72 273.94 116.94 277.72"/>
      <polygon class="cls-26" points="92.66 277.72 92.66 293.33 96.44 297.11 98.23 297.11 98.23 273.94 96.44 273.94 92.66 277.72"/>
      <polygon class="cls-26" points="92.66 229.11 92.66 244.72 96.44 248.5 98.23 248.5 98.23 225.33 96.44 225.33 92.66 229.11"/>
      <rect class="cls-26" x="98.95" y="273.94" width="10.74" height="23.17"/>
      <polygon class="cls-26" points="92.66 302.03 92.66 317.63 96.44 321.41 98.23 321.41 98.23 298.25 96.44 298.25 92.66 302.03"/>
      <polygon class="cls-26" points="92.66 180.5 92.66 196.11 96.44 199.89 98.23 199.89 98.23 176.72 96.44 176.72 92.66 180.5"/>
      <polygon class="cls-26" points="92.66 156.2 92.66 171.81 96.44 175.59 98.23 175.59 98.23 152.42 96.44 152.42 92.66 156.2"/>
      <rect class="cls-26" x="98.95" y="298.24" width="10.74" height="23.17"/>
      <polygon class="cls-26" points="92.66 204.81 92.66 220.42 96.44 224.19 98.23 224.19 98.23 201.03 96.44 201.03 92.66 204.81"/>
      <polygon class="cls-26" points="86.12 152.42 86.12 175.59 87.76 175.59 91.54 171.81 91.54 156.2 87.76 152.42 86.12 152.42"/>
      <polygon class="cls-26" points="92.66 253.42 92.66 269.02 96.44 272.8 98.23 272.8 98.23 249.64 96.44 249.64 92.66 253.42"/>
      <polygon class="cls-26" points="86.12 298.25 86.12 321.41 87.76 321.41 91.54 317.63 91.54 302.03 87.76 298.25 86.12 298.25"/>
      <rect class="cls-26" x="74.66" y="152.42" width="10.74" height="23.17"/>
      <polygon class="cls-26" points="86.12 176.72 86.12 199.89 87.76 199.89 91.54 196.11 91.54 180.5 87.76 176.72 86.12 176.72"/>
      <polygon class="cls-26" points="86.12 273.94 86.12 297.11 87.76 297.11 91.54 293.33 91.54 277.72 87.76 273.94 86.12 273.94"/>
      <rect class="cls-26" x="74.66" y="176.72" width="10.74" height="23.17"/>
      <polygon class="cls-26" points="86.12 201.03 86.12 224.2 87.76 224.2 91.54 220.41 91.54 204.81 87.76 201.03 86.12 201.03"/>
      <polygon class="cls-26" points="86.12 249.64 86.12 272.8 87.76 272.8 91.54 269.02 91.54 253.42 87.76 249.64 86.12 249.64"/>
      <polygon class="cls-26" points="86.12 225.33 86.12 248.5 87.76 248.5 91.54 244.72 91.54 229.11 87.76 225.33 86.12 225.33"/>
      <rect class="cls-26" x="98.95" y="201.03" width="10.74" height="23.17"/>
      <polygon class="cls-26" points="116.94 302.03 116.94 317.63 120.72 321.41 122.52 321.41 122.52 298.25 120.72 298.25 116.94 302.03"/>
      <rect class="cls-26" x="98.95" y="249.64" width="10.74" height="23.17"/>
      <polygon class="cls-26" points="110.4 176.72 110.4 199.89 112.05 199.89 115.83 196.11 115.83 180.5 112.05 176.72 110.4 176.72"/>
      <rect class="cls-26" x="74.66" y="201.03" width="10.74" height="23.17"/>
      <polygon class="cls-26" points="116.94 229.11 116.94 244.72 120.72 248.5 122.52 248.5 122.52 225.33 120.72 225.33 116.94 229.11"/>
      <polygon class="cls-26" points="116.94 204.81 116.94 220.42 120.72 224.19 122.52 224.19 122.52 201.03 120.72 201.03 116.94 204.81"/>
      <polygon class="cls-26" points="110.4 201.03 110.4 224.2 112.05 224.2 115.83 220.41 115.83 204.81 112.05 201.03 110.4 201.03"/>
      <polygon class="cls-26" points="116.94 253.42 116.94 269.02 120.72 272.8 122.52 272.8 122.52 249.64 120.72 249.64 116.94 253.42"/>
      <polygon class="cls-26" points="110.4 152.42 110.4 175.59 112.05 175.59 115.83 171.81 115.83 156.2 112.05 152.42 110.4 152.42"/>
      <polygon class="cls-26" points="116.94 180.5 116.94 196.11 120.72 199.89 122.52 199.89 122.52 176.72 120.72 176.72 116.94 180.5"/>
      <rect class="cls-26" x="98.95" y="176.72" width="10.74" height="23.17"/>
      <rect class="cls-26" x="98.95" y="152.42" width="10.74" height="23.17"/>
      <rect class="cls-26" x="98.95" y="225.33" width="10.74" height="23.17"/>
      <polygon class="cls-26" points="110.4 225.33 110.4 248.5 112.05 248.5 115.83 244.72 115.83 229.11 112.05 225.33 110.4 225.33"/>
      <polygon class="cls-26" points="110.4 249.64 110.4 272.8 112.05 272.8 115.83 269.02 115.83 253.42 112.05 249.64 110.4 249.64"/>
      <polygon class="cls-26" points="110.4 298.25 110.4 321.41 112.05 321.41 115.83 317.63 115.83 302.03 112.05 298.25 110.4 298.25"/>
      <polygon class="cls-26" points="110.4 273.94 110.4 297.11 112.05 297.11 115.83 293.33 115.83 277.72 112.05 273.94 110.4 273.94"/>
    </g>
    <g class="cls-38">
      <path class="cls-10" d="M133.63,262.7c-.08,.35-.17,.71-.24,1.04-.02,0-.03,.01-.05,.02-4.27,15.79-3.58,35.11-14.93,36.75,7.35-.02,25.82-.03,42.2,.24,16.07,.26,31.74,1.69,36.3-1.62,14.05-10.21,13.78-39.98,30.47-52.1,15.81-11.49,51.92,4.01,58.04-9.27,6.32-13.72-15.12-19.09-30.05-29.1-12.76-8.55-28.08-19.85-43.97-40.21-8.13,2.74-18.64,7.62-30.52,16.26-8.78,6.38-16.36,14.92-22.74,24.12-14.32,21.23-20.33,39.18-24.51,53.88"/>
    </g>
    <g class="cls-37">
      <path class="cls-25" d="M172.51,281.69c.53-2.46,5.15-24.09,5.11-27.05-.03-3.59-4.48-9.44-5.03-9.94-.44-.41-1.12-.37-1.52,.08-.4,.44-.37,1.13,.07,1.54,.7,.69,4.2,5.76,4.32,8.26,0,.03,0,.07,0,.1,.03,2.05-3,16.96-5.05,26.52-.28,.95-3.53,12.07-4.47,20.52,.73,0,1.45,0,2.17,0,.98-8.41,4.33-19.8,4.37-19.94l.02-.08Z"/>
      <path class="cls-7" d="M178.02,276.36c1.62-7.06,3.85-16.73,3.59-20.74-.33-5.16-.97-10.83-4.52-12.7-2.92-1.54-9.12-1.35-12.45-1.25-.38,.01-.71,.02-.97,.03-2.59,.04-11.24,3.41-14.32,6.19-.51,.46-1.19,1.05-1.99,1.73-3.84,3.28-9.65,8.25-11.72,12.67-1,2.14-2.32,4.05-3.61,5.65-.29,1.43-.55,2.83-.81,4.2,1.92-2,4.58-5.11,6.36-8.92,1.87-4,7.69-8.97,11.16-11.94,.8-.69,1.5-1.28,2.03-1.77,2.77-2.51,10.99-5.61,12.92-5.64,.27,0,.6-.02,1-.03,2.68-.08,8.97-.27,11.39,1.01,2.77,1.46,3.17,7.84,3.37,10.91,0,.04,0,.07,0,.11,.18,3.77-2.06,13.52-3.55,20-.42,1.81-.78,3.38-1.03,4.59-.93,4.36-2.17,13.96-2.9,21.27,.73,0,1.45,0,2.16,0,.72-7.2,1.94-16.55,2.85-20.81,.26-1.19,.61-2.75,1.03-4.55"/>
      <path class="cls-19" d="M142.93,250.67c6.07-3.69,13.18-8.27,13.25-8.31,.5-.32,.65-1,.33-1.5-.32-.51-.98-.66-1.48-.34-.07,.05-7.15,4.61-13.2,8.28-2.27,1.38-4.7,4.12-6.95,7.13-.55,2.02-1.05,4-1.51,5.95,2.88-4.39,6.46-9.33,9.56-11.21"/>
      <path class="cls-26" d="M154.58,239.88c5.9-1,16.1-1.16,16.21-1.16,.07,0,9.42,.14,10.64,5.28,1.48,6.22,2.4,17,1.72,20.23-.74,3.52-6.02,21.94-6.08,22.12-.17,.58,.16,1.18,.73,1.35,.57,.17,1.17-.16,1.33-.74,.22-.76,5.36-18.68,6.12-22.28,.8-3.82-.29-15.18-1.73-21.2-1.62-6.79-12.29-6.94-12.74-6.94-.45,0-10.5,.16-16.56,1.2-4.66,.79-12.27,5.25-15.98,7.55-.42,1.18-.84,2.36-1.22,3.52,.16-.17,.28-.31,.36-.4,1.2-.78,11.75-7.6,17.2-8.53"/>
      <path class="cls-33" d="M189.23,261.82c-.03-1.05-.05-2.19-.07-3.38-.12-7.72-.28-17.32-3.89-21.1-4.02-4.2-10-6.25-16.82-5.78-6.57,.46-16.5,2.71-19.35,3.52-1.43,.41-4.96,2.15-8.43,4.01-.45,1.06-.88,2.12-1.3,3.18,3.93-2.2,8.69-4.62,10.31-5.09,2.78-.8,12.49-3,18.91-3.45,6.27-.44,11.5,1.33,15.13,5.12,3.02,3.16,3.18,12.67,3.29,19.62,.02,1.2,.04,2.35,.07,3.41,.17,5.64-2.25,14.8-7.19,27.24-1.64,4.14-2.84,8.31-3.62,12.6,.74,0,1.48,0,2.19,0,.75-4.01,1.88-7.91,3.42-11.79,5.05-12.72,7.52-22.18,7.35-28.12"/>
      <path class="cls-34" d="M190.69,279.61c.76-5.01,1.55-10.19,2.5-13.26,2.04-6.62-.42-21.95-1.23-26.5-1.27-7.19-6.49-9.87-10.31-11.26-3.87-1.42-15.95-.11-20.28,.36-3.47,.38-12.09,2.59-18.21,4.6-.43,.9-.85,1.8-1.26,2.7,6.05-2.04,16.15-4.75,19.69-5.14,6.26-.69,16.38-1.55,19.32-.48,3.6,1.31,7.86,3.59,8.92,9.6,1.61,9.11,2.79,20.58,1.29,25.46-.99,3.23-1.8,8.49-2.57,13.58-.64,4.2-1.24,8.17-1.87,10.38-.66,2.32-1.94,7.22-3.21,12.08,.78,0,1.52,0,2.22,0,1.22-4.66,2.42-9.27,3.05-11.48,.67-2.34,1.28-6.38,1.93-10.65"/>
      <path class="cls-20" d="M186.03,287.11c.16-.58-.18-1.18-.75-1.34-.57-.16-1.16,.18-1.32,.76,0,.03-.79,2.85-1.71,5.22-.49,1.26-1.69,6.04-2.59,9.99,.76,0,1.5,0,2.21,0,.83-3.64,1.89-7.92,2.38-9.19,.96-2.47,1.75-5.31,1.79-5.43"/>
      <path class="cls-23" d="M196.81,272.4l.02-.14c.07-.9,1.81-22.14,.61-27.22-1.18-5.01-3.52-14.84-7.53-17.61-3.68-2.54-13.26-6.09-17.45-6.29-2.64-.12-8.5,1.02-12.79,1.67-2,.3-3.72,.56-4.29,.59-.84,.04-3.94,.4-7.46,.83-.43,.78-.85,1.56-1.26,2.35,4.09-.51,7.96-.96,8.83-1.01,.67-.03,2.28-.28,4.5-.61,3.96-.6,9.94-1.76,12.37-1.65,3.47,.16,12.73,3.42,16.34,5.91,3.33,2.3,5.62,11.93,6.65,16.32,.89,3.78-.03,18.91-.65,26.46-.26,1.19-3.65,16.82-4.32,19.93-.35,1.63-1.41,5.69-2.55,9.8,.83,0,1.58,0,2.23,0,1.12-4.05,2.11-7.91,2.42-9.34,.7-3.24,4.34-20,4.34-20"/>
      <path class="cls-26" d="M156.46,228.65c2.4-.55,8.28-1.17,11.44-1.5l1.23-.13c2.34-.25,6.76,.09,6.8,.09,.59,.05,1.11-.4,1.15-1,.04-.6-.4-1.12-.99-1.17-.19-.02-4.67-.36-7.2-.08l-1.22,.13c-3.21,.34-9.17,.97-11.7,1.55-1.57,.36-6.16,1.1-10.21,1.74-.41,.8-.81,1.6-1.21,2.4,.5-.08,1-.16,1.51-.24,4.3-.69,8.74-1.4,10.38-1.78"/>
      <path class="cls-26" d="M182.87,221.8c.58,.13,1.15-.25,1.27-.84,.12-.59-.25-1.17-.83-1.29-1.37-.3-13.58-2.11-16.26-1.76-1.74,.24-7.18,.83-16.1,.99-.44,.73-.88,1.46-1.3,2.2,7.13-.12,15.27-.7,17.68-1.03,1.74-.23,10.49,.64,15.52,1.73"/>
      <path class="cls-8" d="M166.27,216.54c4.74-.09,14.88,1.28,18.05,2.69,3.14,1.39,6.86,6.57,9.39,10.34,2.67,3.98,4.98,12.42,5.27,14.14,.21,1.25,.13,9.87,.02,15.36-.01,.6,.46,1.1,1.05,1.11,.59,.01,1.08-.47,1.1-1.07,.03-1.42,.26-13.92-.05-15.77-.34-2.06-2.77-10.76-5.61-15-2.9-4.33-6.7-9.51-10.3-11.11-3.47-1.54-13.95-2.97-18.95-2.87-1.67,.03-4.81,.05-8.13,.06-1.44,0-2.92,.01-4.38,.02-.47,.73-.93,1.46-1.38,2.19,1.92-.01,3.91-.02,5.77-.03,3.33-.01,6.47-.03,8.16-.06"/>
      <path class="cls-8" d="M208.98,282.34c.2-.81,4.95-19.98,5.14-29.49,.19-8.96-5.24-21.01-10.59-27.49-5.33-6.45-12.66-14.42-17.32-15.8-4.28-1.27-18.5-4.79-25.71-4.85-.4,.53-.8,1.05-1.2,1.58-.15,.2-.29,.41-.43,.61,.33,0,.65-.01,.94-.02,6.68-.19,21.46,3.48,25.79,4.77,3.19,.94,9.12,6.45,16.28,15.11,4.98,6.03,10.26,17.7,10.08,26.04-.19,9.26-4.88,28.2-5.08,29l-.06,.25c-.59,2.39-1.64,6.59-2.54,11.26,1.37-2.17,2.61-4.6,3.74-7.11,.34-1.44,.65-2.68,.89-3.62l.06-.25Z"/>
      <path class="cls-7" d="M216.53,242.58c-2.25-7.66-8.07-16.75-8.73-17.76-1.88-2.89-9.52-12.39-15.57-16.63-5.5-3.85-17.41-6.45-25.29-8.17l-1.59-.35c-.25-.05-.49-.09-.73-.14-.53,.64-1.07,1.28-1.59,1.93,.62,.09,1.24,.2,1.86,.34l1.6,.35c7.25,1.58,19.37,4.23,24.52,7.84,5.54,3.88,13.02,13,15,16.03,2.32,3.57,6.71,11.2,8.46,17.18,1.86,6.34,1.31,16.23,1.02,21.54-.02,.36-.06,.79-.1,1.26,.71-1.86,1.52-3.8,2.47-5.73,.2-5.5,.17-12.59-1.33-17.69"/>
      <path class="cls-18" d="M205.55,199.97c-6.38-4.55-14.39-10.02-19.77-11.96-1.88-.68-4.77-1.62-7.74-2.55-.63,.56-1.24,1.13-1.85,1.7,3.36,1.05,6.76,2.14,8.87,2.9,5.13,1.86,12.99,7.23,19.26,11.7,5.5,3.92,14.74,16.55,16.77,21.38,1.99,4.72,4.8,22.75,4.47,25.47-.03,.21-.03,.48-.04,.74,.69-.67,1.42-1.31,2.19-1.92-.22-5.34-2.69-20.52-4.64-25.15-2.18-5.16-11.65-18.12-17.51-22.3"/>
      <path class="cls-8" d="M212.74,205.42c.42,.43,1.09,.44,1.52,.02,.42-.42,.43-1.11,.02-1.54-.2-.21-4.89-5.05-10.26-8.8-4.74-3.31-16.87-10.48-22.42-12.69-.22,.18-.45,.36-.67,.54-.43,.35-.82,.72-1.24,1.08,4.14,1.23,17.62,9.02,23.11,12.86,5.19,3.63,9.9,8.48,9.95,8.53"/>
      <path class="cls-28" d="M216.02,200.81c-4.74-6.71-16.61-15.4-23-18.84-1.8-.97-4.21-2.05-6.77-3.13-.68,.49-1.36,1-2.04,1.51,2.96,1.22,5.79,2.46,7.8,3.54,6.35,3.42,17.89,11.99,22.27,18.19,4.36,6.17,11.36,24.14,12.75,29.27,.55,2.04,1.91,7.83,3.02,14.44,.64-.4,1.3-.76,1.99-1.1-1.1-6.41-2.39-11.92-2.93-13.92-1.46-5.38-8.51-23.5-13.07-29.96"/>
      <path class="cls-20" d="M227.28,217.02c-1.41-3.15-2.74-6.12-3.42-8.04l-.29-.82c-1.74-4.91-4.64-13.14-11.03-17.36-6.37-4.21-14.77-9.96-14.86-10.02-.49-.34-1.16-.21-1.49,.29-.14,.2-.19,.43-.18,.66,.02,.33,.18,.65,.47,.85,.08,.06,8.51,5.82,14.89,10.03,5.78,3.82,8.53,11.61,10.18,16.27l.29,.83c.71,2,2.06,5.01,3.49,8.2,1.9,4.24,4.04,9.04,4.88,11.92,.86,2.95,2.33,10.29,3.36,15.69,.66-.29,1.34-.55,2.04-.79-1.02-5.35-2.46-12.55-3.34-15.53-.88-3.02-2.97-7.69-4.99-12.2"/>
      <path class="cls-7" d="M229.9,204.17c-.84-.8-2.2-2.61-3.77-4.71-2.61-3.48-5.86-7.82-9.19-10.88-5.76-5.3-15.31-10.44-21.73-11.72-1.2-.24-2.64-.68-4.19-1.23-.76,.48-1.52,.97-2.27,1.48,2.22,.85,4.34,1.56,6.05,1.9,5.99,1.19,15.28,6.21,20.7,11.19,3.18,2.92,6.36,7.17,8.92,10.58,1.7,2.27,3.04,4.06,4.02,4.98,2.23,2.11,11.19,17.47,12.51,26.01,.48,3.12,.67,7.93,.71,11.62,.7-.06,1.41-.09,2.15-.11-.04-3.76-.24-8.64-.74-11.85-1.41-9.12-10.75-24.97-13.17-27.27"/>
      <path class="cls-16" d="M234.17,201c-.5-.91-.98-1.77-1.42-2.58-3.56-6.53-8.56-12.24-16.21-18.51-6.14-5.03-11-8.25-15.05-9.98-.9,.42-1.79,.86-2.68,1.31,4.16,1.34,9.39,4.64,16.39,10.37,7.43,6.09,12.27,11.6,15.68,17.87,.44,.82,.92,1.68,1.43,2.6,3.8,6.88,9.02,16.31,11.41,25.75,1.17,4.64,1.83,10.89,2.13,15.43,.71,.01,1.43,.03,2.16,.06-.3-4.7-.98-11.18-2.21-16.04-2.46-9.72-7.75-19.29-11.61-26.27"/>
      <path class="cls-8" d="M213.99,183.81c1.88,1.69,11.13,12.18,12.39,14.2,.32,.51,.98,.66,1.48,.34,.5-.32,.65-1,.33-1.5-1.36-2.17-10.78-12.87-12.78-14.66-2.1-1.88-12.27-6.69-17.28-7.92-.85-.21-1.89-.58-3.03-1.05-.79,.44-1.57,.89-2.34,1.36,1.84,.82,3.54,1.48,4.87,1.81,4.88,1.2,14.67,5.91,16.37,7.43"/>
      <path class="cls-6" d="M235.73,193.66c-.57-.51-1.14-1-1.7-1.52-5.47-5.1-10.78-10.3-15.74-16.33-3.8-2.67-8.02-5.11-12.64-7.3-.17-.08-.36-.18-.54-.26-.85,.38-1.7,.76-2.53,1.16,.74,.38,1.46,.75,2.16,1.08,12.41,5.88,21.46,13.22,27.67,22.45,8.25,12.27,12.16,21.81,14.92,36.45,.92,4.9,1.4,9.99,1.69,13.73,.71,.03,1.44,.07,2.16,.11-.29-3.87-.78-9.12-1.74-14.24-2.61-13.84-6.4-23.96-13.71-35.31"/>
      <path class="cls-17" d="M215.69,172.55c-1.11-1.42-2.19-2.88-3.25-4.35-1.05-.6-2.06-1.18-3.02-1.73-.86,.33-1.72,.67-2.56,1.03,2.4,1.4,5.15,2.97,8.14,4.66,.23,.13,.46,.26,.69,.39"/>
      <path class="cls-8" d="M243.03,199.51c-1.4-1.06-2.79-2.17-4.17-3.32,.21,.38,.66,1.52,.87,1.9,5.33,9.62,8.55,21.4,9.68,26.01,.98,3.99,2.54,12.65,3.79,19.18,.73,.04,1.47,.09,2.21,.14-1.28-6.67-2.9-15.7-3.92-19.84-1.03-4.19-4.01-14.95-8.46-24.06"/>
      <path class="cls-3" d="M250.45,204.74c-1.02-.68-2.05-1.38-3.08-2.1,1.51,3.79,2.75,8.42,3.45,12.44,1.63,9.39,3.65,20.73,5.27,28.37,.74,.04,1.48,.09,2.23,.13-1.64-7.65-3.7-19.26-5.38-28.88-.52-2.99-1.36-6.73-2.49-9.96"/>
      <path class="cls-31" d="M255.39,208c-.88-.54-1.77-1.09-2.66-1.67,1.71,5.63,5.07,25.38,6.23,33.12,.14,.92,.4,2.97,.59,4.16,.73,.04,1.46,.08,2.19,.12-.21-1.29-.49-3.48-.66-4.6-.91-6.08-3.79-23.29-5.69-31.13"/>
      <path class="cls-21" d="M266.66,220.96c-.07-.98-.38-3.54-.75-6.37-.77-.42-1.55-.84-2.34-1.28,.44,3.19,.85,6.41,.95,7.81,.1,1.42,1.06,8.24,2.17,16.13,.26,1.88,.72,5.23,.99,7.13,.73,0,1.45,0,2.17,0-.28-2-.76-5.46-1.03-7.43-1.06-7.52-2.06-14.63-2.15-15.98"/>
      <path class="cls-24" d="M272.08,232.25c.51-4.26,.29-9.57-.52-14.63-.79-.42-1.59-.85-2.42-1.28,1.01,5.33,1.35,11.11,.81,15.65-.36,3.02-.07,8.47,.33,12.23,.73-.02,1.45-.04,2.16-.08-.4-3.68-.7-9.03-.36-11.89"/>
      <path class="cls-30" d="M276.72,220.38c-.68-.37-1.38-.75-2.1-1.13,0,.25,0,.5-.03,.74-.41,5.16-.81,16.45-.43,24.09,.73-.06,1.45-.14,2.14-.24-.32-6.55-.11-16.63,.42-23.45"/>
      <path class="cls-22" d="M282.42,223.73s-.09-.07-.14-.1c-.34-.23-.7-.47-1.08-.7-.28-.17-.59-.34-.88-.51,.83,5.26,1.43,12.83,1.76,19.55,.76-.32,1.46-.69,2.1-1.12-.29-5.66-.81-12.18-1.45-16.91-.1-.07-.2-.14-.3-.22"/>
      <path class="cls-7" d="M286.98,233.46c-.15-1.92-.31-3.85-.49-5.74-.4-.66-.9-1.32-1.54-1.95h0c-.24-.24-.51-.47-.78-.71,0,0,0,0,0,0-.04-.03-.08-.07-.12-.1,.33,2.75,.57,5.74,.8,8.68,.14,1.76,.29,3.57,.45,5.32,.83-.77,1.47-1.69,1.92-2.76-.08-.91-.15-1.82-.22-2.73"/>
      <path class="cls-8" d="M167.75,252.66c-2.81-3.22-5.45-1.81-7.77-.56-.18,.1-.37,.2-.56,.3-2.21,1.17-8.79,7.81-14.93,14.15l-.84,.86c-2.49,2.56-4.46,6.42-5.26,10.32-.36,1.77-1.29,4.64-2.12,7.17-.84,2.58-1.36,4.21-1.47,5-.19,1.32-3.74,9.32-5.21,11.74,.79,0,1.61,0,2.47,0,1.76-3.34,4.65-9.91,4.87-11.43,.09-.65,.75-2.68,1.39-4.64,.84-2.59,1.79-5.52,2.18-7.41,.71-3.45,2.51-6.99,4.69-9.23l.84-.87c3.01-3.11,12.18-12.58,14.38-13.74,.2-.1,.39-.21,.57-.31,2.47-1.33,3.53-1.79,5.16,.08,1.48,1.7-.03,7.15-2.06,11.49-.79,1.69-3.87,7.54-7.51,12.09-3.77,4.7-7.46,12.03-8.57,15.3-.89,2.62-.54,5.97-.06,8.69,.73,0,1.46,0,2.19,0-.47-2.55-.86-5.72-.09-7.99,1.08-3.19,4.73-10.3,8.2-14.63,3.8-4.74,6.91-10.65,7.79-12.53,1.45-3.1,4.52-10.66,1.73-13.87"/>
      <path class="cls-4" d="M173.38,254.52c-.12-2.53-.42-5.17-2.61-7.13-2.12-1.89-4.51-3.55-8.35-1.22-1.83,1.11-5.58,4.1-9.2,7-2.63,2.11-5.12,4.09-6.26,4.85-.44,.3-10.93,7.35-12.19,13.12-.98,4.46-2.82,13.3-2.9,14.07-1.03,6.2-6.82,15.5-7.69,16.43,.85,0,1.77,0,2.74,0,2.33-3.25,6.08-10.71,7.08-16.09v-.08c.02-.09,1.9-9.42,2.88-13.87,.79-3.62,7.34-9.14,11.28-11.77,1.22-.81,3.62-2.73,6.41-4.96,3.4-2.72,7.26-5.8,8.97-6.84,2.42-1.47,3.7-.91,5.82,.98,1.42,1.27,1.75,2.94,1.88,5.6,.1,1.98-1.22,11.32-1.76,14.85-.39,1.32-5.87,19.95-8.32,27.44-.5,1.51-.83,3.13-1.04,4.78,.73,0,1.45,0,2.18,0,.2-1.43,.49-2.81,.91-4.09,2.54-7.77,8.3-27.39,8.36-27.58l.03-.15c.08-.52,1.91-12.75,1.79-15.37"/>
      <path class="cls-11" d="M145.42,296.06c.16-.66,.32-1.42,.5-2.22,.58-2.67,1.29-6,2.52-8.26,4.21-7.77,4.75-8.46,6.54-10.74,.59-.75,1.31-1.67,2.32-3.04l.6-.8c1.45-1.93,2.6-3.46,5.07-8.63,.97-2.02,1.79-4.24,.49-5.31-.4-.32-1.61-1.32-5.55,1.77-1.23,.97-5.15,4.89-6.87,6.88-1.65,1.9-1.77,2.17-3.88,6.58l-.61,1.27c-.26,.55-.04,1.21,.51,1.47,.54,.26,1.19,.04,1.45-.51l.61-1.28c2.06-4.33,2.1-4.41,3.55-6.09,1.63-1.88,5.43-5.7,6.57-6.59,1.34-1.05,2.22-1.48,2.69-1.64-.06,.39-.27,1.14-.91,2.47-2.38,4.97-3.41,6.35-4.84,8.26l-.61,.82c-.99,1.35-1.7,2.25-2.28,2.99-1.83,2.34-2.45,3.12-6.75,11.06-1.38,2.55-2.13,6.04-2.74,8.85-.17,.78-.33,1.51-.48,2.16-.43,1.77-.53,4.16-.49,6.14,.74,0,1.47,0,2.19,0-.04-1.82,.03-4.05,.41-5.62"/>
      <path class="cls-27" d="M139.58,299.68l.34-.88c1.17-3.05,2.63-6.85,3.07-9.99l.19-1.34c.39-2.76,.72-5.14,1.07-8.34,.07-.61-.36-1.15-.96-1.22-.59-.07-1.13,.37-1.2,.98-.34,3.16-.68,5.53-1.06,8.27l-.19,1.35c-.4,2.89-1.81,6.55-2.94,9.5l-.34,.89c-.35,.92-.67,1.88-.95,2.78,.77,0,1.53,0,2.28,0,.21-.66,.45-1.34,.69-1.99"/>
      <path class="cls-7" d="M208.39,243.95c-.17-.65-.31-1.22-.4-1.93-.36-2.78-1.77-6.18-3.02-8.31-1.33-2.29-7.06-7.63-7.71-8.23-.03-.02-.06-.03-.08-.05-1.36-2.32-2.76-4.47-3.96-6-4.36-5.53-11.93-7.57-14.72-7.64-1.13-.03-5.21-.37-9.54-.73-4.4-.36-9.21-.76-12.36-.96-.48,.7-.94,1.4-1.41,2.1,2.95,.15,8.74,.63,13.59,1.03,4.54,.38,8.46,.7,9.65,.73,2.75,.08,9.42,2.16,13.1,6.83,4.05,5.13,9.42,16.05,9.64,17.94l.08,.69c1.73,14.95,1.53,18.85,1.26,19.85-.36,1.32-1.78,7.29-3.41,14.21-2.12,8.98-4.77,20.16-5.36,22.14-.27,.89-.77,3.16-1.37,6.13,.49,0,.77,0,.77,0,.49,0,.98-.06,1.46-.15,.53-2.62,.96-4.59,1.19-5.35,.62-2.04,3.16-12.79,5.4-22.27,1.56-6.61,3.04-12.84,3.39-14.13,.57-2.07,.18-8.84-1.19-20.69l-.08-.68c-.12-1.07-1.17-3.6-2.62-6.55,1.1,1.16,2.03,2.24,2.42,2.9,1.34,2.3,2.46,5.38,2.73,7.48,.11,.85,.28,1.51,.45,2.2,.35,1.36,.74,2.91,.74,6.61,0,6.99-.95,13.8-2.81,20.23-2.22,7.65-2.66,9.41-2.68,9.49-.15,.59,.21,1.19,.79,1.34,.09,.02,.18,.03,.27,.03,.49,0,.93-.33,1.05-.83,0-.02,.46-1.83,2.66-9.4,1.93-6.64,2.91-13.66,2.9-20.86,0-3.98-.43-5.67-.81-7.16"/>
      <path class="cls-34" d="M201.32,297.31c.26-5.26,1-10.29,1.01-10.37,.09-.6-.32-1.17-.91-1.26-.61-.1-1.15,.32-1.24,.92-.05,.36-1.01,6.8-1.11,12.85,.78-.62,1.53-1.34,2.26-2.15"/>
      <path class="cls-26" d="M217.67,231.87c-2.34-5.28-9.72-16.51-12.09-18.78l-.47-.45c-2.49-2.41-8.31-8.04-15.95-11.25-8.01-3.36-18.87-4.98-19.32-5.05-.61-.09-1.15,.33-1.23,.93-.09,.6,.33,1.16,.92,1.25,.11,.02,11.05,1.65,18.8,4.9,7.27,3.05,12.89,8.49,15.29,10.81l.47,.46c1.96,1.88,9.3,12.88,11.6,18.08,1.94,4.38,3.43,16.61,4.15,22.49,.05,.41,.09,.77,.14,1.13,.57-.95,1.19-1.87,1.85-2.78-.82-6.65-2.22-17.38-4.16-21.74"/>
      <path class="cls-11" d="M239.55,243.89c-.07-5.61-1.45-15.44-2.94-19.61-1.17-3.26-4.24-8.01-6.72-11.83-1.34-2.08-2.61-4.04-2.93-4.8-.23-.56-.86-.83-1.42-.59-.56,.23-.82,.88-.59,1.44,.39,.96,1.59,2.81,3.11,5.17,2.28,3.53,5.41,8.36,6.49,11.38,1.46,4.08,2.82,14,2.82,19.29,.04-.01,.08-.03,.12-.04,.66-.16,1.35-.29,2.05-.4"/>
      <path class="cls-14" d="M263.83,230.6c-.57-4-.76-5.34-1.51-8.77-.8-3.65-1.84-7.97-2.5-10.66-.87-.5-1.74-1.02-2.62-1.55,.43,1.75,1.93,7.82,3,12.69,.74,3.34,.93,4.67,1.48,8.6,.35,2.48,1.06,7.29,1.95,13.13,.74,.03,1.48,.06,2.21,.07-.93-6.06-1.65-10.99-2.01-13.52"/>
      <path class="cls-12" d="M222.69,235.92c-1.5-8.65-8.2-22.56-15.44-28.7-6.85-5.81-23.19-16.26-29.64-17.69-.86-.19-1.92-.47-3.1-.8-.6,.58-1.18,1.18-1.76,1.77,1.69,.49,3.22,.9,4.4,1.16,1.96,.44,5.17,1.92,8.81,3.92-1.14-.15-2.3-.28-3.38-.35-2.12-.15-7.09-2.2-10.78-3.76-.54,.57-1.08,1.14-1.6,1.71,4.3,1.83,9.6,4.07,12.23,4.25,3.32,.23,7.75,1.03,8.83,1.23,5.46,3.34,11.05,7.22,14.6,10.23,6.88,5.84,13.27,19.13,14.7,27.41,1.03,5.94,1.89,11.89,1.78,16.6,.66-.86,1.37-1.7,2.12-2.5-.15-4.08-.82-8.9-1.78-14.48"/>
      <path class="cls-29" d="M278.17,243.43c.06-.01,.12-.02,.18-.03,.68-.15,1.32-.32,1.94-.51-.03-.58-.06-2.37-.06-2.79-.03-3.54-.47-12.71-.49-13.1-.03-.6-.53-1.06-1.12-1.03-.59,.03-1.05,.54-1.02,1.14,0,.1,.46,9.51,.49,13.01,0,.56,.04,2.53,.09,3.31"/>
      <path class="cls-20" d="M155.98,301.69c.06-3.38,.89-8.64,1.74-11.31,.58-1.84,2.03-3.84,3.3-5.6,.8-1.1,1.55-2.14,2.06-3.08,.64-1.19,3.83-9.66,4.19-10.62,.21-.57-.07-1.21-.63-1.42-.56-.22-1.19,.07-1.4,.64-1.4,3.72-3.64,9.55-4.07,10.35-.44,.81-1.15,1.79-1.9,2.83-1.37,1.89-2.93,4.04-3.62,6.23-.83,2.62-1.77,8.19-1.84,11.98,.74,0,1.46,0,2.17,0"/>
    </g>
    <g class="cls-36">
      <path class="cls-9" d="M110.99,48.6c-.14-.33-.28-.67-.42-.98,.01-.02,.02-.03,.03-.05-5.82-15.28-17.74-30.51-9.52-38.51-5.93,4.33-20.87,15.2-34.28,24.61-13.15,9.23-26.67,17.29-28.41,22.65-5.37,16.52,12.34,40.45,5.97,60.06C38.32,134.98,0,143.67,2.85,158.01c2.95,14.81,23.46,6.56,41.41,5.88,15.35-.58,34.38-.45,59.21,6.69,4.96-6.99,10.6-17.12,15.14-31.09,3.35-10.32,4.46-21.69,4.22-32.88-.89-25.6-6.58-43.65-11.84-58"/>
    </g>
    <g class="cls-42">
      <path class="cls-8" d="M92.47,69.81c-.11-.18-.22-.37-.34-.55,1.02,.24,2.07,.37,3.16,.37,7.23-.04,13.08-5.96,13.04-13.18,0-1.09-.15-2.15-.4-3.16,.2,.12,.4,.24,.6,.36,.09,.05,.17,.1,.26,.15,.19,.11,.39,.22,.58,.33,.32,.18,.63,.34,.96,.51,.07,.03,.14,.07,.21,.1,.15,.07,.3,.15,.45,.22,.05,.48,.07,.97,.08,1.47,.05,8.73-7.02,15.88-15.75,15.92-.5,0-.99-.02-1.47-.06-.08-.16-.16-.32-.24-.47-.03-.05-.05-.11-.08-.16-.17-.33-.35-.66-.54-.99-.1-.18-.2-.35-.3-.53-.07-.11-.14-.22-.2-.33m-25.76,34.71h0c-.06,0-.12,0-.18,0-10.42,.06-18.95-8.37-19.01-18.8,0-.06,0-.12,0-.18h0c-.88,.31-1.79,.59-2.71,.83,.4,11.42,9.67,20.59,21.1,20.86,.22-.92,.49-1.83,.8-2.72m4.16,8.8c.55-12.65,10.66-22.87,23.3-23.57-.09-.59-.15-1.18-.2-1.78-.03-.31-.06-.62-.08-.93-13.93,.83-25.07,12.09-25.74,26.03,.35,.02,.7,.04,1.05,.07,.56,.05,1.12,.1,1.67,.18m-2.66-12.4c.03-.06,.06-.13,.09-.19,.16-.32,.34-.65,.51-.96,.11-.19,.22-.38,.32-.57,.06-.09,.11-.19,.16-.28,.12-.2,.24-.4,.36-.59h0c-1.01,.26-2.07,.4-3.16,.41-7.23,.04-13.15-5.81-13.19-13.04,0-1.09,.12-2.15,.37-3.16h0c-.18,.11-.36,.22-.55,.33-.12,.07-.23,.14-.35,.21-.17,.11-.34,.21-.51,.3-.33,.18-.66,.36-1,.54-.05,.03-.1,.05-.14,.07-.16,.08-.32,.16-.48,.24-.04,.48-.07,.97-.06,1.47,.05,8.73,7.19,15.8,15.93,15.75,.49,0,.98-.03,1.47-.08,.07-.15,.15-.3,.23-.46m27.11-25.51c-.06,0-.12,0-.18,0,.32,.89,.59,1.79,.83,2.71,11.42-.4,20.59-9.67,20.86-21.1-.92-.22-1.83-.49-2.72-.8,0,.06,0,.12,0,.18,.06,10.42-8.37,18.95-18.79,19.01M27.27,56.89c-.03-5.54,4.45-10.07,9.99-10.1,5.54-.03,10.07,4.45,10.1,9.99,.03,5.54-4.45,10.07-9.99,10.1-5.54,.03-10.07-4.45-10.11-9.99m2.73-.02c.02,4.04,3.33,7.3,7.36,7.28s7.3-3.33,7.28-7.36c-.02-4.04-3.33-7.3-7.36-7.28-4.04,.02-7.3,3.33-7.28,7.36m65.28,9.68c-5.54,.03-10.07-4.45-10.1-9.99-.03-5.54,4.45-10.07,9.99-10.1,5.54-.03,10.07,4.45,10.11,9.99,.03,5.54-4.45,10.08-9.99,10.11m7.26-10.09c-.02-4.04-3.32-7.3-7.36-7.28-4.04,.02-7.3,3.33-7.28,7.36,.02,4.04,3.33,7.3,7.36,7.28,4.04-.02,7.3-3.32,7.28-7.36m-34.84,2.72c-.05,.59-.11,1.19-.18,1.77h0c12.64,.55,22.87,10.66,23.56,23.3t0,0c.62-.09,1.25-.16,1.88-.21,.28-.03,.55-.05,.83-.07-.83-13.93-12.1-25.07-26.03-25.73-.01,.32-.04,.63-.07,.94m-2.93-4.08c.01-.31,.04-.62,.06-.93,.05-.6,.11-1.2,.19-1.79h0c-12.64-.55-22.87-10.66-23.56-23.3h0c-.55,.08-1.11,.14-1.66,.2-.35,.03-.7,.07-1.05,.08,.83,13.93,12.09,25.07,26.03,25.74m-27.38,14.84c-1.09,0-2.15-.12-3.16-.37,.12,.18,.23,.37,.34,.56,.07,.11,.13,.22,.2,.33,.1,.18,.21,.35,.31,.53,.18,.33,.36,.65,.54,.99,.03,.05,.05,.11,.08,.16,.08,.16,.16,.31,.24,.47,.48,.04,.98,.07,1.47,.06,8.73-.05,15.8-7.19,15.75-15.93,0-.5-.03-.98-.08-1.47-.15-.07-.3-.15-.45-.22-.07-.03-.14-.07-.21-.1-.32-.17-.64-.33-.96-.51-.2-.11-.39-.22-.58-.33-.09-.05-.18-.1-.26-.15-.2-.12-.4-.23-.6-.36,.26,1.01,.4,2.07,.41,3.16,.04,7.23-5.81,13.14-13.04,13.18m18.99,15.73c-.03-5.54,4.45-10.07,9.99-10.1,5.54-.03,10.07,4.45,10.1,9.99,.03,5.54-4.45,10.07-9.99,10.1-5.54,.03-10.07-4.45-10.11-9.99m2.73-.01c.02,4.04,3.33,7.3,7.36,7.28,4.04-.02,7.3-3.33,7.28-7.36s-3.33-7.3-7.36-7.28c-4.04,.02-7.3,3.33-7.28,7.36m-21.68-9.93c-.06,0-.12,0-.18,0,.32,.89,.59,1.79,.83,2.71,11.42-.4,20.59-9.67,20.86-21.09-.92-.23-1.83-.49-2.72-.8,0,.06,0,.12,0,.18,.06,10.42-8.37,18.95-18.79,19.01m28.72-9.01h0c.06,0,.12,0,.18,0,10.42-.06,18.95,8.38,19.01,18.8,0,.06,0,.12,0,.18h0c.89-.31,1.79-.59,2.71-.83-.4-11.42-9.67-20.59-21.1-20.86-.22,.93-.49,1.83-.8,2.72m-1.5,3.61c-.03,.06-.06,.11-.08,.17-.17,.33-.34,.66-.52,.99-.1,.18-.2,.35-.3,.52-.07,.12-.14,.23-.2,.35-.11,.19-.22,.37-.34,.56h0c1.01-.26,2.07-.4,3.15-.41,7.23-.04,13.15,5.81,13.19,13.04,0,1.09-.12,2.14-.37,3.16h0c.2-.12,.4-.24,.6-.36,.09-.05,.18-.11,.26-.16,.19-.12,.38-.23,.58-.34,.31-.18,.63-.35,.95-.52,.07-.03,.14-.07,.2-.1,.15-.08,.3-.15,.45-.22,.04-.49,.07-.98,.06-1.47-.05-8.73-7.19-15.8-15.93-15.75-.49,0-.98,.03-1.47,.08-.07,.16-.15,.31-.23,.47m-2.66-12.41c-.55,12.64-10.66,22.87-23.3,23.57,.09,.58,.15,1.17,.2,1.77,.03,.31,.06,.63,.08,.95,13.93-.83,25.07-12.1,25.74-26.03-.28-.01-.55-.04-.83-.06-.63-.04-1.26-.1-1.89-.19m31.59-28.78c-13.93,.83-25.07,12.1-25.74,26.03,.35,.02,.7,.04,1.05,.07,.56,.05,1.12,.1,1.67,.18,.55-12.64,10.66-22.87,23.3-23.57-.09-.59-.15-1.18-.2-1.78-.03-.31-.06-.62-.08-.93m1.55,11.53c-8.73,.05-15.8,7.19-15.75,15.93,0,.49,.03,.98,.08,1.47,.16,.08,.32,.16,.48,.24,.05,.03,.11,.05,.16,.08,.34,.17,.67,.34,1,.53,.17,.09,.34,.19,.51,.29,.12,.07,.24,.14,.36,.21,.18,.11,.37,.22,.55,.33-.26-1.01-.4-2.07-.4-3.16-.04-7.23,5.81-13.14,13.04-13.18,1.09,0,2.15,.12,3.16,.37-.12-.2-.24-.39-.36-.59-.06-.1-.11-.18-.17-.28-.11-.19-.22-.37-.33-.57-.18-.31-.36-.64-.53-.96-.03-.06-.06-.13-.09-.19-.08-.15-.16-.3-.23-.45-.48-.04-.97-.07-1.47-.06m-21.52,15.33c.92,.22,1.83,.49,2.72,.79,0-.06,0-.12,0-.18-.06-10.42,8.37-18.95,18.79-19.01,.06,0,.12,0,.18,0-.31-.88-.59-1.79-.82-2.71-11.42,.4-20.59,9.67-20.86,21.1m22.66-32.73c.09,.58,.15,1.17,.2,1.77,.03,.31,.06,.63,.08,.95,13.93-.83,25.07-12.09,25.74-26.03-.28-.01-.55-.04-.83-.06-.63-.05-1.27-.11-1.89-.19-.55,12.64-10.66,22.87-23.3,23.57m-5.5,3.09s0,0,0,0c.62-.09,1.25-.16,1.88-.21,.28-.02,.55-.05,.83-.07-.83-13.93-12.09-25.07-26.03-25.74-.01,.32-.04,.63-.07,.95-.05,.59-.11,1.19-.18,1.77h0c12.64,.55,22.87,10.66,23.56,23.3m-5.26,88.11c-.03-5.54,4.45-10.07,9.99-10.1,5.54-.03,10.07,4.45,10.1,9.99,.03,5.54-4.45,10.07-9.99,10.1-5.54,.03-10.07-4.45-10.11-9.99m2.73-.02c.02,4.04,3.33,7.3,7.36,7.28,4.04-.02,7.3-3.33,7.28-7.36s-3.33-7.3-7.36-7.28c-4.04,.02-7.3,3.33-7.28,7.36m-45.4-21.59c-.57-1.87-1.85-3.84-1.96-5.88-.55,.08-.19,.14-.75,.2-.35,.03-.7,.07-1.05,.09,.83,13.93,12.09,25.07,26.03,25.74,.01-.31,.04-.62,.07-.93,.05-.6,.11-1.2,.19-1.79h0c-10.61-.46-19.52-7.66-22.52-17.43m-5.23,11.83c5.54-.03,10.07,4.45,10.11,9.99,.03,5.54-4.45,10.07-9.99,10.1-5.54,.03-10.08-4.45-10.11-9.99-.03-5.54,4.45-10.07,9.99-10.1m-7.26,10.09c.02,4.04,3.33,7.3,7.36,7.28s7.3-3.33,7.28-7.36-3.33-7.3-7.36-7.28c-4.04,.02-7.3,3.33-7.28,7.36m62.97,27.16c.28-.02,.55-.05,.83-.07-.83-13.93-12.09-25.07-26.03-25.74-.02,.32-.04,.63-.07,.94-.05,.59-.1,1.19-.19,1.77h0c12.65,.55,22.87,10.66,23.57,23.3h0c.62-.09,1.25-.16,1.88-.21m30.98-66.7c5.54-.03,10.07,4.45,10.1,9.99,.03,5.54-4.45,10.07-9.99,10.1-5.54,.03-10.07-4.45-10.11-9.99-.03-5.54,4.45-10.07,9.99-10.11m.02,2.73c-4.04,.02-7.3,3.32-7.28,7.36,.02,4.04,3.33,7.3,7.36,7.28,4.04-.02,7.3-3.33,7.28-7.36-.02-4.04-3.33-7.3-7.36-7.28m-12.7,4.23c-.18,.12-.36,.23-.55,.34-.12,.07-.23,.14-.35,.21-.17,.1-.34,.2-.51,.3-.33,.18-.66,.36-1,.54-.05,.03-.1,.05-.14,.07-.16,.08-.32,.17-.48,.24-.04,.48-.07,.97-.07,1.47,.05,8.73,7.19,15.8,15.93,15.75,.49,0,.98-.03,1.47-.08,.07-.15,.15-.3,.23-.46,.03-.07,.06-.13,.09-.19,.17-.33,.34-.65,.51-.97,.1-.19,.21-.38,.32-.57,.05-.09,.11-.19,.17-.28,.12-.2,.24-.4,.36-.59h0c-1.01,.26-2.07,.4-3.15,.41-7.23,.04-13.15-5.81-13.19-13.04,0-1.09,.12-2.15,.37-3.16,0,0,0,0,0,0m-13.9-53.24c-.35,.03-.7,.07-1.05,.09,.83,13.93,12.09,25.07,26.03,25.74,.01-.31,.04-.62,.07-.93,.05-.6,.11-1.2,.19-1.79h0c-12.65-.55-22.87-10.66-23.57-23.3h0c-.55,.08-1.11,.14-1.67,.2m-29.05,129.67c.16-.33,.34-.65,.51-.97,.11-.19,.21-.38,.32-.57,.05-.1,.11-.19,.16-.28,.12-.2,.24-.4,.36-.59h0c-1.01,.26-2.07,.4-3.16,.4-7.23,.04-13.15-5.81-13.19-13.04,0-1.09,.12-2.15,.37-3.16h0c-.18,.11-.36,.22-.55,.33-.12,.07-.23,.14-.35,.21-.17,.1-.34,.21-.51,.3-.33,.18-.66,.37-1,.54-.05,.02-.1,.05-.14,.07-.16,.08-.32,.17-.48,.24-.04,.49-.07,.97-.07,1.47,.05,8.74,7.19,15.8,15.93,15.75,.49,0,.98-.03,1.47-.08,.07-.15,.15-.3,.22-.46,.03-.06,.06-.13,.09-.19m-1.77,3.79c-10.42,.06-18.95-8.37-19.01-18.8,0-.06,0-.12,0-.17h0c-.89,.31-1.79,.59-2.71,.83,.39,11.42,9.67,20.59,21.1,20.86,.22-.92,.49-1.83,.8-2.72h0c-.06,0-.12,0-.18,0m12.63-15.81c.2-.13,.4-.25,.6-.37,.09-.05,.17-.11,.26-.16,.19-.11,.38-.23,.58-.33,.31-.18,.63-.35,.95-.52,.07-.04,.14-.07,.2-.11,.15-.07,.29-.15,.45-.23,.04-.48,.07-.97,.06-1.47-.05-8.73-7.19-15.8-15.93-15.75-.5,0-.99,.03-1.47,.08-.07,.16-.15,.31-.23,.47-.03,.06-.05,.11-.09,.17-.17,.33-.34,.66-.52,.99-.1,.17-.2,.35-.3,.52-.07,.11-.13,.23-.2,.34-.11,.19-.22,.37-.34,.56,0,0,0,0,0,0,1.01-.26,2.07-.4,3.16-.4,7.23-.04,13.14,5.81,13.18,13.04,0,1.09-.12,2.15-.37,3.16,0,0,0,0,0,0m6.16-3.02c.89-.32,1.79-.59,2.71-.83-.4-11.42-9.67-20.59-21.1-20.86-.22,.92-.49,1.83-.8,2.72h0c.06,0,.12,0,.18,0,10.42-.06,18.95,8.37,19.01,18.79,0,.06,0,.12,0,.17h0ZM8.75,124.95c10.42-.06,18.95,8.37,19.01,18.79,0,.06,0,.12,0,.17h0c.89-.31,1.79-.59,2.71-.83-.4-11.42-9.67-20.59-21.1-20.86-.23,.92-.49,1.83-.8,2.72h0c.06,0,.12,0,.18,0m47.96,18.63c-.03-5.54,4.45-10.07,9.99-10.1,5.54-.03,10.07,4.45,10.1,9.99,.03,5.54-4.45,10.07-9.99,10.1-5.54,.03-10.07-4.45-10.1-9.99m2.73-.02c.02,4.04,3.33,7.3,7.36,7.28,4.04-.02,7.3-3.33,7.28-7.36-.02-4.04-3.32-7.3-7.36-7.28-4.04,.02-7.3,3.33-7.28,7.36m55.17-.31c-.03-5.54,4.45-10.07,9.99-10.1,5.54-.03,10.07,4.45,10.1,9.99,.03,5.54-4.45,10.07-9.99,10.11-5.54,.03-10.07-4.45-10.1-9.99m2.73-.02c.02,4.04,3.33,7.3,7.36,7.28,4.04-.02,7.3-3.33,7.28-7.36-.02-4.04-3.33-7.3-7.36-7.28-4.04,.02-7.3,3.33-7.28,7.36m-108.55-12.5c7.23-.04,13.15,5.81,13.19,13.04,0,1.09-.12,2.15-.37,3.16,0,0,0,0,0,0,.2-.13,.4-.25,.6-.37,.08-.05,.17-.11,.26-.16,.19-.11,.38-.23,.57-.33,.31-.18,.63-.35,.95-.52,.07-.04,.14-.07,.2-.1,.15-.08,.3-.15,.45-.23,.04-.48,.07-.97,.07-1.47-.05-8.73-7.19-15.8-15.93-15.75-.49,0-.98,.03-1.47,.08-.07,.16-.15,.31-.23,.47-.03,.05-.05,.11-.09,.17-.17,.33-.34,.66-.52,.99-.1,.18-.2,.35-.3,.52-.07,.11-.14,.23-.2,.34l-.34,.56s0,0,0,0c1.01-.26,2.07-.4,3.15-.4m24.73,11.74h0c.62-.09,1.25-.15,1.88-.21,.28-.02,.55-.05,.83-.07-.83-13.93-12.09-25.07-26.03-25.73-.02,.32-.04,.63-.07,.94-.05,.59-.11,1.19-.19,1.77h0c12.65,.55,22.87,10.67,23.57,23.3m93.02,15.82c.17-.33,.34-.65,.51-.97,.1-.19,.21-.38,.32-.57,.05-.09,.11-.19,.16-.28,.12-.2,.24-.4,.36-.59h0c-1.01,.26-2.07,.4-3.15,.41-7.23,.04-13.15-5.81-13.19-13.04,0-1.09,.12-2.15,.37-3.16h0c-.18,.11-.36,.22-.55,.33-.12,.07-.23,.14-.35,.21-.17,.1-.34,.2-.51,.3-.33,.18-.66,.37-1,.54-.05,.02-.1,.05-.14,.07-.16,.08-.32,.16-.48,.24-.04,.49-.07,.97-.07,1.47,.05,8.73,7.19,15.8,15.93,15.75,.49,0,.98-.03,1.47-.08,.07-.15,.15-.3,.23-.46,.03-.06,.06-.13,.09-.19m-117.57,4.45c-10.42,.06-18.95-8.37-19.01-18.8,0-.06,0-.12,0-.17h0c-.89,.31-1.79,.59-2.71,.83,.4,11.42,9.67,20.59,21.1,20.86,.23-.92,.49-1.83,.8-2.72h0c-.06,0-.12,0-.18,0m115.8-.65c-10.42,.06-18.95-8.37-19.01-18.79,0-.06,0-.12,0-.18h0c-.89,.31-1.79,.59-2.71,.83,.4,11.42,9.67,20.59,21.1,20.86,.23-.92,.49-1.83,.8-2.72h0c-.06,0-.12,0-.18,0M66.03,14.61c7.23-.04,13.15,5.81,13.19,13.04,0,1.09-.12,2.14-.37,3.16h0c.2-.12,.4-.24,.6-.37,.09-.05,.17-.11,.26-.16,.19-.11,.38-.23,.58-.33,.31-.18,.63-.35,.95-.52,.07-.03,.14-.07,.2-.1,.15-.08,.3-.15,.45-.22,.04-.49,.07-.98,.06-1.47-.05-8.73-7.19-15.8-15.93-15.75-.49,0-.98,.03-1.47,.08-.07,.16-.15,.31-.23,.47-.03,.05-.06,.11-.08,.17-.17,.33-.34,.66-.52,.99-.1,.18-.2,.35-.3,.52-.07,.12-.13,.23-.2,.35-.11,.19-.22,.37-.34,.56h0c1.01-.26,2.07-.4,3.15-.41m-9.97,13.17c-.03-5.54,4.45-10.07,9.99-10.11,5.54-.03,10.07,4.45,10.1,9.99,.03,5.54-4.45,10.07-9.99,10.1-5.54,.03-10.07-4.45-10.1-9.99m2.72-.02c.02,4.04,3.33,7.3,7.36,7.28,4.04-.02,7.3-3.33,7.28-7.36-.02-4.04-3.33-7.3-7.36-7.28-4.04,.02-7.3,3.33-7.28,7.36M10.73,158.96c.17-.33,.34-.65,.52-.97,.1-.19,.21-.38,.32-.57,.05-.09,.11-.19,.16-.28,.12-.2,.24-.39,.36-.59h0c-1.01,.26-2.07,.4-3.16,.41-7.23,.04-13.14-5.81-13.19-13.04,0-1.09,.12-2.15,.37-3.16h0c-.18,.11-.37,.22-.55,.33-.11,.07-.23,.14-.35,.21-.17,.1-.34,.2-.51,.3-.33,.19-.66,.37-1,.54-.05,.03-.1,.05-.14,.07-.16,.08-.32,.16-.48,.24-.04,.49-.07,.97-.06,1.47,.05,8.74,7.19,15.8,15.93,15.75,.49,0,.98-.03,1.47-.08,.07-.15,.15-.3,.22-.46,.03-.06,.06-.13,.09-.19M122.6,57.85c-.28-.01-.55-.04-.83-.06-.63-.04-1.26-.1-1.89-.19-.55,12.65-10.66,22.87-23.3,23.57,.09,.58,.15,1.17,.2,1.77,.03,.31,.06,.63,.08,.95,13.93-.83,25.07-12.09,25.74-26.03m-27.13,43.45c1.09,0,2.15,.12,3.16,.37-.12-.19-.24-.39-.36-.59-.06-.09-.11-.18-.17-.28-.11-.18-.22-.37-.33-.56-.18-.32-.35-.64-.52-.96-.03-.06-.06-.12-.1-.19-.08-.15-.15-.3-.23-.45-.48-.04-.98-.07-1.47-.06-8.73,.05-15.8,7.19-15.75,15.93,0,.49,.03,.98,.08,1.47,.16,.07,.32,.16,.48,.24,.05,.02,.1,.05,.16,.08,.33,.17,.67,.35,1,.53,.17,.1,.34,.19,.51,.29,.12,.07,.24,.14,.36,.21,.18,.11,.36,.21,.54,.33-.26-1.01-.4-2.07-.4-3.15-.04-7.23,5.81-13.15,13.04-13.19m-29.28-57.73c.5,0,.99-.03,1.47-.08,.07-.15,.15-.31,.22-.46,.03-.06,.06-.13,.09-.19,.16-.33,.33-.65,.51-.97,.1-.19,.21-.38,.32-.57,.06-.09,.11-.19,.17-.28,.12-.2,.24-.4,.36-.59,0,0,0,0,0,0-1.01,.26-2.07,.4-3.16,.4-7.23,.04-13.14-5.81-13.18-13.04,0-1.09,.12-2.15,.37-3.16t0,0c-.18,.11-.36,.23-.55,.34-.12,.07-.23,.14-.35,.21-.17,.1-.34,.2-.52,.3-.33,.19-.66,.37-.99,.54-.05,.03-.1,.05-.14,.08-.16,.08-.32,.17-.48,.24-.04,.48-.07,.97-.06,1.47,.05,8.73,7.19,15.8,15.93,15.75m58.42,60.63h0c-.06,0-.12,0-.18,0-10.42,.06-18.95-8.37-19.01-18.79,0-.06,0-.12,0-.18h0c-.89,.31-1.79,.59-2.71,.83,.4,11.42,9.67,20.59,21.1,20.86,.23-.93,.49-1.83,.8-2.72M105.1,27.5c0-.06,0-.12,0-.17h0c-.89,.31-1.79,.59-2.71,.83,.4,11.42,9.67,20.59,21.1,20.86,.23-.92,.49-1.83,.8-2.72h0c-.06,0-.12,0-.18,0-10.42,.06-18.95-8.37-19.01-18.8M65.99,8.83c10.42-.06,18.95,8.37,19.01,18.79,0,.06,0,.12,0,.17h0c.89-.31,1.79-.59,2.71-.83-.4-11.42-9.67-20.59-21.1-20.86-.22,.92-.49,1.83-.8,2.72h0c.06,0,.12,0,.18,0m-.41,40.51c.22-.92,.49-1.83,.8-2.72h0c-.06,0-.12,0-.18,0-10.42,.06-18.95-8.37-19.01-18.8,0-.06,0-.12,0-.17h0c-.89,.31-1.79,.59-2.71,.83,.39,11.42,9.67,20.59,21.1,20.86M-1.19,143.91c-.03-5.54,4.45-10.07,9.99-10.1,5.54-.03,10.07,4.45,10.1,9.99,.03,5.54-4.45,10.07-9.99,10.11-5.54,.03-10.07-4.45-10.1-9.99m2.73-.02c.02,4.04,3.33,7.3,7.36,7.28,4.04-.02,7.3-3.32,7.28-7.36-.02-4.04-3.33-7.3-7.36-7.28-4.04,.02-7.3,3.33-7.28,7.36m93.9-48.38c.06,0,.12,0,.17,0-.31-.89-.59-1.79-.83-2.71-11.42,.4-20.59,9.68-20.86,21.1,.92,.22,1.83,.49,2.72,.79,0-.06,0-.12,0-.18-.06-10.42,8.37-18.95,18.8-19.01m-57.52,67.08c-5.54,.03-10.02,4.56-9.99,10.11l2.73-.02c-.02-4.04,3.24-7.34,7.28-7.36,4.04-.03,7.34,3.24,7.36,7.28l2.72-.02c-.03-5.54-4.57-10.02-10.1-9.99m-.02-3.06c1.09,0,2.15,.12,3.16,.37-.12-.19-.24-.39-.36-.59-.06-.09-.11-.18-.17-.28-.11-.18-.22-.37-.33-.56-.18-.32-.35-.64-.52-.96-.03-.06-.06-.12-.1-.19-.08-.15-.15-.3-.23-.45-.48-.04-.97-.07-1.47-.06-8.73,.05-15.8,7.19-15.75,15.93h0s2.73-.01,2.73-.01h0c-.04-7.23,5.81-13.15,13.04-13.19m-.03-5.79c.06,0,.12,0,.18,0-.32-.89-.59-1.79-.82-2.71-11.42,.4-20.6,9.67-20.86,21.09,.74,.18,1.47,.39,2.2,.62h.52c-.06-10.42,8.37-18.95,18.79-19.01m57.9-.33c.06,0,.12,0,.18,0-.31-.89-.59-1.79-.83-2.71-11.42,.4-20.59,9.67-20.86,21.09,.74,.18,1.47,.39,2.2,.62h.52c-.06-10.42,8.37-18.95,18.8-19.01m.05,8.85c-5.54,.03-10.02,4.56-9.99,10.1l2.73-.02c-.02-4.04,3.24-7.34,7.28-7.36s7.34,3.24,7.36,7.28l2.73-.02c-.03-5.54-4.57-10.02-10.1-9.99m-.02-3.07c1.09,0,2.15,.12,3.16,.37-.12-.19-.24-.39-.36-.59-.06-.09-.11-.18-.17-.28-.11-.19-.22-.37-.33-.56-.18-.32-.35-.64-.52-.96-.03-.06-.06-.12-.1-.19-.08-.15-.16-.3-.23-.45-.48-.04-.98-.07-1.47-.06-8.73,.05-15.8,7.2-15.75,15.93h0s2.72-.01,2.72-.01h0c-.04-7.23,5.81-13.15,13.04-13.19m57.92,2.74c-5.54,.03-10.02,4.57-9.99,10.1l2.73-.02c-.02-4.04,3.24-7.34,7.28-7.36l-.02-2.73Zm-.05-8.85v-.52c-.25-.72-.46-1.45-.65-2.19-11.42,.4-20.59,9.68-20.86,21.1,.74,.18,1.47,.39,2.19,.62h.52c-.06-10.42,8.37-18.95,18.8-19.01m.03,5.79l-.02-2.73c-8.73,.05-15.8,7.19-15.75,15.93l2.73-.02c-.04-7.23,5.81-13.14,13.04-13.18m-58.06-28.62c8.73-.05,15.8-7.2,15.75-15.93,0-.49-.03-.99-.08-1.47-.15-.07-.3-.15-.45-.22-.07-.03-.14-.07-.21-.1-.32-.16-.64-.33-.96-.51-.2-.11-.39-.22-.58-.33-.09-.05-.17-.1-.26-.15-.2-.12-.4-.23-.6-.36,.25,1.01,.4,2.07,.4,3.15,.04,7.23-5.81,13.15-13.04,13.19-1.09,0-2.15-.12-3.16-.37,.12,.18,.23,.37,.34,.56,.07,.11,.13,.22,.2,.33,.1,.17,.21,.35,.31,.53,.18,.33,.36,.65,.54,.99,.03,.05,.05,.1,.08,.16,.08,.16,.16,.32,.24,.47,.48,.04,.97,.06,1.47,.06m21.52-15.33c-.92-.22-1.83-.49-2.72-.8,0,.06,0,.12,0,.18,.06,10.42-8.37,18.95-18.79,19.01-.06,0-.12,0-.17,0,.31,.89,.59,1.79,.82,2.71,11.42-.39,20.6-9.67,20.86-21.1m-75.06,29.97h0c-.55,.08-1.1,.14-1.66,.19-.35,.03-.7,.07-1.05,.08,.83,13.93,12.09,25.06,26.03,25.74,.02-.31,.04-.62,.07-.93,.05-.6,.11-1.19,.19-1.79h0c-12.64-.55-22.87-10.66-23.57-23.3m110.3,2.44c-.09-.59-.15-1.18-.2-1.78-.03-.31-.06-.62-.08-.93-13.93,.83-25.06,12.09-25.74,26.03,.35,.01,.7,.04,1.05,.07,.56,.05,1.12,.1,1.67,.18,.55-12.65,10.66-22.87,23.3-23.57m-113.11-5.22c13.93-.83,25.06-12.1,25.74-26.03-.28-.01-.55-.04-.83-.06-.64-.05-1.27-.11-1.89-.19-.55,12.64-10.67,22.87-23.3,23.57,.08,.58,.15,1.17,.2,1.77,.03,.31,.06,.63,.08,.95m57.9-.33c13.93-.83,25.07-12.09,25.74-26.03-.28-.01-.55-.04-.83-.06-.63-.05-1.27-.11-1.89-.19-.55,12.64-10.67,22.87-23.3,23.56,.08,.58,.15,1.17,.2,1.77,.03,.31,.06,.63,.08,.95m2.81,2.79h0c-.55,.08-1.1,.14-1.66,.2-.35,.03-.7,.06-1.05,.08,.83,13.93,12.09,25.07,26.03,25.74,.01-.31,.04-.62,.06-.93,.05-.6,.11-1.19,.19-1.79h0c-12.64-.55-22.87-10.66-23.57-23.3m-5.5,3.09c-.09-.59-.15-1.18-.2-1.78-.03-.31-.06-.62-.07-.93-13.93,.83-25.07,12.09-25.74,26.03,.35,.01,.7,.04,1.05,.07,.56,.05,1.12,.1,1.67,.18,.55-12.64,10.66-22.87,23.3-23.57m-35.24-32.41c-.92-.23-1.83-.49-2.72-.79,0,.06,0,.12,0,.17,.06,10.42-8.37,18.95-18.79,19.01-.06,0-.12,0-.18,0,.31,.88,.59,1.79,.83,2.71,11.42-.4,20.59-9.67,20.86-21.1m-22.65,32.73c-.09-.59-.15-1.18-.21-1.78-.03-.31-.06-.62-.07-.93-13.93,.83-25.07,12.09-25.74,26.03,.35,.01,.7,.04,1.05,.07,.56,.05,1.12,.1,1.67,.18,.55-12.65,10.66-22.87,23.3-23.57m-1.51-19.61c.1,.17,.21,.35,.31,.53,.18,.32,.37,.65,.54,.99,.03,.05,.06,.1,.08,.16,.08,.16,.16,.32,.24,.47,.48,.04,.97,.06,1.47,.06,8.73-.05,15.8-7.19,15.75-15.93,0-.49-.03-.98-.08-1.47-.15-.07-.3-.15-.45-.22-.07-.03-.14-.07-.21-.1-.32-.16-.64-.33-.96-.51-.2-.11-.39-.22-.58-.33-.09-.05-.17-.1-.26-.15-.2-.12-.4-.23-.6-.36,.26,1.01,.4,2.07,.4,3.15,.04,7.23-5.81,13.15-13.04,13.19-1.09,0-2.15-.12-3.16-.37,.12,.18,.23,.37,.34,.56,.07,.11,.14,.22,.2,.33m-50.89,16.85h0c-.55,.08-1.1,.14-1.66,.2-.35,.03-.7,.07-1.05,.08,.83,13.93,12.1,25.06,26.03,25.74,.02-.31,.04-.62,.07-.93,.05-.6,.11-1.2,.19-1.79h0c-12.64-.55-22.87-10.66-23.57-23.3M94.99,17.51c-.06,0-.12,0-.18,0,.32,.89,.59,1.79,.83,2.71,11.42-.39,20.59-9.67,20.86-21.09-.74-.18-1.47-.39-2.2-.62h-.52c.06,10.43-8.37,18.95-18.8,19.01m-2.65-5.27c.1,.17,.21,.35,.31,.52,.18,.32,.36,.65,.54,.99,.03,.05,.06,.11,.08,.16,.08,.15,.16,.31,.24,.47,.48,.04,.97,.07,1.47,.07,8.73-.05,15.8-7.19,15.75-15.93l-2.73,.02c.04,7.23-5.81,13.14-13.04,13.18-1.09,0-2.15-.12-3.16-.37,.12,.18,.23,.37,.34,.56l.2,.33m31.17,100.46c.04-.91,.08-1.81,.11-2.72l-.38-.03h0c-12.64-.55-22.87-10.67-23.57-23.3-.55,.08-1.11,.14-1.67,.2-.35,.03-.7,.07-1.05,.09,.83,13.93,12.09,25.07,26.03,25.74l.52,.03Z"/>
    </g>
    <g class="cls-41">
      <path class="cls-13" d="M255.15,208.5c.31,.19,.62,.38,.91,.55,0,.02,0,.04,0,.06,13.69,8.94,32.29,14.25,30.33,25.56,2.25-6.99,7.95-24.56,13.27-40.06,5.21-15.2,11.42-29.66,9.68-35.03-5.37-16.52-33.76-25.46-40.14-45.08-6.04-18.59,19.86-48.14,9.12-58.07-11.09-10.25-22.83,8.48-36.96,19.59-12.08,9.49-27.55,20.57-51.83,29.39,.1,8.58,1.49,20.08,6.03,34.05,3.35,10.33,9.13,20.17,15.91,29.08,15.77,20.18,30.98,31.44,43.67,39.96"/>
    </g>
    <g class="cls-39">
      <path class="cls-5" d="M215.79,155.36c.09,.41,9.5,37.99,12.56,49.16-9.11-14.57-14.46-31.78-12.56-49.16"/>
      <path class="cls-5" d="M216.23,132.14c2.39,12.11,19.01,57.78,22.88,64.02-9.08-8.84-25.83-37.43-22.88-64.02"/>
      <path class="cls-5" d="M218.5,117.75c2.75,16.62,8.45,27.39,20.02,49.54,.01,.03,7.53,13.99,7.53,13.99,.12-.06-.25,.05-.12,.1-.07-.11-.21-.35-.28-.46,.04,.03,.4,.34,.43,.38,.06,.11-.2,.16-.12,.12-12.31-8.89-30.32-37.75-27.46-63.67"/>
      <path class="cls-5" d="M220.04,108.61c3.19,15.53,23.62,43.57,33.03,58.75-16.6-14.24-35.09-37.06-33.03-58.75"/>
      <path class="cls-5" d="M222.07,99.19c3.01,14.47,22.79,35.37,36.77,57.93-16.16-14.01-38.6-36.87-36.77-57.93"/>
      <path class="cls-5" d="M224.07,91.62c2.98,13.66,23.97,27.63,41.96,55.5-19.09-16.59-43.33-37.23-41.96-55.5"/>
      <path class="cls-5" d="M226.21,85.67c2.76,11.58,30.22,22.81,47.3,49.87-23.96-20.39-48.17-35.52-47.3-49.87"/>
      <path class="cls-5" d="M227.89,79.8c1.52,5.69,8.57,7.12,22.56,15.51,10.67,6.41,22.88,17.55,30.06,28.74-27.77-23.32-53.02-33.32-52.61-44.25"/>
      <path class="cls-5" d="M229.25,75.21s.06,.7,.79,1.43c4.99,4.52,35.65,2.16,57.06,35.15-23.86-20.79-40.33-23.61-53.72-31.61-4.95-2.9-4.14-4.98-4.14-4.98"/>
      <path class="cls-5" d="M231.05,71.91s-.2,.94,2.57,.99c4.82,.11,38.01-6.63,60.93,28.17-11.93-10.46-19.52-15.56-35.85-21.14-16.09-5.54-27.7-4.96-27.64-8.02"/>
      <path class="cls-5" d="M231.89,68s-.43,.57,3.06-.68c28.13-10.01,50.56-.65,66.17,22.89-18.07-16.11-35.87-24.38-62.16-22.33-3.49,.3-6.41,.69-6.97,.32-.14-.11-.09-.21-.1-.21"/>
      <path class="cls-5" d="M232.98,63.86c16.17-14.4,49.33-17.78,73.96,16.79-16.64-14.76-31.78-23.82-55.63-21.42-8.15,.84-14.78,2.85-18.33,4.63"/>
      <path class="cls-5" d="M208.57,143.62c-4.45,11.12-11.17,23.95-27.02,36.07,11.88-20.59,17.57-27.11,27.02-36.07"/>
      <path class="cls-5" d="M211.25,128.86c-12.21,27.32-35.7,37.96-40.47,39.1,5.06-3.13,5.75-4.67,40.47-39.1"/>
      <path class="cls-5" d="M213.13,117.07c-8.54,18.22-27.08,33.08-49.97,36.98,.05,.19-.12-.25-.08-.21,.09-.02,.58-.08,.67-.09,0,0-.57,.29-.58,.3,.04,.04-.13-.41-.07-.22,34.52-20.41,42.85-28.99,50.04-36.76"/>
      <path class="cls-5" d="M214.56,108.17c-9.39,19.29-33.65,26.76-54.91,29.65,19.14-9.61,43.55-17.99,54.91-29.65"/>
      <path class="cls-5" d="M217.22,98.37c-9.15,18.46-35.98,24.39-56.99,27.32,14.41-7.23,46.72-16.85,56.99-27.32"/>
      <path class="cls-5" d="M218.55,90.8c-7.7,15.2-32.41,18.72-59.37,22.4,27.9-13.33,49.26-12.27,59.37-22.4"/>
      <path class="cls-5" d="M237.57,35.63c-12.83,33.1-20.31,64.35-24.79,97.34-.85,6.27-2.01,12.8-3.38,18.98-3.56,16.12-4.53,35.01-1.77,53.31,3.08-17.33,4.43-35.5,4.77-48.66,.34-13.67,1.94-27.73,4.71-41.12,5.48-26.51,13.27-51.91,24.19-78.39l-3.74-1.44Z"/>
      <path class="cls-5" d="M287.37,169.22c10.84-4.56,55.75-15.75,62.75-16.02-11.82-2.46-43.31-.47-62.75,16.02"/>
      <path class="cls-5" d="M277.22,178.67c14.59-6.68,26.13-7.91,49.79-10.56,.03,0,15.05-1.5,15.05-1.5,.02,.12-.09-.22,.02-.15-.12,0-.39,.02-.51,.02,.04,.01,.49,.14,.53,.14,.12-.01,.02-.24,.03-.16-13.58-4.99-45.96-3.85-64.91,12.22"/>
      <path class="cls-5" d="M270.81,184.76c13.97-5.75,46.99-4.54,63.98-5.19-20.08-5.53-47.95-7.99-63.98,5.19"/>
      <path class="cls-5" d="M264.46,191.37c13.03-5.33,40.07-.83,65.33-1.81-19.67-5.3-49.68-10.86-65.33,1.81"/>
      <path class="cls-5" d="M259.55,196.98c12.38-4.92,34.58,4.22,66.18,3.59-23.27-6.24-52.48-14.4-66.18-3.59"/>
      <path class="cls-5" d="M255.98,201.85c10.61-3.99,34.1,11.72,64.57,10.81-28.86-8.06-53.7-19.13-64.57-10.81"/>
      <path class="cls-5" d="M252.25,206.29c5.3-1.83,10.18,2.98,24.25,9.56,10.74,5.02,26.04,8.73,38.71,8.43-33.2-9.52-54.54-24.13-62.96-17.99"/>
      <path class="cls-5" d="M292.37,157.06c6.41-9.43,12.97-21.58,14.1-40.54-9.94,20.34-12.05,28.31-14.1,40.54"/>
      <path class="cls-5" d="M282.13,167.03c15.08-24.19,10.97-48.41,9.33-52.78,.22,5.67-.63,7.03-9.33,52.78"/>
      <path class="cls-5" d="M273.82,174.79c9.84-16.44,11.71-39,2.6-59.16,.18-.06-.27,.04-.21,.05,.03,.08,.24,.5,.28,.58,0-.01-.07-.61-.07-.62,.05,.01-.39,.12-.21,.06,2.26,38.13-.08,49.28-2.39,59.09"/>
      <path class="cls-5" d="M267.55,180.66c10.23-17.68,3.22-40.83-5.82-59.16,2.6,20.24,8.98,43.97,5.82,59.16"/>
      <path class="cls-5" d="M261.23,187.98c9.71-17.06,.56-40.49-8.32-58.64,1.96,15.23,11.12,44.95,8.32,58.64"/>
      <path class="cls-5" d="M255.96,193.06c7.9-14.17-2.48-35.57-13.92-58.82,4.33,29.13,16.54,45.44,13.92,58.82"/>
      <path class="cls-5" d="M251.09,198.76c6.13-11.38-6.34-29.58-20.2-57.14,4.34,30.83,22.3,45.34,20.2,57.14"/>
      <path class="cls-5" d="M247.05,202.99c4.5-8.87-11.89-22.68-27.81-54.07,2.1,14.34,8.74,27.5,17.86,38.44,6.87,8.19,10.67,10.89,9.95,15.63"/>
      <path class="cls-5" d="M222.51,237.46c19.31-27.76,40.01-50.3,63.68-71.4,4.5-4.01,9.04-8.41,13.19-12.77,10.84-11.4,25.24-22.21,41.16-29.78-12.05,11.66-25.68,22.41-35.9,29.68-10.61,7.55-20.87,16.3-29.97,25.62-18.02,18.44-33.93,38.12-49.03,60.84l-3.13-2.18Z"/>
    </g>
    <g class="cls-40">
      <path class="cls-7" d="M241.16,76.18c.27-.24,.55-.47,.8-.7,.02,0,.04,0,.05,.01,12.73-10.26,23.53-26.3,33.68-20.95-5.96-4.3-20.91-15.15-34-25-12.84-9.65-24.68-20.03-30.32-20.03-17.37,0-34.65,24.24-55.27,24.24C136.56,33.76,116.45,0,103.69,7.15c-13.18,7.38,1.01,24.34,7.21,41.2,5.29,14.42,11.05,32.56,11.93,58.38,8.19,2.56,19.56,4.79,34.25,4.79,10.86,0,22.01-2.45,32.58-6.15,24.07-8.76,39.48-19.74,51.5-29.18"/>
    </g>
    <g class="cls-43">
      <path class="cls-32" d="M262.36,45.93c-.07,.06-.1,.15-.1,.24v1.02c-.6,.23-.99,.8-.99,1.44,0,.86,.7,1.56,1.56,1.56s1.56-.7,1.56-1.56c0-.81-.63-1.49-1.44-1.55v-.77l.85-.85c-.18-.13-.37-.27-.55-.4l-.87,.87Z"/>
      <path class="cls-32" d="M256.56,45.49v1.62c-.7,.16-1.22,.79-1.22,1.51,0,.86,.7,1.56,1.56,1.56s1.55-.7,1.55-1.56c0-.72-.52-1.35-1.22-1.51v-1.48l2.87-2.87c-.18-.13-.37-.27-.55-.4l-2.9,2.9c-.07,.06-.1,.15-.1,.24"/>
      <path class="cls-32" d="M253.41,61.19c-.16-.68-.78-1.2-1.51-1.2-.86,0-1.55,.7-1.55,1.55s.7,1.56,1.55,1.56c.73,0,1.35-.51,1.51-1.2h2.79c.25-.24,.5-.48,.74-.72h-3.53Z"/>
      <path class="cls-32" d="M134.95,107.26c.06,.06,.15,.1,.24,.1h12.58c.09,0,.18-.04,.24-.1l3.74-3.74c.06-.06,.1-.15,.1-.24v-4.73l15.24-15.24h20.74l4.22,4.22c.06,.06,.15,.1,.24,.1h21.6c.09,0,.18-.04,.24-.1l13.21-13.21c.29,.27,.66,.42,1.05,.42,.86,0,1.56-.7,1.56-1.56s-.7-1.56-1.56-1.56-1.56,.7-1.56,1.56c0,.19,.04,.39,.11,.57l-13.2,13.2h-21.32l-4.22-4.22c-.07-.06-.15-.1-.24-.1h-21.02c-.09,0-.18,.03-.24,.1l-15.44,15.44c-.06,.06-.1,.15-.1,.24v4.73l-3.54,3.54h-12.3l-2.74-2.74c-.06-.06-.15-.1-.24-.1h-11.54c0,.23,0,.45,0,.68h11.4l2.74,2.74Z"/>
      <path class="cls-32" d="M137.46,103.71c.06,.06,.15,.1,.24,.1h8.46c.09,0,.18-.04,.24-.1l2.29-2.29c.07-.06,.1-.15,.1-.24v-4.9l17.57-17.57h10.82c.09,0,.17-.04,.24-.1l2.32-2.32h14.99l2.67,2.66c.07,.06,.15,.1,.24,.1h14.26c.09,0,.18-.03,.24-.1l4.01-4.01c.06-.06,.1-.15,.1-.24v-5l3.72-3.72c.26,.18,.56,.27,.87,.27,.86,0,1.55-.7,1.55-1.55s-.7-1.56-1.55-1.56-1.56,.7-1.56,1.56c0,.28,.08,.55,.22,.79l-3.84,3.83c-.06,.06-.1,.15-.1,.24v5l-3.81,3.81h-13.98l-2.66-2.66c-.07-.06-.15-.1-.24-.1h-15.27c-.09,0-.18,.03-.24,.1l-2.32,2.32h-10.82c-.09,0-.18,.03-.24,.1l-17.77,17.77c-.06,.06-.1,.15-.1,.24v4.9l-2.1,2.1h-8.18l-1.56-1.56c-.06-.07-.15-.1-.24-.1h-15.3c0,.22,.02,.45,.02,.68h15.13l1.56,1.56Z"/>
      <path class="cls-32" d="M126.91,95.58h19.15c.09,0,.18-.03,.24-.1l19.17-19.17h9.81c.09,0,.18-.04,.24-.1l3.6-3.6h.51c.16,.7,.79,1.22,1.51,1.22,.86,0,1.55-.7,1.55-1.56s-.7-1.55-1.55-1.55c-.72,0-1.36,.52-1.51,1.22h-.65c-.09,0-.18,.03-.24,.1l-3.6,3.6h-9.81c-.09,0-.18,.04-.24,.1l-19.17,19.17h-18.87l-6.36-6.46c.03,.35,.06,.7,.09,1.05l5.89,5.99c.06,.07,.15,.1,.24,.1"/>
      <path class="cls-32" d="M128.14,92.56h17.45c.09,0,.18-.04,.24-.1l24.06-24.06c.27,.19,.57,.29,.89,.29,.86,0,1.56-.7,1.56-1.55s-.7-1.56-1.56-1.56-1.56,.7-1.56,1.56c0,.27,.07,.53,.2,.77l-23.98,23.98h-17.17l-8.07-8.17c.04,.36,.08,.72,.12,1.08l7.57,7.67c.06,.06,.15,.1,.24,.1"/>
      <path class="cls-32" d="M128.07,77.37s.01,.01,.03,.01h16.06l1.48,1.48c.06,.06,.15,.1,.24,.1h4.27c.09,0,.17-.04,.24-.1l2.57-2.57c.27,.2,.59,.32,.93,.32,.86,0,1.56-.7,1.56-1.56s-.7-1.55-1.56-1.55-1.55,.7-1.55,1.55c0,.25,.06,.5,.18,.73l-2.51,2.51h-3.99l-1.48-1.48c-.06-.07-.15-.1-.24-.1h-16.05c-.24-.23-.46-.43-.68-.64l.64,.64-.14,.66Z"/>
      <path class="cls-32" d="M129.46,75.29c.06,.06,.15,.1,.24,.1h16.51c.16,.7,.79,1.22,1.51,1.22,.86,0,1.56-.7,1.56-1.56s-.7-1.56-1.56-1.56c-.72,0-1.36,.52-1.51,1.22h-16.37l-5.03-5.02c-.06-.06-.15-.1-.24-.1h-9.02c.04,.14,.08,.28,.11,.43,.02,.08,.04,.17,.06,.25h8.71l5.03,5.02Z"/>
      <path class="cls-32" d="M127.83,77.29c.06,.06,.15,.1,.24,.1h0c-.08-.02-.17-.05-.22-.11-2.22-2.34-4.6-4.91-4.95-5.2-.16,.01-6.24,.03-6.75,.04,.01,.05,.02,.1,.03,.15h6.63l5.03,5.02Z"/>
      <path class="cls-32" d="M123.27,71.95c.11,0,.14,.04,.23,.11l.16,.23c.57,.52,1.68,1.68,3.9,3.78l-4.39-4.39c-.06-.06-.15-.1-.24-.1h-6.92c.03,.12,.05,.25,.08,.37,.72,0,7.01,0,7.17,0"/>
      <path class="cls-32" d="M123.5,72.05c-.09-.07-.12-.1-.23-.11-.16,0-6.45,0-7.17,0,.01,.05,.02,.11,.04,.16,.51-.01,6.6-.03,6.75-.04,.35,.28,2.73,2.85,4.95,5.2,.06,.06,.14,.09,.22,.1l.14-.66-.64-.64c-2.22-2.1-3.33-3.26-3.9-3.78l-.16-.23Z"/>
      <path class="cls-32" d="M130.29,73.3c.06,.06,.15,.1,.24,.1h11.54c.09,0,.17-.04,.24-.1l1.43-1.43h12.66l1.63,1.63c-.2,.27-.3,.58-.3,.9,0,.86,.7,1.56,1.55,1.56s1.56-.7,1.56-1.56-.7-1.56-1.56-1.56c-.26,0-.52,.07-.75,.2l-1.76-1.76c-.07-.06-.15-.1-.24-.1h-12.94c-.09,0-.17,.03-.24,.1l-1.43,1.44h-11.26l-4.95-4.95c-.06-.07-.15-.1-.24-.1h-10.41c.06,.23,.12,.45,.17,.68h10.1l4.95,4.95Z"/>
      <path class="cls-32" d="M142.7,69.52c.06,.06,.15,.1,.24,.1h21.66c.09,0,.18-.04,.24-.1l6.68-6.68c.27,.21,.61,.33,.95,.33,.86,0,1.56-.7,1.56-1.56s-.7-1.55-1.56-1.55-1.56,.7-1.56,1.55c0,.24,.06,.48,.17,.7l-6.63,6.63h-21.38l-3.21-3.21c-.06-.06-.15-.1-.24-.1h-25.11c.05,.18,.1,.35,.15,.53,.01,.05,.02,.1,.04,.14h24.78l3.21,3.21Z"/>
      <path class="cls-32" d="M125.6,44.65l5.56-5.56h12.28l3.04,3.04c.07,.06,.15,.1,.24,.1h8.61l2.59,2.59c.07,.06,.15,.1,.24,.1h1.95c.09,0,.18-.04,.24-.1l1.83-1.83h5.35l3.59,3.58c-.13,.23-.2,.5-.2,.76,0,.86,.7,1.56,1.55,1.56s1.56-.7,1.56-1.56-.7-1.55-1.56-1.55c-.32,0-.63,.1-.9,.29l-3.66-3.66c-.06-.06-.15-.1-.24-.1h-5.63c-.09,0-.18,.03-.24,.1l-1.83,1.83h-1.67l-2.59-2.59c-.06-.06-.15-.1-.24-.1h-8.61l-3.04-3.04c-.06-.06-.15-.1-.24-.1h-12.56c-.09,0-.17,.04-.24,.1l-5.56,5.56h-18.72c.1,.22,.2,.45,.3,.68h18.55c.09,0,.17-.04,.24-.1"/>
      <path class="cls-32" d="M143.13,62.39l1.15-1.15c.25,.16,.53,.25,.83,.25,.86,0,1.55-.7,1.55-1.55s-.7-1.56-1.55-1.56-1.56,.7-1.56,1.56c0,.29,.08,.58,.25,.83l-1.05,1.05h-29.37c.07,.21,.14,.42,.21,.64,0,.01,0,.02,.01,.04h29.3c.09,0,.18-.04,.24-.1"/>
      <path class="cls-32" d="M140.35,60.35l2.6-2.6h6.89l1.03,1.03c-.32,.29-.51,.7-.51,1.14,0,.86,.7,1.55,1.55,1.55s1.56-.7,1.56-1.55-.7-1.56-1.56-1.56c-.14,0-.29,.02-.44,.07l-1.26-1.26c-.06-.06-.15-.1-.24-.1h-7.17c-.09,0-.17,.03-.24,.1l-2.61,2.61h-27.24c.07,.22,.14,.45,.22,.68h27.17c.09,0,.17-.04,.24-.1"/>
      <path class="cls-32" d="M134.43,58.6l1.06-1.06c.25,.16,.53,.24,.82,.24,.86,0,1.56-.7,1.56-1.56s-.7-1.55-1.56-1.55-1.56,.7-1.56,1.55c0,.3,.09,.59,.25,.84l-.96,.96h-21.92c.08,.23,.16,.45,.24,.68h21.82c.09,0,.18-.04,.24-.1"/>
      <path class="cls-32" d="M132.15,56.47l3.1-3.1h5.9c.09,0,.17-.04,.24-.1l2.37-2.37h5.67l1.4,1.41c-.29,.29-.45,.68-.45,1.09,0,.86,.7,1.56,1.56,1.56s1.55-.7,1.55-1.56-.7-1.55-1.55-1.55c-.18,0-.35,.03-.52,.09l-1.61-1.61c-.06-.06-.15-.1-.24-.1h-5.95c-.09,0-.18,.04-.24,.1l-2.37,2.37h-5.9c-.09,0-.17,.04-.24,.1l-3.1,3.1h-20.4s0,0,0,0c.08,.22,.16,.45,.24,.67h20.3c.09,0,.17-.04,.24-.1"/>
      <path class="cls-32" d="M130.78,54.4l3.51-3.51h5.72c.09,0,.18-.03,.24-.1l2.08-2.08h10.5l3.85,3.85c-.16,.25-.25,.54-.25,.83,0,.86,.7,1.56,1.56,1.56s1.56-.7,1.56-1.56-.7-1.56-1.56-1.56c-.29,0-.58,.08-.83,.25l-3.95-3.95c-.06-.06-.15-.1-.24-.1h-10.78c-.09,0-.18,.04-.24,.1l-2.08,2.08h-5.72c-.09,0-.18,.04-.24,.1l-3.51,3.51h-19.81c.09,.22,.17,.45,.26,.68h19.7c.09,0,.17-.04,.24-.1"/>
      <path class="cls-32" d="M130.6,51.84l4.63-4.63h1.64c.16,.7,.79,1.22,1.51,1.22,.86,0,1.56-.7,1.56-1.55s-.7-1.56-1.56-1.56c-.72,0-1.36,.52-1.51,1.22h-1.78c-.09,0-.17,.03-.24,.1l-4.63,4.63h-20.64c.09,.23,.18,.45,.27,.68h20.51c.09,0,.17-.04,.24-.1"/>
      <path class="cls-32" d="M129.7,49.26l5.06-5.06h6.5l2.57,2.57c.06,.07,.15,.1,.24,.1h9.36l3.54,3.54c.06,.06,.15,.1,.24,.1h4.68l2.05,2.05c-.16,.25-.25,.54-.25,.83,0,.86,.7,1.56,1.56,1.56s1.56-.7,1.56-1.56-.7-1.56-1.56-1.56c-.29,0-.58,.08-.83,.25l-2.15-2.15c-.06-.07-.15-.1-.24-.1h-4.68l-3.54-3.54c-.06-.07-.15-.1-.24-.1h-9.36l-2.57-2.57c-.06-.06-.15-.1-.24-.1h-6.78c-.09,0-.18,.04-.24,.1l-5.06,5.06h-20.8c.06,.14,.12,.28,.18,.42,.03,.08,.07,.17,.1,.25h20.65c.09,0,.17-.04,.24-.1"/>
      <path class="cls-32" d="M126.71,46.99l5.34-5.34h10.06l2.77,2.77c.06,.07,.15,.1,.24,.1h9.09l3.06,3.06c.06,.06,.15,.1,.24,.1h5.03c.16,.7,.79,1.22,1.51,1.22,.86,0,1.55-.7,1.55-1.55s-.7-1.56-1.55-1.56c-.72,0-1.36,.52-1.51,1.22h-4.88l-3.06-3.06c-.06-.06-.15-.1-.24-.1h-9.09l-2.77-2.77c-.06-.06-.15-.1-.24-.1h-10.34c-.09,0-.18,.04-.24,.1l-5.34,5.34h-18.78s.01,.03,.02,.04c.09,.21,.18,.43,.27,.64h18.63c.09,0,.17-.04,.24-.1"/>
      <path class="cls-32" d="M175.45,29.58v23.1l-1.84,1.66c-.3-.33-.71-.51-1.14-.51-.86,0-1.56,.7-1.56,1.56s.7,1.56,1.56,1.56,1.56-.7,1.56-1.56c0-.15-.02-.29-.07-.45l2.06-1.86c.07-.06,.11-.16,.11-.25V29.44c0-.09-.04-.18-.1-.24l-1.32-1.44c-.2,.11-.41,.23-.61,.34l1.36,1.47Z"/>
      <path class="cls-32" d="M123.04,37.93l7.88-7.88h16.59c-.33-.21-.66-.45-.99-.68h-15.74c-.09,0-.18,.03-.24,.1l-7.88,7.88h-18.39c.07,.15,.15,.3,.22,.45,.03,.08,.07,.15,.11,.23h18.2c.09,0,.17-.04,.24-.1"/>
      <path class="cls-32" d="M177.65,28.85V62.42c0,.09,.04,.18,.1,.24l2.1,2.1c-.16,.25-.25,.54-.25,.83,0,.86,.7,1.55,1.56,1.55s1.55-.7,1.55-1.55-.7-1.56-1.55-1.56c-.3,0-.58,.08-.83,.25l-2-2V28.71c0-.09-.03-.18-.1-.24l-1.88-1.9c-.2,.12-.4,.24-.6,.36l1.91,1.92Z"/>
      <path class="cls-32" d="M121.52,35.56l7.69-7.69h15.24c-.29-.22-.58-.45-.88-.68h-14.5c-.09,0-.18,.04-.24,.1l-7.7,7.7h-18.03c.1,.21,.2,.41,.31,.62,0,.02,.02,.04,.03,.06h17.84c.09,0,.17-.04,.24-.1"/>
      <path class="cls-32" d="M103.1,34.98h0c.1,.21,.2,.41,.31,.62-.1-.21-.2-.41-.31-.62"/>
      <path class="cls-32" d="M181.98,51.78c0,.09,.04,.18,.1,.24l3.1,3.1c.07,.06,.15,.1,.24,.1h6.46l2.41,2.41v4.37l-6.15,6.14c-.06,.07-.1,.15-.1,.24v3.5c0,.09,.03,.17,.1,.24l1.19,1.19c.06,.06,.15,.1,.24,.1h4.92l3.32,3.32c.06,.06,.15,.1,.24,.1h7.87c.09,0,.18-.04,.24-.1l3.2-3.2c.27,.19,.57,.29,.9,.29,.86,0,1.56-.7,1.56-1.56s-.7-1.55-1.56-1.55-1.56,.7-1.56,1.55c0,.27,.07,.53,.2,.77l-3.12,3.12h-7.59l-3.32-3.32c-.06-.06-.15-.1-.24-.1h-4.92l-.99-.99v-3.22l6.14-6.14c.07-.06,.1-.15,.1-.24v-4.65c0-.09-.03-.18-.1-.24l-2.61-2.61c-.06-.07-.15-.1-.24-.1h-6.46l-2.91-2.9V26.02c0-.09-.03-.18-.08-.22l-1.6-2.37c-.19,.13-.37,.26-.56,.39l1.57,2.33v25.64Z"/>
      <path class="cls-32" d="M192.54,45.46c-.29-.27-.66-.41-1.05-.41-.86,0-1.56,.7-1.56,1.55s.7,1.56,1.56,1.56,1.55-.7,1.55-1.56c0-.19-.04-.39-.11-.58l.52-.52c.06-.07,.1-.15,.1-.24V14.39s0,0,0,0c-.23,.14-.45,.29-.67,.43v30.31l-.33,.33Z"/>
      <path class="cls-32" d="M196.47,24.36l4.3,4.3v6.67c-.7,.16-1.22,.79-1.22,1.51,0,.86,.7,1.56,1.55,1.56s1.56-.7,1.56-1.56c0-.72-.52-1.35-1.22-1.51v-6.81c0-.09-.04-.18-.1-.24l-4.3-4.3V12.37c-.23,.13-.45,.26-.67,.39v11.36c0,.09,.03,.18,.1,.24"/>
      <path class="cls-32" d="M218.86,40.84l-7.39,7.39h-4.03c-.09,0-.18,.04-.24,.1l-3.73,3.73c-.06,.06-.1,.15-.1,.24v11.73l-1.21,1.21c-.28-.27-.66-.42-1.05-.42-.86,0-1.55,.7-1.55,1.56s.7,1.55,1.55,1.55,1.56-.7,1.56-1.55c0-.19-.04-.39-.11-.57l1.4-1.4c.06-.06,.1-.15,.1-.24v-11.73l3.54-3.53h4.03c.09,0,.17-.04,.24-.1l7.59-7.59c.06-.06,.1-.15,.1-.24v-9.84c0-.09-.03-.17-.1-.24l-19.89-19.89c-.22,.1-.43,.21-.65,.31l19.96,19.96v9.56Z"/>
      <path class="cls-32" d="M225.59,33.62v17.97l-2.12,2.12c-.06,.06-.1,.15-.1,.24v14.8l-1.5,1.5c-.29-.26-.65-.4-1.04-.4-.86,0-1.56,.7-1.56,1.56s.7,1.56,1.56,1.56,1.56-.7,1.56-1.56c0-.2-.04-.4-.12-.59l1.68-1.68c.06-.06,.1-.15,.1-.24v-14.8l2.12-2.12c.07-.06,.1-.15,.1-.24v-17.97l9.12-9.12c-.19-.14-.37-.27-.55-.4l-9.14,9.14c-.07,.06-.1,.15-.1,.24"/>
      <path class="cls-32" d="M237.3,27.07v21.74l-7.15,7.15c-.06,.06-.1,.15-.1,.24v2.71c-.7,.16-1.22,.79-1.22,1.51,0,.86,.7,1.56,1.56,1.56s1.56-.7,1.56-1.56c0-.72-.52-1.36-1.22-1.51v-2.57l7.15-7.15c.06-.06,.1-.15,.1-.24V27.21l.38-.38c-.18-.14-.37-.27-.55-.41l-.41,.41c-.07,.06-.1,.15-.1,.24"/>
      <path class="cls-32" d="M228.18,84.3c-.72,0-1.36,.52-1.51,1.22h-7.23c-.09,0-.18,.03-.24,.1l-4.39,4.39h-28.48c-.09,0-.18,.04-.24,.1l-1.57,1.57c-.28-.22-.62-.34-.97-.34-.86,0-1.55,.7-1.55,1.55s.7,1.56,1.55,1.56,1.56-.7,1.56-1.56c0-.23-.06-.46-.16-.68l1.53-1.53h28.48c.09,0,.17-.04,.24-.1l4.39-4.39h7.09c.09,.4,.34,.72,.67,.94,.78-.53,1.57-1.07,2.33-1.61-.16-.69-.75-1.22-1.49-1.22"/>
      <path class="cls-32" d="M135.63,84.46c.86,0,1.56-.7,1.56-1.56s-.7-1.55-1.56-1.55c-.73,0-1.35,.5-1.51,1.21h-15.41c.03,.23,.06,.45,.1,.68h15.31c.15,.7,.79,1.22,1.51,1.22"/>
      <path class="cls-32" d="M135.63,68.37c-.86,0-1.56,.7-1.56,1.56s.7,1.56,1.56,1.56,1.56-.7,1.56-1.56-.7-1.56-1.56-1.56"/>
      <path class="cls-32" d="M116.14,74.34h6.3l4.85,4.85h15.9c.09,0,.18,.04,.24,.1l4.12,4.12h1.07c.16-.7,.79-1.22,1.51-1.22,.86,0,1.56,.7,1.56,1.55s-.7,1.56-1.56,1.56c-.72,0-1.36-.52-1.51-1.22h-1.21c-.09,0-.17-.03-.24-.1l-4.12-4.12h-15.9c-.09,0-.17-.04-.24-.1l-4.79-4.85h-5.03l-.95-.58Z"/>
      <path class="cls-32" d="M143.15,65.7c-.16,.25-.25,.54-.25,.83,0,.86,.7,1.56,1.55,1.56s1.56-.7,1.56-1.56-.7-1.56-1.56-1.56c-.29,0-.58,.08-.83,.25l-1.48-1.48c-.06-.06-.15-.1-.24-.1h-27.96c.07,.22,.13,.45,.2,.68h27.62l1.38,1.38Z"/>
      <path class="cls-32" d="M118.79,9.31h-18.96c-.16,.15-.39,.38-.65,.68h20.99c-.46-.24-.92-.47-1.38-.68"/>
      <path class="cls-32" d="M238.73,53.24c0,.86,.7,1.56,1.56,1.56s1.56-.7,1.56-1.56c0-.72-.52-1.35-1.22-1.51V28.49c-.23-.17-.45-.33-.68-.5v23.74c-.7,.16-1.22,.79-1.22,1.51"/>
      <path class="cls-32" d="M221.43,41.86l-8.84,8.83h-3.36c-.09,0-.18,.04-.24,.1l-3.42,3.42c-.06,.06-.1,.15-.1,.24v13.44l-3.28,3.28c-.29-.29-.68-.45-1.09-.45-.86,0-1.55,.7-1.55,1.55s.7,1.56,1.55,1.56,1.56-.7,1.56-1.56c0-.18-.03-.35-.09-.52l3.48-3.48c.06-.06,.1-.15,.1-.24v-13.44l3.23-3.23h3.36c.09,0,.17-.03,.24-.1l9.03-9.03c.06-.06,.1-.15,.1-.24V24.26c0-.09-.04-.18-.1-.24l-15.64-15.63c-.26,.06-.51,.12-.77,.18l15.83,15.82v17.45Z"/>
      <path class="cls-32" d="M241.36,59.08c-.29-.28-.67-.43-1.07-.43-.86,0-1.56,.7-1.56,1.56s.7,1.56,1.56,1.56,1.56-.7,1.56-1.56c0-.19-.04-.37-.1-.55l1.64-1.64c.07-.06,.1-.15,.1-.24V30.57c-.23-.16-.45-.33-.68-.49v27.56l-1.44,1.44Z"/>
      <path class="cls-32" d="M243.71,62.09c0,.86,.7,1.56,1.56,1.56s1.56-.7,1.56-1.56c0-.72-.52-1.35-1.22-1.51v-28.45c-.22-.16-.45-.33-.68-.5v28.94c-.7,.16-1.22,.79-1.22,1.51"/>
      <path class="cls-32" d="M237.39,76.32c-.25-.16-.54-.25-.83-.25-.86,0-1.56,.7-1.56,1.56s.7,1.55,1.56,1.55,1.56-.7,1.56-1.55c0-.29-.08-.58-.25-.83l11.02-11.02c.06-.06,.1-.15,.1-.24V33.44c-.23-.17-.45-.33-.68-.5v32.45l-10.92,10.92Z"/>
      <path class="cls-32" d="M184.36,49.71l3.26,3.26c.06,.06,.15,.1,.24,.1h5.99c.28,.19,1.4,1.33,2.57,2.63v8.9l-3.46,3.46c-.28-.22-.61-.34-.96-.34-.86,0-1.56,.7-1.56,1.55s.7,1.56,1.56,1.56,1.56-.7,1.56-1.56c0-.24-.06-.47-.17-.69l3.61-3.61c.06-.06,.1-.15,.1-.24v-9.17c0-.08-.03-.16-.09-.23-2.65-2.95-2.92-2.95-3.09-2.95h-5.91l-3.07-3.07V20.24c-.09,.07-.19,.14-.28,.2-.13,.09-.27,.19-.4,.28v28.74c0,.09,.03,.17,.1,.24"/>
      <path class="cls-32" d="M124.48,22.99c.86,0,1.56-.7,1.56-1.56s-.7-1.55-1.56-1.55c-.69,0-1.26,.45-1.47,1.07h-25.99c.05,.24,.09,.47,.15,.72h25.78c.11,.75,.75,1.32,1.53,1.32"/>
      <path class="cls-32" d="M186.05,47.73l2.33,2.33c.07,.06,.15,.1,.24,.1h6.93l3.38,3.37v3.83c0,.09,.03,.18,.1,.24l.77,.77c-.16,.25-.25,.54-.25,.83,0,.86,.7,1.56,1.55,1.56s1.56-.7,1.56-1.56-.7-1.56-1.56-1.56c-.29,0-.58,.08-.83,.25l-.67-.67v-3.83c0-.09-.03-.18-.1-.24l-3.57-3.57c-.06-.06-.15-.1-.24-.1h-6.93l-2.13-2.13V19.03c-.23,.16-.45,.32-.68,.48v27.98c0,.09,.03,.17,.1,.24"/>
      <path class="cls-32" d="M117.23,31.44c.86,0,1.56-.7,1.56-1.56s-.7-1.55-1.56-1.55c-.72,0-1.36,.52-1.51,1.22h-15.31c.07,.15,.14,.29,.21,.43,.04,.08,.08,.16,.12,.24h14.97c.16,.7,.79,1.22,1.51,1.22"/>
      <path class="cls-32" d="M100.63,29.98c.04,.08,.08,.16,.12,.24-.04-.08-.08-.16-.12-.24"/>
      <path class="cls-32" d="M100.41,29.54h0c.07,.15,.14,.29,.21,.44-.07-.15-.14-.29-.21-.44"/>
      <path class="cls-32" d="M172.47,70.71c-.86,0-1.56,.7-1.56,1.56s.7,1.55,1.56,1.55,1.56-.7,1.56-1.55-.7-1.56-1.56-1.56"/>
      <path class="cls-32" d="M165.22,93.06c.7-.16,1.22-.79,1.22-1.51,0-.86-.7-1.56-1.56-1.56s-1.55,.7-1.55,1.56c0,.72,.52,1.35,1.22,1.51v6.1c0,.09,.03,.17,.1,.24l3.92,3.92c.06,.06,.15,.1,.24,.1h18.77c.16,.7,.79,1.22,1.51,1.22,.86,0,1.55-.7,1.55-1.55s-.7-1.56-1.55-1.56c-.72,0-1.36,.52-1.51,1.22h-18.63l-3.73-3.73v-5.96Z"/>
      <path class="cls-32" d="M138.39,99.59c.86,0,1.56-.7,1.56-1.56s-.7-1.55-1.56-1.55c-.72,0-1.36,.52-1.51,1.22h-16.29c.01,.23,.03,.45,.04,.68h16.25c.16,.7,.79,1.22,1.51,1.22"/>
      <path class="cls-32" d="M145.59,96.47c-.86,0-1.56,.7-1.56,1.56s.7,1.55,1.56,1.55,1.56-.7,1.56-1.55-.7-1.56-1.56-1.56"/>
      <path class="cls-32" d="M162.89,104.46c.7-.16,1.22-.79,1.22-1.51,0-.86-.7-1.56-1.56-1.56s-1.56,.7-1.56,1.56c0,.72,.52,1.35,1.22,1.51v6.1c0,.09,.03,.17,.1,.24l.79,.79c.29-.03,.59-.04,.89-.07l-1.1-1.1v-5.96Z"/>
      <path class="cls-32" d="M235.16,26.64v14.47l-7.6,7.6v17.27l2.97,2.98c-.09,.2-.14,.41-.14,.64,0,.86,.7,1.56,1.56,1.56s1.56-.7,1.56-1.56-.7-1.56-1.56-1.56c-.37,0-.7,.14-.97,.35l-2.7-2.7v-16.67l7.6-7.6v-14.47l1.11-1.11c-.2-.14-.39-.29-.59-.43l-1.14,1.14-.11,.11Z"/>
      <path class="cls-32" d="M159.18,38.72c-.3,0-.58,.09-.81,.24l-3.67-3.67h-21.65c-.16-.68-.78-1.2-1.51-1.2-.86,0-1.55,.7-1.55,1.56s.7,1.56,1.55,1.56c.73,0,1.35-.51,1.51-1.2h21.35l3.46,3.46c-.15,.24-.23,.51-.23,.81,0,.86,.7,1.55,1.56,1.55s1.56-.7,1.56-1.55-.7-1.56-1.56-1.56"/>
      <path class="cls-32" d="M220.62,54.65c-.86,0-1.56,.7-1.56,1.56,0,.3,.09,.58,.24,.82l-2.96,2.96c-.24-.15-.52-.24-.82-.24-.86,0-1.56,.7-1.56,1.56s.7,1.56,1.56,1.56,1.55-.7,1.55-1.56c0-.29-.09-.57-.23-.8l2.97-2.97c.24,.14,.51,.23,.8,.23,.86,0,1.56-.7,1.56-1.55s-.7-1.56-1.56-1.56"/>
      <path class="cls-32" d="M257.02,58.22c-.16-.68-.78-1.2-1.51-1.2-.86,0-1.56,.7-1.56,1.55s.7,1.56,1.56,1.56c.73,0,1.35-.51,1.51-1.2h2.93c.25-.24,.52-.49,.76-.72h-3.69Z"/>
      <path class="cls-32" d="M272.54,53.78l1.1-1.1c-.19-.14-.39-.28-.59-.43l-1.53,1.53c.35-.02,.69-.02,1.02,0"/>
      <path class="cls-32" d="M202.21,98.03c0-.86-.7-1.55-1.56-1.55s-1.55,.7-1.55,1.55,.7,1.56,1.55,1.56c.3,0,.57-.09,.81-.23l1.89,1.89c.24-.1,.48-.2,.72-.3l-2.1-2.1c.15-.24,.24-.51,.24-.81"/>
      <path class="cls-32" d="M158.61,107.86v-8.18c.68-.16,1.2-.78,1.2-1.51,0-.86-.7-1.56-1.56-1.56s-1.55,.7-1.55,1.56c0,.73,.51,1.35,1.2,1.51v7.46h-3.15l-4.76,4.76c.33,.02,.65,.03,.98,.04l4.08-4.08h3.57Z"/>
      <path class="cls-32" d="M255.53,53.87c-.12,.22-.19,.46-.19,.73,0,.86,.7,1.56,1.55,1.56s1.56-.7,1.56-1.56-.7-1.56-1.56-1.56c-.33,0-.64,.11-.89,.29l-2.42-2.42v-12.92c-.24-.17-.48-.35-.72-.53v13.75l2.67,2.66Z"/>
      <path class="cls-32" d="M232.04,75.72l4.81-4.81c.24,.15,.51,.24,.81,.24,.86,0,1.56-.7,1.56-1.56s-.7-1.56-1.56-1.56-1.56,.7-1.56,1.56c0,.3,.09,.58,.23,.81l-5.02,5.02v6.33l2.55,2.55c.2-.14,.39-.29,.59-.43l-2.42-2.42v-5.73Z"/>
      <path class="cls-32" d="M210.62,64.22v-5.44l9.14-9.14c.24,.16,.52,.25,.83,.25,.86,0,1.56-.7,1.56-1.56s-.7-1.56-1.56-1.56-1.55,.7-1.55,1.56c0,.29,.08,.56,.22,.79l-9.25,9.25-.11,.1v5.73c-.69,.16-1.2,.78-1.2,1.51,0,.86,.7,1.56,1.56,1.56s1.55-.7,1.55-1.56c0-.73-.51-1.35-1.2-1.51"/>
      <path class="cls-32" d="M224.41,27.66c0,.86,.7,1.56,1.56,1.56s1.56-.7,1.56-1.56c0-.73-.51-1.35-1.2-1.51V15.74c-.24-.18-.48-.35-.72-.53v10.95c-.68,.16-1.2,.78-1.2,1.51"/>
      <path class="cls-32" d="M208.41,29.24l-5.98-5.99c.14-.24,.23-.51,.23-.81,0-.86-.7-1.56-1.55-1.56s-1.55,.7-1.55,1.56,.7,1.55,1.55,1.55c.3,0,.58-.09,.81-.23l5.78,5.78v12.49l-5.8,5.8c-.23-.14-.5-.22-.78-.22-.86,0-1.55,.7-1.55,1.56s.7,1.55,1.55,1.55,1.55-.7,1.55-1.55c0-.31-.09-.6-.25-.84l6-6v-13.09Z"/>
      <path class="cls-32" d="M172.12,38.45h-6.71l-6.08-6.03c-.31,.03-.63,.05-.95,.07l6.73,6.68h7.71v-.35c.14-4.54,.17-13,.12-14.27-.23,.11-.47,.22-.71,.33,.02,1.85-.05,11.19-.11,13.57"/>
      <path class="cls-32" d="M125.77,15.34h-28.98c-.04,.23-.06,.48-.08,.72h30.01c-.32-.24-.63-.48-.95-.72"/>
      <path class="cls-32" d="M179.6,27.06v25.87c0,.09,.03,.17,.1,.24l6.28,6.28c.07,.06,.15,.1,.24,.1h2.12c.16,.7,.79,1.22,1.51,1.22,.86,0,1.56-.7,1.56-1.56s-.7-1.56-1.56-1.56c-.72,0-1.35,.52-1.51,1.22h-1.98l-6.08-6.08V26.93c0-.09-.03-.17-.08-.22l-1.14-1.87c-.19,.12-.38,.25-.58,.37l1.11,1.83Z"/>
      <path class="cls-32" d="M121.25,12.14h-23.47c-.11,.23-.21,.47-.31,.72h24.87c-.36-.24-.72-.49-1.08-.72"/>
      <path class="cls-32" d="M98.53,25.63c.02,.05,.05,.11,.07,.15h10.08c.11,.75,.75,1.32,1.53,1.32,.86,0,1.56-.7,1.56-1.56s-.7-1.56-1.56-1.56c-.69,0-1.26,.45-1.47,1.07h-10.43c.08,.19,.13,.37,.22,.56"/>
      <path class="cls-32" d="M98.53,25.63c.02,.05,.05,.11,.07,.15-.02-.05-.05-.1-.07-.15"/>
      <path class="cls-32" d="M198.21,92.68l-4.94,4.94h-21.26c-.16-.68-.78-1.2-1.51-1.2-.86,0-1.56,.7-1.56,1.56s.7,1.55,1.56,1.55c.73,0,1.35-.51,1.51-1.2h21.56l4.94-4.94h15.85v2.78c.24-.12,.48-.25,.72-.37v-3.13h-16.86Z"/>
      <path class="cls-32" d="M262.9,53.04c-.86,0-1.56,.7-1.56,1.56s.7,1.55,1.56,1.55,1.56-.7,1.56-1.55c0-.3-.09-.58-.24-.81l4.62-4.62c-.19-.14-.39-.29-.59-.43l-4.54,4.54c-.24-.15-.52-.24-.81-.24"/>
    </g>
    <rect class="cls-1" width="311.09" height="401.43"/>
    <polygon points="23.79 381.53 6.19 359.98 1.94 359.98 1.94 392.73 7.93 392.73 7.93 371.19 25.53 392.73 29.78 392.73 29.78 359.98 23.79 359.98 23.79 381.53"/>
    <polygon points="51.9 378.01 62.16 378.01 62.16 372.25 51.9 372.25 51.9 365.75 65.28 365.75 65.28 359.98 45.91 359.98 45.91 392.73 65.73 392.73 65.73 386.97 51.9 386.97 51.9 378.01"/>
    <path d="M93.82,359.54c-9.34,0-16.38,7.23-16.38,16.82s7.04,16.82,16.38,16.82,16.38-7.23,16.38-16.82-7.04-16.82-16.38-16.82m0,27.88c-5.92,0-10.39-4.75-10.39-11.05s4.46-11.05,10.39-11.05,10.38,4.75,10.38,11.05-4.46,11.05-10.38,11.05"/>
    <polygon points="138.84 378.36 127.22 359.98 122.91 359.98 122.91 392.73 128.9 392.73 128.9 373.58 136.86 386.04 140.82 386.04 148.78 373.58 148.78 392.73 154.77 392.73 154.77 359.98 150.46 359.98 138.84 378.36"/>
    <path d="M306.48,359.14c2.16,0,3.93-1.76,3.93-3.93s-1.76-3.92-3.93-3.92-3.93,1.76-3.93,3.92,1.76,3.93,3.93,3.93"/>
    <path d="M276.78,393.43c-2.16,0-3.93,1.76-3.93,3.93s1.76,3.93,3.93,3.93,3.93-1.76,3.93-3.93-1.76-3.93-3.93-3.93"/>
    <path d="M267.51,393.43c-2.16,0-3.93,1.76-3.93,3.93s1.76,3.93,3.93,3.93,3.93-1.76,3.93-3.93-1.76-3.93-3.93-3.93"/>
    <path d="M204.83,360.59c-8.16,0-14.32,6.32-14.32,14.71,0,3.52,1.11,6.78,3.16,9.37h-13.82v16.62h5.99v-11.29h18.25c.25,0,.49,.01,.74,.01,.5,0,.97-.05,1.44-.09,.15-.01,.31-.01,.46-.03,0,0,.01,0,.02,0,0,0,.02,0,.03,0h0c.1-.01,.19-.03,.27-.04,.16-.02,.31-.05,.47-.08l.25-.04c.44-.1,.88-.2,1.29-.33,.2-.06,.41-.13,.62-.21,.18-.06,.35-.13,.52-.2,5.45-2.15,8.97-7.53,8.97-13.69,0-8.38-6.15-14.71-14.31-14.71m8.71,14.71c0,5.29-3.75,9.28-8.71,9.28s-8.71-3.9-8.71-9.28,3.74-9.28,8.71-9.28,8.71,3.99,8.71,9.28"/>
    <path d="M303.7,384.66h-22.99v-22h-5.99v22h-22.87c1.04-2.93,1.56-6.08,1.56-9.37,0-6.05-3.27-11.22-8.53-13.51-1.81-.79-3.76-1.19-5.79-1.19-8.16,0-14.31,6.32-14.31,14.71,0,4.09,1.51,7.84,4.24,10.59,1.36,1.36,2.95,2.4,4.73,3.11,.17,.07,.34,.13,.53,.2,.2,.07,.41,.14,.6,.2,.42,.13,.85,.24,1.32,.34l.2,.04c.16,.03,.32,.06,.47,.08,.11,.02,.21,.04,.29,.04,.59,.07,1.17,.11,1.74,.11h3.12c-3.67,3.72-8.67,5.75-14.25,5.75h-.77v5.69h.77c9.04,0,16.84-4.16,21.49-11.44h60.42v-27.32h-5.99v22Zm-55.89-9.37c0,.16,0,.32-.01,.47v.05c-.06,3.14-.73,6.08-2,8.76h-6.7c-4.97,0-8.71-3.99-8.71-9.28s3.74-9.27,8.71-9.27,8.71,3.99,8.71,9.27"/>
    <rect class="cls-1" width="311.09" height="401.43"/>
  </g>
</svg>