<svg width="92" height="107" viewBox="0 0 92 107" fill="none" xmlns="http://www.w3.org/2000/svg">
<path d="M91.2454 89.4601C91.2454 89.8454 90.9226 90.1602 90.5275 90.1602C90.1324 90.1602 89.8096 89.8454 89.8096 89.4601C89.8096 89.0748 90.1324 88.76 90.5275 88.76C90.9226 88.76 91.2454 89.0748 91.2454 89.4601Z" fill="black"/>
<path d="M84.5276 98.7564C84.5276 99.1417 84.2048 99.4564 83.8097 99.4564C83.4146 99.4564 83.0918 99.1417 83.0918 98.7564C83.0918 98.3711 83.4146 98.0563 83.8097 98.0563C84.2048 98.0563 84.5276 98.3711 84.5276 98.7564Z" fill="black"/>
<path d="M82.429 98.7564C82.429 99.1417 82.1062 99.4565 81.7111 99.4565C81.316 99.4565 80.9932 99.1417 80.9932 98.7564C80.9932 98.3711 81.316 98.0563 81.7111 98.0563C82.1062 98.0563 82.429 98.3711 82.429 98.7564Z" fill="black"/>
<path d="M67.5318 90.8168C65.7955 90.8168 64.4654 92.1463 64.4654 93.8938C64.4654 94.7892 64.816 95.5761 65.3948 96.1297H62.0557V99.4564H63.063V96.9654H67.5764C67.7044 96.9654 67.8268 96.96 67.9492 96.9437L68.0104 96.9329C68.0605 96.9274 68.1106 96.9166 68.1607 96.9057C68.2553 96.884 68.3499 96.8623 68.439 96.8352L68.5725 96.7918L68.6838 96.7538C69.8247 96.3142 70.6038 95.2234 70.6038 93.8884C70.6038 92.1463 69.2738 90.8113 67.5374 90.8113M67.5374 96.1026C66.3131 96.1026 65.3948 95.1583 65.3948 93.8884C65.3948 92.6185 66.3131 91.6742 67.5374 91.6742C68.7618 91.6742 69.68 92.6293 69.68 93.8884C69.68 95.1474 68.7618 96.1026 67.5374 96.1026Z" fill="black"/>
<path d="M90.0759 91.2727V96.1297H84.5273V91.2727H83.52V96.1297H77.9214L77.9326 96.108C78.2053 95.4351 78.3555 94.6916 78.3555 93.8939C78.3555 92.5968 77.6209 91.5277 76.5301 91.0664C76.1517 90.9036 75.7343 90.8168 75.2891 90.8168C73.5527 90.8168 72.2227 92.1464 72.2227 93.8939C72.2227 94.7784 72.5677 95.5599 73.1298 96.108C73.4136 96.3848 73.7587 96.6073 74.1427 96.7538L74.254 96.7972L74.3875 96.8407C74.4766 96.8678 74.5712 96.8895 74.6658 96.9112C74.7159 96.9166 74.7604 96.9275 74.816 96.9329L74.8773 96.9438C74.9997 96.9601 75.1221 96.9655 75.2501 96.9655H76.3465C75.5006 97.964 74.2206 98.5718 72.7347 98.5718V99.489C74.7993 99.489 76.5246 98.5121 77.4985 96.9655H91.0943V91.2727H90.087H90.0759ZM77.4261 94.0078C77.4094 94.7784 77.2258 95.4894 76.9086 96.108H75.2835C74.0592 96.108 73.1409 95.1638 73.1409 93.8939C73.1409 92.624 74.0592 91.6797 75.2835 91.6797C76.5079 91.6797 77.4261 92.6348 77.4261 93.8939V94.0132" fill="black"/>
<path d="M10.2527 87.2248H11.1816V93.7015C11.1816 95.6367 10.3258 96.6044 8.61418 96.6044C6.90255 96.6044 6.04673 95.6367 6.04673 93.7015V93.4305H6.96275V93.7015C6.96275 95.112 7.51323 95.8173 8.61418 95.8173C9.70653 95.8173 10.2527 95.112 10.2527 93.7015V87.2248ZM16.0084 89.5858C16.9975 89.5858 17.7759 89.9513 18.3436 90.6824C18.8425 91.3189 19.0919 92.1317 19.0919 93.1209C19.0919 94.2476 18.7737 95.1379 18.1372 95.7915C17.5781 96.3592 16.8685 96.6431 16.0084 96.6431C15.0193 96.6431 14.2409 96.2775 13.6732 95.5464C13.1743 94.9099 12.9249 94.1014 12.9249 93.1209C12.9249 91.9855 13.2431 91.091 13.8796 90.4373C14.4387 89.8696 15.1483 89.5858 16.0084 89.5858ZM16.0084 90.3212C15.2945 90.3212 14.7354 90.6093 14.3312 91.1856C13.9785 91.6845 13.8022 92.3296 13.8022 93.1209C13.8022 94.024 14.0301 94.7336 14.486 95.2497C14.873 95.6883 15.3805 95.9077 16.0084 95.9077C16.7223 95.9077 17.2814 95.6195 17.6856 95.0432C18.0383 94.5444 18.2146 93.9036 18.2146 93.1209C18.2146 92.2178 17.9867 91.5082 17.5308 90.9921C17.1351 90.5448 16.6277 90.3212 16.0084 90.3212ZM20.7582 96.4624V87.2248H21.5839V90.8502C22.1429 90.0073 22.8955 89.5858 23.8417 89.5858C24.7706 89.5858 25.4974 89.9384 26.0221 90.6437C26.4779 91.263 26.7059 92.0629 26.7059 93.0435C26.7059 94.2132 26.4048 95.1293 25.8027 95.7915C25.2695 96.3592 24.5857 96.6431 23.7514 96.6431C22.8396 96.6431 22.1171 96.2345 21.5839 95.4174V96.4624H20.7582ZM23.7256 90.3212C23.0203 90.3212 22.4741 90.6007 22.087 91.1598C21.7516 91.6501 21.5839 92.3038 21.5839 93.1209C21.5839 94.0498 21.7989 94.7637 22.229 95.2626C22.6074 95.6926 23.1063 95.9077 23.7256 95.9077C24.4481 95.9077 24.9985 95.6281 25.377 95.069C25.7124 94.5788 25.8801 93.9294 25.8801 93.1209C25.8801 92.192 25.6608 91.4781 25.2222 90.9792C24.8523 90.5405 24.3534 90.3212 23.7256 90.3212ZM36.672 87.2248V88.0118H31.7306V91.3017H36.0527V92.0887H31.7306V96.4624H30.8146V87.2248H36.672ZM38.806 91.8049H37.9287C37.9631 90.3255 38.8533 89.5858 40.5993 89.5858C42.2422 89.5858 43.0636 90.2567 43.0636 91.5985V95.3529C43.0636 95.6797 43.1711 95.8431 43.3861 95.8431C43.4721 95.8431 43.614 95.7872 43.8119 95.6754V96.3979C43.5452 96.4925 43.3216 96.5398 43.141 96.5398C42.5389 96.5398 42.2379 96.2345 42.2379 95.6238V95.469C41.7218 96.2517 40.9133 96.6431 39.8123 96.6431C39.0812 96.6431 38.5179 96.4495 38.1222 96.0625C37.7782 95.727 37.6061 95.2798 37.6061 94.7207C37.6061 94.11 37.8083 93.6283 38.2125 93.2757C38.5222 93.0091 39.021 92.8241 39.7091 92.7209L42.1992 92.321C42.2078 92.2608 42.2121 92.2006 42.2121 92.1403C42.2121 91.4178 42.0959 90.9362 41.8637 90.6953C41.6401 90.4459 41.2057 90.3212 40.5606 90.3212C39.9758 90.3212 39.5414 90.4416 39.2576 90.6824C38.9823 90.9147 38.8318 91.2888 38.806 91.8049ZM42.2379 92.979L39.851 93.4176C38.9393 93.5724 38.4834 93.9982 38.4834 94.6949C38.4834 95.0819 38.6168 95.3916 38.8834 95.6238C39.15 95.8474 39.507 95.9593 39.9542 95.9593C40.8144 95.9593 41.4638 95.6367 41.9024 94.9916C42.126 94.6648 42.2379 94.2519 42.2379 93.7531V92.979ZM45.9636 89.7664V96.4624H45.125V89.7664H45.9636ZM45.5508 87.3925C45.6798 87.3925 45.7916 87.4398 45.8862 87.5344C45.9808 87.629 46.0281 87.7451 46.0281 87.8828C46.0281 88.0118 45.9808 88.1279 45.8862 88.2311C45.7916 88.3257 45.6798 88.373 45.5508 88.373C45.4132 88.373 45.2971 88.3257 45.2024 88.2311C45.1078 88.1279 45.0605 88.0118 45.0605 87.8828C45.0605 87.7451 45.1078 87.629 45.2024 87.5344C45.2971 87.4398 45.4132 87.3925 45.5508 87.3925ZM47.998 89.7664H48.8237L48.785 90.9663C49.1204 90.1062 49.7569 89.6761 50.6945 89.6761C50.7633 89.6761 50.8751 89.6804 51.0299 89.689L51.017 90.5405C50.888 90.5147 50.7977 90.5018 50.7461 90.5018C50.101 90.5104 49.6021 90.7599 49.2495 91.2501C48.9656 91.6458 48.8237 92.2092 48.8237 92.9403V96.4624H47.998V89.7664Z" fill="black"/>
<g clip-path="url(#clip0_40_4541)">
<path d="M16.8468 41.5441C16.7552 41.5512 16.6635 41.5582 16.5719 41.5653V41.5512C12.3635 41.7626 7.68985 43.4685 6.38574 40.818C6.97788 42.6156 8.44412 47.1341 9.68478 51.1593C10.8972 55.1139 11.7925 59.0614 12.9697 59.9144C16.586 62.5438 23.8467 60.1118 28.1397 63.2275C32.2071 66.1811 31.2836 76.2474 35.0197 76.6915C38.8756 77.1497 38.4879 71.4751 39.7497 67.0271C40.8283 63.2275 42.372 58.5821 46.094 53.0696C44.7758 51.3002 42.7457 49.115 39.6933 46.8945C37.4305 45.252 34.7448 44.0748 31.9815 43.25C25.6442 41.4313 20.7803 41.389 16.8468 41.5371" fill="#ABE1FA"/>
<mask id="mask0_40_4541" style="mask-type:luminance" maskUnits="userSpaceOnUse" x="6" y="40" width="41" height="37">
<path d="M9.68478 51.1734C10.8972 55.128 11.7925 59.0756 12.9627 59.9285C16.5789 62.5508 23.8396 60.1259 28.1326 63.2417C32.2 66.1953 31.2766 76.2616 35.0127 76.7057C38.8756 77.1639 38.4809 71.4892 39.7427 67.0412C40.8212 63.2417 42.365 58.5892 46.087 53.0908C44.7688 51.3214 42.7386 49.1362 39.6863 46.9157C37.4305 45.2732 34.7377 44.096 31.9744 43.2712C25.6442 41.4525 20.7732 41.4102 16.8468 41.5582C16.7552 41.5653 16.6635 41.5723 16.5719 41.5794V41.5653C12.3635 41.7768 7.68985 43.4827 6.38574 40.8322C6.97083 42.6297 8.44412 47.1483 9.68478 51.1734Z" fill="white"/>
</mask>
<g mask="url(#mask0_40_4541)">
<path d="M16.7344 52.0757V56.0937L17.7072 57.0665H18.1654V51.1029H17.7072L16.7344 52.0757Z" fill="#006594"/>
<path d="M21.1119 76.1135H18.3486V82.0701H21.1119V76.1135Z" fill="#006594"/>
<path d="M16.7344 58.3281V62.3461L17.7072 63.3189H18.1654V57.3553H17.7072L16.7344 58.3281Z" fill="#006594"/>
<path d="M15.0498 69.8609V75.8245H15.4728L16.4456 74.8517V70.8337L15.4728 69.8609H15.0498Z" fill="#006594"/>
<path d="M16.7344 39.5703V43.5883L17.7072 44.5611H18.1654V38.5975H17.7072L16.7344 39.5703Z" fill="#006594"/>
<path d="M18.3486 63.3189H21.1119V57.3553H18.3486V63.3189Z" fill="#006594"/>
<path d="M21.1119 69.8608H18.3486V75.8245H21.1119V69.8608Z" fill="#006594"/>
<path d="M18.3486 57.0665H21.1119V51.1029H18.3486V57.0665Z" fill="#006594"/>
<path d="M21.1119 63.6082H18.3486V69.5718H21.1119V63.6082Z" fill="#006594"/>
<path d="M15.0498 63.6082V69.5648H15.4728L16.4456 68.599V64.581L15.4728 63.6082H15.0498Z" fill="#006594"/>
<path d="M16.7344 64.581V68.599L17.7072 69.5718H18.1654V63.6082H17.7072L16.7344 64.581Z" fill="#006594"/>
<path d="M15.0498 51.1029V57.0666H15.4728L16.4456 56.0938V52.0757L15.4728 51.1029H15.0498Z" fill="#006594"/>
<path d="M18.3486 50.8139H21.1119V44.8503H18.3486V50.8139Z" fill="#006594"/>
<path d="M15.0498 44.8502V50.8139H15.4728L16.4456 49.8411V45.823L15.4728 44.8502H15.0498Z" fill="#006594"/>
<path d="M15.0498 57.3552V63.3189H15.4728L16.4456 62.3461V58.328L15.4728 57.3552H15.0498Z" fill="#006594"/>
<path d="M15.0498 38.5974V44.5611H15.4728L16.4456 43.5883V39.5702L15.4728 38.5974H15.0498Z" fill="#006594"/>
<path d="M16.7344 70.8336V74.8446L17.7072 75.8174H18.1654V69.8608H17.7072L16.7344 70.8336Z" fill="#006594"/>
<path d="M16.7344 77.0863V81.0973L17.7072 82.0701H18.1654V76.1135H17.7072L16.7344 77.0863Z" fill="#006594"/>
<path d="M16.7344 45.823V49.8411L17.7072 50.8139H18.1654V44.8503H17.7072L16.7344 45.823Z" fill="#006594"/>
<path d="M22.9795 45.823V49.8411L23.9523 50.8139H24.4105V44.8502H23.9523L22.9795 45.823Z" fill="#006594"/>
<path d="M22.9795 39.5702V43.5883L23.9523 44.5611H24.4105V38.5974H23.9523L22.9795 39.5702Z" fill="#006594"/>
<path d="M22.9795 58.328V62.3461L23.9523 63.3189H24.4105V57.3552H23.9523L22.9795 58.328Z" fill="#006594"/>
<path d="M22.9795 64.581V68.599L23.9523 69.5718H24.4105V63.6082H23.9523L22.9795 64.581Z" fill="#006594"/>
<path d="M27.358 69.8609H24.5947V75.8245H27.358V69.8609Z" fill="#006594"/>
<path d="M27.358 76.1134H24.5947V82.07H27.358V76.1134Z" fill="#006594"/>
<path d="M24.5947 69.5718H27.358V63.6082H24.5947V69.5718Z" fill="#006594"/>
<path d="M22.9795 70.8337V74.8447L23.9523 75.8175H24.4105V69.8609H23.9523L22.9795 70.8337Z" fill="#006594"/>
<path d="M21.2949 38.5975V44.5611H21.7179L22.6907 43.5883V39.5703L21.7179 38.5975H21.2949Z" fill="#006594"/>
<path d="M21.2949 63.6082V69.5648H21.7179L22.6907 68.599V64.581L21.7179 63.6082H21.2949Z" fill="#006594"/>
<path d="M21.2949 69.8608V75.8245H21.7179L22.6907 74.8517V70.8336L21.7179 69.8608H21.2949Z" fill="#006594"/>
<path d="M21.2949 76.1135V82.0701H21.7179L22.6907 81.1043V77.0863L21.7179 76.1135H21.2949Z" fill="#006594"/>
<path d="M21.2949 57.3553V63.3189H21.7179L22.6907 62.3461V58.3281L21.7179 57.3553H21.2949Z" fill="#006594"/>
<path d="M22.9795 77.0862V81.0972L23.9523 82.07H24.4105V76.1134H23.9523L22.9795 77.0862Z" fill="#006594"/>
<path d="M21.2949 51.1029V57.0665H21.7179L22.6907 56.0937V52.0757L21.7179 51.1029H21.2949Z" fill="#006594"/>
<path d="M18.3486 44.5611H21.1119V38.5975H18.3486V44.5611Z" fill="#006594"/>
<path d="M21.2949 44.8503V50.8139H21.7179L22.6907 49.8411V45.823L21.7179 44.8503H21.2949Z" fill="#006594"/>
<path d="M24.5947 63.3189H27.358V57.3552H24.5947V63.3189Z" fill="#006594"/>
<path d="M8.62072 51.1029H5.85742V57.0595H8.62072V51.1029Z" fill="#006594"/>
<path d="M8.62072 57.3553H5.85742V63.3189H8.62072V57.3553Z" fill="#006594"/>
<path d="M15.0498 76.1134V82.07H15.4728L16.4456 81.1043V77.0862L15.4728 76.1134H15.0498Z" fill="#006594"/>
<path d="M8.62072 63.6082H5.85742V69.5718H8.62072V63.6082Z" fill="#006594"/>
<path d="M5.85742 44.5611H8.62072V38.5974H5.85742V44.5611Z" fill="#006594"/>
<path d="M8.80371 69.8608V75.8245H9.22666L10.1995 74.8517V70.8336L9.22666 69.8608H8.80371Z" fill="#006594"/>
<path d="M8.80371 63.6082V69.5648H9.22666L10.1995 68.599V64.581L9.22666 63.6082H8.80371Z" fill="#006594"/>
<path d="M8.80371 76.1135V82.0701H9.22666L10.1995 81.1043V77.0863L9.22666 76.1135H8.80371Z" fill="#006594"/>
<path d="M8.62072 69.8608H5.85742V75.8245H8.62072V69.8608Z" fill="#006594"/>
<path d="M8.62072 76.1135H5.85742V82.0701H8.62072V76.1135Z" fill="#006594"/>
<path d="M8.80371 57.3553V63.3189H9.22666L10.1995 62.3461V58.3281L9.22666 57.3553H8.80371Z" fill="#006594"/>
<path d="M5.85742 50.8139H8.62072V44.8503H5.85742V50.8139Z" fill="#006594"/>
<path d="M12.1035 63.3189H14.8668V57.3552H12.1035V63.3189Z" fill="#006594"/>
<path d="M14.8668 63.6082H12.1035V69.5718H14.8668V63.6082Z" fill="#006594"/>
<path d="M14.8668 69.8609H12.1035V75.8245H14.8668V69.8609Z" fill="#006594"/>
<path d="M14.8668 76.1134H12.1035V82.07H14.8668V76.1134Z" fill="#006594"/>
<path d="M12.1035 44.5611H14.8668V38.5974H12.1035V44.5611Z" fill="#006594"/>
<path d="M10.4883 39.5702V43.5883L11.454 44.5611H11.9193V38.5974H11.454L10.4883 39.5702Z" fill="#006594"/>
<path d="M8.80371 51.1029V57.0665H9.22666L10.1995 56.0937V52.0757L9.22666 51.1029H8.80371Z" fill="#006594"/>
<path d="M12.1035 57.0666H14.8668V51.1029H12.1035V57.0666Z" fill="#006594"/>
<path d="M12.1035 50.8139H14.8668V44.8502H12.1035V50.8139Z" fill="#006594"/>
<path d="M8.80371 38.5975V44.5611H9.22666L10.1995 43.5883V39.5703L9.22666 38.5975H8.80371Z" fill="#006594"/>
<path d="M10.4883 70.8337V74.8447L11.454 75.8175H11.9193V69.8609H11.454L10.4883 70.8337Z" fill="#006594"/>
<path d="M10.4883 77.0862V81.0972L11.454 82.07H11.9193V76.1134H11.454L10.4883 77.0862Z" fill="#006594"/>
<path d="M10.4883 45.823V49.8411L11.454 50.8139H11.9193V44.8502H11.454L10.4883 45.823Z" fill="#006594"/>
<path d="M8.80371 44.8503V50.8139H9.22666L10.1995 49.8411V45.823L9.22666 44.8503H8.80371Z" fill="#006594"/>
<path d="M10.4883 52.0757V56.0938L11.454 57.0666H11.9193V51.1029H11.454L10.4883 52.0757Z" fill="#006594"/>
<path d="M10.4883 64.581V68.599L11.454 69.5718H11.9193V63.6082H11.454L10.4883 64.581Z" fill="#006594"/>
<path d="M10.4883 58.328V62.3461L11.454 63.3189H11.9193V57.3552H11.454L10.4883 58.328Z" fill="#006594"/>
<path d="M22.9795 52.0757V56.0938L23.9523 57.0666H24.4105V51.1029H23.9523L22.9795 52.0757Z" fill="#006594"/>
<path d="M40.0391 57.3553V63.3189H40.462L41.4348 62.3461V58.3281L40.462 57.3553H40.0391Z" fill="#006594"/>
<path d="M40.0391 51.1029V57.0665H40.462L41.4348 56.0937V52.0757L40.462 51.1029H40.0391Z" fill="#006594"/>
<path d="M40.0391 69.8608V75.8245H40.462L41.4348 74.8517V70.8336L40.462 69.8608H40.0391Z" fill="#006594"/>
<path d="M40.0391 44.8503V50.8139H40.462L41.4348 49.8411V45.823L40.462 44.8503H40.0391Z" fill="#006594"/>
<path d="M41.7236 58.3281V62.3461L42.6964 63.3189H43.1546V57.3553H42.6964L41.7236 58.3281Z" fill="#006594"/>
<path d="M41.7236 64.581V68.599L42.6964 69.5718H43.1546V63.6082H42.6964L41.7236 64.581Z" fill="#006594"/>
<path d="M40.0391 38.5975V44.5611H40.462L41.4348 43.5883V39.5703L40.462 38.5975H40.0391Z" fill="#006594"/>
<path d="M41.7236 70.8336V74.8446L42.6964 75.8174H43.1546V69.8608H42.6964L41.7236 70.8336Z" fill="#006594"/>
<path d="M41.7236 77.0863V81.0973L42.6964 82.0701H43.1546V76.1135H42.6964L41.7236 77.0863Z" fill="#006594"/>
<path d="M40.0391 63.6082V69.5648H40.462L41.4348 68.599V64.581L40.462 63.6082H40.0391Z" fill="#006594"/>
<path d="M37.0928 63.3189H39.8561V57.3553H37.0928V63.3189Z" fill="#006594"/>
<path d="M40.0391 76.1135V82.0701H40.462L41.4348 81.1043V77.0863L40.462 76.1135H40.0391Z" fill="#006594"/>
<path d="M37.0928 75.8174H39.8561V69.8608H37.0928V75.8174Z" fill="#006594"/>
<path d="M37.0928 82.0701H39.8561V76.1135H37.0928V82.0701Z" fill="#006594"/>
<path d="M37.0928 69.5718H39.8561V63.6082H37.0928V69.5718Z" fill="#006594"/>
<path d="M37.0928 57.0665H39.8561V51.1029H37.0928V57.0665Z" fill="#006594"/>
<path d="M35.4707 39.5702V43.5883L36.4435 44.5611H36.9087V38.5974H36.4435L35.4707 39.5702Z" fill="#006594"/>
<path d="M37.0928 50.8139H39.8561V44.8503H37.0928V50.8139Z" fill="#006594"/>
<path d="M39.8561 38.5975H37.0928V44.5541H39.8561V38.5975Z" fill="#006594"/>
<path d="M46.1012 38.5974H43.3379V44.554H46.1012V38.5974Z" fill="#006594"/>
<path d="M46.1012 69.8609H43.3379V75.8245H46.1012V69.8609Z" fill="#006594"/>
<path d="M41.7236 52.0757V56.0937L42.6964 57.0665H43.1546V51.1029H42.6964L41.7236 52.0757Z" fill="#006594"/>
<path d="M43.3379 50.8139H46.1012V44.8502H43.3379V50.8139Z" fill="#006594"/>
<path d="M41.7236 39.5703V43.5883L42.6964 44.5611H43.1546V38.5975H42.6964L41.7236 39.5703Z" fill="#006594"/>
<path d="M41.7236 45.823V49.8411L42.6964 50.8139H43.1546V44.8503H42.6964L41.7236 45.823Z" fill="#006594"/>
<path d="M46.1012 76.1134H43.3379V82.07H46.1012V76.1134Z" fill="#006594"/>
<path d="M46.1012 63.6082H43.3379V69.5718H46.1012V63.6082Z" fill="#006594"/>
<path d="M43.3379 57.0666H46.1012V51.1029H43.3379V57.0666Z" fill="#006594"/>
<path d="M43.3379 63.3189H46.1012V57.3552H43.3379V63.3189Z" fill="#006594"/>
<path d="M35.4707 70.8337V74.8447L36.4435 75.8175H36.9087V69.8609H36.4435L35.4707 70.8337Z" fill="#006594"/>
<path d="M29.2256 70.8336V74.8446L30.1984 75.8174H30.6566V69.8608H30.1984L29.2256 70.8336Z" fill="#006594"/>
<path d="M29.2256 58.3281V62.3461L30.1984 63.3189H30.6566V57.3553H30.1984L29.2256 58.3281Z" fill="#006594"/>
<path d="M30.8398 75.8174H33.6031V69.8608H30.8398V75.8174Z" fill="#006594"/>
<path d="M29.2256 77.0863V81.0973L30.1984 82.0701H30.6566V76.1135H30.1984L29.2256 77.0863Z" fill="#006594"/>
<path d="M29.2256 45.823V49.8411L30.1984 50.8139H30.6566V44.8503H30.1984L29.2256 45.823Z" fill="#006594"/>
<path d="M29.2256 39.5703V43.5883L30.1984 44.5611H30.6566V38.5975H30.1984L29.2256 39.5703Z" fill="#006594"/>
<path d="M30.8398 82.0701H33.6031V76.1135H30.8398V82.0701Z" fill="#006594"/>
<path d="M29.2256 52.0757V56.0937L30.1984 57.0665H30.6566V51.1029H30.1984L29.2256 52.0757Z" fill="#006594"/>
<path d="M27.541 38.5975V44.5611H27.964L28.9368 43.5883V39.5703L27.964 38.5975H27.541Z" fill="#006594"/>
<path d="M29.2256 64.581V68.599L30.1984 69.5718H30.6566V63.6082H30.1984L29.2256 64.581Z" fill="#006594"/>
<path d="M27.541 76.1135V82.0701H27.964L28.9368 81.1043V77.0863L27.964 76.1135H27.541Z" fill="#006594"/>
<path d="M24.5947 44.5611H27.358V38.5974H24.5947V44.5611Z" fill="#006594"/>
<path d="M27.541 44.8503V50.8139H27.964L28.9368 49.8411V45.823L27.964 44.8503H27.541Z" fill="#006594"/>
<path d="M27.541 69.8608V75.8245H27.964L28.9368 74.8517V70.8336L27.964 69.8608H27.541Z" fill="#006594"/>
<path d="M24.5947 50.8139H27.358V44.8502H24.5947V50.8139Z" fill="#006594"/>
<path d="M27.541 51.1029V57.0665H27.964L28.9368 56.0937V52.0757L27.964 51.1029H27.541Z" fill="#006594"/>
<path d="M27.541 63.6082V69.5648H27.964L28.9368 68.599V64.581L27.964 63.6082H27.541Z" fill="#006594"/>
<path d="M27.541 57.3553V63.3189H27.964L28.9368 62.3461V58.3281L27.964 57.3553H27.541Z" fill="#006594"/>
<path d="M30.8398 57.0665H33.6031V51.1029H30.8398V57.0665Z" fill="#006594"/>
<path d="M35.4707 77.0862V81.0972L36.4435 82.07H36.9087V76.1134H36.4435L35.4707 77.0862Z" fill="#006594"/>
<path d="M30.8398 69.5718H33.6031V63.6082H30.8398V69.5718Z" fill="#006594"/>
<path d="M33.7861 44.8503V50.8139H34.2161L35.1889 49.8411V45.823L34.2161 44.8503H33.7861Z" fill="#006594"/>
<path d="M24.5947 57.0666H27.358V51.1029H24.5947V57.0666Z" fill="#006594"/>
<path d="M35.4707 58.328V62.3461L36.4435 63.3189H36.9087V57.3552H36.4435L35.4707 58.328Z" fill="#006594"/>
<path d="M35.4707 52.0757V56.0938L36.4435 57.0666H36.9087V51.1029H36.4435L35.4707 52.0757Z" fill="#006594"/>
<path d="M33.7861 51.1029V57.0665H34.2161L35.1889 56.0937V52.0757L34.2161 51.1029H33.7861Z" fill="#006594"/>
<path d="M35.4707 64.581V68.599L36.4435 69.5718H36.9087V63.6082H36.4435L35.4707 64.581Z" fill="#006594"/>
<path d="M33.7861 38.5975V44.5611H34.2161L35.1889 43.5883V39.5703L34.2161 38.5975H33.7861Z" fill="#006594"/>
<path d="M35.4707 45.823V49.8411L36.4435 50.8139H36.9087V44.8502H36.4435L35.4707 45.823Z" fill="#006594"/>
<path d="M30.8398 50.8139H33.6031V44.8503H30.8398V50.8139Z" fill="#006594"/>
<path d="M30.8398 44.5611H33.6031V38.5975H30.8398V44.5611Z" fill="#006594"/>
<path d="M30.8398 63.3189H33.6031V57.3553H30.8398V63.3189Z" fill="#006594"/>
<path d="M33.7861 57.3553V63.3189H34.2161L35.1889 62.3461V58.3281L34.2161 57.3553H33.7861Z" fill="#006594"/>
<path d="M33.7861 63.6082V69.5648H34.2161L35.1889 68.599V64.581L34.2161 63.6082H33.7861Z" fill="#006594"/>
<path d="M33.7861 76.1135V82.0701H34.2161L35.1889 81.1043V77.0863L34.2161 76.1135H33.7861Z" fill="#006594"/>
<path d="M33.7861 69.8608V75.8245H34.2161L35.1889 74.8517V70.8336L34.2161 69.8608H33.7861Z" fill="#006594"/>
</g>
<path d="M39.7631 66.9706C39.742 67.0622 39.7208 67.1538 39.6997 67.2384H39.6856C38.5859 71.3058 38.7692 76.2755 35.8438 76.6985C37.7329 76.6985 42.4841 76.6914 46.6996 76.7619C50.8304 76.8254 54.8626 77.199 56.0398 76.346C59.656 73.7167 59.5855 66.0612 63.8785 62.9454C65.8453 61.5145 69.0386 61.7118 71.9851 61.9092C75.1291 62.1207 77.9981 62.3251 78.8088 60.5628C80.4371 57.0312 74.9176 55.6495 71.0758 53.0765C67.7979 50.8772 63.8503 47.9729 59.7618 42.7283C57.6681 43.4332 54.9683 44.688 51.9089 46.9085C49.6461 48.5509 47.7005 50.7432 46.0581 53.1118C42.3713 58.5749 40.8276 63.1922 39.749 66.9706" fill="#FFE6CA"/>
<mask id="mask1_40_4541" style="mask-type:luminance" maskUnits="userSpaceOnUse" x="35" y="42" width="45" height="35">
<path d="M51.923 46.9014C49.6602 48.5439 47.7146 50.7432 46.0722 53.1047C42.3854 58.5679 40.8417 63.1851 39.7631 66.9635C39.742 67.0552 39.7208 67.1468 39.6997 67.2314H39.6856C38.5859 71.2988 38.7621 76.2685 35.8438 76.6914C37.7329 76.6914 42.4841 76.6844 46.6996 76.7549C50.8304 76.8183 54.8626 77.1919 56.0398 76.339C59.656 73.7167 59.5855 66.0542 63.8785 62.9384C65.8453 61.5074 69.0386 61.7048 71.9851 61.9022C75.1291 62.1136 77.9981 62.3181 78.8088 60.5558C80.4371 57.0241 74.9176 55.6425 71.0758 53.0695C67.7979 50.8701 63.8503 47.9658 59.7618 42.7283C57.6681 43.4332 54.9683 44.688 51.9089 46.9085" fill="white"/>
</mask>
<g mask="url(#mask1_40_4541)">
<path d="M49.7656 71.8558C49.8995 71.2213 51.0909 65.6595 51.0838 64.8982C51.0768 63.9747 49.9348 62.4732 49.7868 62.3393C49.674 62.2336 49.4977 62.2406 49.399 62.3604C49.3004 62.4732 49.3074 62.6495 49.4202 62.7552C49.6035 62.9314 50.4987 64.2355 50.534 64.877V64.9052C50.541 65.4339 49.7586 69.2687 49.2369 71.7289C49.1664 71.9756 48.3276 74.8376 48.0879 77.0087C48.2782 77.0087 48.4615 77.0087 48.6448 77.0087C48.8986 74.8446 49.7586 71.9192 49.7727 71.8769V71.8558" fill="#3678A8"/>
<path d="M51.1824 70.4811C51.5983 68.6624 52.1764 66.1811 52.1059 65.1448C52.0213 63.8196 51.8521 62.3604 50.9428 61.874C50.1885 61.4792 48.5954 61.5286 47.7424 61.5497C47.6437 61.5497 47.5591 61.5497 47.4957 61.5497C46.826 61.5638 44.6055 62.4238 43.816 63.1428C43.6821 63.2627 43.5058 63.4107 43.3085 63.587C42.3216 64.4329 40.8271 65.7088 40.2914 66.8507C40.0306 67.4006 39.6922 67.894 39.3609 68.3029C39.2833 68.6694 39.2199 69.0289 39.1494 69.3814C39.6429 68.8668 40.3266 68.0703 40.7848 67.0834C41.2642 66.0542 42.7657 64.7783 43.6539 64.0099C43.8583 63.8337 44.0416 63.6786 44.1755 63.5588C44.8875 62.9102 47.0023 62.1137 47.5027 62.1066C47.5732 62.1066 47.6578 62.1066 47.7565 62.0996C48.4473 62.0784 50.0616 62.0291 50.689 62.3604C51.401 62.734 51.5067 64.3765 51.5561 65.166V65.1942C51.6054 66.1599 51.0274 68.6694 50.6467 70.3401C50.541 70.8054 50.4493 71.2072 50.3788 71.5173C50.1392 72.6382 49.8219 75.1054 49.6316 76.9875C49.8219 76.9875 50.0052 76.9875 50.1885 76.9875C50.3718 75.1336 50.689 72.7298 50.9216 71.6301C50.9851 71.327 51.0767 70.9252 51.1824 70.4599" fill="#000034"/>
<path d="M42.1604 63.8759C43.7253 62.9243 45.5511 61.7471 45.5722 61.74C45.6991 61.6554 45.7414 61.4863 45.6568 61.3523C45.5722 61.2184 45.403 61.1831 45.2761 61.2677C45.262 61.2818 43.4363 62.452 41.8784 63.3966C41.2933 63.7491 40.673 64.454 40.0879 65.2294C39.9469 65.751 39.82 66.2586 39.7002 66.7591C40.4404 65.6312 41.3638 64.3623 42.1604 63.8759Z" fill="#E0861B"/>
<path d="M45.1551 61.0987C46.6706 60.8379 49.3 60.8026 49.3282 60.7956C49.3493 60.7956 51.7531 60.8308 52.0633 62.149C52.444 63.7492 52.6766 66.5195 52.5074 67.3584C52.3171 68.2677 50.9566 73.0048 50.9425 73.0471C50.9002 73.1951 50.9848 73.3502 51.1328 73.3925C51.2808 73.4348 51.4359 73.3502 51.4782 73.2022C51.5346 73.0048 52.8528 68.4017 53.0502 67.4712C53.2546 66.4913 52.9727 63.5659 52.6061 62.0151C52.1902 60.2669 49.448 60.2316 49.3282 60.2316C49.2154 60.2316 46.6283 60.2739 45.0705 60.5418C43.8721 60.7462 41.9124 61.8952 40.9608 62.4874C40.848 62.7905 40.7422 63.0936 40.6436 63.3897L40.7352 63.291C41.0454 63.0866 43.7593 61.3383 45.1621 61.0987" fill="#006594"/>
<path d="M54.0657 66.7449C54.0587 66.477 54.0516 66.181 54.0516 65.8779C54.0164 63.89 53.9811 61.4227 53.0506 60.4499C52.0144 59.3714 50.4777 58.8427 48.7224 58.9626C47.0306 59.0824 44.4788 59.6604 43.7456 59.8719C43.3791 59.9776 42.4697 60.4217 41.5745 60.9011C41.4617 61.176 41.3489 61.4439 41.2432 61.7188C42.2512 61.1549 43.4778 60.5275 43.8937 60.4076C44.6127 60.2032 47.1081 59.6393 48.7576 59.5194C50.3719 59.4067 51.7183 59.8649 52.6488 60.8377C53.4242 61.6483 53.4665 64.0944 53.4947 65.8849C53.4947 66.1951 53.5018 66.4911 53.5088 66.759C53.5511 68.2111 52.9308 70.5656 51.6619 73.7659C51.239 74.8304 50.9288 75.9019 50.7314 77.0086C50.9218 77.0086 51.1121 77.0086 51.2954 77.0086C51.4927 75.9794 51.7818 74.9714 52.1765 73.9774C53.4736 70.7066 54.108 68.2746 54.0657 66.7449Z" fill="#4A8ECC"/>
<path d="M54.4461 71.3201C54.6434 70.0301 54.8479 68.6978 55.0875 67.9082C55.6092 66.2094 54.9818 62.2618 54.7703 61.0916C54.4461 59.2447 53.0997 58.5539 52.1198 58.1944C51.1259 57.8278 48.0172 58.1662 46.9034 58.286C46.0081 58.3847 43.7947 58.9487 42.2227 59.4703C42.1099 59.7029 42.0042 59.9356 41.8984 60.1682C43.4563 59.6465 46.0504 58.9487 46.9668 58.85C48.5741 58.6738 51.1823 58.4482 51.9365 58.7231C52.86 59.0615 53.9597 59.6465 54.2275 61.1903C54.6434 63.5307 54.9466 66.4843 54.5588 67.7391C54.3051 68.5709 54.0936 69.9243 53.8962 71.2355C53.7341 72.314 53.579 73.3361 53.4169 73.9071C53.2477 74.5063 52.9164 75.7611 52.5921 77.0158H53.1631C53.4803 75.8175 53.7834 74.6332 53.9456 74.0622C54.1147 73.463 54.2769 72.4197 54.4461 71.3201Z" fill="#8B0304"/>
<path d="M53.2411 73.2514C53.2834 73.1033 53.1988 72.9482 53.0508 72.9059C52.9027 72.8636 52.7477 72.9482 52.7124 73.1033C52.7124 73.1104 52.508 73.8364 52.2683 74.4427C52.1414 74.7669 51.8313 75.9935 51.5986 77.0086C51.796 77.0086 51.9863 77.0086 52.1696 77.0086C52.3811 76.071 52.656 74.9714 52.7829 74.6471C53.0296 74.0127 53.2341 73.2795 53.2411 73.2514Z" fill="#CA6C18"/>
<path d="M56.0185 69.466V69.4308C56.0467 69.1981 56.4908 63.735 56.1806 62.4309C55.8775 61.1409 55.2783 58.6102 54.2421 57.8982C53.2975 57.2427 50.8302 56.3333 49.7517 56.284C49.075 56.2558 47.5664 56.5448 46.4597 56.714C45.9451 56.7915 45.501 56.862 45.353 56.869C45.1415 56.8831 44.3379 56.9748 43.4356 57.0805C43.3228 57.2779 43.2171 57.4823 43.1113 57.6868C44.1687 57.5528 45.1627 57.44 45.3812 57.4259C45.5574 57.4189 45.9663 57.3554 46.5373 57.2708C47.5523 57.1158 49.0961 56.8197 49.7165 56.8479C50.6117 56.8902 52.9943 57.729 53.9178 58.3705C54.7778 58.9627 55.3629 61.444 55.6308 62.5719C55.8634 63.5447 55.6237 67.4358 55.4616 69.3744C55.3981 69.6775 54.524 73.7026 54.3478 74.4992C54.2562 74.9221 53.9883 75.9654 53.6922 77.0228H54.2632C54.5522 75.9795 54.806 74.9855 54.8835 74.619C55.0668 73.7872 55.9973 69.4731 55.9973 69.4731" fill="#007243"/>
<path d="M45.6355 58.2083C46.2559 58.0673 47.7644 57.9052 48.5821 57.8206L48.8993 57.7853C49.4985 57.7219 50.6405 57.8065 50.6475 57.8065C50.8026 57.8206 50.9295 57.7008 50.9436 57.5457C50.9577 57.3906 50.8449 57.2567 50.6898 57.2426C50.6405 57.2426 49.4915 57.1509 48.8359 57.2214L48.5257 57.2567C47.701 57.3412 46.1642 57.5034 45.5157 57.6514C45.1139 57.743 43.9296 57.9334 42.8863 58.1026C42.7806 58.307 42.6819 58.5114 42.5762 58.7229C42.7031 58.7017 42.8299 58.6806 42.9639 58.6594C44.0706 58.4832 45.2126 58.2999 45.6355 58.2013" fill="#006594"/>
<path d="M52.4302 56.4462C52.5782 56.4814 52.7262 56.3827 52.7615 56.2276C52.7897 56.0796 52.698 55.9245 52.55 55.8963C52.1975 55.8188 49.0536 55.3535 48.3698 55.4452C47.9187 55.5086 46.5229 55.6567 44.2319 55.699C44.1191 55.8893 44.0063 56.0796 43.8936 56.2629C45.7264 56.2347 47.82 56.0796 48.4403 55.995C48.8844 55.9316 51.1402 56.1572 52.4302 56.4391" fill="#006594"/>
<path d="M48.1662 55.0926C49.3857 55.0714 51.9939 55.4239 52.8116 55.7834C53.6223 56.1429 54.5739 57.4752 55.2295 58.441C55.9133 59.4631 56.5125 61.6343 56.583 62.0784C56.6393 62.3956 56.6182 64.6161 56.583 66.033C56.583 66.1881 56.7028 66.3149 56.8508 66.322C57.0059 66.322 57.1328 66.2022 57.1328 66.0471C57.1328 65.6805 57.1962 62.4661 57.1187 61.9867C57.0271 61.458 56.4067 59.2164 55.6736 58.1308C54.9264 57.017 53.9536 55.6847 53.0231 55.2759C52.1278 54.8811 49.435 54.5145 48.145 54.5357C47.715 54.5427 46.9114 54.5498 46.0585 54.5498C45.6849 54.5498 45.3042 54.5498 44.9306 54.5498C44.8107 54.7401 44.6909 54.9234 44.5781 55.1137C45.0716 55.1137 45.5862 55.1137 46.0585 55.1067C46.9185 55.1067 47.7221 55.0996 48.1591 55.0926" fill="#ED1D24"/>
<path d="M59.1487 72.0248C59.198 71.8134 60.4246 66.8859 60.4739 64.4399C60.5233 62.1348 59.1275 59.0331 57.7529 57.3695C56.3854 55.7129 54.4962 53.6616 53.2978 53.3021C52.1981 52.9778 48.5396 52.0685 46.6856 52.0544C46.5799 52.1883 46.4812 52.3293 46.3755 52.4632L46.2627 52.6183C46.3473 52.6183 46.4319 52.6183 46.5024 52.6183C48.2224 52.569 52.0219 53.5136 53.1357 53.8449C53.9534 54.0916 55.4831 55.5085 57.3229 57.729C58.6059 59.2798 59.9593 62.2828 59.917 64.4258C59.8677 66.8084 58.6623 71.6794 58.6129 71.8838L58.5988 71.9473C58.4438 72.5606 58.1759 73.6461 57.9433 74.8445C58.2957 74.2876 58.6129 73.6602 58.902 73.0188C58.9865 72.6452 59.0711 72.3279 59.1275 72.0883L59.1416 72.0248" fill="#ED1D24"/>
<path d="M61.0943 61.7894C60.5162 59.8156 59.0218 57.4823 58.8456 57.2215C58.3592 56.4742 56.3995 54.0352 54.8416 52.9426C53.4247 51.9486 50.3654 51.279 48.3352 50.8419L47.9263 50.7503C47.8629 50.7362 47.7994 50.7291 47.736 50.715C47.6021 50.8842 47.4611 51.0463 47.3271 51.2155C47.4822 51.2367 47.6444 51.2649 47.8065 51.3001L48.2154 51.3917C50.0763 51.8006 53.1992 52.4773 54.5244 53.4078C55.9484 54.4088 57.8728 56.7562 58.3803 57.5316C58.9795 58.448 60.1074 60.4148 60.5585 61.9515C61.0379 63.5799 60.8969 66.1246 60.8194 67.4922C60.8194 67.5838 60.8053 67.6966 60.7912 67.8164C60.9744 67.3371 61.1789 66.8366 61.4256 66.3432C61.4749 64.9263 61.4679 63.1076 61.0872 61.7894" fill="#000034"/>
<path d="M58.2675 50.8278C56.625 49.6576 54.5667 48.2478 53.185 47.7473C52.6986 47.5711 51.9584 47.3314 51.1901 47.0917C51.0279 47.2397 50.8729 47.3807 50.7178 47.5288C51.5848 47.7966 52.4589 48.0786 53.0017 48.276C54.3199 48.7553 56.3431 50.137 57.9573 51.286C59.3742 52.294 61.7498 55.5437 62.2715 56.7844C62.786 57.9969 63.5051 62.6353 63.4205 63.3331C63.4205 63.3895 63.4134 63.46 63.4134 63.5235C63.5897 63.3472 63.78 63.1851 63.9774 63.03C63.921 61.6554 63.2865 57.7501 62.7861 56.5588C62.2292 55.2336 59.7901 51.8993 58.2816 50.8208" fill="#CE8A14"/>
<path d="M60.1139 52.2305C60.2196 52.3433 60.3959 52.3433 60.5086 52.2305C60.6144 52.1248 60.6214 51.9415 60.5086 51.8357C60.4593 51.7794 59.2468 50.5387 57.8652 49.5729C56.6457 48.72 53.5229 46.8801 52.0989 46.3092L51.9227 46.4501C51.8169 46.5418 51.7112 46.6334 51.6055 46.7251C52.6699 47.0423 56.1381 49.0443 57.548 50.0311C58.8873 50.9616 60.0927 52.2094 60.1068 52.2235" fill="#ED1D24"/>
<path d="M60.9595 51.0465C59.74 49.3194 56.6877 47.0848 55.0382 46.1966C54.5729 45.9499 53.9526 45.6679 53.297 45.393C53.1208 45.5199 52.9446 45.6468 52.7754 45.7807C53.5367 46.0979 54.2628 46.4151 54.7844 46.6901C56.4198 47.5712 59.3876 49.7706 60.5154 51.3707C61.6363 52.9568 63.4409 57.5811 63.7933 58.8993C63.9343 59.428 64.2868 60.9154 64.5687 62.6143C64.7309 62.5156 64.9071 62.4169 65.0833 62.3323C64.8014 60.6828 64.4701 59.2659 64.3291 58.7513C63.9555 57.3626 62.1438 52.703 60.9666 51.0394" fill="#276A9B"/>
<path d="M63.8576 55.2195C63.4981 54.4088 63.1527 53.6475 62.9765 53.1541L62.8989 52.9426C62.4548 51.6808 61.7076 49.559 60.0651 48.4734C58.4297 47.3878 56.2656 45.9145 56.2445 45.8934C56.1176 45.8088 55.9484 45.837 55.8638 45.9709L55.8145 46.1401C55.8145 46.2247 55.8638 46.3093 55.9343 46.3586C55.9554 46.3727 58.1195 47.853 59.762 48.9386C61.2494 49.9185 61.9543 51.9275 62.3843 53.1259L62.4619 53.3373C62.6452 53.8519 62.9906 54.6273 63.3571 55.4451C63.8435 56.5377 64.4004 57.7713 64.6119 58.5115C64.8304 59.2728 65.2111 61.1549 65.4789 62.5507C65.6481 62.4731 65.8244 62.4097 66.0006 62.3462C65.7398 60.9716 65.3662 59.1177 65.1406 58.3493C64.915 57.5739 64.3793 56.3685 63.8576 55.2124" fill="#CA6C18"/>
<path d="M64.5274 51.9136C64.3089 51.7092 63.9635 51.2439 63.5546 50.7011C62.8849 49.8059 62.0461 48.6921 61.1931 47.9026C59.7128 46.5421 57.2526 45.2168 55.6031 44.8855C55.2929 44.8221 54.9263 44.7093 54.5245 44.5683C54.3272 44.6881 54.1368 44.8221 53.9395 44.9489C54.5104 45.1675 55.0532 45.3508 55.4973 45.4353C57.0411 45.7385 59.4308 47.0355 60.8266 48.3114C61.6443 49.0657 62.462 50.1583 63.1246 51.0324C63.5617 51.6175 63.9071 52.0757 64.1538 52.3154C64.7248 52.8582 67.0299 56.8128 67.3753 59.0051C67.5022 59.8087 67.5515 61.0423 67.5586 61.994C67.7348 61.9799 67.9251 61.9728 68.1084 61.9658C68.0943 61 68.045 59.7453 67.9181 58.9135C67.5586 56.5661 65.1548 52.4916 64.5274 51.8995" fill="#000034"/>
<path d="M65.6269 51.0958C65.5 50.8632 65.3731 50.6376 65.2604 50.4332C64.344 48.7554 63.061 47.2821 61.0872 45.6679C59.5082 44.3779 58.2605 43.5461 57.2172 43.102C56.9846 43.2077 56.7519 43.3205 56.5264 43.4403C57.5978 43.7857 58.9442 44.6316 60.7418 46.1049C62.6521 47.6699 63.8999 49.0867 64.774 50.701C64.8867 50.9125 65.0136 51.131 65.1405 51.3707C66.1204 53.1401 67.4597 55.565 68.073 57.997C68.3761 59.1883 68.5453 60.8026 68.6228 61.9657C68.8061 61.9657 68.9894 61.9727 69.1797 61.9798C69.1022 60.7673 68.926 59.1037 68.6158 57.856C67.9814 55.3535 66.6209 52.8933 65.6269 51.0958Z" fill="#DC651E"/>
<path d="M60.4387 46.6759C60.9251 47.1129 63.3007 49.8128 63.625 50.3274C63.7096 50.4613 63.8788 50.4965 64.0056 50.4119C64.1325 50.3274 64.1748 50.1582 64.0902 50.0242C63.7448 49.4673 61.3199 46.7111 60.8053 46.2529C60.2625 45.7665 57.6472 44.5329 56.3572 44.2157C56.1387 44.1593 55.8708 44.0676 55.5748 43.9478C55.3703 44.0606 55.173 44.1804 54.9756 44.3003C55.4479 44.5117 55.8849 44.6809 56.2303 44.7655C57.4851 45.0757 60.0017 46.2881 60.4387 46.6759Z" fill="#ED1D24"/>
<path d="M66.0284 49.2064C65.8803 49.0795 65.7394 48.9526 65.5913 48.8116C64.1815 47.5005 62.8139 46.1611 61.5451 44.6103C60.5652 43.9195 59.4796 43.2921 58.2954 42.7352L58.1544 42.6647C57.9359 42.7634 57.7173 42.8621 57.5059 42.9608C57.6962 43.0595 57.8795 43.1511 58.0627 43.2357C61.256 44.7442 63.5823 46.6405 65.1825 49.009C67.3043 52.1671 68.3123 54.6202 69.0172 58.3845C69.2569 59.6463 69.3768 60.9574 69.4543 61.9161C69.6376 61.9232 69.8209 61.9302 70.0112 61.9443C69.9336 60.9504 69.8138 59.5969 69.56 58.2787C68.8904 54.7189 67.9105 52.1177 66.0354 49.1923" fill="#0072BC"/>
<path d="M60.8753 43.7785C60.5934 43.4119 60.3114 43.0383 60.0365 42.6577C59.7686 42.5026 59.5078 42.3545 59.261 42.2136C59.0425 42.2981 58.8169 42.3827 58.6055 42.4744C59.2188 42.8339 59.9307 43.2357 60.6991 43.6727L60.8753 43.7714" fill="#C4161C"/>
<path d="M67.9103 50.715C67.5508 50.4401 67.1913 50.1581 66.8389 49.862C66.8953 49.9607 67.008 50.2568 67.0644 50.3484C68.432 52.8227 69.2638 55.8539 69.5528 57.0381C69.8066 58.0603 70.2084 60.2949 70.5256 61.9726C70.7159 61.9867 70.9063 61.9937 71.0966 62.0078C70.7653 60.2878 70.3494 57.9686 70.0886 56.9042C69.8207 55.8257 69.0594 53.0553 67.9103 50.715Z" fill="#ED1D24"/>
<path d="M69.8139 52.0615C69.5531 51.8853 69.2852 51.7091 69.0244 51.5187C69.4121 52.4915 69.7293 53.6828 69.9126 54.7191C70.3285 57.137 70.8502 60.0483 71.2661 62.015C71.4564 62.0291 71.6467 62.0362 71.8371 62.0503C71.4141 60.0835 70.8854 57.0947 70.4554 54.6204C70.3215 53.852 70.1029 52.8933 69.8139 52.0615Z" fill="#F7941E"/>
<path d="M71.09 52.8932C70.8645 52.7522 70.6318 52.6112 70.4062 52.4632C70.8433 53.9083 71.7104 58.9908 72.0064 60.9857C72.0417 61.2254 72.1122 61.747 72.1615 62.0572C72.3518 62.0713 72.5351 62.0783 72.7254 62.0854C72.6691 61.7541 72.5986 61.1901 72.5563 60.9011C72.3236 59.3362 71.5835 54.9093 71.09 52.8932Z" fill="#2E3092"/>
<path d="M73.9868 56.2346C73.9656 55.9808 73.8881 55.3252 73.7965 54.5992C73.5991 54.4934 73.3946 54.3806 73.1973 54.2678C73.3101 55.0926 73.4158 55.9174 73.444 56.2769C73.4722 56.6434 73.7189 58.3987 74.0009 60.4289C74.0714 60.9082 74.1842 61.7753 74.2546 62.2617C74.445 62.2617 74.6283 62.2617 74.8115 62.2617C74.741 61.7471 74.6142 60.8589 74.5437 60.3513C74.2688 58.4128 74.015 56.587 73.9868 56.2416" fill="#D78817"/>
<path d="M75.3832 59.1389C75.5171 58.0462 75.4537 56.6787 75.2492 55.3746C75.0448 55.2688 74.8404 55.1561 74.6289 55.0433C74.8897 56.4179 74.9743 57.9053 74.8333 59.0684C74.7417 59.8438 74.8192 61.2466 74.9179 62.2194C75.1083 62.2194 75.2915 62.2053 75.4748 62.1982C75.3691 61.2536 75.2915 59.872 75.3832 59.1389Z" fill="#030F50"/>
<path d="M76.5747 56.0794C76.3985 55.9807 76.2222 55.889 76.0319 55.7903V55.9807C75.9191 57.313 75.8204 60.2102 75.9121 62.1769C76.1024 62.1628 76.2857 62.1417 76.4619 62.1135C76.3773 60.4287 76.4337 57.8346 76.5676 56.0794" fill="#2D7D2F"/>
<path d="M78.0408 56.9395L78.0056 56.9113C77.9139 56.8549 77.8223 56.7914 77.7236 56.728C77.6531 56.6857 77.5756 56.6434 77.498 56.594C77.7095 57.9475 77.8646 59.8931 77.9492 61.6201C78.1466 61.5356 78.3299 61.4439 78.492 61.3311C78.4215 59.8719 78.2876 58.1942 78.1184 56.9818L78.0408 56.9254" fill="#DB521F"/>
<path d="M79.2181 59.449C79.1758 58.9555 79.1406 58.455 79.0912 57.9757C78.9855 57.8065 78.8586 57.6373 78.6965 57.4752C78.633 57.4118 78.5626 57.3554 78.4921 57.2919L78.4639 57.2637C78.5485 57.9757 78.6119 58.737 78.6683 59.4983C78.7035 59.9495 78.7388 60.4147 78.7811 60.8659C78.9926 60.6685 79.1617 60.4288 79.2745 60.1539C79.2534 59.9213 79.2322 59.6816 79.2181 59.449Z" fill="#000034"/>
<path d="M48.5391 64.3834C47.813 63.5516 47.1363 63.9182 46.5371 64.2424L46.3961 64.32C45.8251 64.6231 44.1333 66.329 42.5543 67.9574L42.3428 68.183C41.7013 68.8385 41.1938 69.8325 40.9894 70.8405C40.8977 71.2917 40.6581 72.0318 40.4466 72.6874C40.228 73.35 40.1012 73.773 40.0659 73.9774C40.0166 74.3158 39.1002 76.3742 38.7266 77.0015C38.931 77.0015 39.1425 77.0015 39.361 77.0015C39.8121 76.1415 40.5594 74.4497 40.6158 74.062C40.6369 73.8928 40.8061 73.3712 40.9753 72.8707C41.1938 72.201 41.4335 71.4468 41.5392 70.9674C41.7225 70.0792 42.1877 69.1699 42.7446 68.5918L42.9631 68.3662C43.7386 67.5626 46.093 65.1306 46.664 64.8275L46.812 64.75C47.4465 64.4116 47.7214 64.2918 48.1373 64.7711C48.5179 65.2082 48.1302 66.611 47.6086 67.7248C47.4042 68.1618 46.6146 69.6633 45.6771 70.8335C44.7114 72.0389 43.7597 73.9281 43.4707 74.7669C43.2381 75.4437 43.3297 76.3037 43.4566 77.0015C43.6469 77.0015 43.8302 77.0015 44.0205 77.0015C43.9007 76.346 43.795 75.5283 43.9923 74.9502C44.2673 74.1325 45.2119 72.2997 46.1001 71.1859C47.0799 69.9664 47.8765 68.4438 48.102 67.9644C48.4756 67.1679 49.2652 65.2223 48.5461 64.3975" fill="#ED1D24"/>
<path d="M49.9915 64.8629C49.9633 64.2143 49.8787 63.5306 49.3218 63.0301C48.779 62.5437 48.1657 62.1207 47.1718 62.7128C46.6995 63.0019 45.7337 63.7702 44.8032 64.5104C44.1265 65.0532 43.485 65.5607 43.196 65.7581C43.0832 65.8356 40.3834 67.6473 40.0591 69.1347C39.8053 70.2837 39.333 72.5606 39.3119 72.758C39.0511 74.3511 37.5566 76.7478 37.3311 76.9875C37.5496 76.9875 37.7822 76.9875 38.036 76.9875C38.6352 76.1557 39.6009 74.2313 39.8547 72.8496V72.8285C39.8547 72.8285 40.3411 70.4035 40.5948 69.2616C40.7993 68.3311 42.484 66.9071 43.4991 66.2375C43.8093 66.026 44.4296 65.5325 45.1486 64.9615C46.0227 64.2637 47.0167 63.4671 47.4537 63.1992C48.0741 62.8186 48.4054 62.9666 48.9482 63.453C49.3147 63.7773 49.3993 64.2073 49.4346 64.8911C49.4628 65.3986 49.1174 67.8024 48.9834 68.7117C48.8847 69.0501 47.4749 73.8436 46.8405 75.7751C46.7136 76.1628 46.629 76.5787 46.5726 77.0016H47.1295C47.1788 76.6351 47.2564 76.2756 47.3621 75.9513C48.0177 73.9564 49.498 68.9091 49.5121 68.8527V68.8175C49.5403 68.6835 50.0126 65.5396 49.9774 64.8629" fill="#FAA61A"/>
<path d="M42.8018 75.5496C42.844 75.3804 42.8863 75.183 42.9286 74.9786C43.0767 74.2948 43.26 73.4348 43.5772 72.8497C44.6627 70.8548 44.7967 70.6715 45.2619 70.0864C45.41 69.8961 45.6003 69.6564 45.8611 69.304L46.0162 69.0996C46.3898 68.5991 46.6859 68.2114 47.3203 66.8791C47.567 66.3574 47.7785 65.7864 47.4472 65.5115C47.3485 65.4269 47.0313 65.1731 46.0162 65.9697C45.699 66.2164 44.6909 67.2315 44.2468 67.7391C43.8239 68.2255 43.7886 68.2959 43.2529 69.4309L43.0978 69.7551C43.0344 69.8961 43.0908 70.0653 43.2247 70.1358C43.3657 70.2063 43.5278 70.1428 43.5983 70.0019L43.7534 69.6705C44.2821 68.5568 44.2891 68.5356 44.6627 68.1056C45.0787 67.6192 46.0655 66.6394 46.3546 66.4068C46.7 66.1389 46.9255 66.0261 47.0454 65.9838C47.0313 66.0825 46.9749 66.2728 46.8128 66.6182C46.1995 67.8941 45.9387 68.2537 45.565 68.7471L45.41 68.9586C45.1562 69.304 44.9729 69.5366 44.8249 69.7269C44.3526 70.3261 44.1975 70.5306 43.0908 72.5678C42.7383 73.2234 42.5409 74.1257 42.3859 74.8447C42.3436 75.0421 42.3013 75.2324 42.259 75.4016C42.1462 75.8598 42.125 76.4731 42.1321 76.9806C42.3224 76.9806 42.5127 76.9806 42.696 76.9806C42.689 76.5083 42.7031 75.9373 42.8018 75.5355" fill="#9E0B0F"/>
<path d="M41.2996 76.4799L41.3842 76.2543C41.6873 75.4719 42.0609 74.492 42.1737 73.6884L42.2231 73.343C42.3218 72.631 42.4063 72.0178 42.498 71.2C42.5121 71.045 42.4063 70.904 42.2513 70.8899C42.0962 70.8758 41.9622 70.9886 41.9411 71.1437C41.8495 71.9543 41.7649 72.5676 41.6662 73.2725L41.6168 73.6179C41.5111 74.3581 41.1516 75.3027 40.8626 76.064L40.778 76.2896C40.6863 76.5222 40.6088 76.776 40.5312 77.0016C40.7286 77.0016 40.926 77.0016 41.1163 77.0016C41.1727 76.8324 41.2291 76.6561 41.2926 76.494" fill="#232176"/>
<path d="M59.0001 62.1489C58.9578 61.9797 58.9226 61.8388 58.8944 61.6484C58.8028 60.9365 58.4362 60.0553 58.119 59.5125C57.7736 58.9204 56.3003 57.5528 56.1311 57.3977L56.11 57.3836C55.7575 56.7845 55.398 56.2346 55.0878 55.8399C53.967 54.4159 52.0214 53.8943 51.3024 53.8731C51.0134 53.8661 49.963 53.7815 48.8493 53.6828C47.7143 53.5912 46.4807 53.4854 45.6701 53.4361C45.5432 53.6123 45.4304 53.7956 45.3105 53.9789C46.0719 54.0212 47.5592 54.141 48.807 54.2467C49.9771 54.3454 50.9852 54.423 51.2883 54.4371C51.9932 54.4582 53.7132 54.9939 54.6578 56.1923C55.7011 57.5105 57.0828 60.3232 57.1321 60.8096L57.1532 60.9858C57.5974 64.8347 57.548 65.8357 57.4775 66.0894C57.3859 66.4278 57.0193 67.9645 56.6034 69.748C56.0536 72.0601 55.3768 74.9362 55.2218 75.4438C55.1513 75.6693 55.0244 76.2544 54.8693 77.0228H55.0667C55.1936 77.0228 55.3204 77.0087 55.4403 76.9875C55.5742 76.3108 55.687 75.8033 55.7434 75.6129C55.9055 75.0913 56.5541 72.321 57.1321 69.8819C57.5339 68.1831 57.9146 66.5758 58.0062 66.2516C58.1542 65.7158 58.0555 63.9747 57.7031 60.9294L57.6819 60.7532C57.6537 60.4782 57.3788 59.8297 57.0052 59.0684C57.2872 59.3645 57.5269 59.6464 57.6255 59.8156C57.971 60.4078 58.26 61.1973 58.3305 61.7401C58.3587 61.9586 58.401 62.1278 58.4503 62.304C58.5419 62.6565 58.6406 63.0512 58.6406 64.0029C58.6406 65.8004 58.3939 67.5557 57.9146 69.2052C57.3436 71.1719 57.2308 71.6231 57.2237 71.6442C57.1885 71.7993 57.2801 71.9473 57.4282 71.9896H57.4987C57.6255 71.9967 57.7383 71.9121 57.7665 71.7852C57.7665 71.7852 57.8864 71.3129 58.4503 69.3673C58.9437 67.6614 59.1975 65.8568 59.1975 64.0029C59.1975 62.9807 59.0847 62.5437 58.986 62.163" fill="#000034"/>
<path d="M57.1816 75.8737C57.245 74.5202 57.4353 73.2231 57.4424 73.202C57.4635 73.0469 57.3578 72.9059 57.2097 72.8777C57.0547 72.8495 56.9137 72.9623 56.8925 73.1174C56.8784 73.209 56.6317 74.8656 56.6035 76.4235C56.8009 76.2684 56.9983 76.0781 57.1816 75.8737Z" fill="#8B0304"/>
<path d="M61.3835 59.0401C60.7843 57.6867 58.881 54.7965 58.2748 54.2114L58.155 54.0916C57.5135 53.4712 56.019 52.0191 54.0523 51.1943C51.9939 50.3273 49.1954 49.9114 49.0826 49.8973C48.9275 49.8761 48.7865 49.9819 48.7654 50.137C48.7442 50.292 48.85 50.433 49.0051 50.4612C49.0333 50.4612 51.8459 50.8842 53.8408 51.723C55.7089 52.5055 57.154 53.9083 57.7743 54.5004L57.8941 54.6203C58.3946 55.0996 60.2838 57.9334 60.876 59.2727C61.3765 60.4006 61.7571 63.5446 61.9474 65.0602C61.9615 65.1659 61.9686 65.2575 61.9827 65.3492C62.1307 65.1025 62.2858 64.8628 62.462 64.6372C62.2506 62.9242 61.891 60.168 61.3905 59.0401" fill="#006594"/>
<path d="M67.0158 62.1278C67.0017 60.6827 66.6422 58.1591 66.2616 57.0806C65.9585 56.2417 65.1689 55.0222 64.5345 54.0353C64.1891 53.4996 63.8648 52.9991 63.7802 52.8017C63.7238 52.6607 63.5547 52.5902 63.4137 52.6466C63.2727 52.71 63.2022 52.8722 63.2656 53.0202C63.3643 53.2669 63.6745 53.7463 64.0693 54.3455C64.6543 55.2548 65.458 56.4955 65.7399 57.2709C66.1135 58.3212 66.466 60.873 66.466 62.2335H66.4942C66.6634 62.1842 66.8396 62.149 67.0229 62.1208" fill="#9E0B0F"/>
<path d="M73.2616 58.7087C73.1135 57.6795 73.0642 57.3341 72.8739 56.453C72.6694 55.5154 72.4016 54.4016 72.2324 53.7108C72.0068 53.5839 71.7883 53.45 71.5557 53.309C71.6685 53.7602 72.0562 55.318 72.3311 56.5728C72.5214 57.4328 72.5708 57.7712 72.7117 58.7863C72.8034 59.4277 72.9867 60.6614 73.2122 62.1628C73.4026 62.1699 73.5929 62.1769 73.7832 62.184C73.5435 60.6261 73.3603 59.3572 73.2686 58.7087" fill="#D191C0"/>
<path d="M62.6729 60.0764C62.2852 57.8488 60.5652 54.2749 58.7042 52.6958C56.9419 51.2014 52.7405 48.5156 51.084 48.142C50.8654 48.0927 50.5905 48.0222 50.2874 47.9376C50.1323 48.0856 49.9843 48.2407 49.8362 48.3958C50.2733 48.5227 50.661 48.6284 50.9712 48.6919C51.4787 48.8047 52.3035 49.1853 53.234 49.6999C52.945 49.6576 52.6418 49.6294 52.3669 49.6083C51.8241 49.573 50.5412 49.0443 49.5966 48.6425C49.4556 48.7906 49.3216 48.9315 49.1807 49.0796C50.2874 49.5519 51.6479 50.1299 52.3317 50.1722C53.1846 50.2286 54.3266 50.4401 54.6015 50.4894C56.0043 51.3494 57.4424 52.3504 58.3588 53.1188C60.1281 54.6203 61.7706 58.0391 62.1371 60.168C62.405 61.6977 62.6235 63.2274 62.5953 64.4398C62.7645 64.2143 62.9478 64.0028 63.1381 63.7984C63.0958 62.748 62.9267 61.5074 62.6799 60.0764" fill="#985006"/>
<path d="M76.9482 62.015H76.9904C77.1667 61.9727 77.3288 61.9233 77.4909 61.874C77.4839 61.7259 77.4768 61.2607 77.4768 61.155C77.4768 60.2456 77.357 57.8841 77.35 57.7854C77.3429 57.6303 77.209 57.5105 77.0609 57.5176C76.9059 57.5246 76.7931 57.6585 76.8001 57.8136C76.8001 57.8348 76.92 60.2597 76.927 61.162C76.927 61.303 76.9341 61.8105 76.9482 62.015Z" fill="#2F631C"/>
<path d="M45.5154 77.0015C45.5295 76.1345 45.7481 74.781 45.9666 74.0902C46.1146 73.6179 46.4882 73.1033 46.8196 72.6522C47.024 72.3702 47.2214 72.1023 47.3482 71.8556C47.5104 71.5525 48.3351 69.3672 48.4268 69.1205C48.4832 68.9725 48.4127 68.8103 48.2646 68.7539C48.1237 68.6975 47.9615 68.7751 47.9051 68.9161C47.5456 69.8748 46.9676 71.3762 46.8618 71.5807C46.7491 71.7922 46.5658 72.0389 46.3755 72.3067C46.023 72.7931 45.6212 73.343 45.445 73.9069C45.2335 74.5836 44.9868 76.0146 44.9727 76.9945C45.163 76.9945 45.3463 76.9945 45.5295 76.9945" fill="#CA6C18"/>
</g>
<path d="M33.9401 11.8877C33.9048 11.8031 33.8696 11.7115 33.8343 11.634V11.6199C32.3469 7.68639 29.2805 3.77407 31.3953 1.7157C29.8656 2.82948 26.0308 5.62802 22.5767 8.0459C19.1931 10.4215 15.7178 12.494 15.2667 13.8686C13.885 18.1192 18.4459 24.2732 16.8034 29.3205C15.2526 34.0998 5.39071 36.3344 6.12383 40.0282C6.88515 43.8419 12.158 41.713 16.7752 41.5438C20.7228 41.3958 25.622 41.431 32.0086 43.2638C33.2845 41.4663 34.7366 38.8581 35.9068 35.263C36.7668 32.6054 37.0558 29.687 36.9924 26.8039C36.7668 20.2199 35.3006 15.5745 33.9471 11.8807" fill="#FCC8AC"/>
<mask id="mask2_40_4541" style="mask-type:luminance" maskUnits="userSpaceOnUse" x="6" y="1" width="31" height="43">
<path d="M22.5767 8.05323C19.1931 10.4288 15.7178 12.5013 15.2667 13.8829C13.885 18.1336 18.4459 24.2876 16.8034 29.3348C15.2526 34.1142 5.39071 36.3488 6.12383 40.0426C6.88515 43.8492 12.158 41.7274 16.7752 41.5582C20.7228 41.4102 25.622 41.4384 32.0086 43.2782C33.2845 41.4807 34.7366 38.8724 35.8998 35.2773C36.7598 32.6198 37.0488 29.7014 36.9853 26.8183C36.7598 20.2343 35.2935 15.5889 33.9401 11.8951C33.9048 11.8105 33.8696 11.7259 33.8343 11.6413V11.6272C32.347 7.69372 29.2735 3.77435 31.3953 1.72302C29.8656 2.8368 26.0238 5.63534 22.5767 8.05323Z" fill="white"/>
</mask>
<g mask="url(#mask2_40_4541)">
<path d="M29.1753 17.344L29.0907 17.2031C29.3516 17.2665 29.6265 17.3017 29.9014 17.2947C31.7624 17.2876 33.2639 15.765 33.2568 13.904C33.2568 13.622 33.2216 13.3542 33.1511 13.0934L33.3062 13.185L33.3696 13.2273L33.5177 13.3119C33.6023 13.3542 33.6798 13.4035 33.7644 13.4458L33.8208 13.474L33.9336 13.5304C33.9477 13.6573 33.9547 13.7771 33.9547 13.9111C33.9688 16.1598 32.1501 17.9926 29.9014 18.0067C29.7745 18.0067 29.6476 18.0067 29.5208 17.9926L29.4573 17.8727L29.4362 17.8304C29.3939 17.7458 29.3445 17.6613 29.2952 17.5767L29.2176 17.4427L29.1683 17.3581M22.542 26.2895H22.4927C19.814 26.3036 17.6146 24.1395 17.6005 21.4537V21.4044C17.3749 21.489 17.1423 21.5595 16.9026 21.6159C17.0013 24.5554 19.391 26.9098 22.3305 26.9803C22.3869 26.7407 22.4574 26.508 22.535 26.2825M23.6065 28.5453C23.7474 25.2885 26.3486 22.6592 29.5983 22.4829C29.5771 22.3349 29.556 22.1798 29.5489 22.0247C29.5489 21.9472 29.5349 21.8626 29.5278 21.785C25.9468 21.9965 23.0778 24.8938 22.9086 28.4818C23.0002 28.4818 23.0919 28.4889 23.1764 28.503C23.3174 28.5171 23.4655 28.5312 23.6065 28.5453ZM22.9227 25.359L22.9438 25.3097C22.9861 25.2251 23.0284 25.1405 23.0778 25.0629L23.1623 24.9149L23.2046 24.8444L23.2963 24.6893C23.0355 24.7528 22.7676 24.7951 22.4856 24.7951C20.6246 24.8092 19.102 23.3006 19.0949 21.4396C19.0949 21.1577 19.1231 20.8898 19.1936 20.629L19.0527 20.7136L18.961 20.77L18.8271 20.8475C18.7425 20.8968 18.6579 20.9391 18.5733 20.9885L18.5381 21.0096L18.4112 21.0731C18.4041 21.2 18.3971 21.3268 18.3971 21.4537C18.4112 23.7024 20.251 25.5211 22.4927 25.507C22.6196 25.507 22.7464 25.5 22.8733 25.4859L22.9297 25.3661M29.9014 18.8032H29.8591C29.9437 19.0288 30.0142 19.2614 30.0706 19.5011C33.0101 19.4024 35.3716 17.0127 35.4351 14.0732C35.1954 14.0168 34.9628 13.9463 34.7372 13.8688V13.9111C34.7513 16.5898 32.5872 18.7891 29.9014 18.8032ZM12.3982 14.0379C12.3911 12.614 13.5402 11.4438 14.9712 11.4368C16.3951 11.4297 17.5653 12.5858 17.5723 14.0098C17.5794 15.4337 16.4303 16.6039 14.9993 16.6109C13.5754 16.618 12.4052 15.4619 12.3982 14.0379ZM13.0961 14.0379C13.0961 15.0742 13.949 15.9201 14.9923 15.913C16.0285 15.913 16.8744 15.0601 16.8674 14.0168C16.8674 12.9806 16.0144 12.1347 14.9712 12.1417C13.9349 12.1417 13.089 12.9947 13.0961 14.0379ZM29.8873 16.5263C28.4634 16.5334 27.2932 15.3773 27.2861 13.9534C27.2791 12.5294 28.4281 11.3592 29.8591 11.3522C31.2831 11.3451 32.4532 12.4942 32.4603 13.9252C32.4673 15.3491 31.3183 16.5193 29.8873 16.5263ZM31.7554 13.9322C31.7554 12.896 30.9024 12.0501 29.8591 12.0571C28.8229 12.0571 27.977 12.9101 27.984 13.9534C27.984 14.9896 28.837 15.8285 29.8803 15.8285C30.9165 15.8285 31.7624 14.9755 31.7554 13.9322ZM22.7958 14.6301C22.7817 14.7852 22.7676 14.9332 22.7464 15.0883C25.9961 15.2293 28.6325 17.8304 28.8088 21.0801C28.9709 21.059 29.133 21.0378 29.2952 21.0237C29.3657 21.0237 29.4362 21.0096 29.5067 21.0026C29.2952 17.4216 26.3979 14.5525 22.8099 14.3834C22.8099 14.468 22.8028 14.5455 22.7958 14.6301ZM22.0415 13.5798C22.0415 13.5022 22.0556 13.4176 22.0556 13.3401C22.0697 13.185 22.0838 13.0299 22.105 12.8819C18.8553 12.7409 16.2189 10.1397 16.0426 6.89004C15.9016 6.91118 15.7607 6.92528 15.6126 6.93938C15.521 6.94643 15.4364 6.95348 15.3448 6.96053C15.5562 10.5415 18.4535 13.4106 22.0415 13.5798ZM14.9993 17.4004C14.7174 17.4004 14.4495 17.3652 14.1887 17.3088L14.2803 17.4498L14.3297 17.5344L14.4072 17.6683C14.4566 17.7529 14.4989 17.8375 14.5482 17.9221L14.5693 17.9644L14.6328 18.0842C14.7597 18.0983 14.8866 18.0983 15.0134 18.0983C17.2621 18.0842 19.0738 16.2444 19.0668 14.0027C19.0668 13.8758 19.0597 13.7489 19.0456 13.622L18.9328 13.5657L18.8764 13.5375C18.7918 13.4952 18.7143 13.4529 18.6297 13.4106L18.4817 13.326L18.4112 13.2837L18.2561 13.192C18.3266 13.4529 18.3618 13.7207 18.3618 14.0027C18.3689 15.8637 16.8674 17.3863 15.0064 17.3934M19.8915 21.4396C19.8845 20.0157 21.0335 18.8455 22.4645 18.8385C23.8884 18.8314 25.0586 19.9804 25.0656 21.4114C25.0727 22.8354 23.9237 24.0056 22.4997 24.0126C21.0758 24.0197 19.9056 22.8636 19.8986 21.4396M20.6035 21.4396C20.6035 22.4759 21.4564 23.3218 22.4997 23.3147C23.536 23.3147 24.3748 22.4618 24.3748 21.4185C24.3748 20.3823 23.5219 19.5434 22.4786 19.5434C21.4423 19.5434 20.5964 20.3964 20.6035 21.4396ZM15.0275 18.8878H14.9852C15.0698 19.1134 15.1403 19.346 15.1967 19.5857C18.1363 19.487 20.4977 17.0973 20.5612 14.1578C20.3215 14.1014 20.0889 14.0309 19.8633 13.9534V13.9957C19.8774 16.6744 17.7133 18.8737 15.0275 18.8878ZM22.4151 16.5686H22.4645C25.1432 16.5545 27.3425 18.7186 27.3566 21.4044V21.4467C27.5822 21.3621 27.8148 21.2916 28.0545 21.2352C27.9488 18.2957 25.5661 15.9342 22.6266 15.8707C22.5702 16.1104 22.4997 16.343 22.4222 16.5686M22.0345 17.4991L22.0133 17.5414C21.971 17.626 21.9217 17.7106 21.8794 17.7952L21.8019 17.9291L21.7525 18.0208L21.6679 18.1617C21.9287 18.0913 22.1966 18.056 22.4786 18.056C24.3396 18.0419 25.8622 19.5504 25.8693 21.4114C25.8693 21.6934 25.834 21.9613 25.7706 22.2221L25.9256 22.1305L25.9891 22.0882L26.1371 22.0036C26.2217 21.9542 26.2993 21.9119 26.3838 21.8696L26.4332 21.8414L26.546 21.785C26.5601 21.6582 26.5601 21.5313 26.5601 21.4044C26.546 19.1557 24.7061 17.337 22.4645 17.3511C22.3376 17.3511 22.2107 17.3581 22.0838 17.3722L22.0274 17.4921M21.3437 14.2988C21.2027 17.5485 18.6015 20.1849 15.3518 20.3611C15.373 20.5091 15.3941 20.6642 15.4012 20.8123C15.4082 20.8898 15.4153 20.9744 15.4223 21.059C19.0033 20.8475 21.8723 17.9503 22.0415 14.3622C21.971 14.3622 21.9005 14.3552 21.83 14.3481C21.6679 14.334 21.5058 14.3199 21.3437 14.2988ZM29.4714 6.89709C25.8904 7.10856 23.0214 10.0058 22.8522 13.5938C22.9438 13.5938 23.0355 13.6009 23.1201 13.615C23.2681 13.6291 23.4091 13.6432 23.5501 13.6573C23.691 10.4006 26.2922 7.77119 29.5419 7.59496C29.5208 7.44692 29.5067 7.29184 29.4926 7.13676C29.4855 7.05922 29.4785 6.97463 29.4714 6.89709ZM29.8732 9.86481C27.6245 9.87891 25.8129 11.7188 25.8199 13.9604C25.8199 14.0873 25.827 14.2142 25.8411 14.3411L25.9609 14.4045L26.0032 14.4257C26.0878 14.468 26.1724 14.5173 26.257 14.5596L26.3909 14.6371L26.4825 14.6935L26.6235 14.7781C26.5601 14.5173 26.5178 14.2424 26.5178 13.9675C26.5037 12.1065 28.0122 10.5838 29.8732 10.5768C30.1552 10.5768 30.4231 10.605 30.6839 10.6684L30.5922 10.5204L30.5499 10.4499L30.4653 10.3019C30.416 10.2243 30.3737 10.1397 30.3314 10.0551L30.3032 10.0058L30.2398 9.88596C30.1129 9.87186 29.9931 9.87186 29.8591 9.87186M24.3255 13.8124C24.5651 13.8688 24.7978 13.9393 25.0233 14.0168V13.9745C25.0092 11.2958 27.1734 9.09644 29.8591 9.08235H29.9014C29.8239 8.85677 29.7463 8.62415 29.6899 8.38447C26.7504 8.48316 24.396 10.8728 24.3255 13.8124ZM30.1552 5.38855C30.1763 5.53658 30.1975 5.69167 30.2045 5.84675C30.2116 5.92429 30.2186 6.00888 30.2257 6.09347C33.8067 5.882 36.6757 2.98477 36.8449 -0.60329C36.7744 -0.60329 36.7039 -0.610339 36.6334 -0.617389C36.4713 -0.631487 36.3092 -0.645586 36.147 -0.666733C36.006 2.58296 33.4049 5.21937 30.1552 5.3956M28.7383 6.19216C28.9004 6.17101 29.0626 6.14987 29.2247 6.13577C29.2952 6.13577 29.3657 6.12167 29.4362 6.12167C29.2247 2.54066 26.3275 -0.328371 22.7394 -0.497552C22.7394 -0.412961 22.7323 -0.33542 22.7253 -0.250829C22.7112 -0.0957461 22.6971 0.0522877 22.676 0.207371C25.9256 0.348355 28.5621 2.94952 28.7383 6.19921M27.3848 28.8625C27.3778 27.4385 28.5268 26.2684 29.9578 26.2613C31.3817 26.2543 32.5519 27.4033 32.559 28.8343C32.566 30.2582 31.4099 31.4284 29.986 31.4354C28.5621 31.4425 27.3919 30.2935 27.3848 28.8625ZM28.0898 28.8625C28.0898 29.8987 28.9427 30.7446 29.986 30.7376C31.0222 30.7376 31.8681 29.8846 31.8611 28.8413C31.8611 27.8051 31.0081 26.9592 29.9649 26.9662C28.9286 26.9662 28.0898 27.8192 28.0898 28.8625ZM16.4092 23.3077C16.2612 22.8283 15.9369 22.3208 15.9016 21.7991C15.7607 21.8203 15.8523 21.8344 15.7113 21.8485C15.6197 21.8555 15.5351 21.8626 15.4434 21.8696C15.6549 25.4506 18.5522 28.3197 22.1402 28.4889C22.1402 28.4113 22.1473 28.3267 22.1543 28.2492C22.1684 28.0941 22.1825 27.939 22.2037 27.791C19.4756 27.6712 17.1846 25.8243 16.4092 23.3077ZM15.0628 26.3529C16.4867 26.3459 17.6569 27.502 17.664 28.9259C17.671 30.3499 16.5149 31.52 15.091 31.5271C13.667 31.5341 12.4969 30.3781 12.4898 28.9541C12.4828 27.5302 13.6318 26.36 15.0628 26.3529ZM13.1947 28.9471C13.1947 29.9833 14.0477 30.8292 15.091 30.8222C16.1272 30.8222 16.9731 29.9692 16.9661 28.9259C16.9661 27.8897 16.1131 27.0438 15.0698 27.0508C14.0336 27.0508 13.1947 27.9038 13.1947 28.9471ZM29.3939 35.9328C29.4644 35.9328 29.5349 35.9187 29.6053 35.9187C29.3939 32.3377 26.4966 29.4687 22.9086 29.2995C22.9086 29.3841 22.9015 29.4617 22.8945 29.5462C22.8804 29.7013 22.8663 29.8494 22.8451 30.0044C26.0948 30.1454 28.7312 32.7466 28.9075 35.9963C29.0696 35.9751 29.2317 35.954 29.3939 35.9399M37.3665 18.7821C38.7905 18.775 39.9607 19.9241 39.9677 21.355C39.9748 22.779 38.8257 23.9492 37.4018 23.9562C35.9778 23.9633 34.8077 22.8142 34.8006 21.3832C34.7936 19.9593 35.9426 18.7891 37.3736 18.7821M37.3736 19.487C36.3374 19.487 35.4914 20.34 35.4985 21.3832C35.4985 22.4195 36.3515 23.2654 37.3947 23.2583C38.431 23.2583 39.2698 22.4054 39.2698 21.3621C39.2698 20.3259 38.4169 19.487 37.3736 19.487ZM34.1027 20.5726L33.9618 20.6572L33.8701 20.7136L33.7362 20.7911C33.6516 20.8405 33.567 20.8827 33.4824 20.9321L33.4472 20.9532L33.3203 21.0167C33.3132 21.1436 33.3062 21.2705 33.3062 21.3973C33.3203 23.646 35.1601 25.4577 37.4018 25.4506C37.5287 25.4506 37.6556 25.4436 37.7824 25.4295L37.8388 25.3097L37.86 25.2603C37.9023 25.1757 37.9446 25.0911 37.9939 25.0136L38.0785 24.8656L38.1208 24.7951L38.2124 24.64C37.9516 24.7034 37.6838 24.7457 37.4018 24.7457C35.5408 24.7528 34.0182 23.2513 34.0111 21.3903C34.0111 21.1083 34.0393 20.8405 34.1098 20.5796M30.5358 6.88299C30.4442 6.89004 30.3596 6.89709 30.268 6.90413C30.4794 10.4851 33.3767 13.3542 36.9647 13.5234C36.9647 13.4458 36.9788 13.3612 36.9788 13.2837C36.9929 13.1286 37.007 12.9735 37.0282 12.8255C33.7785 12.6845 31.1421 10.0833 30.9658 6.83364C30.8249 6.85479 30.6839 6.86889 30.5358 6.88299ZM23.0637 40.2399C23.106 40.1553 23.1483 40.0707 23.1976 39.9932L23.2822 39.8452L23.3245 39.7747L23.4161 39.6196C23.1553 39.683 22.8874 39.7253 22.6055 39.7253C20.7445 39.7394 19.2218 38.2309 19.2148 36.3699C19.2148 36.0879 19.25 35.8201 19.3135 35.5592L19.1725 35.6438L19.0808 35.7002L18.9469 35.7778C18.8623 35.8271 18.7777 35.8694 18.6931 35.9187L18.6579 35.9399L18.531 36.0033C18.524 36.1302 18.5169 36.2571 18.5169 36.384C18.531 38.6327 20.3638 40.4514 22.6125 40.4373C22.7394 40.4373 22.8663 40.4302 22.9932 40.4161L23.0496 40.2963L23.0707 40.247M22.6125 41.2198C19.9268 41.2339 17.7344 39.0697 17.7203 36.384V36.3417C17.4948 36.4263 17.2621 36.4968 17.0225 36.5532C17.1212 39.4927 19.5109 41.8471 22.4504 41.9176C22.5068 41.678 22.5773 41.4453 22.6548 41.2198H22.6055M25.8552 37.1524L26.0102 37.0537L26.0737 37.0114L26.2217 36.9268C26.2993 36.8845 26.3838 36.8351 26.4684 36.7929L26.5178 36.7647L26.6306 36.7083C26.6447 36.5814 26.6517 36.4615 26.6447 36.3276C26.6306 34.0789 24.7907 32.2602 22.5491 32.2743C22.4222 32.2743 22.2953 32.2813 22.1684 32.2954L22.112 32.4153L22.0909 32.4576C22.0486 32.5422 22.0063 32.6268 21.9569 32.7113L21.8794 32.8453L21.83 32.9299L21.7455 33.0709C22.0063 33.0074 22.2812 32.9651 22.5561 32.9651C24.4171 32.951 25.9397 34.4596 25.9468 36.3205C25.9468 36.6025 25.9115 36.8704 25.8552 37.1312M27.4412 36.3558C27.6668 36.2712 27.8994 36.2007 28.1391 36.1443C28.0334 33.2048 25.6507 30.8433 22.7112 30.7799C22.6548 31.0195 22.5843 31.2522 22.5068 31.4777H22.5561C25.2348 31.4636 27.4342 33.6277 27.4483 36.3135V36.3558M7.66815 31.5623C10.3469 31.5482 12.5462 33.7123 12.5603 36.3981V36.4404C12.7859 36.3628 13.0185 36.2853 13.2582 36.2289C13.1525 33.2894 10.7698 30.9349 7.83029 30.8645C7.77389 31.1041 7.7034 31.3367 7.62586 31.5623H7.6752M20.0113 36.3558C20.0043 34.9319 21.1533 33.7617 22.5843 33.7546C24.0083 33.7476 25.1784 34.9037 25.1855 36.3276C25.1925 37.7515 24.0365 38.9217 22.6125 38.9288C21.1886 38.9358 20.0184 37.7868 20.0113 36.3558ZM20.7092 36.3558C20.7092 37.392 21.5622 38.2309 22.6055 38.2309C23.6417 38.2309 24.4876 37.3779 24.4806 36.3346C24.4806 35.2984 23.6276 34.4596 22.5843 34.4596C21.5481 34.4596 20.7022 35.3125 20.7092 36.3558ZM34.9064 36.2783C34.8993 34.8543 36.0483 33.6841 37.4793 33.6771C38.9033 33.67 40.0734 34.8191 40.0805 36.2501C40.0875 37.674 38.9385 38.8442 37.5075 38.8512C36.0836 38.8583 34.9134 37.7022 34.9064 36.2783ZM35.6113 36.2783C35.6113 37.3145 36.4642 38.1604 37.5075 38.1534C38.5438 38.1534 39.3897 37.3004 39.3826 36.2571C39.3826 35.2209 38.5297 34.382 37.4864 34.382C36.4501 34.382 35.6042 35.235 35.6113 36.2783ZM7.68225 33.0638C9.54325 33.0568 11.0659 34.5582 11.0729 36.4192C11.0729 36.7012 11.0377 36.9691 10.9742 37.2299L11.1293 37.1383L11.1928 37.096L11.3408 37.0114C11.4183 36.962 11.5029 36.9197 11.5875 36.8774L11.6369 36.8492L11.7497 36.7929C11.7638 36.666 11.7638 36.5461 11.7638 36.4122C11.7497 34.1635 9.90981 32.3518 7.66815 32.3589C7.54127 32.3589 7.41438 32.3659 7.28749 32.38L7.2311 32.4999L7.20995 32.5422C7.16766 32.6268 7.12536 32.7113 7.07602 32.7959L6.99848 32.9299L6.94913 33.0145L6.86454 33.1554C7.12536 33.092 7.39323 33.0497 7.6752 33.0497M14.0336 36.0668C14.1957 36.0456 14.3579 36.0245 14.52 36.0104C14.5905 36.0104 14.661 35.9963 14.7315 35.9963C14.52 32.4153 11.6228 29.5462 8.03471 29.3771C8.03471 29.4617 8.02061 29.5392 8.02061 29.6167C8.00652 29.7718 7.99242 29.9199 7.97127 30.0749C11.228 30.2159 13.8574 32.8171 14.0336 36.0668ZM37.9657 40.1342C38.008 40.0496 38.0503 39.965 38.0997 39.8875L38.1842 39.7394L38.2265 39.6689L38.3182 39.5139C38.0574 39.5773 37.7895 39.6196 37.5075 39.6196C35.6465 39.6266 34.1239 38.1252 34.1168 36.2642C34.1168 35.9822 34.1521 35.7143 34.2155 35.4535L34.0746 35.5381L33.9829 35.5945L33.849 35.672C33.7644 35.7214 33.6798 35.7637 33.5952 35.813L33.56 35.8342L33.4331 35.8976C33.426 36.0245 33.419 36.1514 33.419 36.2783C33.4331 38.527 35.2659 40.3457 37.5146 40.3316C37.6415 40.3316 37.7683 40.3245 37.8952 40.3104L37.9516 40.1906L37.9728 40.1412M7.72455 41.2832C5.04584 41.2973 2.84648 39.1261 2.83238 36.4474V36.4051C2.60681 36.4897 2.37418 36.5602 2.13451 36.6166C2.2332 39.5561 4.62289 41.9176 7.56241 41.9811C7.61881 41.7414 7.6893 41.5088 7.76684 41.2832H7.7175M37.5075 41.114C34.8218 41.1281 32.6295 38.957 32.6154 36.2783V36.236C32.3898 36.3205 32.1572 36.391 31.9175 36.4474C32.0232 39.387 34.4059 41.7414 37.3454 41.8119C37.4018 41.5722 37.4723 41.3396 37.5498 41.114H37.5005M22.3728 3.1469C24.2338 3.1328 25.7565 4.64133 25.7635 6.50233C25.7635 6.7843 25.7353 7.05217 25.6648 7.31299L25.8199 7.22135L25.8904 7.17905L26.0384 7.09446C26.116 7.04512 26.2006 7.00282 26.2852 6.96053L26.3345 6.93233L26.4473 6.87594C26.4543 6.74905 26.4614 6.62217 26.4614 6.49528C26.4473 4.24658 24.6074 2.42788 22.3658 2.44197C22.2389 2.44197 22.112 2.44902 21.9851 2.46312L21.9287 2.58296L21.9076 2.62525C21.8653 2.70985 21.8159 2.79444 21.7737 2.87903L21.6961 3.01296L21.6468 3.1046L21.5622 3.24559C21.823 3.17509 22.0909 3.13985 22.3728 3.13985M19.8069 6.52348C19.7999 5.09953 20.9559 3.92936 22.3799 3.92231C23.8038 3.91526 24.974 5.06429 24.9811 6.49528C24.9881 7.91922 23.832 9.08939 22.4081 9.09644C20.9841 9.10349 19.814 7.94742 19.8069 6.52348ZM20.5118 6.52348C20.5118 7.55971 21.3648 8.39857 22.4081 8.39857C23.4443 8.39857 24.2832 7.54561 24.2832 6.50233C24.2832 5.46609 23.4302 4.62723 22.3869 4.62723C21.3507 4.62723 20.5048 5.48019 20.5118 6.52348ZM8.1475 40.2822C8.1898 40.1976 8.23209 40.113 8.28144 40.0355L8.36603 39.8875L8.40832 39.817L8.49996 39.6619C8.23914 39.7253 7.97127 39.7676 7.6893 39.7676C5.82831 39.7747 4.30567 38.2732 4.29862 36.4122C4.29862 36.1302 4.33387 35.8624 4.39731 35.6015L4.25633 35.6861L4.16469 35.7425L4.03075 35.8201C3.94616 35.8694 3.86157 35.9117 3.77698 35.961L3.74173 35.9822L3.61485 36.0456C3.60075 36.1725 3.60075 36.2924 3.60075 36.4263C3.61485 38.675 5.44765 40.4937 7.69635 40.4796C7.82324 40.4796 7.95012 40.4725 8.07701 40.4584L8.1334 40.3386L8.15455 40.2893M36.9295 14.2706C36.859 14.2706 36.7885 14.2635 36.718 14.2565C36.5559 14.2424 36.3937 14.2283 36.2316 14.2071C36.0906 17.4639 33.4895 20.0932 30.2398 20.2695C30.2609 20.4175 30.2821 20.5726 30.2891 20.7277C30.2962 20.8052 30.3032 20.8898 30.3103 20.9744C33.8913 20.7629 36.7603 17.8657 36.9295 14.2776M29.9508 25.4577C30.2327 25.4577 30.5006 25.4929 30.7614 25.5493L30.6698 25.4013L30.6275 25.3308L30.5429 25.1828C30.5006 25.0982 30.4513 25.0206 30.409 24.9361L30.3808 24.8867L30.3244 24.7669C30.1975 24.7528 30.0706 24.7528 29.9437 24.7528C27.695 24.7669 25.8763 26.6067 25.8904 28.8484C25.8904 28.9753 25.8974 29.1021 25.9115 29.229L26.0314 29.2925L26.0737 29.3136C26.1583 29.3559 26.2429 29.4053 26.3275 29.4476L26.4614 29.5251L26.553 29.5815L26.694 29.6661C26.6306 29.4053 26.5883 29.1374 26.5883 28.8554C26.5742 26.9944 28.0827 25.4718 29.9437 25.4647M22.4081 10.612C22.535 10.612 22.6619 10.605 22.7887 10.5909L22.8451 10.471L22.8663 10.4217C22.9086 10.3371 22.9509 10.2525 23.0002 10.175L23.0848 10.0269L23.1271 9.95645L23.2187 9.80137C22.9579 9.87186 22.6901 9.9071 22.4081 9.9071C20.5471 9.9212 19.0245 8.41267 19.0174 6.55167C19.0174 6.2697 19.0456 6.00183 19.109 5.73396L18.9681 5.81855L18.8764 5.87495L18.7425 5.95249C18.6579 6.00183 18.5733 6.04413 18.4887 6.09347L18.4535 6.11462L18.3266 6.17806C18.3195 6.30495 18.3125 6.42479 18.3125 6.55872C18.3266 8.80743 20.1664 10.6191 22.4081 10.612ZM37.437 26.212H37.3877C34.709 26.2261 32.5167 24.0619 32.4955 21.3762V21.3339C32.2699 21.4185 32.0373 21.489 31.7977 21.5454C31.8963 24.4849 34.286 26.8393 37.2256 26.9098C37.2819 26.6702 37.3524 26.4375 37.43 26.212M32.4109 6.48118V6.43889C32.1854 6.52348 31.9527 6.59397 31.7131 6.65036C31.8188 9.58989 34.2014 11.9443 37.141 12.0148C37.1974 11.7751 37.2679 11.5425 37.3454 11.3169H37.296C34.6173 11.331 32.418 9.16693 32.4039 6.48118M22.3658 1.65951C25.0445 1.64541 27.2439 3.81657 27.2579 6.49528V6.53757C27.4835 6.45298 27.7162 6.38249 27.9558 6.3261C27.8571 3.38657 25.4674 1.02508 22.5279 0.961638C22.4715 1.20131 22.401 1.43394 22.3235 1.65951H22.3728M22.2671 12.0783C22.3235 11.8386 22.394 11.606 22.4715 11.3804H22.4222C19.7435 11.3945 17.5441 9.23038 17.53 6.54462V6.50233C17.3044 6.58692 17.0718 6.65741 16.8321 6.7138C16.9308 9.65333 19.3205 12.0078 22.26 12.0783M5.08109 36.4051C5.07404 34.9812 6.22306 33.811 7.65405 33.804C9.078 33.7969 10.2482 34.953 10.2552 36.3769C10.2623 37.8009 9.11324 38.9711 7.68225 38.9781C6.25831 38.9852 5.08814 37.8361 5.08109 36.4051ZM5.77896 36.4051C5.77896 37.4414 6.63192 38.2873 7.6752 38.2802C8.71144 38.2802 9.55735 37.4273 9.5503 36.384C9.5503 35.3478 8.69734 34.5089 7.65405 34.5089C6.61782 34.5089 5.77191 35.3619 5.77896 36.4051ZM29.9367 23.9562H29.979C29.9014 23.7306 29.8309 23.498 29.7675 23.2583C26.8279 23.357 24.4665 25.7467 24.403 28.6862C24.6427 28.7426 24.8753 28.8131 25.1009 28.8907V28.8484C25.0868 26.1697 27.2509 23.9703 29.9367 23.9562ZM15.1403 41.2127C13.7164 41.2198 12.5603 42.3829 12.5674 43.8139H13.2652C13.2652 42.7706 14.097 41.9247 15.1403 41.9176C16.1766 41.9176 17.0295 42.7494 17.0366 43.7927H17.7415C17.7344 42.3617 16.5643 41.2127 15.1403 41.2198M15.1403 40.4302C15.4223 40.4302 15.6902 40.4584 15.951 40.5219L15.8594 40.3739L15.8171 40.3034L15.7325 40.1624C15.6902 40.0778 15.6408 40.0002 15.5985 39.9157L15.5703 39.8663L15.5139 39.7465C15.3871 39.7394 15.2672 39.7324 15.1333 39.7324C12.8846 39.7465 11.0659 41.5863 11.08 43.828H11.7779C11.7708 41.967 13.2723 40.4443 15.1333 40.4373M15.1262 38.9499H15.1756C15.091 38.7243 15.0205 38.4917 14.9641 38.252C12.0246 38.3507 9.66308 40.7404 9.59964 43.6799C9.78997 43.7293 9.9803 43.7786 10.1636 43.8421H10.2975C10.2834 41.1634 12.4546 38.964 15.1333 38.9499M30.0283 38.8653H30.0706C29.9931 38.6397 29.9155 38.4071 29.8591 38.1674C26.9196 38.2661 24.5651 40.6558 24.4947 43.5953C24.685 43.6447 24.8753 43.694 25.0586 43.7575H25.1925C25.1784 41.0788 27.3496 38.8794 30.0283 38.8653ZM30.0424 41.1422C28.6185 41.1493 27.4624 42.3194 27.4694 43.7434H28.1673C28.1673 42.7001 28.9991 41.8542 30.0424 41.8471C31.0786 41.8471 31.9316 42.679 31.9386 43.7222H32.6365C32.6295 42.2912 31.4593 41.1422 30.0353 41.1493M30.0353 40.3598C30.3173 40.3598 30.5852 40.395 30.846 40.4514L30.7544 40.3034L30.7121 40.2329L30.6275 40.0848C30.5852 40.0002 30.5358 39.9227 30.4935 39.8381L30.4653 39.7888L30.4019 39.6689C30.275 39.6548 30.1481 39.6548 30.0212 39.6548C27.7725 39.6689 25.9609 41.5017 25.9679 43.7504H26.6658C26.6588 41.8894 28.1603 40.3668 30.0212 40.3598M44.9233 41.0647C43.4994 41.0717 42.3433 42.2419 42.3503 43.6658H43.0553C43.0553 42.6226 43.8871 41.7766 44.9304 41.7696V41.0647M44.9163 38.7878V38.6538C44.8528 38.4706 44.7964 38.2802 44.7471 38.0899C41.8076 38.1956 39.4461 40.5783 39.3826 43.5178C39.5729 43.5601 39.7633 43.6165 39.9466 43.6799H40.0805C40.0664 40.9942 42.2376 38.8019 44.9163 38.7878ZM44.9233 40.2752V39.5702C42.6746 39.5843 40.8559 41.4242 40.87 43.6658H41.5679C41.5538 41.8048 43.0623 40.2822 44.9233 40.2681M29.986 32.9017C32.2347 32.8876 34.0464 31.0477 34.0393 28.8061C34.0393 28.6792 34.0323 28.5523 34.0182 28.4254L33.9054 28.369L33.849 28.3408C33.7644 28.2985 33.6868 28.2562 33.6023 28.2139L33.4542 28.1294L33.3908 28.0871L33.2357 27.9954C33.2991 28.2562 33.3414 28.5241 33.3414 28.8061C33.3555 30.6671 31.847 32.1897 29.986 32.1968C29.704 32.1968 29.4362 32.1686 29.1753 32.0981L29.267 32.2391L29.3163 32.3236L29.3939 32.4576C29.4432 32.5422 29.4855 32.6268 29.5278 32.7113L29.5489 32.7536L29.6124 32.8735C29.7393 32.8876 29.8662 32.8876 29.993 32.8876M35.5337 28.9471C35.2941 28.8907 35.0614 28.8202 34.8359 28.7426V28.7849C34.85 31.4636 32.6859 33.663 30.0001 33.6771H29.9578C30.0353 33.9027 30.1058 34.1353 30.1693 34.375C33.1088 34.2763 35.4703 31.8866 35.5337 28.9471ZM16.2259 36.6589C16.0849 36.6801 15.9439 36.6942 15.7959 36.7083C15.7043 36.7153 15.6197 36.7224 15.528 36.7294C15.7395 40.3104 18.6367 43.1794 22.2248 43.3486C22.2248 43.2711 22.2319 43.1935 22.2389 43.109C22.253 42.9539 22.2671 42.7988 22.2882 42.6508C19.0386 42.5098 16.4021 39.9086 16.2259 36.6589ZM44.599 37.2863C44.5779 37.1383 44.5568 36.9832 44.5427 36.8281C44.5427 36.7506 44.5286 36.673 44.5215 36.5884C40.9405 36.7999 38.0715 39.6971 37.9023 43.2852C37.9939 43.2852 38.0856 43.2993 38.1702 43.3063C38.3111 43.3204 38.4592 43.3345 38.6002 43.3486C38.7411 40.0989 41.3423 37.4625 44.592 37.2863M15.4928 35.9399C19.0738 35.7284 21.9428 32.8312 22.112 29.2431C22.0415 29.2431 21.971 29.2361 21.9005 29.229C21.7384 29.2149 21.5763 29.2008 21.4141 29.1797C21.2732 32.4294 18.672 35.0658 15.4223 35.242C15.4434 35.3901 15.4575 35.5451 15.4716 35.6932C15.4787 35.7707 15.4857 35.8553 15.4928 35.9399ZM30.3878 35.8553C33.9688 35.6438 36.8378 32.7466 37.007 29.1585C36.9365 29.1585 36.866 29.1515 36.7956 29.1444C36.6334 29.1303 36.4713 29.1162 36.3092 29.0951C36.1682 32.3518 33.567 34.9812 30.3173 35.1574C30.3385 35.3055 30.3596 35.4605 30.3667 35.6156C30.3737 35.6932 30.3808 35.7778 30.3878 35.8624M31.1139 36.5814C30.9729 36.6025 30.8319 36.6166 30.6839 36.6307C30.5922 36.6378 30.5076 36.6448 30.416 36.6519C30.6275 40.2329 33.5247 43.1019 37.1128 43.2711C37.1128 43.1935 37.1198 43.109 37.1269 43.0314C37.141 42.8763 37.1551 42.7212 37.1762 42.5732C33.9195 42.4322 31.2901 39.8311 31.1139 36.5814ZM29.697 37.3779C29.6758 37.2229 29.6547 37.0748 29.6406 36.9197C29.6406 36.8422 29.6265 36.7576 29.6194 36.6801C26.0384 36.8915 23.1694 39.7888 23.0002 43.3768C23.0919 43.3768 23.1835 43.3909 23.2681 43.398C23.4091 43.4121 23.5571 43.4262 23.6981 43.4403C23.8391 40.1835 26.4402 37.5542 29.6899 37.3779M20.6246 29.0387C20.385 28.9823 20.1523 28.9118 19.9268 28.8343V28.8766C19.9409 31.5553 17.7767 33.7546 15.091 33.7687H15.0416C15.1262 33.9943 15.1967 34.2269 15.2531 34.4666C18.1926 34.3679 20.5541 31.9782 20.6176 29.0387M14.7879 37.4625C14.7667 37.3074 14.7456 37.1594 14.7315 37.0043C14.7315 36.9268 14.7174 36.8492 14.7103 36.7647C11.1293 36.9761 8.26029 39.8734 8.09111 43.4614C8.18275 43.4614 8.27439 43.4755 8.35898 43.4826C8.49996 43.4967 8.64799 43.5108 8.78898 43.5249C8.92996 40.2752 11.5311 37.6388 14.7808 37.4625M14.3931 32.4153L14.4707 32.5492C14.52 32.6338 14.5623 32.7184 14.6116 32.803L14.6328 32.8453L14.6962 32.9651C14.8231 32.9792 14.95 32.9792 15.0769 32.9792C17.3256 32.9651 19.1372 31.1253 19.1302 28.8836C19.1302 28.7567 19.1231 28.6298 19.109 28.503L18.9963 28.4466L18.9399 28.4184C18.8553 28.3761 18.7707 28.3338 18.6931 28.2844L18.5451 28.1998L18.4817 28.1575L18.3266 28.0659C18.39 28.3267 18.4253 28.5946 18.4323 28.8766C18.4464 30.7376 16.9379 32.2602 15.0769 32.2672C14.7949 32.2672 14.5271 32.239 14.2662 32.1756L14.3508 32.3166L14.4002 32.4012M1.32385 36.7435C1.18287 36.7647 1.04188 36.7788 0.893847 36.7929C0.802207 36.7999 0.717616 36.8069 0.625977 36.814C0.837453 40.395 3.73468 43.264 7.32274 43.4332C7.32274 43.3557 7.32979 43.2711 7.33684 43.1935C7.35094 43.0385 7.36504 42.8834 7.38618 42.7353C4.13649 42.5944 1.50008 39.9932 1.32385 36.7435ZM29.8239 3.89412H29.7816C29.8591 4.11969 29.9367 4.35231 29.993 4.59199C32.9326 4.4933 35.287 2.10361 35.3575 -0.835915C35.1672 -0.885259 34.9769 -0.934604 34.7936 -0.998047H34.6596C34.6737 1.68771 32.5026 3.88002 29.8239 3.89412ZM29.1401 2.54066L29.2176 2.6746C29.267 2.75919 29.3093 2.84378 29.3586 2.92837L29.3798 2.97067L29.4432 3.0905C29.5701 3.1046 29.697 3.1046 29.8239 3.1046C32.0726 3.0905 33.8842 1.25066 33.8772 -0.990998H33.1722C33.1863 0.869998 31.6778 2.39263 29.8168 2.40673C29.5349 2.40673 29.267 2.37148 29.0062 2.30804L29.0907 2.44902L29.1401 2.53362M37.1551 28.3761C37.1692 28.1434 37.1762 27.9108 37.1833 27.6782H37.0846C33.8278 27.5302 31.1985 24.929 31.0222 21.6793C30.8813 21.7005 30.7403 21.7146 30.5922 21.7287C30.5006 21.7357 30.416 21.7428 30.3244 21.7498C30.5358 25.3308 33.4331 28.1998 37.0211 28.369H37.1551" fill="#ED1D24"/>
</g>
<path d="M71.0267 53.0273C71.1042 53.0766 71.1888 53.126 71.2593 53.1683V53.1824C74.7839 55.4804 79.5633 56.848 79.0628 59.7593C79.6408 57.9617 81.1071 53.4432 82.4746 49.4533C83.814 45.541 85.4141 41.819 84.963 40.4444C83.5813 36.1937 76.2783 33.8957 74.6359 28.8484C73.085 24.0691 79.7466 16.4629 76.9833 13.9111C74.1283 11.2747 71.1113 16.0964 67.4739 18.9513C64.3651 21.3904 60.3823 24.2453 54.1367 26.5081C54.1649 28.7145 54.5174 31.6752 55.6875 35.2703C56.5546 37.9278 58.0349 40.4585 59.7831 42.7495C63.8364 47.9448 67.7488 50.842 71.0196 53.0343" fill="#B4DDC1"/>
<mask id="mask3_40_4541" style="mask-type:luminance" maskUnits="userSpaceOnUse" x="54" y="13" width="32" height="47">
<path d="M67.4817 18.9443C64.373 21.3834 60.3901 24.2383 54.1445 26.5011C54.1727 28.7075 54.5252 31.6682 55.6954 35.2633C56.5554 37.9208 58.0428 40.4515 59.791 42.7425C63.8443 47.9378 67.7566 50.828 71.0204 53.0203C71.0979 53.0696 71.1825 53.119 71.253 53.1613V53.1754C74.7776 55.4734 79.564 56.841 79.0565 59.7523C79.6345 57.9548 81.1008 53.4362 82.4683 49.4463C83.8077 45.534 85.4078 41.812 84.9567 40.4374C83.575 36.1867 76.2721 33.8887 74.6296 28.8414C73.0788 24.0621 79.7403 16.456 76.977 13.9041C76.3989 13.3684 75.8139 13.1428 75.2147 13.1428C72.8743 13.1428 70.3648 16.6674 67.4676 18.9443" fill="white"/>
</mask>
<g mask="url(#mask3_40_4541)">
<path d="M60.8978 39.3518C60.9189 39.4575 63.3439 49.122 64.1263 51.9981C61.7789 48.2479 60.4043 43.821 60.8978 39.3518Z" fill="#004521"/>
<path d="M61.0176 33.3811C61.6309 36.4968 65.9098 48.2408 66.9037 49.8481C64.5704 47.5712 60.2563 40.2188 61.0176 33.3811Z" fill="#004521"/>
<path d="M61.6027 29.6803C62.3076 33.9592 63.7738 36.7296 66.7556 42.4253L68.6942 46.0204L68.6589 46.0486L68.5884 45.9288L68.7012 46.0275L68.673 46.0557C65.5079 43.7717 60.8766 36.3419 61.6097 29.6733" fill="#004521"/>
<path d="M61.9975 27.3259C62.8152 31.3228 68.0739 38.5341 70.4918 42.4394C66.22 38.7738 61.4618 32.9089 61.9975 27.3259Z" fill="#004521"/>
<path d="M62.5194 24.9078C63.2948 28.6298 68.3844 34.0084 71.9795 39.8099C67.8204 36.2077 62.0471 30.3216 62.5194 24.9078Z" fill="#004521"/>
<path d="M63.0333 22.9553C63.8016 26.4728 69.2014 30.0609 73.8327 37.23C68.9194 32.9581 62.6879 27.6501 63.0333 22.9553Z" fill="#004521"/>
<path d="M63.5831 21.4256C64.2951 24.4004 71.3584 27.2906 75.7501 34.2552C69.589 29.0106 63.3575 25.1194 63.5831 21.4256Z" fill="#004521"/>
<path d="M64.014 19.9172C64.4017 21.3764 66.2204 21.75 69.8155 23.9071C72.5647 25.5566 75.7016 28.4186 77.5485 31.3017C70.4076 25.3028 63.9082 22.7298 64.014 19.9172Z" fill="#004521"/>
<path d="M64.3666 18.7398C64.3666 18.7398 64.3807 18.9231 64.5711 19.1064C65.854 20.2695 73.7421 19.6633 79.2475 28.1505C73.1077 22.8002 68.8711 22.0812 65.4311 20.0228C64.1551 19.2756 64.3666 18.7398 64.3666 18.7398Z" fill="#004521"/>
<path d="M64.8308 17.887C64.8308 17.887 64.7815 18.1267 65.4934 18.1408C65.6697 18.1408 65.9869 18.1126 66.431 18.0844C69.0956 17.8941 76.1096 17.7037 81.1709 25.3874C78.1045 22.6946 76.1519 21.3834 71.9505 19.9454C67.8126 18.5214 64.8238 18.6695 64.8379 17.88" fill="#004521"/>
<path d="M65.0426 16.8789C65.0426 16.8789 64.9298 17.0269 65.8321 16.7027C73.0717 14.1297 78.8379 16.5335 82.856 22.5888C78.2035 18.4438 73.6286 16.315 66.8683 16.8436C65.9731 16.9212 65.2188 17.0199 65.0778 16.9282L65.0496 16.8718" fill="#004521"/>
<path d="M65.3242 15.8144C69.4833 12.1136 78.0128 11.2395 84.3501 20.1356C80.0712 16.336 76.173 14.0098 70.0402 14.6231C67.9465 14.8416 66.2406 15.3562 65.3242 15.8144Z" fill="#004521"/>
<path d="M59.0443 36.3347C57.9023 39.1967 56.1682 42.4957 52.0938 45.6115C55.1461 40.3104 56.6123 38.6398 59.0443 36.3347Z" fill="#004521"/>
<path d="M59.7349 32.5351C56.591 39.5631 50.5498 42.2982 49.3232 42.5943C50.6273 41.7907 50.8036 41.3889 59.7349 32.5351Z" fill="#004521"/>
<path d="M60.2207 29.5039C58.0214 34.1917 53.2561 38.0123 47.3629 39.0133L47.3418 38.9569L47.511 38.9287L47.3629 39.0063L47.3418 38.9499C56.2238 33.6982 58.3668 31.4918 60.2137 29.4898" fill="#004521"/>
<path d="M60.5876 27.2131C58.1697 32.1757 51.9311 34.1002 46.4609 34.8403C51.3883 32.3661 57.6622 30.209 60.5876 27.2131Z" fill="#004521"/>
<path d="M61.2718 24.6965C58.9173 29.4477 52.0161 30.9703 46.6094 31.7246C50.3173 29.8636 58.6283 27.3893 61.2718 24.6965Z" fill="#004521"/>
<path d="M66.5017 8.55379C63.2027 17.0693 61.2783 25.1054 60.1222 33.5926C59.9037 35.2069 59.6076 36.8846 59.2551 38.4777C58.3387 42.6227 58.092 47.4867 58.7969 52.1885C59.5864 47.7334 59.9389 43.0527 60.0235 39.6691C60.1151 36.1515 60.524 32.5352 61.236 29.0882C62.6458 22.2716 64.6478 15.7369 67.4604 8.92035L66.5017 8.54674" fill="#004521"/>
<path d="M79.3174 42.9189C82.1089 41.7487 93.6626 38.8656 95.4601 38.7951C92.4219 38.1607 84.3153 38.6752 79.3174 42.9189Z" fill="#004521"/>
<path d="M76.7092 45.3507C80.4664 43.6307 83.4342 43.3134 89.5176 42.6297L93.3877 42.242V42.1997H93.2608L93.3947 42.2349V42.1926C89.9124 40.9097 81.5802 41.2057 76.7021 45.3366" fill="#004521"/>
<path d="M75.0596 46.9156C78.6547 45.4353 87.149 45.7454 91.5195 45.5762C86.3524 44.1523 79.1834 43.5249 75.0596 46.9156Z" fill="#004521"/>
<path d="M73.4238 48.6217C75.5738 47.7405 79.2183 47.9026 83.2716 48.0648C85.5273 48.1564 87.91 48.2481 90.2292 48.1564C85.1678 46.7889 77.4489 45.3649 73.4238 48.6217Z" fill="#004521"/>
<path d="M72.1621 50.0596C74.0372 49.3124 76.8005 49.827 80.4168 50.3345C82.9263 50.694 85.8587 51.0465 89.186 50.983C83.2012 49.3758 75.6867 47.2822 72.1621 50.0596Z" fill="#004521"/>
<path d="M71.2393 51.3143C72.7196 50.7574 75.1727 51.6949 78.359 52.6254C81.0518 53.4149 84.2592 54.2045 87.8472 54.0917C80.4244 52.0192 74.0308 49.1713 71.2393 51.3143Z" fill="#004521"/>
<path d="M70.2803 52.4562C71.6408 51.9839 72.9026 53.2245 76.5188 54.9163C79.2821 56.2064 83.2156 57.1651 86.4794 57.0875C77.9357 54.6414 72.4444 50.8771 70.2803 52.4562Z" fill="#004521"/>
<path d="M80.6006 39.7889C82.2501 37.3639 83.9349 34.2411 84.2309 29.3631C81.6721 34.5936 81.1293 36.6449 80.6006 39.7889Z" fill="#004521"/>
<path d="M77.9707 42.3547C81.8478 36.1302 80.7904 29.8987 80.3674 28.7779C80.4238 30.2371 80.2053 30.5896 77.9707 42.3547Z" fill="#004521"/>
<path d="M75.835 44.3567C78.3656 40.1271 78.845 34.3256 76.5046 29.1374L76.4482 29.1515L76.5187 29.2995L76.5046 29.1374L76.4482 29.1515C77.0263 38.964 76.4271 41.826 75.835 44.3496" fill="#004521"/>
<path d="M74.2132 45.8652C76.8496 41.3185 75.045 35.3619 72.7188 30.646C73.3884 35.8483 75.0309 41.96 74.2132 45.8652Z" fill="#004521"/>
<path d="M72.5922 47.7473C75.0876 43.3627 72.7332 37.3285 70.4492 32.6619C70.9568 36.5813 73.3112 44.2227 72.5922 47.7473Z" fill="#004521"/>
<path d="M71.2392 49.0514C73.2694 45.407 70.6048 39.9015 67.6582 33.9167C68.772 41.4101 71.9089 45.6044 71.2392 49.0514Z" fill="#004521"/>
<path d="M69.9843 50.5177C71.5634 47.5923 68.356 42.9046 64.7891 35.8201C65.9028 43.7505 70.5271 47.4866 69.9843 50.5177Z" fill="#004521"/>
<path d="M68.9411 51.6104C70.0972 49.3264 65.8817 45.7736 61.7861 37.7022C62.3289 41.389 64.0348 44.7797 66.3822 47.5923C68.1516 49.7 69.1244 50.3908 68.9411 51.6174" fill="#004521"/>
<path d="M62.6318 60.4783C67.6015 53.3374 72.9237 47.5359 79.0142 42.108C80.1703 41.0788 81.3405 39.9439 82.4049 38.8231C85.1964 35.8906 88.8973 33.1062 92.9929 31.1606C89.8912 34.1635 86.3877 36.9268 83.7584 38.7949C81.0303 40.7405 78.3939 42.9892 76.0465 45.3859C71.4152 50.13 67.3196 55.1914 63.4354 61.0352L62.6318 60.4712" fill="#004521"/>
</g>
<path d="M67.4248 18.9865C67.4953 18.9231 67.5658 18.8667 67.6292 18.8103H67.6433C70.9212 16.1739 73.6986 12.0501 76.3068 13.4247C74.7772 12.3179 70.9283 9.52645 67.5588 6.99578C64.2527 4.51446 61.2074 1.8428 59.7623 1.8428C55.2931 1.8428 50.845 8.07431 45.544 8.07431C40.5179 8.07431 35.3438 -0.610331 32.0659 1.22952C28.6752 3.12576 32.3267 7.48923 33.9198 11.8316C35.2803 15.5394 36.7607 20.206 36.9933 26.8464C39.101 27.502 42.0265 28.08 45.8048 28.08C48.5963 28.08 51.4654 27.4456 54.1864 26.501C60.3756 24.2452 64.3443 21.4255 67.4389 18.9936" fill="#000034"/>
<mask id="mask4_40_4541" style="mask-type:luminance" maskUnits="userSpaceOnUse" x="30" y="0" width="47" height="29">
<path d="M32.0659 1.22949C28.6752 3.12573 32.3267 7.4892 33.9198 11.8315C35.2803 15.5394 36.7607 20.206 36.9933 26.8464C39.101 27.502 42.0265 28.08 45.8048 28.08C48.5963 28.08 51.4654 27.4526 54.1864 26.501C60.3826 24.2452 64.3443 21.4185 67.4389 18.9935C67.5094 18.9301 67.5799 18.8737 67.6433 18.8173H67.6574C70.9353 16.1809 73.7127 12.05 76.3209 13.4317C74.7913 12.325 70.9424 9.53348 67.5729 7.0028C64.2668 4.52148 61.2215 1.84982 59.7694 1.84982C55.3002 1.84982 50.8521 8.08838 45.5511 8.08838C41.0043 8.08838 36.3377 0.982765 33.0598 0.982765C32.7144 0.982765 32.3831 1.06031 32.0659 1.23654" fill="white"/>
</mask>
<g mask="url(#mask4_40_4541)">
<path d="M72.8806 11.2042L72.8524 11.2676V11.5285C72.6973 11.5919 72.5986 11.7329 72.5986 11.9021C72.5986 12.1206 72.7749 12.3039 73.0004 12.3039C73.226 12.3039 73.4022 12.1276 73.4022 11.9021C73.4022 11.6906 73.2401 11.5214 73.0286 11.5003V11.3029L73.2472 11.0844L73.1062 10.9786L72.8806 11.2042Z" fill="#52C6D8"/>
<path d="M31.9102 8.38462L31.9877 8.54675L31.9102 8.38462Z" fill="#52C6D8"/>
<path d="M52.2051 12.7126L52.2333 12.7761L53.0298 13.5726L53.0933 13.6008H54.7569L55.3772 14.2212V15.3491L53.7982 16.9281L53.77 16.9915V17.8938L53.7982 17.9573L54.1013 18.2604L54.1648 18.2886H55.4336L56.2866 19.1415L56.35 19.1697H58.3732L58.4366 19.1415L59.2614 18.3168C59.3319 18.3661 59.4094 18.3943 59.494 18.3943C59.7125 18.3943 59.8958 18.2181 59.8958 17.9925C59.8958 17.7669 59.7196 17.5907 59.494 17.5907C59.2684 17.5907 59.0922 17.7669 59.0922 17.9925C59.0922 18.063 59.1133 18.1264 59.1415 18.1899L58.3379 18.9935H56.3853L55.5323 18.1405L55.4689 18.1123H54.2071L53.9533 17.8586V17.0338L55.5323 15.4548L55.5605 15.3913V14.193L55.5323 14.1295L54.8626 13.4599L54.7992 13.4317H53.1356L52.3884 12.6844V6.07932L52.3672 6.02293L51.9584 5.40965L51.8174 5.50833L52.2192 6.10752V12.7056" fill="#52C6D8"/>
<path d="M54.9197 11.0843C54.8421 11.0138 54.7505 10.9785 54.6518 10.9785C54.4333 10.9785 54.25 11.1547 54.25 11.3803C54.25 11.6059 54.4262 11.7821 54.6518 11.7821C54.8774 11.7821 55.0536 11.6059 55.0536 11.3803L55.0254 11.2323L55.1594 11.0984L55.1875 11.0349V3.09043L55.0113 3.19617V10.9926L54.9267 11.0772" fill="#52C6D8"/>
<path d="M55.9274 5.65651L57.0341 6.76324V8.4762C56.8579 8.51849 56.724 8.68062 56.724 8.8639C56.724 9.08243 56.9002 9.26571 57.1258 9.26571C57.3513 9.26571 57.5276 9.08948 57.5276 8.8639C57.5276 8.68062 57.3936 8.51849 57.2174 8.4762V6.72799L57.1892 6.66455L56.0825 5.55782V2.56895L55.9062 2.66764V5.59306L55.9344 5.65651" fill="#52C6D8"/>
<path d="M61.6934 9.89289L59.7901 11.7962H58.7538L58.6904 11.8244L57.7317 12.7831L57.7035 12.8465V15.8636L57.3933 16.1738C57.3158 16.1033 57.2242 16.068 57.1255 16.068C56.9069 16.068 56.7237 16.2442 56.7237 16.4698C56.7237 16.6954 56.9069 16.8716 57.1255 16.8716C57.344 16.8716 57.5273 16.6883 57.5273 16.4698L57.4991 16.3218L57.8586 15.9623L57.8868 15.8988V12.8818L58.7961 11.9724H59.8324L59.8958 11.9442L61.8484 9.99158L61.8766 9.92814V7.39747L61.8484 7.33402L56.7307 2.21629L56.5615 2.29383L61.6934 7.42566V9.88584" fill="#52C6D8"/>
<path d="M63.4206 8.03911V12.6634L62.8707 13.2132L62.8425 13.2767V17.0833L62.4548 17.471C62.3843 17.4005 62.2857 17.3652 62.187 17.3652C61.9684 17.3652 61.7852 17.5415 61.7852 17.767C61.7852 17.9926 61.9614 18.1688 62.187 18.1688C62.4125 18.1688 62.5888 17.9926 62.5888 17.767L62.5535 17.612L62.9835 17.182L63.0117 17.1185V13.3119L63.5545 12.7691L63.5827 12.7057V8.0814L65.9301 5.73401L65.7891 5.62827L63.4347 7.98271L63.4065 8.04616" fill="#52C6D8"/>
<path d="M35.9496 1.7794H31.0715C31.0292 1.81464 30.9728 1.87809 30.9023 1.95563H36.3021C36.1822 1.89218 36.0624 1.83579 35.9496 1.7794Z" fill="#52C6D8"/>
<path d="M62.3493 10.1539L60.0795 12.4238H59.2124L59.149 12.452L58.2678 13.3331L58.2396 13.3966V16.8507L57.3937 17.6966C57.3162 17.6191 57.2175 17.5768 57.1118 17.5768C56.8932 17.5768 56.71 17.753 56.71 17.9786C56.71 18.2041 56.8862 18.3804 57.1118 18.3804C57.3373 18.3804 57.5136 18.2041 57.5136 17.9786L57.4924 17.8446L58.3877 16.9494L58.4159 16.8859V13.4318L59.2477 12.6H60.1147L60.1782 12.5718L62.5044 10.2456L62.5326 10.1821V5.62127L62.5044 5.55783L58.4793 1.53977C58.4159 1.55387 58.3454 1.56797 58.2819 1.58912L62.3564 5.65652V10.1469" fill="#52C6D8"/>
<path d="M52.8188 12.177L53.6576 13.0158L53.7211 13.044H55.2578C55.3283 13.0934 55.6173 13.3895 55.9204 13.7208V16.0118L55.0322 16.9C54.9618 16.8436 54.8772 16.8154 54.7855 16.8154C54.567 16.8154 54.3837 16.9916 54.3837 17.2172C54.3837 17.4428 54.567 17.619 54.7855 17.619C55.004 17.619 55.1873 17.4428 55.1873 17.2172L55.145 17.041L56.0755 16.1105L56.1037 16.047V13.6855L56.0826 13.6291C55.3988 12.8678 55.3283 12.8678 55.286 12.8678H53.7634L52.9739 12.0783V4.59202L52.9034 4.64136L52.8047 4.71186V12.1065L52.8329 12.1699" fill="#52C6D8"/>
<path d="M37.409 5.30392C37.6276 5.30392 37.8108 5.12769 37.8108 4.90211C37.8108 4.67654 37.6346 4.50031 37.409 4.50031C37.2328 4.50031 37.0848 4.62014 37.0284 4.77522H30.3457C30.3598 4.83867 30.3669 4.89506 30.3809 4.9585H37.0143C37.0425 5.14883 37.2116 5.29687 37.409 5.29687" fill="#52C6D8"/>
<path d="M53.2487 11.6695L53.8479 12.2687L53.9113 12.2969H55.6948L56.5618 13.1639V14.1508L56.59 14.2143L56.7874 14.4117C56.7451 14.4751 56.724 14.5526 56.724 14.6231C56.724 14.8417 56.9002 15.0249 57.1258 15.0249C57.3513 15.0249 57.5276 14.8487 57.5276 14.6231C57.5276 14.3976 57.3513 14.2213 57.1258 14.2213C57.0482 14.2213 56.9777 14.2425 56.9143 14.2848L56.7451 14.1085V13.1216L56.7169 13.0582L55.8005 12.1418L55.7371 12.1136H53.9536L53.4038 11.5638V4.28192L53.2275 4.40881V11.6061L53.2557 11.6695" fill="#52C6D8"/>
<path d="M31.2764 7.10154L31.3046 7.16497L31.2764 7.10154Z" fill="#52C6D8"/>
<path d="M31.2197 6.98877L31.2761 7.10156L31.2197 6.98877Z" fill="#52C6D8"/>
<path d="M47.2923 26.2612C47.4756 26.2189 47.6024 26.0568 47.6024 25.8735C47.6024 25.655 47.4262 25.4717 47.2006 25.4717C46.9751 25.4717 46.7988 25.655 46.7988 25.8735C46.7988 26.0638 46.9328 26.2259 47.109 26.2612V27.8332L47.1372 27.8966L47.3416 28.101C47.4192 28.101 47.4967 28.0869 47.5672 28.0799L47.2852 27.7979V26.2682" fill="#52C6D8"/>
<path d="M65.8882 6.24155V9.96354L63.9355 11.9162V16.3572L64.6969 17.1185L64.6616 17.2806C64.6616 17.4992 64.8379 17.6824 65.0634 17.6824C65.289 17.6824 65.4652 17.5062 65.4652 17.2806C65.4652 17.0551 65.289 16.8788 65.0634 16.8788C64.9718 16.8788 64.8801 16.9141 64.8167 16.9705L64.1188 16.2726V11.9867L66.0715 10.034V6.31205L66.3605 6.02303L66.2124 5.91024L65.9234 6.20631L65.8952 6.2345" fill="#52C6D8"/>
<path d="M75.503 13.2203L75.785 12.9384L75.6369 12.8256L75.2422 13.2203C75.3338 13.2203 75.4184 13.2203 75.503 13.2203Z" fill="#52C6D8"/>
<path d="M46.1932 27.1355V25.0349C46.3694 24.9926 46.5033 24.8375 46.5033 24.6471C46.5033 24.4286 46.3271 24.2453 46.1015 24.2453C45.8759 24.2453 45.6997 24.4216 45.6997 24.6471C45.6997 24.8375 45.8336 24.9926 46.0099 25.0349V26.9522H45.1992L43.9727 28.1788C44.0572 28.1788 44.1418 28.1859 44.2264 28.1929L45.2768 27.1426H46.1932" fill="#52C6D8"/>
<path d="M63.1182 6.50245C63.1182 6.72098 63.2944 6.90426 63.52 6.90426C63.7455 6.90426 63.9218 6.72802 63.9218 6.50245C63.9218 6.31212 63.7878 6.15704 63.6116 6.11474V3.43604L63.4283 3.3021V6.12179C63.2521 6.16409 63.1182 6.31917 63.1182 6.5095" fill="#52C6D8"/>
<path d="M59.0005 6.91134L57.4638 5.37461C57.499 5.31117 57.5272 5.24068 57.5272 5.16314C57.5272 4.94461 57.351 4.76133 57.1254 4.76133C56.8999 4.76133 56.7236 4.94461 56.7236 5.16314C56.7236 5.38166 56.8999 5.56494 57.1254 5.56494C57.203 5.56494 57.2735 5.54379 57.3369 5.5015L58.8243 6.98888V10.2033L57.3299 11.6978C57.2735 11.6625 57.203 11.6414 57.1254 11.6414C56.9069 11.6414 56.7236 11.8176 56.7236 12.0432C56.7236 12.2688 56.8999 12.445 57.1254 12.445C57.351 12.445 57.5272 12.2688 57.5272 12.0432C57.5272 11.9656 57.5061 11.8881 57.4638 11.8247L59.0076 10.2809V6.91134" fill="#52C6D8"/>
<path d="M49.6676 9.2797H47.9406L46.3756 7.72887C46.291 7.73592 46.2135 7.74297 46.1289 7.75002L47.863 9.47003H49.8438V9.37839C49.8791 8.20822 49.8861 6.03706 49.8791 5.70574L49.6958 5.79033C49.6958 6.26263 49.6817 8.66642 49.6676 9.2797Z" fill="#52C6D8"/>
<path d="M37.7478 3.33031H30.2897L30.2686 3.51359H37.9875C37.9029 3.45014 37.8253 3.39375 37.7407 3.33031" fill="#52C6D8"/>
<path d="M51.5925 6.34724V13.0017L51.6207 13.0652L53.235 14.6794L53.2984 14.7076H53.8412C53.8835 14.8909 54.0456 15.0248 54.2289 15.0248C54.4475 15.0248 54.6307 14.8486 54.6307 14.623C54.6307 14.3975 54.4545 14.2212 54.2289 14.2212C54.0456 14.2212 53.8765 14.3552 53.8412 14.5314H53.3337L51.7687 12.9665V6.31904L51.7476 6.26265L51.4586 5.7833L51.3105 5.88199L51.5996 6.35429" fill="#52C6D8"/>
<path d="M36.5779 2.51255H30.5367C30.5085 2.56894 30.4803 2.63239 30.4521 2.69583H36.8458C36.7542 2.63239 36.6625 2.56894 36.5709 2.51255" fill="#52C6D8"/>
<path d="M30.7332 5.98072L30.7543 6.02301H33.3484C33.3766 6.21334 33.5458 6.36137 33.7432 6.36137C33.9617 6.36137 34.145 6.18514 34.145 5.95957C34.145 5.73399 33.9687 5.55776 33.7432 5.55776C33.5669 5.55776 33.4189 5.6776 33.3625 5.83268H30.6768L30.7332 5.98072Z" fill="#52C6D8"/>
<path d="M30.7334 5.98077L30.7536 6.02108L30.7334 5.98077Z" fill="#52C6D8"/>
<path d="M73.0219 13.0299C72.8034 13.0299 72.6201 13.2061 72.6201 13.4317C72.6201 13.6573 72.7963 13.8335 73.0219 13.8335C73.2475 13.8335 73.4237 13.6573 73.4237 13.4317C73.4237 13.3542 73.4026 13.2837 73.3603 13.2202L74.5516 12.0289L74.4036 11.9161L73.2334 13.0863C73.17 13.051 73.0995 13.0229 73.0219 13.0229" fill="#52C6D8"/>
</g>
</g>
<defs>
<clipPath id="clip0_40_4541">
<rect width="78.8241" height="77.8353" fill="white" transform="translate(6.0625)"/>
</clipPath>
</defs>
</svg>
