<svg width="1440" height="1024" viewBox="0 0 1440 1024" fill="none" xmlns="http://www.w3.org/2000/svg">
<g clip-path="url(#clip0_1268_15568)">
<rect width="1440" height="1024" fill="white"/>
<g clip-path="url(#clip1_1268_15568)">
<rect width="1440" height="1026" fill="#B89635" fill-opacity="0.16"/>
<g opacity="0.08" clip-path="url(#clip2_1268_15568)">
<path d="M112.606 1008.39C59.371 1008.68 16.2983 1052.27 16.5894 1105.53C16.6136 1108.56 16.7833 1111.57 17.0744 1114.51C18.0202 1114.94 18.8933 1115.4 19.8149 1115.87C20.2272 1116.06 20.6638 1116.28 21.0761 1116.5C23.0406 1117.49 24.9808 1118.51 26.921 1119.58C28.1094 1120.23 29.2735 1120.93 30.4619 1121.59L32.0383 1122.54C33.2509 1123.26 34.4878 1123.97 35.7004 1124.72C34.124 1118.56 33.2752 1112.11 33.2509 1105.48C32.9841 1061.36 68.6597 1025.29 112.727 1025.05C119.348 1025 125.823 1025.78 132.008 1027.31C131.28 1026.19 130.601 1025.05 129.898 1023.89C129.485 1023.23 129.097 1022.55 128.685 1021.85C128.054 1020.78 127.424 1019.71 126.793 1018.65C125.678 1016.68 124.586 1014.67 123.543 1012.66C123.374 1012.32 123.204 1012 123.034 1011.68C122.549 1010.71 122.04 1009.77 121.579 1008.77C118.62 1008.51 115.637 1008.41 112.606 1008.41V1008.39Z" fill="#B89635"/>
<path d="M-18.6738 1101.87C-13.023 1103.23 -7.5176 1104.85 -2.06076 1106.7C-2.06076 1106.36 -2.08503 1105.99 -2.08503 1105.63C-2.44882 1042.05 48.9668 990.048 112.509 989.685C112.872 989.685 113.236 989.709 113.576 989.709C111.684 984.324 109.986 978.793 108.58 973.19C38.9019 975.592 -17.0246 1032.16 -18.6738 1101.87Z" fill="#B89635"/>
<path d="M103.123 938.067C18.1662 943.137 -49.7169 1011.83 -53.8398 1096.85C-52.1422 1096.95 -50.4687 1097.07 -48.7953 1097.19C-44.9391 1097.48 -41.0829 1097.84 -37.2753 1098.38C-33.9284 1021.24 27.7703 958.879 104.821 954.634C104.312 951.069 103.875 947.479 103.56 943.84C103.39 941.924 103.22 940.008 103.099 938.067H103.123Z" fill="#B89635"/>
<path d="M285.527 1080.89C208.404 1077.52 146.026 1015.83 141.806 938.771C138.217 939.304 134.603 939.693 130.965 940.008C129.073 940.178 127.182 940.372 125.266 940.469C130.334 1025.41 199.018 1093.36 284.023 1097.45C284.096 1095.3 284.266 1093.19 284.46 1091.08C284.727 1087.66 285.09 1084.24 285.527 1080.91V1080.89Z" fill="#B89635"/>
<path d="M230.886 930.742C231.08 964.531 258.728 991.892 292.512 991.698C326.295 991.504 353.628 963.852 353.434 930.063C353.264 896.274 325.592 868.937 291.832 869.107C258.049 869.301 230.716 896.953 230.886 930.742ZM336.821 930.16C336.967 954.78 317.055 974.913 292.414 975.058C267.798 975.179 247.668 955.289 247.523 930.669C247.402 906.049 267.289 885.868 291.929 885.747C316.522 885.601 336.676 905.54 336.821 930.16Z" fill="#B89635"/>
<path d="M212.187 930.863C212.139 924.241 212.939 917.789 214.443 911.604C213.278 912.356 212.066 913.059 210.853 913.787C210.295 914.126 209.738 914.466 209.18 914.806C208.04 915.485 206.9 916.188 205.736 916.843C203.82 917.91 201.855 919.002 199.867 920.021C199.503 920.239 199.115 920.433 198.727 920.627C197.781 921.064 196.884 921.573 195.962 922.034C195.695 924.993 195.55 927.977 195.55 931.009C195.841 984.275 239.423 1027.35 292.706 1027.04C295.713 1027.04 298.696 1026.87 301.655 1026.55C302.092 1025.58 302.601 1024.61 303.086 1023.64C303.231 1023.35 303.377 1023.01 303.547 1022.7C304.59 1020.64 305.657 1018.62 306.772 1016.61C307.354 1015.57 307.937 1014.52 308.543 1013.48C308.979 1012.75 309.416 1012.02 309.852 1011.27C310.507 1010.16 311.138 1009.04 311.841 1007.93C305.681 1009.5 299.23 1010.38 292.609 1010.42C248.493 1010.69 212.43 975.009 212.187 930.887V930.863Z" fill="#B89635"/>
<path d="M176.9 931.057C176.9 930.693 176.9 930.33 176.9 929.99C171.516 931.882 165.986 933.58 160.384 935.011C162.785 1004.67 219.366 1060.61 289.044 1062.23C290.402 1056.61 292.027 1051.08 293.87 1045.62C293.506 1045.64 293.167 1045.67 292.803 1045.67C229.261 1046.03 177.215 994.609 176.876 931.033L176.9 931.057Z" fill="#B89635"/>
<path d="M388.746 929.844C388.455 876.602 344.873 833.523 291.615 833.814C288.583 833.838 285.576 834.008 282.641 834.299C282.204 835.245 281.744 836.118 281.283 837.04C281.089 837.453 280.871 837.889 280.652 838.302C279.658 840.266 278.639 842.207 277.572 844.147C276.917 845.336 276.214 846.5 275.559 847.689L274.613 849.265C273.886 850.478 273.182 851.715 272.431 852.928C278.591 851.351 285.042 850.502 291.663 850.478C335.779 850.211 371.842 885.892 372.085 929.966C372.133 936.588 371.357 943.064 369.829 949.249C370.945 948.522 372.085 947.843 373.249 947.139C373.904 946.727 374.583 946.339 375.286 945.926C376.353 945.296 377.42 944.665 378.487 944.034C380.452 942.919 382.465 941.827 384.478 940.784C384.817 940.614 385.133 940.445 385.448 940.275C386.418 939.79 387.364 939.28 388.358 938.819C388.625 935.86 388.722 932.876 388.722 929.844H388.746Z" fill="#B89635"/>
<path d="M295.277 798.546C293.918 804.197 292.294 809.704 290.45 815.161C290.79 815.161 291.154 815.137 291.517 815.137C355.084 814.773 407.081 866.196 407.445 929.748C407.445 930.111 407.421 930.475 407.421 930.815C412.805 928.923 418.334 927.225 423.937 925.818C421.536 856.13 364.979 800.195 295.277 798.546Z" fill="#B89635"/>
<path d="M459.055 920.36C453.986 835.391 385.303 767.498 300.297 763.374C300.2 765.072 300.079 766.746 299.958 768.419C299.667 772.276 299.303 776.133 298.77 779.941C375.893 783.288 438.246 844.996 442.491 922.058C446.056 921.549 449.645 921.112 453.283 920.797C455.199 920.627 457.115 920.457 459.055 920.336V920.36Z" fill="#B89635"/>
<path d="M639.445 1076.3C562.322 1072.93 499.944 1011.25 495.724 934.187C492.135 934.72 488.521 935.108 484.883 935.424C482.991 935.593 481.1 935.787 479.184 935.884C484.252 1020.83 552.936 1088.77 637.941 1092.87C638.014 1090.71 638.184 1088.6 638.378 1086.49C638.645 1083.07 639.009 1079.65 639.445 1076.33V1076.3Z" fill="#B89635"/>
<path d="M584.78 926.182C584.974 959.971 612.622 987.332 646.406 987.138C680.19 986.944 707.523 959.292 707.329 925.503C707.159 891.714 679.487 864.377 645.727 864.547C611.943 864.741 584.61 892.393 584.78 926.182ZM690.716 925.6C690.861 950.22 670.95 970.352 646.309 970.498C621.693 970.619 601.563 950.729 601.418 926.109C601.296 901.489 621.183 881.308 645.824 881.187C670.416 881.041 690.57 900.98 690.716 925.6Z" fill="#B89635"/>
<path d="M566.105 926.279C566.057 919.657 566.857 913.205 568.361 907.02C567.197 907.771 565.984 908.475 564.771 909.203C564.213 909.542 563.656 909.882 563.098 910.221C561.958 910.901 560.818 911.604 559.654 912.259C557.738 913.326 555.774 914.418 553.785 915.436C553.421 915.655 553.033 915.849 552.645 916.043C551.699 916.479 550.802 916.989 549.88 917.45C549.613 920.409 549.468 923.392 549.468 926.424C549.759 979.691 593.341 1022.77 646.624 1022.45C649.631 1022.45 652.614 1022.29 655.573 1021.97C656.01 1021 656.519 1020.03 657.004 1019.06C657.15 1018.77 657.295 1018.43 657.465 1018.11C658.508 1016.05 659.575 1014.04 660.69 1012.02C661.273 1010.98 661.855 1009.94 662.461 1008.9C662.897 1008.17 663.334 1007.44 663.77 1006.69C664.425 1005.57 665.056 1004.46 665.759 1003.34C659.599 1004.92 653.148 1005.79 646.527 1005.84C602.411 1006.11 566.348 970.425 566.105 926.303V926.279Z" fill="#B89635"/>
<path d="M530.793 926.497C530.793 926.133 530.793 925.77 530.793 925.43C525.409 927.322 519.88 929.02 514.277 930.451C516.678 1000.11 573.26 1056.05 642.938 1057.67C644.296 1052.05 645.921 1046.52 647.764 1041.06C647.4 1041.08 647.06 1041.11 646.697 1041.11C583.155 1041.47 531.109 990.049 530.769 926.473L530.793 926.497Z" fill="#B89635"/>
<path d="M742.64 925.284C742.349 872.042 698.767 828.963 645.508 829.254C642.477 829.278 639.469 829.448 636.535 829.739C636.098 830.685 635.637 831.559 635.177 832.48C634.983 832.893 634.764 833.329 634.546 833.741C633.552 835.706 632.533 837.647 631.466 839.587C630.811 840.776 630.108 841.94 629.453 843.129L628.507 844.705C627.78 845.918 627.076 847.155 626.324 848.368C632.485 846.791 638.936 845.942 645.557 845.918C689.672 845.651 725.736 881.332 725.978 925.406C726.027 932.028 725.251 938.504 723.723 944.689C724.839 943.962 725.978 943.283 727.143 942.579C727.797 942.167 728.477 941.779 729.18 941.366C730.247 940.736 731.314 940.105 732.381 939.474C734.346 938.359 736.359 937.267 738.372 936.224C738.711 936.054 739.026 935.884 739.342 935.715C740.312 935.23 741.258 934.72 742.252 934.259C742.519 931.3 742.616 928.316 742.616 925.284H742.64Z" fill="#B89635"/>
<path d="M649.17 793.986C647.812 799.637 646.187 805.144 644.344 810.601C644.683 810.601 645.047 810.577 645.411 810.577C708.977 810.213 760.975 861.636 761.339 925.187C761.339 925.551 761.314 925.915 761.314 926.255C766.698 924.363 772.228 922.665 777.83 921.258C775.429 851.57 718.872 795.635 649.17 793.986Z" fill="#B89635"/>
<path d="M812.949 915.8C807.88 830.831 739.197 762.938 654.191 758.814C654.094 760.512 653.973 762.186 653.851 763.859C653.56 767.716 653.197 771.573 652.663 775.381C729.786 778.728 792.14 840.436 796.384 917.498C799.949 916.989 803.539 916.552 807.177 916.237C809.092 916.067 811.008 915.897 812.949 915.776V915.8Z" fill="#B89635"/>
<path d="M319.407 749.766C322.778 672.632 384.453 610.245 461.503 606.024C460.97 602.434 460.582 598.82 460.267 595.182C460.097 593.29 459.903 591.398 459.806 589.481C374.873 594.551 306.941 663.245 302.843 748.263C305.001 748.335 307.111 748.505 309.221 748.699C312.641 748.966 316.06 749.33 319.383 749.766H319.407Z" fill="#B89635"/>
<path d="M469.507 695.117C435.723 695.312 408.366 722.964 408.56 756.752C408.754 790.541 436.402 817.878 470.185 817.684C503.969 817.514 531.302 789.838 531.132 756.073C530.938 722.284 503.29 694.948 469.507 695.117ZM470.089 801.069C445.472 801.214 425.342 781.3 425.197 756.655C425.076 732.035 444.963 711.903 469.579 711.757C494.196 711.636 514.374 731.526 514.495 756.17C514.641 780.766 494.705 800.923 470.089 801.069Z" fill="#B89635"/>
<path d="M469.41 676.416C476.031 676.367 482.482 677.168 488.666 678.671C487.914 677.507 487.211 676.294 486.483 675.082C486.144 674.524 485.804 673.966 485.465 673.408C484.786 672.268 484.082 671.128 483.428 669.964C482.36 668.047 481.269 666.082 480.25 664.093C480.032 663.73 479.838 663.342 479.644 662.953C479.208 662.007 478.698 661.11 478.237 660.188C475.279 659.921 472.296 659.776 469.264 659.776C416.005 660.067 372.933 703.655 373.248 756.946C373.248 759.954 373.418 762.938 373.733 765.897C374.703 766.333 375.673 766.843 376.643 767.328C376.934 767.473 377.274 767.619 377.589 767.789C379.651 768.832 381.663 769.899 383.676 771.015C384.719 771.597 385.762 772.179 386.805 772.785C387.533 773.222 388.26 773.659 389.012 774.095C390.128 774.75 391.243 775.381 392.359 776.084C390.782 769.923 389.909 763.471 389.861 756.849C389.594 712.727 425.27 676.658 469.385 676.416H469.41Z" fill="#B89635"/>
<path d="M469.192 641.123C469.555 641.123 469.919 641.123 470.259 641.123C468.367 635.738 466.669 630.208 465.238 624.604C395.585 627.006 339.658 683.596 338.033 753.284C343.66 754.642 349.189 756.267 354.646 758.111C354.622 757.747 354.598 757.407 354.598 757.043C354.234 693.492 405.65 641.438 469.216 641.099L469.192 641.123Z" fill="#B89635"/>
<path d="M470.428 853.001C523.663 852.71 566.736 809.121 566.445 755.855C566.42 752.823 566.251 749.815 565.96 746.88C565.014 746.443 564.141 745.983 563.219 745.522C562.807 745.328 562.37 745.109 561.958 744.891C559.993 743.896 558.053 742.878 556.113 741.811C554.925 741.156 553.761 740.452 552.572 739.797L550.996 738.851C549.783 738.123 548.546 737.42 547.333 736.668C548.91 742.829 549.759 749.281 549.783 755.903C550.05 800.025 514.374 836.094 470.307 836.337C463.686 836.385 457.211 835.609 451.026 834.081C451.754 835.197 452.433 836.337 453.136 837.501C453.549 838.156 453.937 838.835 454.349 839.539C454.98 840.606 455.61 841.673 456.241 842.741C457.356 844.705 458.448 846.718 459.491 848.732C459.66 849.071 459.83 849.387 460 849.702C460.485 850.672 460.994 851.618 461.455 852.613C464.414 852.88 467.397 852.977 470.428 852.977V853.001Z" fill="#B89635"/>
<path d="M601.683 759.518C596.032 758.159 590.527 756.534 585.07 754.691C585.07 755.03 585.094 755.394 585.094 755.758C585.458 819.333 534.043 871.339 470.501 871.703C470.137 871.703 469.773 871.678 469.434 871.678C471.325 877.063 473.023 882.594 474.43 888.197C544.107 885.795 600.034 829.23 601.683 759.518Z" fill="#B89635"/>
<path d="M479.912 923.32C564.869 918.25 632.752 849.557 636.875 764.539C635.177 764.442 633.504 764.32 631.83 764.199C627.974 763.908 624.118 763.544 620.31 763.01C616.963 840.145 555.264 902.508 478.214 906.753C478.723 910.318 479.16 913.908 479.475 917.547C479.645 919.463 479.815 921.379 479.936 923.32H479.912Z" fill="#B89635"/>
<path d="M646.067 430.676C723.19 434.048 785.568 495.731 789.788 572.793C793.377 572.26 796.991 571.872 800.629 571.556C802.52 571.386 804.412 571.192 806.328 571.095C801.259 486.15 732.576 418.208 647.57 414.109C647.498 416.268 647.328 418.378 647.134 420.489C646.867 423.909 646.503 427.329 646.067 430.652V430.676Z" fill="#B89635"/>
<path d="M700.708 580.798C700.514 547.009 672.866 519.648 639.082 519.842C605.298 520.036 577.965 547.688 578.159 581.477C578.329 615.266 606.001 642.602 639.761 642.433C673.545 642.239 700.878 614.587 700.708 580.798ZM594.772 581.38C594.627 556.76 614.538 536.627 639.179 536.482C663.795 536.36 683.925 556.25 684.07 580.87C684.192 605.49 664.305 625.672 639.664 625.793C615.072 625.938 594.918 606 594.772 581.38Z" fill="#B89635"/>
<path d="M719.407 580.701C719.455 587.323 718.655 593.775 717.151 599.96C718.316 599.208 719.528 598.505 720.741 597.777C721.299 597.438 721.856 597.098 722.414 596.758C723.554 596.079 724.694 595.376 725.858 594.721C727.774 593.654 729.739 592.562 731.727 591.543C732.091 591.325 732.479 591.131 732.867 590.937C733.813 590.5 734.71 589.991 735.632 589.53C735.899 586.571 736.044 583.587 736.044 580.555C735.753 527.289 692.171 484.21 638.888 484.525C635.881 484.525 632.898 484.695 629.939 485.01C629.503 485.98 628.993 486.95 628.508 487.921C628.363 488.212 628.217 488.551 628.047 488.867C627.004 490.928 625.937 492.942 624.822 494.955C624.24 495.998 623.658 497.041 623.051 498.084C622.615 498.812 622.178 499.54 621.742 500.291C621.087 501.407 620.456 502.523 619.753 503.639C625.913 502.062 632.364 501.189 638.985 501.14C683.101 500.874 719.164 536.555 719.407 580.677V580.701Z" fill="#B89635"/>
<path d="M754.694 580.483C754.694 580.846 754.694 581.21 754.694 581.55C760.078 579.658 765.608 577.96 771.21 576.529C768.809 506.865 712.228 450.93 642.55 449.305C641.192 454.932 639.567 460.463 637.724 465.92C638.088 465.896 638.427 465.872 638.791 465.872C702.333 465.508 754.379 516.931 754.718 580.507L754.694 580.483Z" fill="#B89635"/>
<path d="M542.847 581.695C543.138 634.938 586.72 678.017 639.979 677.725C643.011 677.701 646.018 677.532 648.953 677.24C649.389 676.294 649.85 675.421 650.311 674.5C650.505 674.087 650.723 673.65 650.941 673.238C651.936 671.273 652.954 669.333 654.022 667.392C654.676 666.204 655.38 665.04 656.034 663.851L656.98 662.274C657.708 661.061 658.411 659.824 659.163 658.612C653.003 660.188 646.552 661.037 639.931 661.061C595.815 661.328 559.751 625.648 559.509 581.574C559.46 574.952 560.237 568.476 561.764 562.29C560.649 563.018 559.509 563.697 558.345 564.401C557.69 564.813 557.011 565.201 556.308 565.613C555.24 566.244 554.173 566.875 553.106 567.505C551.142 568.621 549.129 569.713 547.116 570.756C546.776 570.925 546.461 571.095 546.146 571.265C545.176 571.75 544.23 572.26 543.236 572.72C542.969 575.68 542.872 578.663 542.872 581.695H542.847Z" fill="#B89635"/>
<path d="M636.317 712.994C637.676 707.343 639.301 701.836 641.144 696.379C640.804 696.379 640.441 696.403 640.077 696.403C576.511 696.767 524.513 645.344 524.149 581.792C524.149 581.429 524.173 581.065 524.173 580.725C518.789 582.617 513.26 584.315 507.657 585.722C510.058 655.41 566.615 711.345 636.317 712.994Z" fill="#B89635"/>
<path d="M472.539 591.179C477.608 676.149 546.291 744.042 631.297 748.166C631.394 746.468 631.515 744.794 631.636 743.12C631.927 739.264 632.291 735.407 632.825 731.599C555.701 728.251 493.348 666.543 489.104 589.481C485.539 589.991 481.949 590.427 478.311 590.743C476.395 590.913 474.479 591.082 472.539 591.204V591.179Z" fill="#B89635"/>
<path d="M643.471 76.9237C720.594 80.2953 782.972 141.979 787.192 219.041C790.781 218.507 794.395 218.119 798.033 217.804C799.925 217.634 801.816 217.44 803.732 217.343C798.663 132.398 729.98 64.456 644.974 60.3567C644.902 62.5155 644.732 64.6258 644.538 66.7361C644.271 70.1562 643.907 73.5763 643.471 76.8994V76.9237Z" fill="#B89635"/>
<path d="M698.136 227.045C697.942 193.256 670.294 165.895 636.51 166.089C602.727 166.283 575.394 193.936 575.588 227.724C575.758 261.513 603.43 288.85 637.19 288.68C670.973 288.486 698.306 260.834 698.136 227.045ZM592.201 227.627C592.055 203.007 611.967 182.875 636.608 182.729C661.224 182.608 681.354 202.498 681.499 227.118C681.62 251.738 661.733 271.919 637.092 272.041C612.5 272.186 592.346 252.248 592.201 227.627Z" fill="#B89635"/>
<path d="M716.811 226.948C716.86 233.57 716.059 240.022 714.556 246.208C715.72 245.456 716.933 244.752 718.145 244.025C718.703 243.685 719.261 243.346 719.819 243.006C720.959 242.327 722.098 241.623 723.263 240.968C725.178 239.901 727.143 238.81 729.132 237.791C729.495 237.573 729.884 237.379 730.272 237.185C731.217 236.748 732.115 236.238 733.036 235.778C733.303 232.818 733.449 229.835 733.449 226.803C733.158 173.536 689.576 130.457 636.293 130.772C633.285 130.772 630.302 130.942 627.343 131.258C626.907 132.228 626.397 133.198 625.912 134.168C625.767 134.459 625.621 134.799 625.452 135.114C624.409 137.176 623.342 139.189 622.226 141.203C621.644 142.246 621.062 143.289 620.456 144.332C620.019 145.059 619.583 145.787 619.146 146.539C618.491 147.655 617.861 148.771 617.157 149.886C623.317 148.31 629.769 147.437 636.39 147.388C680.505 147.121 716.569 182.802 716.811 226.924V226.948Z" fill="#B89635"/>
<path d="M752.123 226.73C752.123 227.094 752.123 227.458 752.123 227.797C757.507 225.905 763.036 224.207 768.639 222.776C766.238 153.112 709.656 97.1777 639.979 95.5525C638.62 101.18 636.996 106.71 635.152 112.168C635.516 112.144 635.856 112.119 636.219 112.119C699.761 111.756 751.807 163.179 752.147 226.754L752.123 226.73Z" fill="#B89635"/>
<path d="M540.276 227.943C540.567 281.185 584.149 324.264 637.408 323.973C640.44 323.949 643.447 323.779 646.382 323.488C646.818 322.542 647.279 321.669 647.74 320.747C647.934 320.335 648.152 319.898 648.37 319.486C649.365 317.521 650.383 315.581 651.451 313.64C652.105 312.451 652.809 311.287 653.463 310.099L654.409 308.522C655.137 307.309 655.84 306.072 656.592 304.859C650.432 306.436 643.981 307.285 637.36 307.309C593.244 307.576 557.18 271.895 556.938 227.822C556.889 221.2 557.665 214.723 559.193 208.538C558.078 209.266 556.938 209.945 555.774 210.648C555.119 211.061 554.44 211.449 553.737 211.861C552.669 212.492 551.602 213.122 550.535 213.753C548.571 214.869 546.558 215.96 544.545 217.003C544.205 217.173 543.89 217.343 543.575 217.513C542.605 217.998 541.659 218.507 540.664 218.968C540.398 221.927 540.301 224.911 540.301 227.943H540.276Z" fill="#B89635"/>
<path d="M633.745 359.242C635.103 353.59 636.728 348.084 638.572 342.626C638.232 342.626 637.868 342.651 637.504 342.651C573.938 343.014 521.941 291.591 521.577 228.04C521.577 227.676 521.601 227.312 521.601 226.973C516.217 228.865 510.687 230.563 505.085 231.969C507.486 301.658 564.043 357.592 633.745 359.242Z" fill="#B89635"/>
<path d="M469.943 237.427C475.012 322.396 543.696 390.29 628.701 394.413C628.798 392.715 628.919 391.041 629.041 389.368C629.332 385.511 629.696 381.654 630.229 377.846C553.106 374.499 490.752 312.791 486.508 235.729C482.943 236.238 479.353 236.675 475.715 236.99C473.8 237.16 471.884 237.33 469.943 237.451V237.427Z" fill="#B89635"/>
<path d="M297.071 80.9744C374.194 84.346 436.572 146.03 440.792 223.092C444.381 222.558 447.995 222.17 451.633 221.855C453.524 221.685 455.416 221.491 457.332 221.394C452.263 136.448 383.58 68.5068 298.574 64.4075C298.501 66.5663 298.332 68.6766 298.138 70.7869C297.871 74.207 297.507 77.6271 297.071 80.9502V80.9744Z" fill="#B89635"/>
<path d="M351.712 231.096C351.518 197.307 323.87 169.946 290.086 170.14C256.302 170.334 228.969 197.986 229.163 231.775C229.333 265.564 257.005 292.901 290.765 292.731C324.549 292.537 351.881 264.885 351.712 231.096ZM245.776 231.678C245.631 207.058 265.542 186.926 290.183 186.78C314.799 186.659 334.929 206.549 335.074 231.169C335.196 255.789 315.309 275.97 290.668 276.091C266.076 276.237 245.922 256.298 245.776 231.678Z" fill="#B89635"/>
<path d="M370.411 230.999C370.459 237.621 369.659 244.073 368.155 250.259C369.32 249.507 370.532 248.803 371.745 248.075C372.303 247.736 372.86 247.396 373.418 247.057C374.558 246.378 375.698 245.674 376.862 245.019C378.778 243.952 380.743 242.86 382.731 241.842C383.095 241.623 383.483 241.429 383.871 241.235C384.817 240.799 385.714 240.289 386.636 239.828C386.903 236.869 387.048 233.886 387.048 230.854C386.757 177.587 343.175 134.508 289.892 134.823C286.885 134.823 283.902 134.993 280.943 135.308C280.506 136.279 279.997 137.249 279.512 138.219C279.367 138.51 279.221 138.85 279.051 139.165C278.008 141.227 276.941 143.24 275.826 145.253C275.244 146.296 274.662 147.339 274.055 148.382C273.619 149.11 273.182 149.838 272.746 150.59C272.091 151.706 271.46 152.821 270.757 153.937C276.917 152.361 283.368 151.487 289.989 151.439C334.105 151.172 370.168 186.853 370.411 230.975V230.999Z" fill="#B89635"/>
<path d="M405.698 230.781C405.698 231.145 405.698 231.508 405.698 231.848C411.082 229.956 416.612 228.258 422.214 226.827C419.813 157.163 363.232 101.228 293.554 99.6033C292.196 105.231 290.571 110.761 288.728 116.219C289.091 116.194 289.431 116.17 289.795 116.17C353.337 115.806 405.383 167.23 405.722 230.805L405.698 230.781Z" fill="#B89635"/>
<path d="M193.851 232.018C194.142 285.26 237.724 328.339 290.983 328.048C294.015 328.024 297.022 327.854 299.957 327.563C300.393 326.617 300.854 325.744 301.315 324.822C301.509 324.41 301.727 323.973 301.945 323.561C302.94 321.596 303.958 319.655 305.025 317.715C305.68 316.526 306.384 315.362 307.038 314.174L307.984 312.597C308.712 311.384 309.415 310.147 310.167 308.934C304.007 310.511 297.556 311.36 290.935 311.384C246.819 311.651 210.755 275.97 210.513 231.896C210.464 225.274 211.24 218.798 212.768 212.613C211.653 213.34 210.513 214.02 209.349 214.723C208.694 215.135 208.015 215.524 207.312 215.936C206.244 216.567 205.177 217.197 204.11 217.828C202.146 218.944 200.133 220.035 198.12 221.078C197.78 221.248 197.465 221.418 197.15 221.588C196.18 222.073 195.234 222.582 194.239 223.043C193.973 226.002 193.876 228.986 193.876 232.018H193.851Z" fill="#B89635"/>
<path d="M287.321 363.317C288.68 357.665 290.304 352.159 292.148 346.701C291.808 346.701 291.444 346.725 291.081 346.725C227.514 347.089 175.517 295.666 175.153 232.115C175.153 231.751 175.177 231.387 175.177 231.048C169.793 232.94 164.263 234.638 158.661 236.044C161.062 305.732 217.619 361.667 287.321 363.317Z" fill="#B89635"/>
<path d="M123.543 241.502C128.612 326.472 197.295 394.365 282.301 398.488C282.398 396.79 282.519 395.117 282.64 393.443C282.931 389.586 283.295 385.73 283.829 381.921C206.705 378.574 144.352 316.866 140.107 239.804C136.542 240.314 132.953 240.75 129.315 241.065C127.399 241.235 125.483 241.405 123.543 241.526V241.502Z" fill="#B89635"/>
<path d="M-57.8672 436.789C19.2562 440.16 81.634 501.844 85.854 578.906C89.4433 578.372 93.057 577.984 96.6949 577.669C98.5866 577.499 100.478 577.305 102.394 577.208C97.3255 492.263 28.642 424.321 -56.3635 420.222C-56.4363 422.38 -56.606 424.491 -56.8001 426.601C-57.0668 430.021 -57.4306 433.441 -57.8672 436.764V436.789Z" fill="#B89635"/>
<path d="M15.4735 586.813C15.522 593.435 14.7216 599.887 13.2179 606.073C14.3821 605.321 15.5947 604.617 16.8074 603.89C17.3652 603.55 17.923 603.211 18.4808 602.871C19.6207 602.192 20.7605 601.488 21.9246 600.834C23.8406 599.766 25.8051 598.675 27.7938 597.656C28.1576 597.438 28.5456 597.244 28.9337 597.05C29.8795 596.613 30.7768 596.104 31.6984 595.643C31.9652 592.683 32.1108 589.7 32.1108 586.668C31.8197 533.401 -11.7623 490.322 -65.0453 490.637C-68.0526 490.637 -71.0357 490.807 -73.9945 491.123C-74.4311 492.093 -74.9404 493.063 -75.4254 494.033C-75.5709 494.324 -75.7165 494.664 -75.8862 494.979C-76.9291 497.041 -77.9962 499.054 -79.1118 501.068C-79.6939 502.111 -80.276 503.154 -80.8823 504.197C-81.3188 504.924 -81.7554 505.652 -82.1919 506.404C-82.8468 507.52 -83.4773 508.636 -84.1807 509.751C-78.0205 508.175 -71.5692 507.302 -64.9483 507.253C-20.8327 506.986 15.231 542.667 15.4735 586.789V586.813Z" fill="#B89635"/>
<path d="M50.7849 586.595C50.7849 586.959 50.7849 587.323 50.7849 587.662C56.169 585.77 61.6986 584.072 67.301 582.641C64.9 512.977 8.31853 457.043 -61.3593 455.417C-62.7174 461.045 -64.3423 466.575 -66.1855 472.033C-65.8218 472.009 -65.4822 471.984 -65.1184 471.984C-1.57652 471.621 50.4696 523.044 50.8092 586.619L50.7849 586.595Z" fill="#B89635"/>
<path d="M305.171 436.376C382.294 439.748 444.672 501.431 448.892 578.493C452.481 577.96 456.095 577.572 459.733 577.256C461.625 577.087 463.516 576.893 465.432 576.795C460.364 491.85 391.68 423.909 306.675 419.809C306.602 421.968 306.432 424.078 306.238 426.189C305.971 429.609 305.607 433.029 305.171 436.352V436.376Z" fill="#B89635"/>
<path d="M359.812 586.498C359.618 552.709 331.97 525.348 298.186 525.542C264.402 525.736 237.07 553.388 237.264 587.177C237.433 620.966 265.106 648.303 298.865 648.133C332.649 647.939 359.982 620.287 359.812 586.498ZM253.877 587.08C253.731 562.46 273.643 542.327 298.283 542.182C322.9 542.06 343.03 561.951 343.175 586.571C343.296 611.191 323.409 631.372 298.768 631.493C274.176 631.639 254.022 611.7 253.877 587.08Z" fill="#B89635"/>
<path d="M378.511 586.401C378.56 593.023 377.76 599.475 376.256 605.66C377.42 604.908 378.633 604.205 379.845 603.477C380.403 603.138 380.961 602.798 381.519 602.458C382.659 601.779 383.799 601.076 384.963 600.421C386.879 599.354 388.843 598.262 390.832 597.243C391.196 597.025 391.584 596.831 391.972 596.637C392.918 596.2 393.815 595.691 394.737 595.23C395.003 592.271 395.149 589.287 395.149 586.255C394.858 532.989 351.276 489.91 297.993 490.225C294.985 490.225 292.002 490.395 289.044 490.71C288.607 491.68 288.098 492.651 287.613 493.621C287.467 493.912 287.322 494.251 287.152 494.567C286.109 496.629 285.042 498.642 283.926 500.655C283.344 501.698 282.762 502.741 282.156 503.784C281.719 504.512 281.283 505.239 280.846 505.991C280.191 507.107 279.561 508.223 278.857 509.339C285.018 507.762 291.469 506.889 298.09 506.84C342.205 506.574 378.269 542.254 378.511 586.377V586.401Z" fill="#B89635"/>
<path d="M413.823 586.183C413.823 586.547 413.823 586.91 413.823 587.25C419.207 585.358 424.737 583.66 430.339 582.229C427.938 512.565 371.357 456.63 301.679 455.005C300.321 460.633 298.696 466.163 296.853 471.621C297.216 471.596 297.556 471.572 297.92 471.572C361.462 471.208 413.508 522.632 413.847 586.207L413.823 586.183Z" fill="#B89635"/>
<path d="M201.977 587.395C202.268 640.638 245.85 683.717 299.108 683.426C302.14 683.402 305.147 683.232 308.082 682.941C308.518 681.995 308.979 681.121 309.44 680.2C309.634 679.787 309.852 679.351 310.071 678.938C311.065 676.974 312.084 675.033 313.151 673.093C313.805 671.904 314.509 670.74 315.164 669.551L316.109 667.975C316.837 666.762 317.54 665.525 318.292 664.312C312.132 665.889 305.681 666.738 299.06 666.762C254.944 667.029 218.881 631.348 218.638 587.274C218.59 580.652 219.366 574.176 220.894 567.99C219.778 568.718 218.638 569.397 217.474 570.101C216.819 570.513 216.14 570.901 215.437 571.314C214.37 571.944 213.302 572.575 212.235 573.206C210.271 574.321 208.258 575.413 206.245 576.456C205.905 576.626 205.59 576.796 205.275 576.965C204.305 577.45 203.359 577.96 202.365 578.421C202.098 581.38 202.001 584.363 202.001 587.395H201.977Z" fill="#B89635"/>
<path d="M295.422 718.694C296.78 713.043 298.405 707.537 300.248 702.079C299.909 702.079 299.545 702.103 299.181 702.103C235.615 702.467 183.617 651.044 183.254 587.493C183.254 587.129 183.278 586.765 183.278 586.425C177.894 588.317 172.364 590.015 166.762 591.422C169.163 661.11 225.72 717.045 295.422 718.694Z" fill="#B89635"/>
<path d="M131.644 596.88C136.712 681.849 205.396 749.742 290.401 753.866C290.498 752.168 290.62 750.494 290.741 748.82C291.032 744.964 291.396 741.107 291.929 737.299C214.806 733.951 152.452 672.244 148.208 595.182C144.643 595.691 141.054 596.128 137.416 596.443C135.5 596.613 133.584 596.782 131.644 596.904V596.88Z" fill="#B89635"/>
<path d="M264.014 764.732C260.643 841.867 198.969 904.254 121.918 908.475C122.452 912.065 122.84 915.679 123.155 919.317C123.325 921.209 123.519 923.101 123.616 925.017C208.548 919.948 276.48 851.254 280.579 766.236C278.42 766.164 276.31 765.994 274.2 765.8C270.781 765.533 267.361 765.169 264.038 764.732H264.014Z" fill="#B89635"/>
<path d="M113.914 819.406C147.698 819.212 175.055 791.56 174.861 757.771C174.667 723.982 147.019 696.645 113.235 696.839C79.4509 697.009 52.1181 724.686 52.2879 758.45C52.4819 792.239 80.1299 819.576 113.914 819.406ZM113.332 713.455C137.948 713.309 158.078 733.224 158.223 757.868C158.345 782.488 138.458 802.621 113.841 802.766C89.2247 802.888 69.0464 782.998 68.9252 758.353C68.7797 733.757 88.7153 713.601 113.332 713.455Z" fill="#B89635"/>
<path d="M114.011 838.083C107.39 838.132 100.939 837.331 94.7548 835.827C95.5066 836.992 96.21 838.205 96.9376 839.417C97.2771 839.975 97.6166 840.533 97.9561 841.091C98.6352 842.231 99.3385 843.371 99.9933 844.535C101.06 846.452 102.152 848.416 103.17 850.405C103.389 850.769 103.583 851.157 103.777 851.546C104.213 852.492 104.723 853.389 105.183 854.311C108.142 854.578 111.125 854.723 114.157 854.723C167.416 854.432 210.488 810.844 210.173 757.553C210.173 754.545 210.003 751.561 209.688 748.602C208.718 748.166 207.748 747.656 206.778 747.171C206.487 747.025 206.147 746.88 205.832 746.71C203.77 745.667 201.757 744.6 199.744 743.484C198.702 742.902 197.659 742.32 196.616 741.713C195.888 741.277 195.161 740.84 194.409 740.404C193.293 739.749 192.178 739.118 191.062 738.415C192.638 744.576 193.512 751.028 193.56 757.65C193.827 801.772 158.151 837.841 114.036 838.083H114.011Z" fill="#B89635"/>
<path d="M114.229 873.4C113.865 873.4 113.502 873.4 113.162 873.4C115.054 878.785 116.751 884.316 118.182 889.919C187.836 887.517 243.763 830.928 245.387 761.24C239.761 759.881 234.231 758.256 228.774 756.413C228.799 756.776 228.823 757.116 228.823 757.48C229.187 821.031 177.771 873.085 114.205 873.425L114.229 873.4Z" fill="#B89635"/>
<path d="M112.992 661.522C59.7577 661.814 16.685 705.402 16.9761 758.669C17.0003 761.701 17.1701 764.708 17.4611 767.643C18.4069 768.08 19.28 768.541 20.2016 769.002C20.6139 769.196 21.0505 769.414 21.4628 769.632C23.4273 770.627 25.3674 771.646 27.3076 772.713C28.496 773.368 29.6602 774.071 30.8486 774.726L32.425 775.672C33.6376 776.4 34.8745 777.103 36.0872 777.855C34.5107 771.694 33.6619 765.242 33.6376 758.62C33.3708 714.498 69.0464 678.429 113.113 678.186C119.734 678.138 126.21 678.914 132.394 680.442C131.667 679.326 130.988 678.187 130.284 677.022C129.872 676.367 129.484 675.688 129.072 674.985C128.441 673.917 127.811 672.85 127.18 671.783C126.064 669.818 124.973 667.805 123.93 665.792C123.76 665.452 123.591 665.137 123.421 664.821C122.936 663.851 122.426 662.905 121.966 661.911C119.007 661.644 116.024 661.547 112.992 661.547V661.522Z" fill="#B89635"/>
<path d="M-18.2625 755.006C-12.6116 756.364 -7.1063 757.989 -1.64945 759.833C-1.64945 759.493 -1.67366 759.129 -1.67366 758.765C-2.03745 695.19 49.3781 643.185 112.92 642.821C113.284 642.821 113.648 642.845 113.987 642.845C112.095 637.46 110.398 631.93 108.991 626.326C39.3133 628.728 -16.6133 685.293 -18.2625 755.006Z" fill="#B89635"/>
<path d="M103.51 591.179C18.5529 596.249 -49.3302 664.942 -53.4531 749.96C-51.7554 750.057 -50.082 750.179 -48.4086 750.3C-44.5524 750.591 -40.6963 750.955 -36.8886 751.489C-33.5417 674.354 28.157 611.991 105.208 607.746C104.698 604.181 104.262 600.591 103.946 596.952C103.777 595.036 103.607 593.12 103.486 591.179H103.51Z" fill="#B89635"/>
<path d="M271.945 420.731C268.574 497.866 206.899 560.253 129.849 564.473C130.382 568.063 130.77 571.677 131.085 575.316C131.255 577.208 131.449 579.1 131.546 581.016C216.479 575.946 284.411 507.253 288.509 422.235C286.351 422.162 284.241 421.992 282.131 421.798C278.711 421.531 275.292 421.168 271.969 420.731H271.945Z" fill="#B89635"/>
<path d="M121.845 475.405C155.629 475.21 182.986 447.558 182.792 413.77C182.598 379.981 154.95 352.644 121.166 352.838C87.3825 353.008 60.0498 380.684 60.2195 414.449C60.4136 448.238 88.0616 475.574 121.845 475.405ZM121.263 369.453C145.88 369.308 166.01 389.222 166.155 413.867C166.276 438.487 146.389 458.619 121.773 458.765C97.1563 458.886 76.9781 438.996 76.8569 414.352C76.7114 389.756 96.647 369.599 121.263 369.453Z" fill="#B89635"/>
<path d="M121.942 494.082C115.321 494.13 108.87 493.33 102.686 491.826C103.438 492.99 104.141 494.203 104.868 495.416C105.208 495.974 105.547 496.532 105.887 497.09C106.566 498.23 107.269 499.37 107.924 500.534C108.991 502.45 110.083 504.415 111.101 506.404C111.32 506.768 111.514 507.156 111.708 507.544C112.144 508.49 112.653 509.388 113.114 510.309C116.073 510.576 119.056 510.722 122.088 510.722C175.347 510.431 218.419 466.842 218.104 413.551C218.104 410.543 217.934 407.56 217.619 404.601C216.649 404.164 215.679 403.655 214.709 403.17C214.418 403.024 214.078 402.879 213.763 402.709C211.701 401.666 209.688 400.598 207.675 399.483C206.632 398.9 205.59 398.318 204.547 397.712C203.819 397.275 203.092 396.839 202.34 396.402C201.224 395.747 200.108 395.117 198.993 394.413C200.569 400.574 201.442 407.026 201.491 413.648C201.758 457.77 166.082 493.839 121.966 494.082H121.942Z" fill="#B89635"/>
<path d="M122.161 529.399C121.797 529.399 121.433 529.399 121.094 529.399C122.985 534.784 124.683 540.314 126.114 545.917C195.768 543.516 251.694 486.926 253.319 417.238C247.692 415.88 242.163 414.255 236.706 412.411C236.73 412.775 236.755 413.115 236.755 413.478C237.118 477.03 185.703 529.084 122.137 529.423L122.161 529.399Z" fill="#B89635"/>
<path d="M120.948 317.521C67.7138 317.812 24.6411 361.4 24.9321 414.667C24.9564 417.699 25.1261 420.707 25.4171 423.642C26.363 424.079 27.2361 424.539 28.1577 425C28.57 425.194 29.0066 425.413 29.4189 425.631C31.3833 426.625 33.3235 427.644 35.2637 428.711C36.4521 429.366 37.6163 430.07 38.8046 430.725L40.381 431.671C41.5937 432.398 42.8306 433.102 44.0432 433.854C42.4668 427.693 41.6179 421.241 41.5937 414.619C41.3269 370.497 77.0025 334.428 121.07 334.185C127.691 334.136 134.166 334.913 140.35 336.441C139.623 335.325 138.944 334.185 138.24 333.021C137.828 332.366 137.44 331.687 137.028 330.983C136.397 329.916 135.767 328.849 135.136 327.781C134.02 325.817 132.929 323.803 131.886 321.79C131.716 321.45 131.547 321.135 131.377 320.82C130.892 319.85 130.383 318.904 129.922 317.909C126.963 317.642 123.98 317.545 120.948 317.545V317.521Z" fill="#B89635"/>
<path d="M-10.332 411.004C-4.68117 412.363 0.824196 413.988 6.28104 415.831C6.28104 415.492 6.25676 415.128 6.25676 414.764C5.89297 351.189 57.3086 299.183 120.85 298.819C121.214 298.819 121.578 298.844 121.918 298.844C120.026 293.459 118.328 287.928 116.922 282.325C47.2437 284.727 -8.68285 341.292 -10.332 411.004Z" fill="#B89635"/>
<path d="M111.465 247.178C26.508 252.248 -41.3751 320.941 -45.498 405.959C-43.8004 406.056 -42.127 406.177 -40.4535 406.299C-36.5974 406.59 -32.7412 406.954 -28.9335 407.487C-25.5867 330.353 36.1121 267.99 113.163 263.745C112.653 260.179 112.217 256.589 111.902 252.951C111.732 251.035 111.562 249.118 111.441 247.178H111.465Z" fill="#B89635"/>
<path d="M-114.715 240.119C-114.521 273.908 -86.873 301.269 -53.0891 301.075C-19.3052 300.881 8.02756 273.229 7.83353 239.44C7.66376 205.651 -20.0085 178.314 -53.7681 178.484C-87.5521 178.678 -114.885 206.33 -114.715 240.119ZM-8.77946 239.537C-8.63395 264.157 -28.5454 284.29 -53.1861 284.435C-77.8025 284.557 -97.9322 264.666 -98.0777 240.046C-98.1989 215.426 -78.3118 195.245 -53.6711 195.124C-29.0789 194.978 -8.92498 214.917 -8.77946 239.537Z" fill="#B89635"/>
<path d="M43.1458 239.222C42.8548 185.979 -0.727165 142.9 -53.986 143.191C-57.0175 143.216 -60.0249 143.385 -62.9595 143.676C-63.396 144.622 -63.8568 145.496 -64.3176 146.417C-64.5116 146.83 -64.7298 147.266 -64.9481 147.679C-65.9425 149.643 -66.9611 151.584 -68.0283 153.524C-68.6831 154.713 -69.3864 155.877 -70.0412 157.066L-70.9871 158.643C-71.7147 159.855 -72.418 161.092 -73.1698 162.305C-67.0096 160.729 -60.5584 159.88 -53.9375 159.855C-9.82193 159.589 26.2417 195.269 26.4843 239.343C26.5328 245.965 25.7567 252.441 24.2288 258.627C25.3444 257.899 26.4843 257.22 27.6484 256.516C28.3032 256.104 28.9823 255.716 29.6856 255.304C30.7528 254.673 31.8199 254.042 32.887 253.412C34.8515 252.296 36.8644 251.204 38.8774 250.161C39.2169 249.991 39.5322 249.822 39.8475 249.652C40.8176 249.167 41.7635 248.657 42.7578 248.196C43.0246 245.237 43.1216 242.254 43.1216 239.222H43.1458Z" fill="#B89635"/>
<path d="M-50.3241 107.923C-51.6822 113.575 -53.3072 119.081 -55.1504 124.538C-54.8109 124.538 -54.4471 124.514 -54.0833 124.514C9.48289 124.15 61.4806 175.573 61.8444 239.125C61.8444 239.488 61.8201 239.852 61.8201 240.192C67.2042 238.3 72.7338 236.602 78.3361 235.195C75.9351 165.507 19.378 109.572 -50.3241 107.923Z" fill="#B89635"/>
<path d="M113.478 229.738C108.409 144.768 39.7258 76.875 -45.2797 72.7515C-45.3767 74.4494 -45.4979 76.123 -45.6192 77.7967C-45.9102 81.6535 -46.2741 85.5102 -46.8076 89.3184C30.3158 92.6658 92.6693 154.374 96.9135 231.436C100.479 230.926 104.068 230.49 107.706 230.174C109.622 230.004 111.538 229.835 113.478 229.713V229.738Z" fill="#B89635"/>
<path d="M615.897 407.706C612.526 484.84 550.851 547.227 473.801 551.448C474.334 555.038 474.722 558.652 475.038 562.29C475.207 564.182 475.401 566.074 475.498 567.991C560.431 562.921 628.363 494.227 632.461 409.209C630.303 409.137 628.193 408.967 626.083 408.773C622.663 408.506 619.244 408.142 615.921 407.706H615.897Z" fill="#B89635"/>
<path d="M465.773 462.379C499.557 462.185 526.914 434.533 526.72 400.744C526.526 366.955 498.878 339.619 465.094 339.813C431.31 339.982 403.978 367.659 404.147 401.423C404.341 435.212 431.989 462.549 465.773 462.379ZM465.191 356.428C489.808 356.282 509.937 376.197 510.083 400.841C510.204 425.461 490.317 445.594 465.7 445.739C441.084 445.861 420.906 425.971 420.785 401.326C420.639 376.73 440.575 356.574 465.191 356.428Z" fill="#B89635"/>
<path d="M465.894 481.056C459.273 481.105 452.822 480.304 446.637 478.8C447.389 479.965 448.093 481.178 448.82 482.39C449.16 482.948 449.499 483.506 449.839 484.064C450.518 485.204 451.221 486.344 451.876 487.508C452.943 489.425 454.035 491.389 455.053 493.378C455.271 493.742 455.465 494.13 455.659 494.518C456.096 495.464 456.605 496.362 457.066 497.284C460.025 497.55 463.008 497.696 466.04 497.696C519.298 497.405 562.371 453.817 562.056 400.526C562.056 397.518 561.886 394.534 561.571 391.575C560.601 391.138 559.63 390.629 558.66 390.144C558.369 389.998 558.03 389.853 557.714 389.683C555.653 388.64 553.64 387.573 551.627 386.457C550.584 385.875 549.541 385.293 548.499 384.686C547.771 384.25 547.043 383.813 546.291 383.376C545.176 382.722 544.06 382.091 542.945 381.387C544.521 387.549 545.394 394.001 545.443 400.623C545.709 444.745 510.034 480.814 465.918 481.056H465.894Z" fill="#B89635"/>
<path d="M466.088 516.373C465.725 516.373 465.361 516.373 465.021 516.373C466.913 521.758 468.611 527.289 470.042 532.892C539.695 530.491 595.622 473.901 597.247 404.213C591.62 402.854 586.091 401.229 580.634 399.386C580.658 399.75 580.682 400.089 580.682 400.453C581.046 464.004 529.63 516.058 466.064 516.398L466.088 516.373Z" fill="#B89635"/>
<path d="M464.875 304.495C411.64 304.786 368.568 348.375 368.859 401.641C368.883 404.673 369.053 407.681 369.344 410.616C370.29 411.053 371.163 411.514 372.084 411.975C372.497 412.169 372.933 412.387 373.346 412.605C375.31 413.6 377.25 414.619 379.191 415.686C380.379 416.341 381.543 417.044 382.731 417.699L384.308 418.645C385.52 419.373 386.757 420.076 387.97 420.828C386.394 414.667 385.545 408.215 385.52 401.593C385.254 357.471 420.929 321.402 464.996 321.159C471.617 321.111 478.093 321.887 484.277 323.415C483.55 322.299 482.87 321.159 482.167 319.995C481.755 319.34 481.367 318.661 480.954 317.958C480.324 316.89 479.693 315.823 479.063 314.756C477.947 312.791 476.856 310.778 475.813 308.764C475.643 308.425 475.474 308.11 475.304 307.794C474.819 306.824 474.309 305.878 473.848 304.883C470.89 304.617 467.907 304.52 464.875 304.52V304.495Z" fill="#B89635"/>
<path d="M333.596 397.955C339.247 399.313 344.752 400.938 350.209 402.782C350.209 402.442 350.185 402.078 350.185 401.714C349.821 338.139 401.237 286.133 464.778 285.77C465.142 285.77 465.506 285.794 465.846 285.794C463.954 280.409 462.256 274.879 460.85 269.275C391.172 271.677 335.245 328.242 333.596 397.955Z" fill="#B89635"/>
<path d="M455.393 234.152C370.436 239.222 302.553 307.915 298.43 392.933C300.127 393.03 301.801 393.152 303.474 393.273C307.33 393.564 311.187 393.928 314.994 394.462C318.341 317.327 380.04 254.964 457.09 250.719C456.581 247.154 456.145 243.564 455.829 239.925C455.66 238.009 455.49 236.093 455.368 234.152H455.393Z" fill="#B89635"/>
<path d="M629.817 12.3536C631.176 6.70187 632.8 1.19569 634.644 -4.26196C634.304 -4.26196 633.94 -4.23768 633.577 -4.23768C570.011 -3.87383 518.013 -55.297 517.649 -118.848C517.649 -119.212 517.673 -119.576 517.673 -119.916C512.289 -118.024 506.76 -116.326 501.157 -114.919C503.558 -45.2307 560.115 10.7041 629.817 12.3536Z" fill="#B89635"/>
<path d="M466.039 -109.461C471.108 -24.4915 539.791 43.4016 624.797 47.5252C624.894 45.8273 625.015 44.1535 625.136 42.4799C625.427 38.6231 625.791 34.7664 626.325 30.9582C549.201 27.6108 486.848 -34.097 482.604 -111.159C479.039 -110.65 475.449 -110.213 471.811 -109.898C469.895 -109.728 467.979 -109.558 466.039 -109.437V-109.461Z" fill="#B89635"/>
<path d="M283.416 16.4288C284.774 10.7771 286.399 5.27088 288.242 -0.18676C287.903 -0.18676 287.539 -0.162483 287.175 -0.162483C223.609 0.201363 171.611 -51.2218 171.248 -114.773C171.248 -115.137 171.272 -115.501 171.272 -115.84C165.888 -113.948 160.358 -112.25 154.756 -110.844C157.157 -41.1555 213.714 14.7793 283.416 16.4288Z" fill="#B89635"/>
<path d="M119.614 -105.386C124.683 -20.4165 193.367 47.4766 278.372 51.6001C278.469 49.9022 278.59 48.2285 278.712 46.5548C279.003 42.6981 279.366 38.8413 279.9 35.0331C202.777 31.6858 140.423 -30.022 136.179 -107.084C132.614 -106.575 129.024 -106.138 125.386 -105.823C123.47 -105.653 121.554 -105.483 119.614 -105.362V-105.386Z" fill="#B89635"/>
<path d="M268.041 73.8433C264.669 150.978 202.995 213.365 125.944 217.586C126.478 221.175 126.866 224.79 127.181 228.428C127.351 230.32 127.545 232.212 127.642 234.128C212.575 229.059 280.506 160.365 284.605 75.3472C282.447 75.2744 280.337 75.1046 278.227 74.9105C274.807 74.6437 271.387 74.2799 268.065 73.8433H268.041Z" fill="#B89635"/>
<path d="M117.941 128.517C151.725 128.323 179.082 100.671 178.888 66.8818C178.694 33.0929 151.046 5.7562 117.262 5.95025C83.4782 6.12004 56.1455 33.7964 56.3152 67.561C56.5093 101.35 84.1573 128.687 117.941 128.517ZM117.359 22.5658C141.976 22.4202 162.105 42.3346 162.251 66.9789C162.372 91.5989 142.485 111.732 117.868 111.877C93.252 111.998 73.0738 92.1083 72.9525 67.464C72.807 42.8682 92.7427 22.7113 117.359 22.5658Z" fill="#B89635"/>
<path d="M118.038 147.194C111.417 147.242 104.966 146.442 98.7811 144.938C99.533 146.102 100.236 147.315 100.964 148.528C101.303 149.086 101.643 149.644 101.982 150.202C102.662 151.342 103.365 152.482 104.02 153.646C105.087 155.562 106.178 157.527 107.197 159.516C107.415 159.88 107.609 160.268 107.803 160.656C108.24 161.602 108.749 162.5 109.21 163.421C112.169 163.688 115.152 163.834 118.183 163.834C171.442 163.543 214.515 119.954 214.199 66.6633C214.199 63.6555 214.03 60.672 213.714 57.7127C212.744 57.2761 211.774 56.7667 210.804 56.2816C210.513 56.1361 210.174 55.9905 209.858 55.8207C207.797 54.7777 205.784 53.7105 203.771 52.5947C202.728 52.0125 201.685 51.4304 200.642 50.824C199.915 50.3873 199.187 49.9507 198.435 49.5141C197.32 48.8592 196.204 48.2286 195.088 47.5251C196.665 53.6862 197.538 60.1384 197.586 66.7603C197.853 110.882 162.178 146.951 118.062 147.194H118.038Z" fill="#B89635"/>
<path d="M118.256 182.511C117.892 182.511 117.528 182.511 117.188 182.511C119.08 187.896 120.778 193.426 122.209 199.03C191.862 196.628 247.789 140.039 249.414 70.3505C243.787 68.9921 238.258 67.3669 232.801 65.5234C232.825 65.8873 232.849 66.2269 232.849 66.5907C233.213 130.142 181.798 182.196 118.231 182.535L118.256 182.511Z" fill="#B89635"/>
<path d="M117.019 -29.3669C63.7841 -29.0759 20.7114 14.5125 21.0024 67.7791C21.0267 70.8112 21.1964 73.819 21.4875 76.754C22.4333 77.1906 23.3064 77.6514 24.228 78.1123C24.6403 78.3064 25.0768 78.5247 25.4891 78.743C27.4536 79.7375 29.3938 80.7562 31.334 81.8235C32.5224 82.4784 33.6866 83.1819 34.875 83.8368L36.4514 84.7828C37.664 85.5104 38.9008 86.2139 40.1135 86.9658C38.537 80.8047 37.6882 74.3526 37.664 67.7306C37.3972 23.6086 73.0728 -12.4604 117.14 -12.7029C123.761 -12.7515 130.236 -11.9753 136.421 -10.4471C135.693 -11.5629 135.014 -12.7029 134.311 -13.8672C133.898 -14.5221 133.51 -15.2013 133.098 -15.9048C132.468 -16.9721 131.837 -18.0393 131.206 -19.1065C130.091 -21.0713 128.999 -23.0846 127.957 -25.0978C127.787 -25.4374 127.617 -25.7527 127.447 -26.0681C126.962 -27.0383 126.453 -27.9843 125.992 -28.9788C123.033 -29.2457 120.05 -29.3427 117.019 -29.3427V-29.3669Z" fill="#B89635"/>
<path d="M-14.2361 64.1165C-8.58522 65.4748 -3.07993 67.1 2.37691 68.9434C2.37691 68.6039 2.35271 68.24 2.35271 67.8762C1.98892 4.30064 53.4045 -47.7046 116.946 -48.0685C117.31 -48.0685 117.674 -48.0443 118.014 -48.0443C116.122 -53.4292 114.424 -58.9596 113.018 -64.5627C43.3397 -62.1614 -12.5869 -5.59586 -14.2361 64.1165Z" fill="#B89635"/>
<path d="M107.536 -99.71C22.5793 -94.6404 -45.3038 -25.9469 -49.4268 59.0711C-47.7291 59.1682 -46.0557 59.2895 -44.3822 59.4108C-40.5261 59.7018 -36.6699 60.0657 -32.8622 60.5993C-29.5154 -16.5354 32.1833 -78.8982 109.234 -83.143C108.725 -86.7087 108.288 -90.2985 107.973 -93.937C107.803 -95.8532 107.633 -97.7695 107.512 -99.71H107.536Z" fill="#B89635"/>
<path d="M611.967 60.8176C608.596 137.952 546.922 200.339 469.871 204.56C470.405 208.15 470.793 211.764 471.108 215.402C471.278 217.294 471.472 219.186 471.569 221.103C556.501 216.033 624.433 147.34 628.532 62.3215C626.373 62.2487 624.263 62.079 622.153 61.8849C618.734 61.6181 615.314 61.2542 611.991 60.8176H611.967Z" fill="#B89635"/>
<path d="M461.868 115.491C495.652 115.297 523.009 87.6448 522.815 53.8559C522.621 20.067 494.973 -7.26968 461.189 -7.07563C427.405 -6.90584 400.072 20.7705 400.242 54.5351C400.436 88.324 428.084 115.661 461.868 115.491ZM461.286 9.53988C485.902 9.39435 506.032 29.3087 506.177 53.953C506.299 78.573 486.412 98.7057 461.795 98.8512C437.179 98.9725 417.001 79.0824 416.879 54.4381C416.734 29.8423 436.669 9.68542 461.286 9.53988Z" fill="#B89635"/>
<path d="M461.965 134.168C455.344 134.217 448.892 133.416 442.708 131.912C443.46 133.077 444.163 134.29 444.891 135.502C445.23 136.06 445.57 136.618 445.909 137.176C446.588 138.316 447.292 139.456 447.947 140.62C449.014 142.537 450.105 144.501 451.124 146.49C451.342 146.854 451.536 147.242 451.73 147.63C452.167 148.576 452.676 149.474 453.137 150.396C456.096 150.663 459.079 150.808 462.11 150.808C515.369 150.517 558.442 106.929 558.126 53.6377C558.126 50.6299 557.956 47.6464 557.641 44.6871C556.671 44.2505 555.701 43.7412 554.731 43.256C554.44 43.1105 554.1 42.965 553.785 42.7952C551.724 41.7521 549.711 40.6849 547.698 39.5691C546.655 38.987 545.612 38.4048 544.569 37.7984C543.842 37.3618 543.114 36.9252 542.362 36.4885C541.246 35.8336 540.131 35.2029 539.015 34.4995C540.592 40.6606 541.465 47.1128 541.513 53.7347C541.78 97.8568 506.104 133.926 461.989 134.168H461.965Z" fill="#B89635"/>
<path d="M462.183 169.485C461.819 169.485 461.456 169.485 461.116 169.485C463.008 174.87 464.706 180.401 466.136 186.004C535.79 183.602 591.717 127.013 593.342 57.3245C587.715 55.9662 582.185 54.341 576.729 52.4976C576.753 52.8614 576.777 53.201 576.777 53.5648C577.141 117.116 525.725 169.17 462.159 169.509L462.183 169.485Z" fill="#B89635"/>
<path d="M460.97 -42.3926C407.735 -42.1015 364.663 1.48687 364.954 54.7535C364.978 57.7855 365.148 60.7933 365.439 63.7283C366.385 64.1649 367.258 64.6258 368.179 65.0867C368.592 65.2807 369.028 65.499 369.44 65.7173C371.405 66.7119 373.345 67.7306 375.285 68.7979C376.474 69.4528 377.638 70.1562 378.826 70.8111L380.403 71.7571C381.615 72.4848 382.852 73.1882 384.065 73.9402C382.488 67.7791 381.639 61.327 381.615 54.705C381.348 10.583 417.024 -25.486 461.091 -25.7286C467.712 -25.7771 474.187 -25.0009 480.372 -23.4728C479.644 -24.5886 478.965 -25.7286 478.262 -26.8929C477.85 -27.5478 477.462 -28.227 477.049 -28.9304C476.419 -29.9977 475.788 -31.0649 475.158 -32.1322C474.042 -34.0969 472.951 -36.1102 471.908 -38.1235C471.738 -38.463 471.568 -38.7784 471.398 -39.0938C470.913 -40.064 470.404 -41.01 469.943 -42.0045C466.984 -42.2713 464.001 -42.3683 460.97 -42.3683V-42.3926Z" fill="#B89635"/>
<path d="M329.69 51.0908C335.341 52.4492 340.847 54.0743 346.303 55.9178C346.303 55.5782 346.279 55.2144 346.279 54.8505C345.915 -8.72499 397.331 -60.7303 460.873 -61.0941C461.237 -61.0941 461.601 -61.0699 461.94 -61.0699C460.048 -66.4548 458.351 -71.9852 456.944 -77.5884C387.266 -75.187 331.34 -18.6215 329.69 51.0908Z" fill="#B89635"/>
<path d="M451.487 -112.736C366.53 -107.666 298.647 -38.9725 294.524 46.0455C296.222 46.1425 297.895 46.2638 299.569 46.3851C303.425 46.6762 307.281 47.04 311.089 47.5737C314.436 -29.5611 376.134 -91.9238 453.185 -96.1686C452.676 -99.7343 452.239 -103.324 451.924 -106.963C451.754 -108.879 451.584 -110.795 451.463 -112.736H451.487Z" fill="#B89635"/>
<path d="M321.008 1090.81C324.379 1013.67 386.053 951.287 463.104 947.067C462.571 943.477 462.183 939.863 461.867 936.224C461.697 934.332 461.503 932.44 461.406 930.524C376.474 935.593 308.542 1004.29 304.443 1089.3C306.602 1089.38 308.712 1089.55 310.822 1089.74C314.241 1090.01 317.661 1090.37 320.984 1090.81H321.008Z" fill="#B89635"/>
<path d="M471.01 1017.46C477.631 1017.41 484.082 1018.21 490.267 1019.71C489.515 1018.55 488.811 1017.34 488.084 1016.12C487.744 1015.57 487.405 1015.01 487.065 1014.45C486.386 1013.31 485.683 1012.17 485.028 1011.01C483.961 1009.09 482.87 1007.13 481.851 1005.14C481.633 1004.77 481.439 1004.38 481.245 1004C480.808 1003.05 480.299 1002.15 479.838 1001.23C476.879 1000.96 473.896 1000.82 470.865 1000.82C417.606 1001.11 374.533 1044.7 374.848 1097.99C374.848 1101 375.018 1103.98 375.333 1106.94C376.304 1107.38 377.274 1107.89 378.244 1108.37C378.535 1108.52 378.874 1108.66 379.19 1108.83C381.251 1109.87 383.264 1110.94 385.277 1112.06C386.32 1112.64 387.363 1113.22 388.406 1113.83C389.133 1114.26 389.861 1114.7 390.613 1115.14C391.728 1115.79 392.844 1116.42 393.959 1117.13C392.383 1110.97 391.51 1104.51 391.461 1097.89C391.195 1053.77 426.87 1017.7 470.986 1017.46H471.01Z" fill="#B89635"/>
<path d="M470.792 982.165C471.156 982.165 471.52 982.165 471.859 982.165C469.967 976.78 468.27 971.25 466.839 965.647C397.185 968.048 341.259 1024.64 339.634 1094.33C345.26 1095.68 350.79 1097.31 356.247 1099.15C356.223 1098.79 356.198 1098.45 356.198 1098.09C355.835 1034.53 407.25 982.481 470.816 982.141L470.792 982.165Z" fill="#B89635"/>
<path d="M-82.5808 833.79C-83.5994 835.779 -84.6422 837.744 -85.7093 839.684C-86.3641 840.849 -87.0432 841.989 -87.6738 843.129C-88.0133 843.687 -88.3529 844.269 -88.6924 844.851C-89.42 846.064 -90.1233 847.276 -90.8994 848.441H-90.8509C-84.6908 846.864 -78.2395 846.015 -71.6185 845.967C-27.5515 845.724 8.56068 881.405 8.80322 925.503C8.85172 932.125 8.05132 938.601 6.54766 944.762V944.811C7.63903 944.083 8.75466 943.404 9.89454 942.725C10.6221 942.288 11.3012 941.851 12.0045 941.439C13.0474 940.808 14.1145 940.202 15.1574 939.596C17.1461 938.48 19.1833 937.364 21.2206 936.297C21.5116 936.151 21.8026 936.006 22.1179 935.86C23.088 935.351 24.0823 934.841 25.0524 934.356C25.295 931.397 25.4647 928.389 25.4405 925.382C25.1495 872.115 -18.4325 829.012 -71.7156 829.303C-74.7229 829.327 -77.706 829.497 -80.6891 829.812C-81.1256 830.734 -81.5622 831.656 -82.0472 832.577C-82.2412 832.965 -82.4595 833.353 -82.6293 833.766L-82.5808 833.79Z" fill="#B89635"/>
<path d="M-71.7875 810.674C-8.19711 810.31 43.8005 861.758 44.1401 925.309C44.1401 925.673 44.1159 926.012 44.1159 926.376C49.5242 924.46 55.0052 922.762 60.6561 921.331C58.2308 851.667 1.64946 795.732 -68.0041 794.131C-69.3865 799.759 -71.0115 805.289 -72.8789 810.698C-72.5151 810.698 -72.1513 810.674 -71.8118 810.674H-71.7875Z" fill="#B89635"/>
<path d="M79.233 917.62C82.6041 917.134 85.951 916.771 89.3949 916.431C91.5048 916.237 93.6391 916.019 95.7976 915.922C90.7288 830.976 22.0453 763.035 -62.9602 758.936C-63.0572 760.828 -63.1784 762.719 -63.3482 764.611C-63.6392 768.274 -64.0031 771.913 -64.4639 775.502C12.6595 778.874 75.0131 840.558 79.2573 917.62H79.233Z" fill="#B89635"/>
<path d="M-157.327 1643.22C-156.066 1696.46 -111.708 1738.74 -58.473 1737.48C-55.4414 1737.41 -52.4584 1737.19 -49.5238 1736.85C-49.1115 1735.93 -48.6507 1735.03 -48.2384 1734.08C-48.0444 1733.67 -47.8261 1733.26 -47.6321 1732.8C-46.6862 1730.83 -45.6675 1728.87 -44.6247 1726.9C-43.9941 1725.71 -43.3394 1724.53 -42.6845 1723.34C-42.4177 1722.8 -42.1025 1722.27 -41.7872 1721.74C-41.1081 1720.5 -40.4048 1719.24 -39.6772 1718.05C-45.8131 1719.72 -52.2401 1720.69 -58.8853 1720.86C-102.952 1721.91 -139.671 1686.91 -140.714 1642.81C-140.859 1636.19 -140.18 1629.71 -138.822 1623.5C-139.913 1624.23 -141.029 1624.95 -142.169 1625.63C-142.824 1626.07 -143.503 1626.48 -144.182 1626.9C-145.2 1627.55 -146.268 1628.21 -147.335 1628.81C-149.299 1629.98 -151.288 1631.12 -153.277 1632.18C-153.592 1632.38 -153.907 1632.55 -154.222 1632.72C-155.168 1633.23 -156.114 1633.74 -157.06 1634.24C-157.278 1637.2 -157.375 1640.19 -157.278 1643.22H-157.327ZM-356.659 1472.43C-356.659 1472.07 -356.708 1471.7 -356.708 1471.34C-358.26 1407.81 -307.766 1354.84 -244.224 1353.36C-243.86 1353.36 -243.496 1353.36 -243.133 1353.36C-245.17 1348 -246.964 1342.52 -248.492 1336.91C-318.073 1340.6 -372.981 1398.18 -373.345 1467.9C-367.67 1469.13 -362.14 1470.66 -356.659 1472.46V1472.43ZM-263.602 1638.25C-260.037 1637.64 -256.423 1637.2 -252.785 1636.82C-250.893 1636.62 -249.002 1636.38 -247.086 1636.26C-253.682 1551.41 -323.603 1484.73 -408.681 1482.18C-408.705 1484.34 -408.851 1486.45 -408.996 1488.59C-409.215 1492.01 -409.506 1495.43 -409.894 1498.77C-332.722 1500.76 -269.228 1561.28 -263.602 1638.27V1638.25ZM-338.057 1470.88C-337.96 1473.91 -337.742 1476.89 -337.427 1479.83C-336.481 1480.24 -335.559 1480.7 -334.613 1481.16C-334.201 1481.33 -333.837 1481.53 -333.425 1481.72C-331.412 1482.67 -329.423 1483.69 -327.483 1484.73C-326.295 1485.34 -325.155 1485.99 -323.991 1486.62C-323.409 1486.94 -322.851 1487.28 -322.269 1487.62C-321.056 1488.3 -319.819 1489.02 -318.631 1489.7C-320.329 1483.54 -321.299 1477.14 -321.444 1470.49C-322.511 1426.39 -287.491 1389.67 -243.399 1388.63C-236.754 1388.46 -230.303 1389.14 -224.094 1390.54H-224.046C-224.798 1389.43 -225.501 1388.36 -226.204 1387.22C-226.665 1386.52 -227.102 1385.84 -227.514 1385.16C-228.169 1384.11 -228.799 1383.1 -229.406 1382.05C-230.57 1380.06 -231.685 1378.08 -232.801 1376.04C-232.971 1375.75 -233.116 1375.46 -233.286 1375.16C-233.795 1374.22 -234.329 1373.22 -234.814 1372.25C-237.773 1372.06 -240.78 1371.96 -243.787 1372.01C-297.046 1373.3 -339.319 1417.66 -338.057 1470.9V1470.88ZM-192.445 1647.9C-188.782 1717.49 -131.182 1772.43 -61.5046 1772.77C-60.2435 1767.1 -58.7398 1761.57 -56.9694 1756.11C-57.3089 1756.11 -57.6727 1756.16 -58.0365 1756.18C-121.578 1757.68 -174.522 1707.21 -176.026 1643.66C-176.026 1643.29 -176.026 1642.95 -176.026 1642.59C-181.41 1644.6 -186.867 1646.4 -192.469 1647.93L-192.445 1647.9ZM-130.455 1289.32C-129.63 1323.11 -101.497 1349.94 -67.7375 1349.14C-33.9778 1348.31 -7.13019 1320.2 -7.93054 1286.41C-8.73083 1252.65 -36.8881 1225.82 -70.6478 1226.62C-104.407 1227.42 -131.231 1255.53 -130.431 1289.35L-130.455 1289.32ZM-70.2355 1243.21C-45.6191 1242.63 -25.1256 1262.18 -24.5435 1286.8C-23.9372 1311.42 -43.4849 1331.92 -68.1013 1332.52C-92.7177 1333.1 -113.211 1313.53 -113.793 1288.93C-114.4 1264.31 -94.8519 1243.79 -70.2113 1243.23L-70.2355 1243.21ZM-122.039 1642.37C-121.239 1676.14 -93.0815 1702.99 -59.3218 1702.16C-25.538 1701.39 1.28546 1673.22 0.485168 1639.46C-0.315186 1605.67 -28.4482 1578.82 -62.2321 1579.64C-95.9918 1580.44 -122.839 1608.58 -122.039 1642.37ZM-61.8441 1596.26C-37.2277 1595.65 -16.7342 1615.23 -16.1522 1639.85C-15.5458 1664.47 -35.0934 1684.96 -59.7341 1685.57C-84.3263 1686.15 -104.82 1666.58 -105.426 1641.98C-106.008 1617.39 -86.4847 1596.87 -61.8441 1596.28V1596.26ZM-228.921 1630.24C-228.727 1631.94 -228.557 1633.59 -228.387 1635.31C-143.551 1628.71 -76.905 1558.78 -74.3342 1473.72C-76.2744 1473.67 -78.1904 1473.55 -80.1063 1473.43C-83.7442 1473.21 -87.3578 1472.92 -90.9473 1472.5C-92.8875 1549.66 -153.446 1613.17 -230.4 1618.79C-229.794 1622.58 -229.309 1626.41 -228.896 1630.24H-228.921ZM-49.936 1455.36C-46.2496 1455.6 -42.6118 1455.89 -39.0223 1456.3C-37.0579 1379.09 23.4766 1315.62 100.455 1309.99C99.8967 1306.64 99.4601 1303.24 99.0479 1299.85C98.8296 1297.76 98.5871 1295.6 98.4416 1293.45C13.5816 1300.09 -53.0647 1370 -55.6112 1455.06C-53.7195 1455.11 -51.852 1455.26 -49.9603 1455.36H-49.936ZM-165.742 1290.17C-164.457 1343.41 -120.099 1385.69 -66.8887 1384.43C-63.8571 1384.36 -60.874 1384.14 -57.9395 1383.8C-57.5272 1382.88 -57.0663 1381.98 -56.6298 1381.03C-56.4358 1380.62 -56.2418 1380.21 -56.0235 1379.75C-55.0776 1377.76 -54.0833 1375.82 -53.0403 1373.85C-52.4098 1372.64 -51.755 1371.48 -51.1002 1370.29C-50.7849 1369.73 -50.4938 1369.2 -50.1786 1368.66C-49.4995 1367.43 -48.8204 1366.19 -48.0686 1364.95C-54.2288 1366.65 -60.6315 1367.64 -67.2767 1367.79C-111.368 1368.83 -148.062 1333.83 -149.129 1289.73C-149.275 1283.11 -148.596 1276.64 -147.238 1270.4C-148.329 1271.15 -149.469 1271.86 -150.584 1272.56C-151.264 1272.97 -151.918 1273.39 -152.597 1273.82C-153.665 1274.48 -154.707 1275.13 -155.775 1275.74C-157.739 1276.9 -159.703 1278.04 -161.716 1279.11C-162.032 1279.28 -162.396 1279.47 -162.711 1279.62C-163.632 1280.15 -164.603 1280.64 -165.524 1281.15C-165.718 1284.13 -165.839 1287.09 -165.767 1290.12L-165.742 1290.17ZM-302.746 1470.05C-301.921 1503.82 -273.788 1530.67 -240.028 1529.85C-206.244 1529.05 -179.421 1500.88 -180.221 1467.12C-181.046 1433.35 -209.155 1406.53 -242.939 1407.33C-276.698 1408.13 -303.546 1436.27 -302.746 1470.05ZM-242.551 1423.94C-217.934 1423.34 -197.441 1442.89 -196.834 1467.53C-196.252 1492.15 -215.824 1512.65 -240.416 1513.23C-265.033 1513.81 -285.55 1494.29 -286.133 1469.67C-286.715 1445.05 -267.167 1424.55 -242.551 1423.97V1423.94ZM-200.86 1294.85C-197.174 1364.44 -139.598 1419.36 -69.9202 1419.72C-68.6591 1414.05 -67.1312 1408.52 -65.385 1403.06C-65.7245 1403.06 -66.0883 1403.11 -66.4521 1403.13C-129.994 1404.64 -182.938 1354.16 -184.441 1290.61C-184.441 1290.24 -184.441 1289.9 -184.441 1289.52C-189.801 1291.55 -195.282 1293.35 -200.884 1294.85H-200.86ZM-234.474 1600.29C-164.894 1596.6 -109.986 1539.02 -109.622 1469.3C-115.297 1468.04 -120.851 1466.49 -126.283 1464.72C-126.283 1465.11 -126.235 1465.45 -126.235 1465.83C-124.707 1529.39 -175.201 1582.34 -238.719 1583.84C-239.082 1583.84 -239.446 1583.84 -239.81 1583.84H-239.834C-237.797 1589.2 -236.002 1594.66 -234.474 1600.29ZM-256.617 1550.25C-256.278 1550.76 -255.962 1551.29 -255.623 1551.82C-254.919 1552.99 -254.192 1554.1 -253.513 1555.29C-252.373 1557.21 -251.281 1559.1 -250.239 1561.04C-250.045 1561.45 -249.826 1561.89 -249.608 1562.28C-249.123 1563.17 -248.638 1564.07 -248.201 1564.97C-245.243 1565.16 -242.235 1565.28 -239.228 1565.19C-185.993 1563.93 -143.697 1519.56 -144.958 1466.29C-145.031 1463.29 -145.249 1460.33 -145.613 1457.37C-146.583 1456.96 -147.553 1456.47 -148.499 1456.03C-148.838 1455.89 -149.202 1455.69 -149.542 1455.53C-151.603 1454.53 -153.64 1453.49 -155.653 1452.44C-156.745 1451.86 -157.788 1451.26 -158.855 1450.67C-159.582 1450.31 -160.286 1449.87 -160.989 1449.49C-162.129 1448.83 -163.293 1448.15 -164.433 1447.5C-162.735 1453.68 -161.765 1460.09 -161.595 1466.71C-160.528 1510.78 -195.573 1547.53 -239.64 1548.57C-246.261 1548.74 -252.737 1548.04 -258.945 1546.66C-258.169 1547.82 -257.393 1549.03 -256.641 1550.25H-256.617ZM-74.31 1455.02C-74.2615 1453.34 -74.1402 1451.67 -74.019 1449.97C-73.825 1446.11 -73.5339 1442.26 -73.0974 1438.42C-150.245 1436.48 -213.714 1375.94 -219.365 1298.95C-222.882 1299.53 -226.471 1299.99 -230.109 1300.38C-232.025 1300.6 -233.941 1300.79 -235.881 1300.96C-229.26 1385.81 -159.34 1452.47 -74.31 1455.04V1455.02ZM89.3953 1629.83C92.9604 1629.27 96.574 1628.81 100.212 1628.42C102.104 1628.21 103.995 1627.99 105.911 1627.84C99.3146 1542.99 29.3943 1476.34 -55.684 1473.77C-55.7083 1475.95 -55.8537 1478.03 -55.9992 1480.15C-56.2175 1483.59 -56.4843 1486.99 -56.8966 1490.36C20.2753 1492.32 83.7687 1552.87 89.3953 1629.83ZM-62.6686 1560.97C-18.6016 1559.9 18.1168 1594.93 19.1597 1639C19.3295 1645.67 18.6747 1652.1 17.2923 1658.31C18.4564 1657.53 19.6447 1656.8 20.8088 1656.05C21.3666 1655.71 21.9245 1655.35 22.4823 1655.01C23.6222 1654.3 24.7378 1653.63 25.9019 1652.95C27.7936 1651.81 29.7338 1650.69 31.6982 1649.65C32.0863 1649.43 32.4501 1649.24 32.8381 1649.04C33.7355 1648.56 34.6813 1648.05 35.5787 1647.56C35.7727 1644.6 35.8698 1641.62 35.797 1638.59C34.5358 1585.34 -9.84644 1543.07 -63.0567 1544.35C-66.0883 1544.4 -69.0714 1544.64 -72.0059 1544.98C-72.4667 1545.95 -72.9276 1546.95 -73.3884 1547.92C-73.5339 1548.23 -73.6794 1548.57 -73.8492 1548.89C-74.8435 1550.95 -75.8864 1552.99 -76.9535 1555.05C-77.5113 1556.09 -78.0934 1557.13 -78.6754 1558.18C-79.0877 1558.93 -79.5243 1559.68 -79.9366 1560.41C-80.5672 1561.52 -81.1977 1562.66 -81.8525 1563.78C-75.7166 1562.11 -69.2897 1561.11 -62.6445 1560.97H-62.6686ZM-63.5175 1525.65C0.024353 1524.15 52.9436 1574.62 54.4473 1638.17C54.4715 1638.51 54.4473 1638.88 54.4473 1639.24C59.8071 1637.23 65.2881 1635.43 70.8905 1633.91C67.2042 1564.31 9.65265 1509.4 -60.0737 1509.03C-61.3348 1514.69 -62.8627 1520.27 -64.6089 1525.7C-64.2451 1525.7 -63.9056 1525.65 -63.5175 1525.63V1525.65ZM287.103 1799.65C287.151 1797.97 287.248 1796.28 287.345 1794.6C287.564 1790.72 287.879 1786.86 288.315 1783.06C211.168 1781.12 147.674 1720.57 142.048 1643.56C138.507 1644.17 134.893 1644.63 131.28 1645.01C129.388 1645.21 127.448 1645.43 125.532 1645.57C132.128 1730.42 202.049 1797.1 287.127 1799.65H287.103ZM124.077 1621.85C124.246 1623.52 124.44 1625.2 124.562 1626.92C209.397 1620.3 276.068 1550.39 278.614 1465.3C276.674 1465.23 274.782 1465.13 272.842 1464.99C269.204 1464.79 265.591 1464.48 262.026 1464.09C260.085 1541.27 199.551 1604.75 122.573 1610.38C122.573 1610.4 122.573 1610.4 122.573 1610.4C123.179 1614.18 123.664 1617.99 124.101 1621.85H124.077ZM-475.036 1650.79C-474.236 1684.55 -446.103 1711.4 -412.343 1710.6C-378.559 1709.78 -351.76 1681.67 -352.536 1647.88C-353.337 1614.09 -381.47 1587.24 -415.254 1588.06C-449.013 1588.86 -475.861 1617 -475.06 1650.79H-475.036ZM-414.841 1604.68C-390.225 1604.09 -369.731 1623.62 -369.149 1648.24C-368.567 1672.86 -388.091 1693.38 -412.731 1693.96C-437.323 1694.55 -457.817 1675 -458.423 1650.38C-459.03 1625.76 -439.482 1605.26 -414.866 1604.68H-414.841ZM-402.933 1463.77C-399.247 1463.99 -395.609 1464.28 -392.02 1464.69C-390.37 1399.93 -347.492 1344.8 -288.242 1325.41C-276.892 1321.7 -265.008 1313.7 -252.64 1312.8C-253.222 1309.45 -253.537 1311.69 -253.925 1308.29C-254.143 1306.16 -254.386 1304.05 -254.556 1301.89C-339.391 1308.48 -406.038 1378.41 -408.608 1463.51C-406.717 1463.51 -404.801 1463.68 -402.933 1463.8V1463.77ZM-483.452 1297.71C-482.627 1331.5 -454.519 1358.33 -420.735 1357.55C-386.975 1356.73 -360.152 1328.59 -360.952 1294.83C-361.752 1261.04 -389.91 1234.19 -423.669 1235.01C-457.429 1235.81 -484.276 1263.95 -483.476 1297.74L-483.452 1297.71ZM-423.257 1251.63C-398.64 1251.05 -378.123 1270.57 -377.565 1295.19C-376.983 1319.81 -396.53 1340.31 -421.147 1340.91C-445.763 1341.5 -466.257 1321.95 -466.863 1297.33C-467.445 1272.71 -447.873 1252.21 -423.281 1251.63H-423.257ZM-581.918 1638.66C-581.748 1640.33 -581.554 1642.01 -581.433 1643.7C-496.573 1637.11 -429.926 1567.18 -427.356 1482.11C-429.296 1482.06 -431.188 1481.94 -433.128 1481.82C-436.766 1481.6 -440.379 1481.31 -443.969 1480.9C-445.909 1558.08 -506.443 1621.58 -583.421 1627.21C-582.815 1630.97 -582.33 1634.8 -581.893 1638.66H-581.918ZM-294.354 1823.13C-293.554 1856.89 -265.421 1883.72 -231.637 1882.92C-197.853 1882.14 -171.029 1853.98 -171.83 1820.19C-172.63 1786.4 -200.763 1759.58 -234.547 1760.38C-268.331 1761.18 -295.154 1789.31 -294.354 1823.1V1823.13ZM-234.159 1777.02C-209.543 1776.41 -189.049 1795.99 -188.467 1820.61C-187.885 1845.23 -207.408 1865.7 -232.025 1866.3C-256.641 1866.89 -277.135 1847.36 -277.741 1822.72C-278.323 1798.1 -258.8 1777.6 -234.159 1777.02ZM-329.642 1823.95C-329.593 1826.98 -329.351 1829.97 -329.011 1832.9C-328.09 1833.32 -327.144 1833.78 -326.222 1834.24C-325.834 1834.41 -325.446 1834.6 -325.034 1834.8C-323.021 1835.79 -321.032 1836.76 -319.092 1837.8C-317.928 1838.41 -316.764 1839.06 -315.599 1839.69C-315.017 1840.01 -314.46 1840.35 -313.878 1840.69C-312.641 1841.37 -311.428 1842.07 -310.24 1842.8V1842.75C-311.913 1836.59 -312.907 1830.19 -313.053 1823.56C-314.096 1779.47 -279.075 1742.74 -235.008 1741.7C-228.387 1741.53 -221.912 1742.21 -215.727 1743.62H-215.679C-216.43 1742.5 -217.109 1741.43 -217.813 1740.29C-218.274 1739.59 -218.71 1738.91 -219.122 1738.21C-219.777 1737.16 -220.408 1736.15 -221.038 1735.1C-222.203 1733.11 -223.342 1731.1 -224.458 1729.09C-224.604 1728.8 -224.773 1728.5 -224.895 1728.21C-225.404 1727.27 -225.938 1726.27 -226.447 1725.3C-229.406 1725.11 -232.413 1725.01 -235.42 1725.06C-288.655 1726.35 -330.927 1770.71 -329.666 1823.95H-329.642ZM-41.5446 1808.43C-37.9067 1808.62 -34.2446 1808.96 -30.631 1809.37C-28.6907 1732.19 31.8438 1668.69 108.822 1663.06H108.846C108.288 1659.71 107.827 1656.32 107.439 1652.92C107.197 1650.79 106.979 1648.68 106.784 1646.52C21.9488 1653.16 -44.6975 1723.07 -47.2683 1808.14C-45.3524 1808.19 -43.4849 1808.33 -41.5689 1808.43H-41.5446ZM-691.054 1479.32C-690.982 1482.33 -690.739 1485.31 -690.4 1488.27C-689.454 1488.68 -688.532 1489.12 -687.611 1489.58C-687.198 1489.77 -686.835 1489.94 -686.446 1490.14C-684.434 1491.11 -682.445 1492.15 -680.48 1493.15C-679.316 1493.78 -678.152 1494.43 -677.012 1495.06C-676.43 1495.38 -675.848 1495.69 -675.29 1496.03C-674.078 1496.74 -672.841 1497.44 -671.628 1498.14V1498.09C-673.326 1491.96 -674.296 1485.53 -674.441 1478.91C-675.509 1434.83 -640.488 1398.09 -596.396 1397.04C-589.751 1396.87 -583.3 1397.58 -577.091 1398.96H-577.043C-577.795 1397.87 -578.498 1396.78 -579.201 1395.64C-579.662 1394.93 -580.099 1394.25 -580.511 1393.55C-581.166 1392.53 -581.796 1391.49 -582.427 1390.45C-583.591 1388.46 -584.731 1386.47 -585.822 1384.45C-585.992 1384.16 -586.138 1383.87 -586.307 1383.58C-586.817 1382.61 -587.35 1381.62 -587.835 1380.67C-590.818 1380.48 -593.777 1380.38 -596.784 1380.45C-650.043 1381.71 -692.34 1426.05 -691.079 1479.34L-691.054 1479.32ZM-709.68 1480.85C-709.68 1480.46 -709.705 1480.1 -709.705 1479.76C-711.208 1416.18 -660.763 1363.25 -597.197 1361.75C-596.857 1361.75 -596.493 1361.75 -596.13 1361.75C-598.167 1356.39 -599.937 1350.93 -601.489 1345.33C-671.07 1348.99 -725.978 1406.6 -726.342 1476.29C-720.667 1477.53 -715.113 1479.08 -709.68 1480.87V1480.85ZM-609.614 1558.64C-609.275 1559.17 -608.935 1559.68 -608.596 1560.21C-607.892 1561.38 -607.165 1562.52 -606.51 1563.71C-605.394 1565.6 -604.279 1567.52 -603.236 1569.46C-603.017 1569.84 -602.823 1570.28 -602.605 1570.69C-602.12 1571.59 -601.635 1572.46 -601.174 1573.36C-598.215 1573.58 -595.232 1573.68 -592.201 1573.6C-538.966 1572.34 -496.67 1527.98 -497.955 1474.74C-498.003 1471.73 -498.246 1468.74 -498.586 1465.79C-499.556 1465.35 -500.526 1464.89 -501.472 1464.43C-501.811 1464.28 -502.175 1464.09 -502.514 1463.92C-504.552 1462.92 -506.589 1461.9 -508.602 1460.86C-509.693 1460.28 -510.76 1459.7 -511.827 1459.07C-512.531 1458.7 -513.234 1458.29 -513.937 1457.9C-515.077 1457.22 -516.241 1456.57 -517.406 1455.89C-515.732 1462.07 -514.738 1468.5 -514.592 1475.15C-513.525 1519.25 -548.546 1555.95 -592.637 1557.01C-599.258 1557.16 -605.734 1556.48 -611.942 1555.12C-611.942 1555.1 -611.942 1555.1 -611.991 1555.1C-611.191 1556.29 -610.414 1557.47 -609.663 1558.69L-609.614 1558.64ZM-587.471 1608.68C-517.891 1604.99 -462.958 1547.41 -462.619 1477.72C-468.294 1476.46 -473.848 1474.93 -479.28 1473.16C-479.28 1473.55 -479.232 1473.89 -479.232 1474.25C-477.704 1537.8 -528.174 1590.73 -591.716 1592.26C-592.079 1592.26 -592.443 1592.26 -592.783 1592.26H-592.807C-590.77 1597.62 -588.999 1603.1 -587.447 1608.7L-587.471 1608.68ZM-595.887 1255.65C-526.282 1251.94 -471.398 1194.38 -471.059 1124.67C-476.71 1123.38 -482.264 1121.88 -487.696 1120.11C-487.696 1120.47 -487.696 1120.84 -487.672 1121.2C-486.168 1184.75 -536.614 1237.68 -600.18 1239.18C-600.544 1239.21 -600.883 1239.18 -601.247 1239.18C-599.234 1244.57 -597.439 1250.03 -595.887 1255.63V1255.65ZM-655.743 1478.47C-654.918 1512.24 -626.809 1539.06 -593.025 1538.29C-559.266 1537.46 -532.418 1509.33 -533.243 1475.56C-534.043 1441.8 -562.2 1414.94 -595.96 1415.77C-629.768 1416.57 -656.567 1444.73 -655.767 1478.5L-655.743 1478.47ZM-595.548 1432.36C-570.931 1431.78 -550.438 1451.33 -549.831 1475.95C-549.249 1500.57 -568.821 1521.07 -593.413 1521.65C-618.03 1522.25 -638.548 1502.7 -639.13 1478.08C-639.712 1453.46 -620.164 1432.97 -595.548 1432.38V1432.36ZM-647.351 1831.52C-646.527 1865.29 -618.394 1892.11 -584.634 1891.31C-550.85 1890.49 -524.002 1862.35 -524.827 1828.59C-525.652 1794.82 -553.76 1767.97 -587.544 1768.77C-621.304 1769.57 -648.152 1797.73 -647.351 1831.5V1831.52ZM-587.132 1785.41C-562.516 1784.8 -542.022 1804.35 -541.44 1828.97C-540.858 1853.59 -560.381 1874.09 -584.998 1874.67C-609.614 1875.28 -630.132 1855.73 -630.714 1831.11C-631.296 1806.49 -611.724 1785.99 -587.132 1785.41ZM-618.03 1205.59C-617.666 1206.12 -617.375 1206.66 -617.011 1207.17C-616.308 1208.33 -615.605 1209.49 -614.925 1210.66C-613.786 1212.55 -612.694 1214.47 -611.651 1216.41C-611.433 1216.8 -611.215 1217.23 -610.997 1217.64C-610.511 1218.54 -610.026 1219.42 -609.541 1220.31C-606.607 1220.51 -603.599 1220.63 -600.592 1220.56C-547.358 1219.29 -505.085 1174.93 -506.346 1121.69C-506.419 1118.68 -506.637 1115.7 -506.977 1112.74C-507.947 1112.3 -508.917 1111.81 -509.887 1111.38C-510.227 1111.23 -510.591 1111.04 -510.93 1110.87C-512.992 1109.87 -515.029 1108.88 -517.042 1107.79C-518.133 1107.21 -519.176 1106.62 -520.267 1105.99C-520.971 1105.63 -521.674 1105.22 -522.377 1104.8C-523.542 1104.13 -524.681 1103.47 -525.821 1102.82C-524.148 1108.98 -523.153 1115.4 -523.008 1122.05C-521.965 1166.15 -556.962 1202.87 -601.029 1203.92C-607.65 1204.06 -614.149 1203.38 -620.334 1202C-620.334 1202 -620.334 1202 -620.382 1202C-619.582 1203.19 -618.806 1204.38 -618.078 1205.59H-618.03ZM-590.309 1285.61C-590.164 1287.31 -589.945 1288.98 -589.824 1290.66C-504.988 1284.06 -438.342 1214.15 -435.771 1129.09C-437.687 1129.04 -439.603 1128.89 -441.519 1128.77C-445.133 1128.55 -448.771 1128.26 -452.336 1127.82C-454.325 1205.03 -514.835 1268.51 -591.788 1274.14H-591.837C-591.231 1277.92 -590.746 1281.75 -590.309 1285.61ZM-682.639 1832.37C-682.566 1835.38 -682.324 1838.34 -681.984 1841.32C-681.062 1841.73 -680.141 1842.17 -679.195 1842.63C-678.807 1842.82 -678.419 1843.02 -678.007 1843.19C-675.994 1844.18 -674.005 1845.18 -672.065 1846.2C-670.876 1846.83 -669.736 1847.48 -668.572 1848.11C-668.014 1848.43 -667.432 1848.77 -666.85 1849.08C-665.613 1849.79 -664.401 1850.46 -663.212 1851.22V1851.17C-664.886 1845.03 -665.88 1838.6 -666.026 1831.98C-667.069 1787.91 -632.048 1751.16 -587.981 1750.12C-581.36 1749.95 -574.884 1750.65 -568.7 1752.03H-568.651C-569.379 1750.94 -570.082 1749.85 -570.786 1748.73C-571.246 1748.03 -571.683 1747.35 -572.095 1746.65C-572.75 1745.61 -573.381 1744.56 -573.987 1743.54C-575.151 1741.55 -576.291 1739.57 -577.407 1737.55C-577.552 1737.26 -577.698 1736.97 -577.843 1736.68C-578.377 1735.71 -578.886 1734.74 -579.395 1733.77C-582.354 1733.57 -585.361 1733.48 -588.369 1733.55C-641.603 1734.81 -683.924 1779.15 -682.639 1832.44V1832.37ZM-718.072 1127.8C-718.072 1127.44 -718.12 1127.05 -718.12 1126.68C-719.648 1063.13 -669.179 1010.21 -605.637 1008.68C-605.273 1008.68 -604.933 1008.68 -604.57 1008.68H-604.545C-606.583 1003.32 -608.353 997.859 -609.905 992.256C-679.486 995.943 -734.418 1053.53 -734.758 1123.22C-729.083 1124.5 -723.529 1126.03 -718.096 1127.8H-718.072ZM-701.265 1833.9C-701.265 1833.51 -701.313 1833.15 -701.313 1832.81C-702.817 1769.23 -652.347 1716.3 -588.805 1714.8C-588.442 1714.8 -588.102 1714.8 -587.738 1714.8C-589.775 1709.41 -591.546 1703.98 -593.098 1698.35C-662.679 1702.04 -717.587 1759.63 -717.926 1829.31C-712.276 1830.6 -706.697 1832.13 -701.265 1833.9ZM96.4044 1541.83C96.7439 1542.36 97.0834 1542.87 97.3987 1543.41C98.1263 1544.55 98.8296 1545.71 99.5087 1546.87C100.649 1548.77 101.74 1550.68 102.783 1552.62C103.001 1553.04 103.195 1553.45 103.413 1553.84C103.898 1554.73 104.383 1555.61 104.844 1556.53C107.803 1556.7 110.81 1556.82 113.818 1556.75C167.052 1555.46 209.349 1511.1 208.088 1457.85C208.015 1454.85 207.797 1451.86 207.433 1448.9C206.487 1448.47 205.541 1448.01 204.571 1447.57C204.232 1447.4 203.868 1447.23 203.528 1447.06C201.467 1446.07 199.43 1445.02 197.441 1444C196.349 1443.42 195.307 1442.81 194.215 1442.23C193.488 1441.82 192.784 1441.43 192.081 1441.02C190.941 1440.39 189.801 1439.71 188.637 1439.03C190.335 1445.19 191.329 1451.62 191.475 1458.27C192.542 1502.34 157.497 1539.06 113.43 1540.13C106.809 1540.3 100.333 1539.62 94.1488 1538.21H94.1003C94.8764 1539.4 95.6283 1540.62 96.4044 1541.8V1541.83ZM50.2516 1461.66C51.0762 1495.43 79.2092 1522.28 112.969 1521.48C146.753 1520.65 173.576 1492.52 172.776 1458.75C171.976 1424.99 143.843 1398.13 110.059 1398.96C76.2747 1399.76 49.427 1427.92 50.2273 1461.69L50.2516 1461.66ZM110.447 1415.55C135.063 1414.97 155.556 1434.52 156.163 1459.14C156.745 1483.76 137.173 1504.26 112.581 1504.86C87.9644 1505.44 67.4709 1485.87 66.8889 1461.27C66.3068 1436.65 85.8301 1416.13 110.447 1415.55ZM-699.446 1126.27C-699.373 1129.28 -699.155 1132.24 -698.791 1135.2C-697.869 1135.61 -696.924 1136.05 -696.002 1136.51C-695.614 1136.68 -695.226 1136.87 -694.814 1137.07C-692.801 1138.06 -690.812 1139.05 -688.872 1140.07C-687.659 1140.68 -686.519 1141.36 -685.379 1141.99C-684.773 1142.3 -684.239 1142.62 -683.657 1142.96C-682.421 1143.66 -681.208 1144.34 -680.02 1145.09V1145.05C-681.693 1138.91 -682.687 1132.48 -682.833 1125.86C-683.876 1081.76 -648.855 1045.04 -604.788 1043.99C-598.143 1043.82 -591.691 1044.53 -585.507 1045.91H-585.458C-586.186 1044.79 -586.889 1043.73 -587.593 1042.59C-588.029 1041.93 -588.49 1041.2 -588.927 1040.5C-589.557 1039.46 -590.212 1038.44 -590.818 1037.4C-591.982 1035.41 -593.122 1033.42 -594.238 1031.41C-594.383 1031.11 -594.529 1030.82 -594.699 1030.53C-595.208 1029.56 -595.742 1028.59 -596.251 1027.62C-599.21 1027.43 -602.193 1027.31 -605.224 1027.4C-658.459 1028.66 -700.756 1073 -699.494 1126.3L-699.446 1126.27ZM-65.8943 1808.06C-65.8458 1806.37 -65.7003 1804.69 -65.6275 1803C-65.4335 1799.14 -65.1425 1795.28 -64.6817 1791.45C-141.854 1789.51 -205.347 1728.97 -210.949 1651.98C-214.514 1652.58 -218.104 1653.02 -221.718 1653.41C-223.633 1653.6 -225.525 1653.82 -227.465 1653.99C-220.869 1738.84 -150.948 1805.49 -65.8943 1808.06ZM-415.69 1569.36C-371.599 1568.29 -334.88 1603.32 -333.837 1647.42C-333.668 1654.04 -334.371 1660.51 -335.729 1666.7C-334.565 1665.92 -333.377 1665.2 -332.188 1664.47C-331.63 1664.1 -331.097 1663.76 -330.539 1663.43C-329.423 1662.72 -328.284 1661.99 -327.144 1661.34C-325.228 1660.22 -323.312 1659.11 -321.323 1658.06C-320.959 1657.85 -320.571 1657.65 -320.183 1657.43C-319.262 1656.97 -318.364 1656.44 -317.443 1655.98C-317.224 1653.02 -317.127 1650.04 -317.2 1647C-318.461 1593.76 -362.819 1551.46 -416.078 1552.74C-419.085 1552.79 -422.069 1553.04 -425.027 1553.37C-425.44 1554.34 -425.949 1555.34 -426.41 1556.31C-426.555 1556.62 -426.701 1556.94 -426.846 1557.28C-427.841 1559.34 -428.884 1561.4 -429.951 1563.42C-430.508 1564.48 -431.066 1565.53 -431.673 1566.59C-432.085 1567.32 -432.521 1568.05 -432.934 1568.83C-433.564 1569.94 -434.195 1571.08 -434.85 1572.2C-428.714 1570.5 -422.287 1569.51 -415.666 1569.36H-415.69ZM14.964 1462.49C15.0367 1465.52 15.2793 1468.48 15.5945 1471.46C16.5404 1471.87 17.4863 1472.33 18.4079 1472.8C18.7959 1472.97 19.184 1473.14 19.5963 1473.33C21.6092 1474.32 23.5737 1475.29 25.5381 1476.34C26.7265 1476.97 27.8664 1477.62 29.0305 1478.25C29.6126 1478.59 30.1704 1478.91 30.7524 1479.22C31.9409 1479.93 33.1534 1480.61 34.3903 1481.33C32.7169 1475.2 31.7468 1468.79 31.6013 1462.12C30.5342 1418.05 65.5549 1381.35 109.622 1380.28C116.243 1380.11 122.718 1380.79 128.951 1382.17C128.248 1381.06 127.52 1379.97 126.817 1378.85C126.381 1378.15 125.944 1377.47 125.508 1376.74C124.877 1375.72 124.246 1374.68 123.616 1373.64C122.427 1371.65 121.312 1369.66 120.22 1367.64C120.051 1367.35 119.881 1367.06 119.735 1366.77C119.226 1365.83 118.717 1364.86 118.183 1363.86C115.249 1363.67 112.241 1363.55 109.21 1363.64C55.9995 1364.9 13.7028 1409.29 14.964 1462.51V1462.49ZM-348.268 1825.48C-348.268 1825.07 -348.292 1824.75 -348.316 1824.37C-349.844 1760.81 -299.35 1707.89 -235.833 1706.36C-235.469 1706.36 -235.105 1706.38 -234.741 1706.36C-236.778 1700.97 -238.573 1695.52 -240.101 1689.91C-309.706 1693.6 -364.59 1751.16 -364.954 1820.9C-359.278 1822.18 -353.725 1823.66 -348.292 1825.46L-348.268 1825.48ZM4.72937 1817.09C4.72937 1816.68 4.68085 1816.36 4.65662 1815.97C3.15295 1752.42 53.6227 1699.47 117.165 1697.97C117.528 1697.97 117.868 1697.99 118.232 1697.97C116.195 1692.58 114.424 1687.12 112.896 1681.52C43.3153 1685.21 -11.5927 1742.79 -11.9565 1812.48C-6.3056 1813.77 -0.727417 1815.27 4.70514 1817.06L4.72937 1817.09ZM118.523 1591.89C188.104 1588.21 243.036 1530.65 243.375 1460.91C237.724 1459.65 232.146 1458.12 226.714 1456.35C226.714 1456.74 226.714 1457.08 226.762 1457.44C228.266 1521.02 177.796 1573.94 114.254 1575.45C113.89 1575.45 113.551 1575.45 113.187 1575.45C115.224 1580.83 116.995 1586.29 118.523 1591.89ZM-3.68634 1464.04C-3.68634 1463.65 -3.71051 1463.31 -3.71051 1462.95C-5.21417 1399.4 45.2313 1346.44 108.797 1344.94C109.137 1344.94 109.501 1344.97 109.865 1344.94C107.827 1339.56 106.057 1334.1 104.505 1328.5C34.9239 1332.16 -19.9841 1389.77 -20.3236 1459.45C-14.6727 1460.72 -9.1189 1462.27 -3.68634 1464.04ZM-664.134 1125.42C-663.334 1159.24 -635.201 1186.01 -601.417 1185.24C-567.657 1184.41 -540.809 1156.3 -541.61 1122.51C-542.434 1088.75 -570.567 1061.9 -604.327 1062.7C-638.111 1063.5 -664.934 1091.66 -664.134 1125.42ZM-603.939 1079.31C-579.347 1078.73 -558.853 1098.26 -558.247 1122.9C-557.665 1147.5 -577.188 1168.02 -601.805 1168.6C-626.421 1169.18 -646.915 1149.65 -647.521 1125.01C-648.103 1100.39 -628.531 1079.89 -603.939 1079.31ZM-416.515 1534.07C-352.997 1532.56 -300.029 1583.02 -298.526 1646.57C-298.526 1646.93 -298.526 1647.29 -298.526 1647.63C-293.166 1645.65 -287.685 1643.85 -282.107 1642.32C-285.769 1572.73 -343.369 1517.79 -413.047 1517.45C-414.283 1523.1 -415.836 1528.68 -417.582 1534.14C-417.218 1534.12 -416.878 1534.09 -416.515 1534.07ZM-776.254 1260.02C-751.638 1259.44 -731.144 1279.01 -730.562 1303.61C-729.956 1328.23 -749.528 1348.75 -774.144 1349.31L-773.732 1365.95C-739.948 1365.12 -713.124 1337.01 -713.925 1303.22C-714.725 1269.43 -742.858 1242.6 -776.642 1243.4L-776.254 1260.02ZM-777.103 1224.73C-733.036 1223.68 -696.293 1258.66 -695.25 1302.78C-695.105 1309.41 -695.759 1315.88 -697.142 1322.07C-696.002 1321.29 -694.789 1320.59 -693.601 1319.84C-693.067 1319.47 -692.485 1319.13 -691.928 1318.79C-690.812 1318.09 -689.696 1317.39 -688.556 1316.71C-686.616 1315.59 -684.676 1314.5 -682.736 1313.43C-682.372 1313.19 -681.96 1313.02 -681.62 1312.8C-680.699 1312.34 -679.777 1311.83 -678.855 1311.35C-678.661 1308.41 -678.564 1305.4 -678.637 1302.37C-679.923 1249.13 -724.281 1206.83 -777.491 1208.11L-777.079 1224.73H-777.103ZM-777.952 1189.41C-714.41 1187.91 -661.491 1238.38 -659.987 1301.93C-659.987 1302.3 -659.987 1302.66 -659.987 1303.03C-654.603 1300.99 -649.146 1299.19 -643.568 1297.67C-647.23 1228.05 -704.806 1173.16 -774.484 1172.79C-775.502 1177.36 -776.691 1181.82 -778.024 1186.26L-777.952 1189.41ZM-769.536 1542.46C-706.018 1540.96 -653.051 1591.43 -651.547 1654.98C-651.547 1655.35 -651.547 1655.71 -651.547 1656.05C-646.187 1654.04 -640.706 1652.27 -635.128 1650.71C-638.79 1581.12 -696.366 1526.21 -766.068 1525.84C-767.086 1530.4 -768.275 1534.87 -769.609 1539.31L-769.512 1542.46H-769.536ZM-767.863 1613.07C-743.246 1612.49 -722.753 1632.06 -722.171 1656.66C-721.589 1681.28 -741.136 1701.77 -765.753 1702.38L-765.365 1719C-731.556 1718.17 -704.757 1690.06 -705.558 1656.27C-706.358 1622.5 -734.491 1595.65 -768.275 1596.48L-767.863 1613.09V1613.07ZM-768.711 1577.75C-724.62 1576.71 -687.926 1611.74 -686.859 1655.81C-686.689 1662.43 -687.392 1668.91 -688.75 1675.12C-687.611 1674.34 -686.422 1673.64 -685.234 1672.86C-684.676 1672.5 -684.118 1672.16 -683.56 1671.82C-682.445 1671.11 -681.305 1670.41 -680.165 1669.73C-678.249 1668.62 -676.309 1667.52 -674.344 1666.46C-673.981 1666.24 -673.593 1666.04 -673.205 1665.85C-672.283 1665.37 -671.386 1664.86 -670.464 1664.37C-670.27 1661.44 -670.149 1658.43 -670.246 1655.4C-671.507 1602.15 -715.841 1559.88 -769.099 1561.14H-769.124L-768.711 1577.73V1577.75ZM-759.471 1966.12C-734.855 1965.54 -714.361 1985.09 -713.779 2009.71L-697.166 2009.32C-697.966 1975.53 -726.1 1948.7 -759.883 1949.5L-759.495 1966.12H-759.471ZM-761.145 1895.48C-697.627 1893.98 -644.683 1944.46 -643.18 2008.01L-640.003 2007.91C-635.661 2006.36 -631.247 2004.95 -626.736 2003.74C-630.423 1934.12 -688.023 1879.21 -757.701 1878.87C-758.695 1883.4 -759.908 1887.89 -761.242 1892.31L-761.145 1895.46V1895.48ZM-760.296 1930.8C-716.229 1929.73 -679.51 1964.74 -678.467 2008.83L-661.83 2008.45C-663.091 1955.18 -707.449 1912.9 -760.684 1914.19L-760.271 1930.8H-760.296ZM-510.348 1651.61C-509.087 1704.85 -464.729 1747.13 -411.494 1745.87C-408.463 1745.8 -405.48 1745.56 -402.545 1745.24C-402.133 1744.3 -401.672 1743.4 -401.236 1742.48C-401.041 1742.06 -400.847 1741.63 -400.629 1741.19C-399.683 1739.2 -398.689 1737.24 -397.646 1735.3C-397.016 1734.08 -396.336 1732.92 -395.706 1731.73L-394.784 1730.13C-394.081 1728.89 -393.402 1727.66 -392.674 1726.42C-398.81 1728.12 -405.237 1729.09 -411.858 1729.23C-455.949 1730.3 -492.668 1695.27 -493.711 1651.2C-493.881 1644.58 -493.226 1638.1 -491.795 1631.87C-492.91 1632.6 -494.026 1633.3 -495.166 1634.03C-495.821 1634.44 -496.5 1634.85 -497.179 1635.26C-498.222 1635.89 -499.289 1636.55 -500.356 1637.2C-502.296 1638.37 -504.285 1639.48 -506.298 1640.55C-506.637 1640.72 -506.928 1640.89 -507.244 1641.09C-508.19 1641.59 -509.16 1642.1 -510.13 1642.61C-510.324 1645.57 -510.372 1648.56 -510.324 1651.59L-510.348 1651.61ZM-545.466 1656.27C-541.804 1725.91 -484.228 1780.8 -414.526 1781.19C-413.265 1775.51 -411.737 1769.96 -409.991 1764.5C-410.33 1764.5 -410.694 1764.55 -411.058 1764.55C-474.6 1766.05 -527.519 1715.6 -529.047 1652.05C-529.047 1651.68 -529.047 1651.32 -529.047 1650.98C-534.407 1652.97 -539.888 1654.77 -545.466 1656.27ZM-755.93 1472.16C-752.268 1472.41 -748.63 1472.67 -745.017 1473.11C-743.076 1395.95 -682.518 1332.45 -605.54 1326.82C-606.097 1323.47 -606.558 1320.1 -606.946 1316.68C-607.165 1314.6 -607.407 1312.44 -607.577 1310.28C-692.388 1316.88 -759.059 1386.81 -761.63 1471.9C-759.738 1471.95 -757.87 1472.07 -755.955 1472.16H-755.93ZM-608.207 1999.74C-604.642 1999.13 -601.029 1998.69 -597.367 1998.28C-595.499 1998.09 -593.607 1997.89 -591.716 1997.72C-598.288 1912.88 -668.233 1846.22 -753.287 1843.65C-753.359 1845.78 -753.481 1847.92 -753.626 1850.05C-753.845 1853.47 -754.111 1856.89 -754.499 1860.26C-677.352 1862.2 -613.858 1922.75 -608.232 1999.76L-608.207 1999.74ZM-427.307 1463.43C-427.259 1461.73 -427.137 1460.06 -427.04 1458.39C-426.846 1454.51 -426.555 1450.67 -426.094 1446.87C-503.242 1444.9 -566.735 1384.33 -572.362 1307.37C-575.879 1307.95 -579.492 1308.41 -583.106 1308.82C-585.022 1309.04 -586.914 1309.24 -588.854 1309.38C-582.257 1394.23 -512.337 1460.91 -427.283 1463.46L-427.307 1463.43ZM-418.891 1816.48C-418.843 1814.78 -418.722 1813.11 -418.649 1811.44C-418.431 1807.58 -418.14 1803.72 -417.679 1799.91C-494.851 1797.97 -558.32 1737.41 -563.946 1660.42C-567.512 1661 -571.101 1661.48 -574.715 1661.87C-576.631 1662.09 -578.522 1662.29 -580.462 1662.43C-573.841 1747.28 -503.945 1813.93 -418.891 1816.51V1816.48ZM-747.515 1825.24C-743.852 1825.48 -740.215 1825.77 -736.601 1826.16C-734.636 1748.98 -674.102 1685.5 -597.124 1679.87C-597.682 1676.52 -598.118 1673.18 -598.506 1669.73C-598.749 1667.65 -598.991 1665.49 -599.137 1663.33C-683.973 1669.93 -750.643 1739.86 -753.19 1824.95C-751.298 1825 -749.406 1825.12 -747.515 1825.24ZM-616.599 1646.69C-613.009 1646.08 -609.42 1645.62 -605.758 1645.23C-603.866 1645.04 -601.975 1644.82 -600.059 1644.68C-606.655 1559.83 -676.576 1493.17 -761.654 1490.6C-761.678 1492.73 -761.824 1494.87 -761.969 1497C-762.187 1500.42 -762.478 1503.82 -762.867 1507.22C-685.695 1509.16 -622.225 1569.7 -616.599 1646.71V1646.69ZM-553.833 1303.27C-550.147 1372.88 -492.595 1427.8 -422.893 1428.16C-421.632 1422.49 -420.128 1416.93 -418.358 1411.48C-418.722 1411.48 -419.061 1411.52 -419.449 1411.52C-482.991 1413.05 -535.91 1362.58 -537.438 1299.02C-537.438 1298.66 -537.438 1298.3 -537.438 1297.91C-542.798 1299.95 -548.279 1301.74 -553.882 1303.24L-553.833 1303.27ZM-625.015 1293.64C-621.425 1293.03 -617.836 1292.57 -614.174 1292.18C-612.306 1291.99 -610.414 1291.8 -608.523 1291.63C-615.095 1206.78 -685.04 1140.12 -770.094 1137.55C-770.167 1139.69 -770.288 1141.82 -770.409 1143.95C-770.652 1147.37 -770.918 1150.79 -771.306 1154.17C-694.159 1156.13 -630.69 1216.65 -625.039 1293.66L-625.015 1293.64ZM-518.74 1298.59C-517.478 1351.83 -473.12 1394.11 -419.886 1392.87C-416.878 1392.77 -413.895 1392.56 -410.937 1392.24C-410.524 1391.29 -410.088 1390.37 -409.651 1389.48C-409.433 1389.01 -409.239 1388.63 -409.045 1388.19C-408.075 1386.2 -407.08 1384.24 -406.062 1382.27C-405.431 1381.08 -404.752 1379.89 -404.122 1378.71C-403.806 1378.17 -403.54 1377.64 -403.224 1377.13C-402.521 1375.84 -401.842 1374.61 -401.114 1373.39C-407.226 1375.07 -413.677 1376.04 -420.298 1376.21C-464.389 1377.27 -501.108 1342.27 -502.151 1298.18C-502.32 1291.55 -501.641 1285.08 -500.259 1278.87C-501.35 1279.62 -502.49 1280.3 -503.606 1281C-504.261 1281.44 -504.94 1281.85 -505.619 1282.29C-506.662 1282.92 -507.705 1283.6 -508.772 1284.2C-510.712 1285.37 -512.725 1286.51 -514.738 1287.58C-515.053 1287.77 -515.368 1287.94 -515.659 1288.11C-516.63 1288.62 -517.575 1289.13 -518.545 1289.64C-518.74 1292.6 -518.837 1295.58 -518.764 1298.61L-518.74 1298.59ZM-764.346 1119.14C-760.684 1119.38 -757.046 1119.65 -753.432 1120.06C-751.468 1042.9 -690.933 979.376 -613.955 973.773H-613.931C-614.513 970.425 -614.95 967.054 -615.338 963.634C-615.58 961.547 -615.799 959.389 -615.968 957.23C-700.804 963.828 -767.45 1033.76 -770.021 1118.85C-768.129 1118.9 -766.238 1119.02 -764.346 1119.14ZM160.553 1639.53C164.215 1709.12 221.79 1764.04 291.493 1764.4C292.511 1759.84 293.699 1755.36 295.033 1750.92L294.961 1747.76C231.419 1749.29 178.451 1698.81 176.972 1635.26C176.972 1634.9 176.972 1634.54 176.972 1634.17C171.588 1636.19 166.131 1637.96 160.528 1639.51L160.553 1639.53ZM195.67 1634.83C196.932 1688.07 241.29 1730.35 294.524 1729.09L294.112 1712.45C250.045 1713.51 213.326 1678.51 212.283 1634.41C212.138 1627.79 212.817 1621.32 214.199 1615.08C213.084 1615.81 211.968 1616.51 210.853 1617.22C210.198 1617.65 209.519 1618.07 208.84 1618.5C207.797 1619.16 206.754 1619.81 205.687 1620.42C203.698 1621.58 201.734 1622.7 199.721 1623.81C199.405 1623.98 199.09 1624.18 198.775 1624.32C197.829 1624.86 196.883 1625.34 195.937 1625.85C195.743 1628.81 195.622 1631.79 195.719 1634.83H195.67ZM-383.749 1820.07L-383.628 1817.77C-381.664 1740.58 -321.129 1677.08 -244.151 1671.45C-244.709 1668.11 -245.146 1664.73 -245.534 1661.34C-245.776 1659.2 -245.994 1657.09 -246.188 1654.94C-331 1661.53 -397.67 1731.46 -400.241 1816.55L-400.362 1819.73C-394.809 1819.88 -389.303 1820.02 -383.798 1820.07H-383.749Z" fill="#B89635"/>
</g>
<rect x="-491" y="79.3301" width="750" height="750" rx="160" transform="rotate(-45 -491 79.3301)" fill="#B89635" fill-opacity="0.32"/>
<path d="M940.137 986.467C877.653 923.983 877.653 822.677 940.137 760.193L1244.19 456.137C1306.68 393.653 1407.98 393.653 1470.47 456.137L1774.52 760.193C1837.01 822.677 1837.01 923.983 1774.52 986.467L1470.47 1290.52C1407.98 1353.01 1306.68 1353.01 1244.19 1290.52L940.137 986.467Z" fill="#B89635" fill-opacity="0.51"/>
<path d="M1156.38 1086.96L1157.23 1088.87L1181.28 1112.86L1183.2 1113.71H1233.43L1252.16 1132.4V1166.37L1204.48 1213.94L1203.63 1215.85V1243.03L1204.48 1244.94L1213.63 1254.07L1215.55 1254.92H1253.86L1279.62 1280.61L1281.53 1281.46H1342.62L1344.54 1280.61L1369.44 1255.77C1371.57 1257.25 1373.91 1258.1 1376.46 1258.1C1383.06 1258.1 1388.6 1252.8 1388.6 1246C1388.6 1239.21 1383.27 1233.9 1376.46 1233.9C1369.65 1233.9 1364.33 1239.21 1364.33 1246C1364.33 1248.12 1364.97 1250.04 1365.82 1251.95L1341.56 1276.15H1282.6L1256.84 1250.46L1254.93 1249.61H1216.83L1209.16 1241.97V1217.12L1256.84 1169.56L1257.69 1167.65V1131.55L1256.84 1129.64L1236.62 1109.47L1234.71 1108.62H1184.47L1161.91 1086.11V887.148L1161.27 885.449L1148.93 866.976L1144.67 869.948L1156.8 887.997V1086.75" fill="#EEE7D1" fill-opacity="0.2"/>
<path d="M1443.55 1001.29L1385.76 1058.7H1354.29L1352.37 1059.55L1323.26 1088.46L1322.4 1090.37V1181.37L1312.98 1190.72C1310.63 1188.6 1307.85 1187.53 1304.85 1187.53C1298.21 1187.53 1292.65 1192.85 1292.65 1199.65C1292.65 1206.45 1298.21 1211.77 1304.85 1211.77C1311.48 1211.77 1317.05 1206.24 1317.05 1199.65L1316.19 1195.19L1327.11 1184.34L1327.97 1182.43V1091.44L1355.58 1064.01H1387.04L1388.97 1063.16L1448.26 1004.27L1449.12 1002.36V926.034L1448.26 924.121L1292.86 769.773L1287.72 772.112L1443.55 926.885V1001.08" fill="#EEE7D1" fill-opacity="0.2"/>
<path d="M1174.45 1069.82L1200.1 1095.09L1202.04 1095.94H1249.02C1251.18 1097.43 1260.01 1106.35 1269.28 1116.33V1185.35L1242.13 1212.11C1239.97 1210.42 1237.38 1209.57 1234.58 1209.57C1227.9 1209.57 1222.3 1214.88 1222.3 1221.67C1222.3 1228.47 1227.9 1233.78 1234.58 1233.78C1241.26 1233.78 1246.87 1228.47 1246.87 1221.67L1245.57 1216.36L1274.02 1188.33L1274.89 1186.42V1115.27L1274.24 1113.57C1253.33 1090.63 1251.18 1090.63 1249.88 1090.63H1203.33L1179.19 1066.85V841.3L1177.03 842.786L1174.02 844.91V1067.7L1174.88 1069.61" fill="#EEE7D1" fill-opacity="0.2"/>
<path d="M1187.49 1055.36L1205.64 1073.46L1207.56 1074.32H1261.57L1287.82 1100.52V1130.34L1288.68 1132.25L1294.65 1138.22C1293.37 1140.13 1292.73 1142.48 1292.73 1144.61C1292.73 1151.21 1298.07 1156.75 1304.9 1156.75C1311.73 1156.75 1317.07 1151.42 1317.07 1144.61C1317.07 1137.79 1311.73 1132.47 1304.9 1132.47C1302.55 1132.47 1300.42 1133.11 1298.5 1134.38L1293.37 1129.06V1099.24L1292.52 1097.32L1264.77 1069.63L1262.85 1068.78H1208.84L1192.19 1052.16V832.129L1186.85 835.963V1053.44L1187.71 1055.36" fill="#EEE7D1" fill-opacity="0.2"/>
<path d="M1360.88 911.463L1315.22 865.246C1316.26 863.338 1317.1 861.218 1317.1 858.886C1317.1 852.314 1311.87 846.802 1305.16 846.802C1298.46 846.802 1293.23 852.314 1293.23 858.886C1293.23 865.458 1298.46 870.97 1305.16 870.97C1307.47 870.97 1309.56 870.334 1311.45 869.062L1355.64 913.795V1010.47L1311.24 1055.41C1309.56 1054.35 1307.47 1053.72 1305.16 1053.72C1298.67 1053.72 1293.23 1059.02 1293.23 1065.8C1293.23 1072.59 1298.46 1077.89 1305.16 1077.89C1311.87 1077.89 1317.1 1072.59 1317.1 1065.8C1317.1 1063.47 1316.47 1061.14 1315.22 1059.23L1361.09 1012.8V911.463" fill="#EEE7D1" fill-opacity="0.2"/>
<path d="M1138.41 894.991V1095.72L1139.25 1097.64L1187.4 1146.33L1189.3 1147.18H1205.49C1206.75 1152.71 1211.58 1156.75 1217.05 1156.75C1223.57 1156.75 1229.04 1151.43 1229.04 1144.63C1229.04 1137.82 1223.78 1132.51 1217.05 1132.51C1211.58 1132.51 1206.54 1136.55 1205.49 1141.86H1190.35L1143.67 1094.66V894.14L1143.04 892.439L1134.42 877.98L1130 880.957L1138.62 895.203" fill="#EEE7D1" fill-opacity="0.2"/>
<path d="M1156.38 674.503L1157.23 672.592L1181.28 648.597L1183.2 647.748H1233.43L1252.16 629.062V595.088L1204.48 547.524L1203.63 545.613V518.434L1204.48 516.523L1213.63 507.392L1215.55 506.543H1253.86L1279.62 480.85L1281.53 480H1342.62L1344.54 480.85L1369.44 505.693C1371.57 504.207 1373.91 503.358 1376.46 503.358C1383.06 503.358 1388.6 508.666 1388.6 515.461C1388.6 522.256 1383.27 527.564 1376.46 527.564C1369.65 527.564 1364.33 522.256 1364.33 515.461C1364.33 513.337 1364.97 511.426 1365.82 509.515L1341.56 485.309H1282.6L1256.84 511.002L1254.93 511.851H1216.83L1209.16 519.495V544.339L1256.84 591.903L1257.69 593.814V629.912L1256.84 631.823L1236.62 651.995L1234.71 652.844H1184.47L1161.91 675.352V874.314L1161.27 876.013L1148.93 894.486L1144.67 891.513L1156.8 873.465V674.715" fill="#EEE7D1" fill-opacity="0.2"/>
<path d="M1443.55 760.167L1385.76 702.765H1354.29L1352.37 701.914L1323.26 673.001L1322.4 671.087V580.094L1312.98 570.74C1310.63 572.866 1307.85 573.929 1304.85 573.929C1298.21 573.929 1292.65 568.614 1292.65 561.811C1292.65 555.008 1298.21 549.693 1304.85 549.693C1311.48 549.693 1317.05 555.22 1317.05 561.811L1316.19 566.275L1327.11 577.118L1327.97 579.031V670.024L1355.58 697.45H1387.04L1388.97 698.3L1448.26 757.19L1449.12 759.104V835.427L1448.26 837.341L1292.86 991.688L1287.72 989.35L1443.55 834.577V760.379" fill="#EEE7D1" fill-opacity="0.2"/>
<path d="M1174.45 691.642L1200.1 666.368L1202.04 665.519H1249.02C1251.18 664.032 1260.01 655.112 1269.28 645.13V576.107L1242.13 549.347C1239.97 551.046 1237.38 551.896 1234.58 551.896C1227.9 551.896 1222.3 546.586 1222.3 539.79C1222.3 532.994 1227.9 527.684 1234.58 527.684C1241.26 527.684 1246.87 532.994 1246.87 539.79L1245.57 545.1L1274.02 573.134L1274.89 575.045V646.192L1274.24 647.891C1253.33 670.828 1251.18 670.828 1249.88 670.828H1203.33L1179.19 694.615V920.162L1177.03 918.675L1174.02 916.552V693.765L1174.88 691.854" fill="#EEE7D1" fill-opacity="0.2"/>
<path d="M1187.49 706.103L1205.64 687.998L1207.56 687.146H1261.57L1287.82 660.946V631.125L1288.68 629.208L1294.65 623.244C1293.37 621.327 1292.73 618.984 1292.73 616.854C1292.73 610.251 1298.07 604.713 1304.9 604.713C1311.73 604.713 1317.07 610.038 1317.07 616.854C1317.07 623.67 1311.73 628.995 1304.9 628.995C1302.55 628.995 1300.42 628.356 1298.5 627.078L1293.37 632.403V662.224L1292.52 664.141L1264.77 691.832L1262.85 692.684H1208.84L1192.19 709.298V929.332L1186.85 925.498V708.02L1187.71 706.103" fill="#EEE7D1" fill-opacity="0.2"/>
<path d="M1360.88 849.999L1315.22 896.216C1316.26 898.124 1317.1 900.244 1317.1 902.576C1317.1 909.148 1311.87 914.66 1305.16 914.66C1298.46 914.66 1293.23 909.148 1293.23 902.576C1293.23 896.004 1298.46 890.492 1305.16 890.492C1307.47 890.492 1309.56 891.128 1311.45 892.4L1355.64 847.667V750.993L1311.24 706.048C1309.56 707.108 1307.47 707.744 1305.16 707.744C1298.67 707.744 1293.23 702.444 1293.23 695.659C1293.23 688.875 1298.46 683.575 1305.16 683.575C1311.87 683.575 1317.1 688.875 1317.1 695.659C1317.1 697.991 1316.47 700.323 1315.22 702.232L1361.09 748.661V849.999" fill="#EEE7D1" fill-opacity="0.2"/>
<path d="M1287.52 952.703L1241.86 998.92C1242.9 1000.83 1243.74 1002.95 1243.74 1005.28C1243.74 1011.85 1238.51 1017.36 1231.8 1017.36C1225.1 1017.36 1219.87 1011.85 1219.87 1005.28C1219.87 998.708 1225.1 993.196 1231.8 993.196C1234.11 993.196 1236.2 993.832 1238.09 995.104L1282.28 950.371V853.697L1237.88 808.752C1236.2 809.812 1234.11 810.448 1231.8 810.448C1225.31 810.448 1219.87 805.148 1219.87 798.364C1219.87 791.58 1225.1 786.279 1231.8 786.279C1238.51 786.279 1243.74 791.58 1243.74 798.364C1243.74 800.696 1243.11 803.028 1241.86 804.936L1287.72 851.365V952.703" fill="#EEE7D1" fill-opacity="0.2"/>
<path d="M1456.24 758.298L1410.59 804.515C1411.63 806.423 1412.47 808.543 1412.47 810.875C1412.47 817.448 1407.24 822.96 1400.53 822.96C1393.83 822.96 1388.6 817.448 1388.6 810.875C1388.6 804.303 1393.83 798.791 1400.53 798.791C1402.84 798.791 1404.93 799.427 1406.82 800.699L1451.01 755.966V659.292L1406.61 614.347C1404.93 615.407 1402.84 616.043 1400.53 616.043C1394.04 616.043 1388.6 610.743 1388.6 603.959C1388.6 597.175 1393.83 591.875 1400.53 591.875C1407.24 591.875 1412.47 597.175 1412.47 603.959C1412.47 606.291 1411.84 608.623 1410.59 610.531L1456.45 656.96V758.298" fill="#EEE7D1" fill-opacity="0.2"/>
<path d="M1445.24 1088.42L1399.58 1134.64C1400.63 1136.54 1401.47 1138.66 1401.47 1141C1401.47 1147.57 1396.23 1153.08 1389.53 1153.08C1382.83 1153.08 1377.59 1147.57 1377.59 1141C1377.59 1134.42 1382.83 1128.91 1389.53 1128.91C1391.83 1128.91 1393.93 1129.55 1395.81 1130.82L1440 1086.09V989.413L1395.6 944.469C1393.93 945.529 1391.83 946.165 1389.53 946.165C1383.04 946.165 1377.59 940.864 1377.59 934.08C1377.59 927.296 1382.83 921.996 1389.53 921.996C1396.23 921.996 1401.47 927.296 1401.47 934.08C1401.47 936.412 1400.84 938.744 1399.58 940.652L1445.45 987.081V1088.42" fill="#EEE7D1" fill-opacity="0.2"/>
<path d="M1447.07 706.946L1401.42 753.163C1402.46 755.071 1403.3 757.191 1403.3 759.523C1403.3 766.095 1398.07 771.607 1391.36 771.607C1384.66 771.607 1379.43 766.095 1379.43 759.523C1379.43 752.951 1384.66 747.439 1391.36 747.439C1393.67 747.439 1395.76 748.075 1397.65 749.347L1441.84 704.614V607.94L1397.44 562.995C1395.76 564.055 1393.67 564.691 1391.36 564.691C1384.87 564.691 1379.43 559.391 1379.43 552.607C1379.43 545.822 1384.66 540.522 1391.36 540.522C1398.07 540.522 1403.3 545.822 1403.3 552.607C1403.3 554.939 1402.67 557.271 1401.42 559.179L1447.28 605.608V706.946" fill="#EEE7D1" fill-opacity="0.2"/>
<path d="M1138.41 866.471V665.74L1139.25 663.826L1187.4 615.132L1189.3 614.281H1205.49C1206.75 608.753 1211.58 604.713 1217.05 604.713C1223.57 604.713 1229.04 610.029 1229.04 616.833C1229.04 623.638 1223.78 628.953 1217.05 628.953C1211.58 628.953 1206.54 624.913 1205.49 619.597H1190.35L1143.67 666.803V867.321L1143.04 869.023L1134.42 883.482L1130 880.505L1138.62 866.258" fill="#EEE7D1" fill-opacity="0.2"/>
</g>
</g>
<defs>
<clipPath id="clip0_1268_15568">
<rect width="1440" height="1024" fill="white"/>
</clipPath>
<clipPath id="clip1_1268_15568">
<rect width="1440" height="1026" fill="white"/>
</clipPath>
<clipPath id="clip2_1268_15568">
<rect width="1165" height="1022" fill="white"/>
</clipPath>
</defs>
</svg>
