<svg width="48" height="48" viewBox="0 0 48 48" fill="none" xmlns="http://www.w3.org/2000/svg">
<g clip-path="url(#clip0_40_1831)">
<path d="M24.0001 22.6667C25.846 22.6667 27.6505 22.1193 29.1854 21.0937C30.7203 20.0682 31.9165 18.6105 32.623 16.905C33.3294 15.1996 33.5142 13.323 33.1541 11.5125C32.7939 9.702 31.905 8.03896 30.5997 6.73367C29.2945 5.42838 27.6314 4.53947 25.8209 4.17934C24.0104 3.81921 22.1338 4.00404 20.4284 4.71046C18.7229 5.41688 17.2653 6.61316 16.2397 8.14801C15.2141 9.68287 14.6667 11.4874 14.6667 13.3333C14.6667 15.8087 15.6501 18.1827 17.4004 19.933C19.1508 21.6833 21.5247 22.6667 24.0001 22.6667ZM24.0001 6.66667C25.3186 6.66667 26.6076 7.05766 27.7039 7.79021C28.8002 8.52275 29.6547 9.56394 30.1593 10.7821C30.6639 12.0003 30.7959 13.3407 30.5387 14.6339C30.2814 15.9271 29.6465 17.115 28.7141 18.0474C27.7818 18.9797 26.5939 19.6147 25.3007 19.8719C24.0075 20.1291 22.667 19.9971 21.4489 19.4925C20.2307 18.9879 19.1895 18.1335 18.457 17.0371C17.7244 15.9408 17.3334 14.6519 17.3334 13.3333C17.3334 11.5652 18.0358 9.86953 19.286 8.61929C20.5363 7.36905 22.232 6.66667 24.0001 6.66667Z" fill="#141414"/>
<path d="M40.6268 32.4931C38.4885 30.2331 35.9118 28.4329 33.0541 27.2027C30.1965 25.9724 27.118 25.3379 24.0068 25.3379C20.8955 25.3379 17.817 25.9724 14.9594 27.2027C12.1017 28.4329 9.52501 30.2331 7.38675 32.4931C6.92317 32.9882 6.6657 33.6414 6.66675 34.3197V41.3331C6.66675 42.0403 6.9477 42.7186 7.4478 43.2187C7.9479 43.7188 8.62617 43.9997 9.33342 43.9997H38.6668C39.374 43.9997 40.0523 43.7188 40.5524 43.2187C41.0525 42.7186 41.3334 42.0403 41.3334 41.3331V34.3197C41.3381 33.6433 41.0855 32.9903 40.6268 32.4931ZM38.6668 41.3331H9.33342V34.3064C11.2231 32.3166 13.4978 30.7322 16.0192 29.6495C18.5407 28.5667 21.256 28.0084 24.0001 28.0084C26.7441 28.0084 29.4595 28.5667 31.9809 29.6495C34.5024 30.7322 36.7771 32.3166 38.6668 34.3064V41.3331Z" fill="#141414"/>
</g>
<defs>
<clipPath id="clip0_40_1831">
<rect width="48" height="48" fill="white"/>
</clipPath>
</defs>
</svg>
