<svg width="39" height="41" viewBox="0 0 39 41" fill="none" xmlns="http://www.w3.org/2000/svg">
<path d="M16.375 15.8669V13.5669" stroke="#F0AE44" stroke-width="1.5" stroke-miterlimit="10"/>
<path d="M22.8613 15.8669V13.5669" stroke="#F0AE44" stroke-width="1.5" stroke-miterlimit="10"/>
<path d="M24.4075 14.7168H14.8393C14.0641 14.7168 13.4358 15.3795 13.4358 16.1969V25.1269C13.4358 25.9442 14.0641 26.6068 14.8393 26.6068H24.4075C25.1826 26.6068 25.8109 25.9442 25.8109 25.1269V16.1969C25.8109 15.3795 25.1826 14.7168 24.4075 14.7168Z" stroke="#F0AE44" stroke-width="1.5" stroke-miterlimit="10"/>
<path d="M13.4358 18.167H25.8109" stroke="#F0AE44" stroke-width="1.5" stroke-miterlimit="10"/>
<path d="M13.6631 21.187H25.5736" stroke="#F0AE44" stroke-width="1.5" stroke-miterlimit="10"/>
<path d="M13.6631 24.107H25.5736" stroke="#F0AE44" stroke-width="1.5" stroke-miterlimit="10"/>
<path d="M16.1763 18.5469V26.2469" stroke="#F0AE44" stroke-width="1.5" stroke-miterlimit="10"/>
<path d="M19.6177 18.5469V26.2469" stroke="#F0AE44" stroke-width="1.5" stroke-miterlimit="10"/>
<path d="M23.0703 18.5469V26.2469" stroke="#F0AE44" stroke-width="1.5" stroke-miterlimit="10"/>
<path d="M25.1772 34.6933C32.5249 31.4489 35.9873 22.5374 32.9107 14.789C29.8341 7.0406 21.3834 3.38939 14.0357 6.63381C6.68795 9.87822 3.22555 18.7897 6.30219 26.5381C9.37883 34.2865 17.8295 37.9377 25.1772 34.6933Z" stroke="#F0AE44" stroke-width="1.5" stroke-miterlimit="10"/>
</svg>
