<svg width="14" height="14" viewBox="0 0 14 14" fill="none" xmlns="http://www.w3.org/2000/svg">
<path d="M3.82927 0C3.95459 0 4.07477 0.0497811 4.16338 0.138392C4.25199 0.227003 4.30177 0.347185 4.30177 0.4725V1.35608H9.37575V0.478575C9.37575 0.35326 9.42553 0.233078 9.51414 0.144467C9.60275 0.0558561 9.72294 0.006075 9.84825 0.006075C9.97357 0.006075 10.0937 0.0558561 10.1824 0.144467C10.271 0.233078 10.3208 0.35326 10.3208 0.478575V1.35608H12.15C12.5079 1.35608 12.8512 1.49821 13.1044 1.75124C13.3575 2.00427 13.4998 2.34747 13.5 2.7054V12.1507C13.4998 12.5086 13.3575 12.8518 13.1044 13.1048C12.8512 13.3579 12.5079 13.5 12.15 13.5H1.35C0.992075 13.5 0.648799 13.3579 0.395644 13.1048C0.14249 12.8518 0.000178963 12.5086 0 12.1507L0 2.7054C0.000178963 2.34747 0.14249 2.00427 0.395644 1.75124C0.648799 1.49821 0.992075 1.35608 1.35 1.35608H3.35678V0.471825C3.35695 0.346627 3.40681 0.226618 3.49541 0.138153C3.584 0.0496883 3.70408 -1.27753e-07 3.82927 0ZM0.945 5.22585V12.1507C0.945 12.2039 0.955476 12.2565 0.975829 12.3057C0.996182 12.3548 1.02601 12.3994 1.06362 12.4371C1.10123 12.4747 1.14588 12.5045 1.19501 12.5248C1.24415 12.5452 1.29681 12.5557 1.35 12.5557H12.15C12.2032 12.5557 12.2558 12.5452 12.305 12.5248C12.3541 12.5045 12.3988 12.4747 12.4364 12.4371C12.474 12.3994 12.5038 12.3548 12.5242 12.3057C12.5445 12.2565 12.555 12.2039 12.555 12.1507V5.2353L0.945 5.22585ZM4.50023 9.86783V10.9924H3.375V9.86783H4.50023ZM7.31228 9.86783V10.9924H6.18773V9.86783H7.31228ZM10.125 9.86783V10.9924H8.99977V9.86783H10.125ZM4.50023 7.18335V8.3079H3.375V7.18335H4.50023ZM7.31228 7.18335V8.3079H6.18773V7.18335H7.31228ZM10.125 7.18335V8.3079H8.99977V7.18335H10.125ZM3.35678 2.3004H1.35C1.29681 2.3004 1.24415 2.31088 1.19501 2.33123C1.14588 2.35158 1.10123 2.38141 1.06362 2.41902C1.02601 2.45663 0.996182 2.50128 0.975829 2.55041C0.955476 2.59955 0.945 2.65221 0.945 2.7054V4.28153L12.555 4.29098V2.7054C12.555 2.65221 12.5445 2.59955 12.5242 2.55041C12.5038 2.50128 12.474 2.45663 12.4364 2.41902C12.3988 2.38141 12.3541 2.35158 12.305 2.33123C12.2558 2.31088 12.2032 2.3004 12.15 2.3004H10.3208V2.92747C10.3208 3.05279 10.271 3.17297 10.1824 3.26158C10.0937 3.35019 9.97357 3.39998 9.84825 3.39998C9.72294 3.39998 9.60275 3.35019 9.51414 3.26158C9.42553 3.17297 9.37575 3.05279 9.37575 2.92747V2.3004H4.30177V2.9214C4.30177 3.04671 4.25199 3.1669 4.16338 3.25551C4.07477 3.34412 3.95459 3.3939 3.82927 3.3939C3.70396 3.3939 3.58378 3.34412 3.49517 3.25551C3.40656 3.1669 3.35678 3.04671 3.35678 2.9214V2.3004Z" fill="#B89635"/>
</svg>
