<svg width="26" height="26" viewBox="0 0 26 26" fill="none" xmlns="http://www.w3.org/2000/svg">
<rect width="26" height="26" rx="4" fill="#FFF1E5"/>
<g clip-path="url(#clip0_40_568)">
<path d="M17.6165 8.61435C17.6909 8.53864 17.7797 8.4785 17.8777 8.43745C17.9757 8.39639 18.0809 8.37524 18.1871 8.37524C18.2934 8.37524 18.3986 8.39639 18.4965 8.43745C18.5945 8.4785 18.6833 8.53864 18.7577 8.61435C18.9075 8.76619 18.9924 8.97017 18.9944 9.18328C18.9965 9.39638 18.9156 9.60195 18.7687 9.75664L12.3232 17.3645C12.25 17.4448 12.1611 17.5092 12.0621 17.554C11.9631 17.5988 11.856 17.623 11.7473 17.625C11.6386 17.6271 11.5306 17.607 11.43 17.566C11.3294 17.525 11.2382 17.4639 11.162 17.3865L7.23967 13.4179C7.08854 13.2639 7.00391 13.0569 7.00391 12.8413C7.00391 12.6257 7.08854 12.4187 7.23967 12.2647C7.31409 12.189 7.40288 12.1288 7.50085 12.0878C7.59883 12.0467 7.70402 12.0256 7.81027 12.0256C7.91653 12.0256 8.02172 12.0467 8.11969 12.0878C8.21767 12.1288 8.30646 12.189 8.38088 12.2647L11.7086 15.6307L17.5955 8.6383L17.6165 8.61435Z" fill="#B89635"/>
</g>
<defs>
<clipPath id="clip0_40_568">
<rect width="12" height="9.25" fill="white" transform="translate(7 8.375)"/>
</clipPath>
</defs>
</svg>
