<svg width="24" height="25" viewBox="0 0 24 25" fill="none" xmlns="http://www.w3.org/2000/svg">
<path d="M5 5.125H18C18.7956 5.125 19.5587 5.44107 20.1213 6.00368C20.6839 6.56629 21 7.32935 21 8.125V17.125C21 17.9206 20.6839 18.6837 20.1213 19.2463C19.5587 19.8089 18.7956 20.125 18 20.125H5C4.20435 20.125 3.44129 19.8089 2.87868 19.2463C2.31607 18.6837 2 17.9206 2 17.125V8.125C2 7.32935 2.31607 6.56629 2.87868 6.00368C3.44129 5.44107 4.20435 5.125 5 5.125ZM5 6.125C4.5 6.125 4.06 6.295 3.72 6.595L11.5 11.625L19.28 6.595C18.94 6.295 18.5 6.125 18 6.125H5ZM11.5 12.835L3.13 7.405C3.05 7.625 3 7.875 3 8.125V17.125C3 17.6554 3.21071 18.1641 3.58579 18.5392C3.96086 18.9143 4.46957 19.125 5 19.125H18C18.5304 19.125 19.0391 18.9143 19.4142 18.5392C19.7893 18.1641 20 17.6554 20 17.125V8.125C20 7.875 19.95 7.625 19.87 7.405L11.5 12.835Z" fill="#B89635"/>
</svg>
