<svg width="36" height="36" viewBox="0 0 36 36" fill="none" xmlns="http://www.w3.org/2000/svg">
<path d="M10.7801 21.27L13.3201 20.98C13.9301 20.91 14.5301 21.12 14.9601 21.55L16.8001 23.39C19.6301 21.95 21.9501 19.64 23.3901 16.8L21.5401 14.95C21.3274 14.7375 21.1656 14.4795 21.0668 14.1955C20.9681 13.9114 20.935 13.6087 20.9701 13.31L21.2601 10.79C21.3801 9.78002 22.2301 9.02002 23.2501 9.02002H24.9801C26.1101 9.02002 27.0501 9.96002 26.9801 11.09C26.4501 19.63 19.6201 26.45 11.0901 26.98C9.96012 27.05 9.02012 26.11 9.02012 24.98V23.25C9.01012 22.24 9.77012 21.39 10.7801 21.27Z" fill="#B89635"/>
<rect width="36" height="36" rx="8" fill="#B89635"/>
<path d="M19.4638 27V18.7894H22.3585L22.7919 15.5895H19.4637V13.5465C19.4637 12.6201 19.7339 11.9888 21.1293 11.9888L22.909 11.988V9.12607C22.6012 9.08715 21.5447 9 20.3157 9C17.7497 9 15.9929 10.4912 15.9929 13.2297V15.5895H13.0908V18.7894H15.9929V26.9999H19.4638V27Z" fill="white"/>
</svg>
