<svg width="14" height="14" viewBox="0 0 14 14" fill="none" xmlns="http://www.w3.org/2000/svg">
<path d="M9.693 8.1C9.747 7.6545 9.7875 7.209 9.7875 6.75C9.7875 6.291 9.747 5.8455 9.693 5.4H11.9745C12.0825 5.832 12.15 6.28425 12.15 6.75C12.15 7.21575 12.0825 7.668 11.9745 8.1M8.49825 11.853C8.90325 11.1038 9.21375 10.2937 9.42975 9.45H11.421C10.767 10.5761 9.72953 11.4291 8.49825 11.853ZM8.3295 8.1H5.1705C5.103 7.6545 5.0625 7.209 5.0625 6.75C5.0625 6.291 5.103 5.83875 5.1705 5.4H8.3295C8.39025 5.83875 8.4375 6.291 8.4375 6.75C8.4375 7.209 8.39025 7.6545 8.3295 8.1ZM6.75 12.123C6.18975 11.313 5.7375 10.4152 5.46075 9.45H8.03925C7.7625 10.4152 7.31025 11.313 6.75 12.123ZM4.05 4.05H2.079C2.72623 2.92087 3.76299 2.0665 4.995 1.647C4.59 2.39625 4.28625 3.20625 4.05 4.05ZM2.079 9.45H4.05C4.28625 10.2937 4.59 11.1038 4.995 11.853C3.76557 11.4289 2.73027 10.5757 2.079 9.45ZM1.5255 8.1C1.4175 7.668 1.35 7.21575 1.35 6.75C1.35 6.28425 1.4175 5.832 1.5255 5.4H3.807C3.753 5.8455 3.7125 6.291 3.7125 6.75C3.7125 7.209 3.753 7.6545 3.807 8.1M6.75 1.37025C7.31025 2.18025 7.7625 3.08475 8.03925 4.05H5.46075C5.7375 3.08475 6.18975 2.18025 6.75 1.37025ZM11.421 4.05H9.42975C9.21849 3.21398 8.90566 2.40698 8.49825 1.647C9.74025 2.07225 10.773 2.9295 11.421 4.05ZM6.75 0C3.01725 0 0 3.0375 0 6.75C0 8.54021 0.711159 10.2571 1.97703 11.523C2.60382 12.1498 3.34794 12.647 4.16689 12.9862C4.98583 13.3254 5.86358 13.5 6.75 13.5C8.54021 13.5 10.2571 12.7888 11.523 11.523C12.7888 10.2571 13.5 8.54021 13.5 6.75C13.5 5.86358 13.3254 4.98583 12.9862 4.16689C12.647 3.34794 12.1498 2.60382 11.523 1.97703C10.8962 1.35023 10.1521 0.853032 9.33311 0.513813C8.51417 0.174594 7.63642 0 6.75 0Z" fill="#B89635"/>
</svg>
