<svg width="58" height="58" viewBox="0 0 58 58" fill="none" xmlns="http://www.w3.org/2000/svg">
<path d="M29 5.8C22.847 5.8 16.946 8.24428 12.5951 12.5951C8.24428 16.946 5.8 22.847 5.8 29C5.8 35.153 8.24428 41.054 12.5951 45.4049C16.946 49.7557 22.847 52.2 29 52.2C35.153 52.2 41.054 49.7557 45.4049 45.4049C49.7557 41.054 52.2 35.153 52.2 29C52.2 22.847 49.7557 16.946 45.4049 12.5951C41.054 8.24428 35.153 5.8 29 5.8ZM0 29C0 12.9833 12.9833 0 29 0C45.0167 0 58 12.9833 58 29C58 45.0167 45.0167 58 29 58C12.9833 58 0 45.0167 0 29ZM16.7997 16.7997C17.3435 16.256 18.081 15.9506 18.85 15.9506C19.619 15.9506 20.3565 16.256 20.9003 16.7997L29 24.8994L37.0997 16.7997C37.3672 16.5227 37.6872 16.3018 38.041 16.1498C38.3948 15.9978 38.7754 15.9178 39.1604 15.9145C39.5455 15.9111 39.9274 15.9845 40.2838 16.1303C40.6402 16.2761 40.964 16.4915 41.2362 16.7638C41.5085 17.036 41.7239 17.3598 41.8697 17.7162C42.0155 18.0726 42.0889 18.4545 42.0855 18.8396C42.0822 19.2246 42.0022 19.6052 41.8502 19.959C41.6982 20.3128 41.4773 20.6328 41.2003 20.9003L33.1006 29L41.2003 37.0997C41.7286 37.6466 42.0209 38.3792 42.0143 39.1396C42.0077 39.8999 41.7027 40.6273 41.165 41.165C40.6273 41.7027 39.8999 42.0077 39.1396 42.0143C38.3792 42.0209 37.6466 41.7286 37.0997 41.2003L29 33.1006L20.9003 41.2003C20.3534 41.7286 19.6208 42.0209 18.8604 42.0143C18.1001 42.0077 17.3727 41.7027 16.835 41.165C16.2973 40.6273 15.9924 39.8999 15.9857 39.1396C15.9791 38.3792 16.2714 37.6466 16.7997 37.0997L24.8994 29L16.7997 20.9003C16.256 20.3565 15.9506 19.619 15.9506 18.85C15.9506 18.081 16.256 17.3435 16.7997 16.7997Z" fill="#FF0000"/>
</svg>
