<svg width="56" height="56" viewBox="0 0 56 56" fill="none" xmlns="http://www.w3.org/2000/svg">
<g clip-path="url(#clip0_672_12453)" filter="url(#filter0_d_672_12453)">
<path d="M20.7213 1.57874C15.9253 3.2425 11.7893 6.40037 8.92073 10.5885C6.05215 14.7766 4.60223 19.7743 4.78392 24.8474C4.96561 29.9204 6.76934 34.8016 9.93017 38.7738C13.091 42.7459 17.4423 45.5998 22.345 46.9162C26.3197 47.9419 30.484 47.9869 34.48 47.0475C38.1 46.2344 41.4467 44.4951 44.1925 42C47.0503 39.3238 49.1246 35.9193 50.1925 32.1525C51.3528 28.0562 51.5593 23.7485 50.7963 19.56H28.4763V28.8187H41.4025C41.1442 30.2954 40.5906 31.7049 39.7748 32.9626C38.9591 34.2204 37.898 35.3006 36.655 36.1387C35.0768 37.1833 33.2974 37.8858 31.4313 38.2012C29.5598 38.5493 27.6402 38.5493 25.7688 38.2012C23.8718 37.8095 22.0774 37.0266 20.5 35.9025C17.9656 34.1084 16.0625 31.5597 15.0625 28.62C14.0458 25.6252 14.0458 22.3786 15.0625 19.3837C15.7744 17.2846 16.9511 15.3733 18.505 13.7925C20.2832 11.9503 22.5345 10.6335 25.0118 9.98653C27.4892 9.33958 30.0969 9.38748 32.5488 10.125C34.4643 10.7127 36.2159 11.74 37.6638 13.125C39.1213 11.675 40.5763 10.2212 42.0288 8.76374C42.7788 7.97999 43.5963 7.23374 44.335 6.43124C42.1245 4.37444 39.53 2.77388 36.7 1.72124C31.5464 -0.150045 25.9074 -0.200334 20.7213 1.57874Z" fill="white"/>
<path d="M20.7213 1.57873C25.907 -0.201552 31.546 -0.152587 36.7 1.71748C39.5305 2.77728 42.1238 4.38553 44.3313 6.44998C43.5813 7.25248 42.79 8.00248 42.025 8.78248C40.57 10.235 39.1163 11.6825 37.6638 13.125C36.2158 11.74 34.4642 10.7127 32.5488 10.125C30.0977 9.38489 27.4901 9.33421 25.0121 9.97852C22.5341 10.6228 20.2814 11.9372 18.5013 13.7775C16.9474 15.3582 15.7706 17.2695 15.0588 19.3687L7.285 13.35C10.0675 7.83209 14.8853 3.61132 20.7213 1.57873Z" fill="#E33629"/>
<path d="M5.2225 19.3125C5.64002 17.2416 6.33372 15.2362 7.285 13.35L15.0587 19.3837C14.0421 22.3785 14.0421 25.6252 15.0587 28.62C12.4687 30.62 9.8775 32.63 7.285 34.65C4.90431 29.9112 4.17824 24.5119 5.2225 19.3125Z" fill="#F8BD00"/>
<path d="M28.4762 19.5563H50.7962C51.5593 23.7448 51.3528 28.0525 50.1925 32.1488C49.1246 35.9156 47.0503 39.3201 44.1925 41.9963C41.6837 40.0388 39.1637 38.0963 36.655 36.1388C37.8988 35.2998 38.9604 34.2184 39.7762 32.9593C40.5919 31.7002 41.1451 30.2893 41.4025 28.8113H28.4762C28.4725 25.7288 28.4762 22.6425 28.4762 19.5563Z" fill="#587DBD"/>
<path d="M7.28125 34.65C9.87375 32.65 12.465 30.64 15.055 28.62C16.057 31.5607 17.9628 34.1096 20.5 35.9025C22.0823 37.0214 23.8806 37.7979 25.78 38.1825C27.6515 38.5306 29.571 38.5306 31.4425 38.1825C33.3086 37.8671 35.088 37.1645 36.6663 36.12C39.175 38.0775 41.695 40.02 44.2038 41.9775C41.4583 44.474 38.1116 46.2145 34.4912 47.0287C30.4953 47.9681 26.331 47.9231 22.3563 46.8975C19.2126 46.0581 16.2763 44.5785 13.7313 42.5512C11.0377 40.4123 8.83763 37.7172 7.28125 34.65Z" fill="#319F43"/>
</g>
<defs>
<filter id="filter0_d_672_12453" x="0" y="0" width="56" height="56" filterUnits="userSpaceOnUse" color-interpolation-filters="sRGB">
<feFlood flood-opacity="0" result="BackgroundImageFix"/>
<feColorMatrix in="SourceAlpha" type="matrix" values="0 0 0 0 0 0 0 0 0 0 0 0 0 0 0 0 0 0 127 0" result="hardAlpha"/>
<feOffset dy="4"/>
<feGaussianBlur stdDeviation="2"/>
<feComposite in2="hardAlpha" operator="out"/>
<feColorMatrix type="matrix" values="0 0 0 0 0 0 0 0 0 0 0 0 0 0 0 0 0 0 0.25 0"/>
<feBlend mode="normal" in2="BackgroundImageFix" result="effect1_dropShadow_672_12453"/>
<feBlend mode="normal" in="SourceGraphic" in2="effect1_dropShadow_672_12453" result="shape"/>
</filter>
<clipPath id="clip0_672_12453">
<rect width="48" height="48" fill="white" transform="translate(4)"/>
</clipPath>
</defs>
</svg>
