<svg width="24" height="24" viewBox="0 0 24 24" fill="none" xmlns="http://www.w3.org/2000/svg">
<path d="M13.797 2.79761C12.5991 2.79761 11.4503 3.27345 10.6033 4.12046C9.7563 4.96747 9.28046 6.11626 9.28046 7.31411C9.28046 10.8491 12.729 15.1021 13.6325 16.1466C13.681 16.2021 13.7495 16.2362 13.823 16.2413C13.8966 16.2465 13.9692 16.2223 14.025 16.1741L14.0525 16.1466C14.944 15.0981 18.314 10.8486 18.314 7.31411C18.314 6.72095 18.1971 6.1336 17.9701 5.5856C17.7431 5.0376 17.4104 4.53969 16.9909 4.12028C16.5715 3.70088 16.0735 3.36821 15.5255 3.14126C14.9775 2.91432 14.3901 2.79754 13.797 2.79761ZM13.797 9.22511C13.3585 9.22501 12.93 9.09491 12.5654 8.85127C12.2009 8.60762 11.9169 8.26137 11.7491 7.85629C11.5814 7.4512 11.5375 7.00548 11.6231 6.57547C11.7086 6.14546 11.9198 5.75047 12.2298 5.44045C12.5398 5.13043 12.9348 4.91929 13.3648 4.83373C13.7948 4.74817 14.2406 4.79203 14.6456 4.95977C15.0507 5.12751 15.397 5.41159 15.6406 5.7761C15.8843 6.1406 16.0144 6.56917 16.0145 7.00761V7.01311C16.0131 7.60031 15.7789 8.16301 15.3632 8.57771C14.9474 8.99241 14.3842 9.22524 13.797 9.22511Z" stroke="#777777" stroke-linecap="round" stroke-linejoin="round"/>
<path d="M18.2269 8.33907L18.8144 8.29907L21.2499 20.3036L16.1879 21.2026M16.1879 21.2026L8.23044 20.3616L2.74994 21.2026L4.22894 8.87907L8.72344 8.29907M16.1879 21.2026L15.3329 14.4911M8.72344 8.29907L9.36794 8.33107M8.72344 8.29907L8.40244 20.3801" stroke="#777777" stroke-linecap="round" stroke-linejoin="round"/>
</svg>
