<svg width="48" height="48" viewBox="0 0 48 48" fill="none" xmlns="http://www.w3.org/2000/svg">
<path d="M36.75 0H11.25C5.0368 0 0 5.0368 0 11.25V36.75C0 42.9632 5.0368 48 11.25 48H36.75C42.9632 48 48 42.9632 48 36.75V11.25C48 5.0368 42.9632 0 36.75 0Z" fill="white"/>
<path d="M36.75 0H11.25C5.0368 0 0 5.0368 0 11.25V36.75C0 42.9632 5.0368 48 11.25 48H36.75C42.9632 48 48 42.9632 48 36.75V11.25C48 5.0368 42.9632 0 36.75 0Z" fill="#0A66C2"/>
<path d="M32.1922 37H36.4201C36.5733 37 36.7202 36.939 36.8286 36.8305C36.9369 36.722 36.9978 36.5748 36.9978 36.4214L37 27.473C37 22.7959 35.9939 19.2009 30.5378 19.2009C28.4638 19.1236 26.5078 20.1947 25.4524 21.9831C25.4472 21.9918 25.4394 21.9986 25.43 22.0024C25.4207 22.0062 25.4103 22.0068 25.4006 22.0042C25.3909 22.0015 25.3822 21.9958 25.3761 21.9877C25.3699 21.9797 25.3665 21.9699 25.3664 21.9598V20.2115C25.3664 20.0579 25.3056 19.9107 25.1972 19.8022C25.0889 19.6936 24.9419 19.6327 24.7887 19.6327H20.7764C20.6232 19.6327 20.4762 19.6936 20.3679 19.8022C20.2595 19.9107 20.1987 20.0579 20.1987 20.2115V36.4205C20.1987 36.574 20.2595 36.7212 20.3679 36.8298C20.4762 36.9383 20.6232 36.9993 20.7764 36.9993H25.004C25.1573 36.9993 25.3042 36.9383 25.4126 36.8298C25.5209 36.7212 25.5818 36.574 25.5818 36.4205V28.4081C25.5818 26.1426 26.0108 23.9486 28.8146 23.9486C31.5786 23.9486 31.6144 26.541 31.6144 28.5549V36.4212C31.6144 36.5747 31.6753 36.7219 31.7836 36.8305C31.892 36.939 32.0389 37 32.1922 37ZM11 14.1294C11 15.8462 12.4108 17.2588 14.1246 17.2588C15.838 17.2586 17.2479 15.8452 17.2479 14.1288C17.2477 12.4124 15.8376 11 14.124 11C12.4101 11 11 12.4127 11 14.1294ZM12.0052 37H16.2384C16.3917 37 16.5386 36.939 16.647 36.8305C16.7553 36.7219 16.8162 36.5747 16.8162 36.4212V20.2115C16.8162 20.0579 16.7553 19.9107 16.647 19.8022C16.5386 19.6936 16.3917 19.6327 16.2384 19.6327H12.0052C11.852 19.6327 11.705 19.6936 11.5966 19.8022C11.4883 19.9107 11.4274 20.0579 11.4274 20.2115V36.4212C11.4274 36.5747 11.4883 36.7219 11.5966 36.8305C11.705 36.939 11.852 37 12.0052 37Z" fill="white"/>
</svg>
