<svg width="15" height="16" viewBox="0 0 15 16" fill="none" xmlns="http://www.w3.org/2000/svg">
<path d="M14.2502 14.7499L10.9929 11.4927M10.9929 11.4927C11.5501 10.9355 11.992 10.274 12.2936 9.54607C12.5951 8.8181 12.7503 8.03786 12.7503 7.24991C12.7503 6.46196 12.5951 5.68172 12.2936 4.95375C11.992 4.22578 11.5501 3.56433 10.9929 3.00716C10.4357 2.44999 9.77429 2.00803 9.04631 1.70649C8.31834 1.40495 7.53811 1.24976 6.75015 1.24976C5.9622 1.24976 5.18197 1.40495 4.45399 1.70649C3.72602 2.00803 3.06457 2.44999 2.5074 3.00716C1.38216 4.13241 0.75 5.65857 0.75 7.24991C0.75 8.84125 1.38216 10.3674 2.5074 11.4927C3.63265 12.6179 5.15881 13.2501 6.75015 13.2501C8.34149 13.2501 9.86766 12.6179 10.9929 11.4927Z" stroke="white" stroke-linecap="round" stroke-linejoin="round"/>
</svg>
