<svg width="60" height="60" viewBox="0 0 60 60" fill="none" xmlns="http://www.w3.org/2000/svg">
<path d="M22.4887 42.1674L22.6352 42.3139H22.8423H25.7738H25.9809L26.1273 42.1674L44.955 23.3397L45.3085 22.9862L44.955 22.6326L42.0235 19.7011L41.6695 19.3472L41.316 19.7016L24.3282 36.7297L16.7548 29.1563L16.4012 28.8027L16.0477 29.1563L13.1162 32.0878L12.7626 32.4413L13.1162 32.7949L22.4887 42.1674Z" fill="#16D973" stroke="#16D973"/>
<path d="M50.1703 8.97946L50.164 8.97267L50.1574 8.96613C45.5467 4.35541 39.2438 0.984784 32.4938 0.562907C25.7891 0.143866 19.0723 1.81818 13.6051 5.60061C7.71785 9.38774 3.93969 14.8558 1.84598 21.5527C-0.257988 27.8686 0.167415 35.0079 2.68335 41.2977C5.20601 47.6043 9.82881 52.6428 15.699 55.9972C21.5961 59.3669 28.3256 60.2022 35.0321 58.9447C41.7647 57.6824 47.6445 53.8981 51.8395 48.8641L51.8458 48.8566L51.8517 48.8488C56.0348 43.4108 58.5616 37.113 58.5616 30.3769C58.5616 21.9903 55.6218 14.8504 50.1703 8.97946ZM53.0198 29.964V29.9819L53.0211 29.9997C53.4232 35.629 51.417 40.8781 48.1692 45.3481C44.5284 49.793 39.6763 52.623 34.4146 53.8372C29.1706 55.0474 23.5205 54.241 18.6764 51.4152C13.8131 48.5783 10.1662 44.5284 7.73044 39.2509C5.31334 34.0139 5.30673 28.363 6.92858 23.092L6.92867 23.092L6.93145 23.0823C8.55163 17.4117 11.7876 12.963 16.2412 9.72405C20.6698 6.50326 26.3265 5.2838 31.5985 5.68934L31.6012 5.68954C37.2488 6.09294 42.0939 8.5101 46.1472 12.5634C50.5848 17.001 53.0198 23.4749 53.0198 29.964Z" fill="#16D973" stroke="#16D973"/>
</svg>
