<svg width="48" height="48" viewBox="0 0 48 48" fill="none" xmlns="http://www.w3.org/2000/svg">
<path d="M10.1199 6.00002C9.25994 6.00002 8.43994 6.28002 7.67994 6.84002C6.91994 7.40002 6.47994 8.12002 6.27994 9.00002L4.21994 17.82C3.71994 20 4.11994 21.84 5.37994 23.46C5.59994 23.68 5.79994 23.88 5.99994 24.06V38C5.99994 39 6.39994 40 7.21994 40.78C8.03994 41.56 8.99994 42 9.99994 42H25.5999C24.8999 40.78 24.3999 39.44 24.1599 38H9.99994V26H10.4399C12.3199 26 13.8199 25.18 14.9399 24.1C16.1999 25.34 17.7199 26 19.5999 26C21.2799 26 22.8799 25.26 23.9999 24.14C25.3599 25.4 26.8999 26 28.5999 26C30.3399 26 31.8199 25.34 33.0799 24.1C34.2199 25.24 35.7199 26 37.6199 26C39.5199 26 40.8599 25.3 41.9999 24.12L42.2599 23.84L42.5599 23.54C43.8799 21.9 44.2799 20 43.7799 17.82L41.7199 9.00002C41.4599 8.12002 40.9999 7.40002 40.2599 6.84002C39.5871 6.29417 38.7464 5.99744 37.8799 6.00002M37.7799 9.94002L39.9399 18.76C40.1199 19.62 39.9399 20.4 39.3799 21.1C38.8799 21.72 38.2599 22 37.4999 22C36.8799 22 36.3399 21.8 35.8999 21.32C35.4599 20.86 35.2199 20.32 35.1599 19.68L33.9399 10M10.1199 10H14.0599L12.8399 19.68C12.5999 21.26 11.8199 22 10.4999 22C9.67994 22 9.05994 21.72 8.61994 21.1C8.05994 20.4 7.87994 19.62 8.05994 18.76M18.0999 10H21.9999V19.4C21.9999 20.1 21.7799 20.7 21.2799 21.24C20.7799 21.76 20.1599 22 19.3999 22C18.7199 22 18.1399 21.76 17.6799 21.18C17.2199 20.6 16.9999 20 16.9999 19.32V19M25.9999 10H29.8999L30.9999 19C31.1599 19.84 30.9999 20.54 30.4199 21.14C29.8999 21.74 29.2199 22 28.3999 22C27.7799 22 27.2199 21.76 26.7199 21.24C26.4849 20.9957 26.3004 20.7074 26.1768 20.3917C26.0533 20.076 25.9932 19.739 25.9999 19.4M33.9999 42L28.4999 36L30.8199 33.68L33.9999 36.86L41.1799 29.68L43.4999 32.5L33.9999 42Z" fill="#141414"/>
</svg>
