<svg width="31" height="31" viewBox="0 0 31 31" fill="none" xmlns="http://www.w3.org/2000/svg">
<path d="M15.5186 15.6911C14.9686 15.6911 14.4976 15.4913 14.1056 15.0918C13.7142 14.693 13.5186 14.2134 13.5186 13.6529C13.5186 13.0924 13.7142 12.6124 14.1056 12.2129C14.4976 11.8141 14.9686 11.6146 15.5186 11.6146C16.0686 11.6146 16.5392 11.8141 16.9306 12.2129C17.3226 12.6124 17.5186 13.0924 17.5186 13.6529C17.5186 14.2134 17.3226 14.693 16.9306 15.0918C16.5392 15.4913 16.0686 15.6911 15.5186 15.6911ZM15.5186 25.5C15.6519 25.5 15.7852 25.4745 15.9186 25.4236C16.0519 25.3726 16.1686 25.3047 16.2686 25.2197C18.7019 23.0287 20.5186 20.9949 21.7186 19.1183C22.9186 17.2411 23.5186 15.4873 23.5186 13.8567C23.5186 11.3089 22.7142 9.27919 21.1056 7.76752C19.4976 6.25584 17.6352 5.5 15.5186 5.5C13.4019 5.5 11.5396 6.25584 9.93155 7.76752C8.32289 9.27919 7.51855 11.3089 7.51855 13.8567C7.51855 15.4873 8.11855 17.2411 9.31855 19.1183C10.5186 20.9949 12.3352 23.0287 14.7686 25.2197C14.8686 25.3047 14.9852 25.3726 15.1186 25.4236C15.2519 25.4745 15.3852 25.5 15.5186 25.5Z" fill="#F0AE44"/>
<rect x="1.01855" y="1" width="29" height="29" rx="14.5" stroke="#F0AE44"/>
</svg>
