<svg width="11" height="14" viewBox="0 0 11 14" fill="none" xmlns="http://www.w3.org/2000/svg">
<path d="M5.4 6.75C5.77125 6.75 6.08918 6.6177 6.35378 6.3531C6.61838 6.0885 6.75045 5.7708 6.75 5.4C6.75 5.02875 6.6177 4.71082 6.3531 4.44623C6.0885 4.18162 5.7708 4.04955 5.4 4.05C5.02875 4.05 4.71082 4.1823 4.44623 4.4469C4.18162 4.7115 4.04955 5.0292 4.05 5.4C4.05 5.77125 4.1823 6.08918 4.4469 6.35378C4.7115 6.61838 5.0292 6.75045 5.4 6.75ZM5.4 13.5C3.58875 11.9587 2.23605 10.5273 1.3419 9.20565C0.44775 7.884 0.00045 6.66045 0 5.535C0 3.8475 0.542925 2.50312 1.62878 1.50187C2.71463 0.500625 3.9717 0 5.4 0C6.82875 0 8.08605 0.500625 9.1719 1.50187C10.2577 2.50312 10.8005 3.8475 10.8 5.535C10.8 6.66 10.3527 7.88355 9.4581 9.20565C8.5635 10.5278 7.2108 11.9592 5.4 13.5Z" fill="#B89635"/>
</svg>
