<svg width="20" height="21" viewBox="0 0 20 21" fill="none" xmlns="http://www.w3.org/2000/svg">
<path d="M14.6076 20.5C6.55254 20.5 0 13.9475 0 5.89243C0.00170702 4.57297 0.483248 3.29918 1.35483 2.30857C2.22641 1.31797 3.42853 0.67817 4.73703 0.508491C5.00627 0.477109 5.27846 0.533214 5.51334 0.668507C5.74823 0.8038 5.93333 1.0111 6.04128 1.25974L8.13851 6.15328C8.2197 6.34316 8.25266 6.55019 8.23446 6.7559C8.21625 6.96162 8.14744 7.15964 8.03417 7.33232L6.30212 9.98255C6.26154 10.0416 6.23727 10.1103 6.23177 10.1818C6.22627 10.2533 6.23975 10.3249 6.27082 10.3895C7.09319 12.0766 8.46077 13.4368 10.1523 14.25C10.215 14.2813 10.285 14.2949 10.3549 14.2894C10.4247 14.2839 10.4917 14.2594 10.5488 14.2187L13.1677 12.4763C13.3403 12.3586 13.5398 12.2864 13.7477 12.2664C13.9556 12.2463 14.1652 12.279 14.3572 12.3615L19.2403 14.4587C19.4889 14.5667 19.6962 14.7518 19.8315 14.9867C19.9668 15.2215 20.0229 15.4937 19.9915 15.763C19.8218 17.0715 19.182 18.2736 18.1914 19.1452C17.2008 20.0168 15.927 20.4983 14.6076 20.5ZM4.89354 1.33278H4.84137C3.73392 1.47713 2.71678 2.01932 1.97958 2.85826C1.24239 3.6972 0.83548 4.77561 0.834719 5.89243C0.837482 9.54437 2.28943 13.0459 4.87175 15.6283C7.45406 18.2106 10.9556 19.6625 14.6076 19.6653C15.7244 19.6645 16.8028 19.2576 17.6417 18.5204C18.4807 17.7832 19.0229 16.7661 19.1672 15.6586C19.1759 15.5687 19.1552 15.4784 19.1081 15.4012C19.0611 15.3241 18.9903 15.2643 18.9064 15.2308L14.0233 13.1336C13.9598 13.1054 13.8903 13.0935 13.8211 13.099C13.7518 13.1045 13.685 13.1271 13.6268 13.1649L11.0183 14.9074C10.8391 15.0291 10.6312 15.1018 10.4152 15.1182C10.1992 15.1347 9.98266 15.0944 9.78708 15.0013C7.93058 14.1016 6.42838 12.6067 5.51958 10.7547C5.42697 10.5594 5.38602 10.3437 5.40063 10.1282C5.41525 9.91259 5.48494 9.70438 5.60305 9.52345L7.33509 6.87322C7.3738 6.81533 7.397 6.74848 7.40248 6.67906C7.40796 6.60964 7.39553 6.53997 7.36639 6.47673L5.26916 1.59363C5.23989 1.51752 5.18844 1.45196 5.12146 1.40544C5.05448 1.35893 4.97508 1.33361 4.89354 1.33278Z" fill="#B89635"/>
</svg>
