<svg width="28" height="27" viewBox="0 0 28 27" fill="none" xmlns="http://www.w3.org/2000/svg">
<path d="M18.671 13.64C19.3557 14.1739 19.9095 14.857 20.2901 15.6374C20.6708 16.4177 20.8683 17.2746 20.8676 18.1429C20.8676 18.6971 20.7876 19.2343 20.6413 19.7417C20.9312 19.5247 21.2685 19.3796 21.6254 19.3185C21.9824 19.2574 22.3487 19.2819 22.6943 19.3902C23.0399 19.4984 23.3548 19.6872 23.6131 19.941C23.8714 20.1947 24.0657 20.5063 24.1801 20.8499C24.2944 21.1935 24.3254 21.5594 24.2706 21.9173C24.2158 22.2753 24.0767 22.6151 23.8649 22.9088C23.653 23.2024 23.3744 23.4416 23.052 23.6065C22.7296 23.7713 22.3726 23.8573 22.0104 23.8571H9.43902C8.98309 23.8585 8.53146 23.769 8.11056 23.5937C7.68966 23.4184 7.30794 23.161 6.98775 22.8364C6.66756 22.5118 6.41532 22.1266 6.2458 21.7034C6.07628 21.2801 5.99288 20.8273 6.00048 20.3714C6.00808 19.9156 6.10653 19.4658 6.29006 19.0484C6.4736 18.6311 6.73854 18.2545 7.06937 17.9408C7.4002 17.627 7.79029 17.3824 8.2168 17.2213C8.64331 17.0602 9.09767 16.9857 9.55331 17.0023C9.82741 15.657 10.5767 14.4553 11.6642 13.6171M12.8676 11.2857L15.1533 9M15.1533 9L17.439 11.2857M15.1533 9V19.2857" stroke="#EBC03F" stroke-width="1.5" stroke-linecap="round" stroke-linejoin="round"/>
</svg>
